<svg width="24" height="23" viewBox="0 0 24 23" fill="none" xmlns="http://www.w3.org/2000/svg">
<path d="M23.7201 0.164867C23.5116 -0.00313534 23.2236 -0.0466361 22.9716 0.0523655L0.471244 9.05251C0.19374 9.16351 0.00773718 9.42901 0.000237062 9.72902C-0.00726306 10.029 0.16374 10.3035 0.436744 10.4295L7.50035 13.6906L23.2506 0.748376L10.5004 15.0751V22.4987L15.8225 17.5321L19.9355 19.4297C20.0361 19.4747 20.1441 19.4987 20.2506 19.4987C20.3706 19.4987 20.4921 19.4687 20.6001 19.4117C20.8086 19.3022 20.9511 19.1027 20.9901 18.8717L23.9901 0.871378C24.0336 0.605874 23.9316 0.33437 23.7201 0.164867Z" fill="white"/>
</svg>
