<svg width="24" height="20" viewBox="0 0 24 20" fill="none" xmlns="http://www.w3.org/2000/svg">
<path d="M12.0072 17.014C12.0072 17.4368 11.7629 17.8209 11.3806 18.0002C11.2328 18.0701 11.0744 18.1039 10.9171 18.1039C10.6679 18.1039 10.421 18.0183 10.2216 17.8529L4.26329 12.9156H1.08988C0.488059 12.9161 0 12.4278 0 11.826V7.48373C0 6.88166 0.488059 6.3936 1.08988 6.3936H4.26355L10.2219 1.45626C10.5474 1.18644 10.9989 1.12891 11.3809 1.30948C11.7629 1.48876 12.0075 1.87312 12.0075 2.29566L12.0072 17.014ZM16.1957 15.311C16.1691 15.3128 16.1436 15.3138 16.1173 15.3138C15.8294 15.3138 15.5518 15.2001 15.3468 14.9947L15.201 14.8485C14.8187 14.4669 14.7738 13.8625 15.0958 13.4287C15.9119 12.3282 16.3427 11.0237 16.3427 9.65523C16.3427 8.18332 15.8537 6.80272 14.9281 5.66254C14.5757 5.22917 14.6082 4.59975 15.0032 4.20507L15.1486 4.05933C15.3664 3.84161 15.6581 3.72295 15.9739 3.74178C16.2813 3.75726 16.5685 3.90197 16.7635 4.14033C18.0473 5.7113 18.7255 7.61865 18.7255 9.65549C18.7255 11.5525 18.1258 13.3582 16.9907 14.8766C16.8011 15.1296 16.5112 15.2885 16.1957 15.311ZM20.7017 18.6792C20.5047 18.9121 20.2196 19.0519 19.9144 19.0648C19.8995 19.0653 19.8843 19.0658 19.8688 19.0658C19.5801 19.0658 19.3031 18.9518 19.098 18.7467L18.9548 18.6036C18.5547 18.2037 18.5277 17.5643 18.8914 17.1314C20.6491 15.0409 21.6175 12.386 21.6175 9.65523C21.6175 6.81485 20.5807 4.08048 18.6989 1.95593C18.3174 1.52462 18.3368 0.871726 18.7428 0.46415L18.8857 0.320983C19.0977 0.107909 19.3732 -0.00946276 19.6892 0.000597648C19.9893 0.0091103 20.273 0.141701 20.4724 0.366126C22.7471 2.92714 24 6.22644 24 9.65523C24.0005 12.9543 22.8291 16.1592 20.7017 18.6792Z" fill="white"/>
</svg>
