<svg width="23" height="18" viewBox="0 0 23 18" fill="none" xmlns="http://www.w3.org/2000/svg">
<path d="M21.9207 6.5296C21.4812 6.09015 20.7693 6.09015 20.3298 6.5296L18.9635 7.8958L17.5972 6.5296C17.1577 6.09015 16.4458 6.09015 16.0063 6.5296C15.5669 6.96906 15.5669 7.68133 16.0063 8.12042L17.3726 9.48657L16.0063 10.8527C15.5669 11.2922 15.5669 12.0041 16.0063 12.4435C16.2261 12.6633 16.5139 12.7731 16.8018 12.7731C17.0896 12.7731 17.3774 12.6633 17.5972 12.4435L18.9635 11.0773L20.3298 12.4435C20.5496 12.6633 20.8374 12.7731 21.1253 12.7731C21.4131 12.7731 21.7009 12.6633 21.9207 12.4435C22.3601 12.0041 22.3601 11.2922 21.9207 10.8527L20.5544 9.48657L21.9207 8.12042C22.3601 7.68133 22.3601 6.96906 21.9207 6.5296V6.5296Z" fill="white"/>
<path d="M12.0072 16.0087C12.0072 16.4315 11.7629 16.8156 11.3806 16.9949C11.2328 17.0648 11.0744 17.0986 10.9171 17.0986C10.6679 17.0986 10.421 17.013 10.2216 16.8476L4.26329 11.9103H1.08988C0.488059 11.9108 0 11.4225 0 10.8206V6.47842C0 5.87635 0.488059 5.38829 1.08988 5.38829H4.26355L10.2219 0.450951C10.5474 0.181126 10.9989 0.123601 11.3809 0.304172C11.7629 0.483454 12.0075 0.867813 12.0075 1.29035L12.0072 16.0087Z" fill="white"/>
</svg>
