<svg width="624" height="183" viewBox="0 0 624 183" fill="none" xmlns="http://www.w3.org/2000/svg">
<g clip-path="url(#clip0_842_2412)">
<path d="M556.932 113.119L556.932 -60.1201" stroke="#EEE0D2" stroke-width="2.07546"/>
<path d="M581.071 143.846C581.101 148.78 579.668 153.612 576.953 157.731C574.238 161.851 570.362 165.072 565.817 166.988C561.271 168.904 556.26 169.429 551.416 168.496C546.573 167.564 542.114 165.215 538.605 161.748C535.096 158.28 532.693 153.85 531.701 149.016C530.709 144.183 531.172 139.164 533.032 134.594C534.891 130.024 538.064 126.108 542.148 123.342C546.232 120.575 551.045 119.082 555.978 119.052C559.254 119.028 562.502 119.651 565.538 120.885C568.573 122.119 571.335 123.94 573.666 126.243C575.996 128.546 577.85 131.286 579.121 134.307C580.392 137.327 581.054 140.569 581.071 143.846Z" fill="url(#paint0_radial_842_2412)"/>
<path d="M552.935 119.385C552.935 119.155 551.785 112.023 551.785 112.023C551.785 112.023 561.802 112.407 561.623 112.432C561.444 112.458 560.32 119.513 560.32 119.513L552.935 119.385Z" fill="#FABB3F"/>
<path d="M550.766 120.637C550.766 120.637 533.492 125.238 532.47 143.412C531.448 161.586 551.379 167.797 551.379 167.797C551.379 167.797 535.587 160.129 536.993 143.131C538.398 126.133 550.766 120.637 550.766 120.637Z" fill="url(#paint1_radial_842_2412)"/>
<path d="M560.908 120.637C560.908 120.637 578.31 125.136 579.205 143.31C580.099 161.484 560.27 167.695 560.27 167.695C560.27 167.695 576.751 159.337 575.346 142.466C575.177 137.852 573.74 133.374 571.193 129.523C568.646 125.672 565.088 122.598 560.908 120.637Z" fill="url(#paint2_radial_842_2412)"/>
<path d="M551.07 120.792C551.07 120.792 543.404 127.08 543.404 140.474C543.404 153.868 556.309 169 556.309 169C553.341 160.218 551.378 151.129 550.457 141.905C550.093 134.862 550.299 127.802 551.07 120.792Z" fill="url(#paint3_radial_842_2412)"/>
<path d="M557.049 120.382C557.049 120.382 565.405 125.494 567.27 138.888C569.136 152.282 558.199 168.845 558.199 168.845C560.001 159.759 560.756 150.497 560.447 141.239C559.885 134.206 558.748 127.23 557.049 120.382Z" fill="url(#paint4_radial_842_2412)"/>
<path style="mix-blend-mode:multiply" opacity="0.8" d="M540.111 126.387C540.111 126.387 525.136 142.056 536.84 157.342C550.076 174.646 568.577 162.812 568.577 162.812C568.503 160.025 567.709 157.306 566.271 154.918C564.834 152.53 562.802 150.556 560.375 149.188C551.967 144.485 541.772 144.408 539.932 137.328C538.724 133.77 538.787 129.904 540.111 126.387Z" fill="url(#paint5_linear_842_2412)"/>
<path d="M569.673 129.916C569.578 130.647 569.256 131.33 568.751 131.867C568.247 132.404 567.585 132.768 566.862 132.907C565.635 132.907 563.412 131.45 563.412 130.223C563.412 128.996 565.635 128.408 566.862 128.408C568.088 128.408 569.673 128.664 569.673 129.916Z" fill="white"/>
<path d="M529.918 60.5261L529.919 -95.9199" stroke="#EEE0D2"/>
<path d="M545.172 80.4803C545.194 83.6626 544.272 86.7801 542.523 89.4385C540.774 92.0969 538.277 94.1768 535.346 95.4152C532.415 96.6536 529.183 96.9949 526.058 96.3959C522.934 95.7969 520.057 94.2845 517.791 92.05C515.526 89.8155 513.974 86.9592 513.331 83.8423C512.689 80.7255 512.985 77.488 514.182 74.5393C515.379 71.5907 517.423 69.0632 520.055 67.2766C522.688 65.49 525.792 64.5245 528.973 64.5021C531.086 64.4873 533.18 64.8887 535.138 65.6837C537.095 66.4786 538.877 67.6515 540.381 69.1352C541.885 70.6189 543.082 72.3845 543.904 74.3311C544.727 76.2777 545.157 78.3672 545.172 80.4803Z" fill="url(#paint6_radial_842_2412)"/>
<path d="M537.48 74.1962C537.425 74.6654 537.224 75.1056 536.906 75.4545C536.587 75.8034 536.167 76.0434 535.705 76.1406C534.888 76.1406 533.451 75.2107 533.451 74.3934C533.451 73.5762 534.86 73.238 535.677 73.238C536.494 73.238 537.48 73.3789 537.48 74.1962Z" fill="white"/>
<path style="mix-blend-mode:multiply" opacity="0.8" d="M518.746 69.2087C518.746 69.2087 509.083 79.3254 516.634 89.1885C525.085 100.461 537.086 92.711 537.086 92.711C537.042 90.9151 536.534 89.1613 535.611 87.6205C534.687 86.0796 533.381 84.8043 531.818 83.9188C526.381 80.9035 519.817 80.8471 518.634 76.282C517.858 73.9813 517.898 71.4835 518.746 69.2087Z" fill="url(#paint7_linear_842_2412)"/>
<path d="M525.985 64.9244C525.985 64.7271 524.887 58.0203 524.887 58.0203C524.887 58.0203 534.296 58.3866 534.127 58.4148C533.958 58.443 532.916 65.0653 532.916 65.0653L525.985 64.9244Z" fill="#FABB3F"/>
<path d="M102.168 125.87L102.168 -51.2402" stroke="#EEE0D2" stroke-width="2.07546"/>
<path d="M77.5348 157.284C77.5039 162.329 78.9664 167.269 81.7372 171.48C84.508 175.691 88.4627 178.985 93.1012 180.944C97.7398 182.903 102.854 183.439 107.797 182.486C112.739 181.532 117.289 179.131 120.87 175.586C124.451 172.041 126.903 167.512 127.915 162.57C128.928 157.629 128.455 152.498 126.558 147.826C124.66 143.153 121.423 139.15 117.255 136.322C113.087 133.494 108.175 131.967 103.142 131.936C99.7987 131.912 96.4836 132.549 93.3863 133.81C90.2891 135.072 87.4705 136.933 85.092 139.288C82.7134 141.642 80.8216 144.444 79.5249 147.532C78.2281 150.62 77.5518 153.934 77.5348 157.284Z" fill="url(#paint8_radial_842_2412)"/>
<path d="M106.246 132.276C106.246 132.041 107.42 124.75 107.42 124.75C107.42 124.75 97.198 125.142 97.3805 125.168C97.563 125.194 98.7104 132.407 98.7104 132.407L106.246 132.276Z" fill="#FABB3F"/>
<path d="M108.46 133.557C108.46 133.557 126.088 138.26 127.131 156.84C128.174 175.42 107.835 181.77 107.835 181.77C107.835 181.77 123.95 173.931 122.516 156.553C121.081 139.175 108.46 133.557 108.46 133.557Z" fill="url(#paint9_radial_842_2412)"/>
<path d="M98.1118 133.557C98.1118 133.557 80.3537 138.156 79.441 156.736C78.5284 175.316 98.7637 181.666 98.7637 181.666C98.7637 181.666 81.9444 173.121 83.3786 155.873C83.5511 151.156 85.0174 146.578 87.6165 142.641C90.2156 138.704 93.8469 135.561 98.1118 133.557Z" fill="url(#paint10_radial_842_2412)"/>
<path d="M108.15 133.715C108.15 133.715 115.973 140.143 115.973 153.837C115.973 167.53 102.804 183 102.804 183C105.832 174.022 107.836 164.73 108.776 155.3C109.147 148.1 108.937 140.881 108.15 133.715Z" fill="url(#paint11_radial_842_2412)"/>
<path d="M102.049 133.295C102.049 133.295 93.5218 138.521 91.6182 152.215C89.7147 165.908 100.875 182.841 100.875 182.841C99.0362 173.553 98.2663 164.083 98.5807 154.619C99.1549 147.428 100.315 140.296 102.049 133.295Z" fill="url(#paint12_radial_842_2412)"/>
<path style="mix-blend-mode:multiply" opacity="0.8" d="M119.334 139.435C119.334 139.435 134.615 155.454 122.672 171.081C109.165 188.772 90.2852 176.673 90.2852 176.673C90.3606 173.824 91.1713 171.044 92.6383 168.603C94.1053 166.162 96.1785 164.143 98.6558 162.744C107.235 157.936 117.639 157.858 119.517 150.619C120.75 146.982 120.685 143.029 119.334 139.435Z" fill="url(#paint13_linear_842_2412)"/>
<path d="M89.1679 143.043C89.2641 143.79 89.5932 144.488 90.1082 145.037C90.6232 145.586 91.298 145.958 92.0363 146.1C93.288 146.1 95.5566 144.611 95.5566 143.356C95.5566 142.102 93.288 141.501 92.0363 141.501C90.7847 141.501 89.1679 141.762 89.1679 143.043Z" fill="white"/>
<path d="M129.734 72.1021L129.733 -87.8399" stroke="#EEE0D2"/>
<path d="M114.17 92.5021C114.147 95.7556 115.087 98.9427 116.872 101.661C118.657 104.378 121.206 106.505 124.197 107.771C127.187 109.037 130.486 109.386 133.674 108.773C136.863 108.161 139.799 106.615 142.11 104.33C144.422 102.046 146.006 99.1258 146.662 95.9393C147.317 92.7528 147.016 89.443 145.794 86.4284C144.573 83.4139 142.487 80.83 139.8 79.0034C137.113 77.1769 133.946 76.1898 130.7 76.1669C128.544 76.1517 126.407 76.5622 124.409 77.3749C122.412 78.1876 120.594 79.3866 119.059 80.9035C117.524 82.4204 116.302 84.2254 115.463 86.2155C114.624 88.2056 114.185 90.3418 114.17 92.5021Z" fill="url(#paint14_radial_842_2412)"/>
<path d="M122.02 86.0767C122.076 86.5564 122.281 87.0065 122.606 87.3632C122.931 87.7199 123.359 87.9652 123.831 88.0646C124.665 88.0646 126.131 87.1139 126.131 86.2784C126.131 85.4429 124.693 85.0972 123.86 85.0972C123.026 85.0972 122.02 85.2412 122.02 86.0767Z" fill="white"/>
<path style="mix-blend-mode:multiply" opacity="0.8" d="M141.134 80.978C141.134 80.978 150.994 91.3208 143.29 101.404C134.665 112.928 122.418 105.005 122.418 105.005C122.463 103.169 122.982 101.376 123.924 99.8012C124.866 98.2259 126.2 96.9221 127.794 96.0168C133.343 92.9342 140.041 92.8765 141.249 88.2093C142.04 85.8572 142 83.3036 141.134 80.978Z" fill="url(#paint15_linear_842_2412)"/>
<path d="M133.748 76.598C133.748 76.3963 134.869 69.5396 134.869 69.5396C134.869 69.5396 125.267 69.9141 125.44 69.9429C125.612 69.9717 126.676 76.742 126.676 76.742L133.748 76.598Z" fill="#FABB3F"/>
<path d="M56.2812 87.7974L56.2801 -72.1446" stroke="#EEE0D2"/>
<path d="M40.7164 108.197C40.6937 111.451 41.6343 114.638 43.4191 117.356C45.2039 120.074 47.7529 122.2 50.7436 123.466C53.7344 124.732 57.0326 125.081 60.2212 124.469C63.4098 123.856 66.3456 122.31 68.6573 120.026C70.969 117.741 72.5529 114.821 73.2086 111.635C73.8643 108.448 73.5624 105.138 72.341 102.124C71.1197 99.1092 69.0337 96.5253 66.347 94.6987C63.6603 92.8722 60.4934 91.8851 57.2468 91.8622C55.0911 91.847 52.9535 92.2575 50.9561 93.0702C48.9587 93.8829 47.1406 95.082 45.6056 96.5988C44.0706 98.1157 42.8487 99.9207 42.0098 101.911C41.171 103.901 40.7314 106.037 40.7164 108.197Z" fill="url(#paint16_radial_842_2412)"/>
<path d="M48.5667 101.772C48.6227 102.252 48.8276 102.702 49.1526 103.058C49.4776 103.415 49.9062 103.661 50.3778 103.76C51.2115 103.76 52.6777 102.809 52.6777 101.974C52.6777 101.138 51.2403 100.792 50.4066 100.792C49.5729 100.792 48.5667 100.937 48.5667 101.772Z" fill="white"/>
<path style="mix-blend-mode:multiply" opacity="0.8" d="M67.6806 96.6733C67.6806 96.6733 77.5413 107.016 69.8367 117.1C61.2121 128.624 48.9652 120.701 48.9652 120.701C49.0102 118.865 49.5291 117.072 50.4712 115.497C51.4134 113.921 52.7467 112.617 54.3412 111.712C59.8897 108.629 66.5881 108.572 67.7955 103.905C68.5873 101.553 68.5467 98.999 67.6806 96.6733Z" fill="url(#paint17_linear_842_2412)"/>
<path d="M60.2948 92.2933C60.2948 92.0916 61.416 85.2349 61.416 85.2349C61.416 85.2349 51.814 85.6094 51.9865 85.6382C52.159 85.667 53.2227 92.4373 53.2227 92.4373L60.2948 92.2933Z" fill="#FABB3F"/>
<g filter="url(#filter0_f_842_2412)">
<path d="M123.5 63L124.146 85.3807L143.852 74.75L124.792 86.5L143.852 98.25L124.146 87.6193L123.5 110L122.854 87.6193L103.148 98.25L122.208 86.5L103.148 74.75L122.854 85.3807L123.5 63Z" fill="white"/>
</g>
<path d="M124.206 71L124.624 85.4816L137.375 78.6029L125.042 86.2059L137.375 93.8088L124.624 86.9302L124.206 101.412L123.788 86.9302L111.037 93.8088L123.37 86.2059L111.037 78.6029L123.788 85.4816L124.206 71Z" fill="white"/>
</g>
<defs>
<filter id="filter0_f_842_2412" x="92.8939" y="52.7455" width="61.2122" height="67.5091" filterUnits="userSpaceOnUse" color-interpolation-filters="sRGB">
<feFlood flood-opacity="0" result="BackgroundImageFix"/>
<feBlend mode="normal" in="SourceGraphic" in2="BackgroundImageFix" result="shape"/>
<feGaussianBlur stdDeviation="5.12727" result="effect1_foregroundBlur_842_2412"/>
</filter>
<radialGradient id="paint0_radial_842_2412" cx="0" cy="0" r="1" gradientUnits="userSpaceOnUse" gradientTransform="translate(562.002 137.683) rotate(-0.360106) scale(27.6488 27.6569)">
<stop stop-color="#F2B8B1"/>
<stop offset="1" stop-color="#8A70C5"/>
</radialGradient>
<radialGradient id="paint1_radial_842_2412" cx="0" cy="0" r="1" gradientUnits="userSpaceOnUse" gradientTransform="translate(535.383 142.901) scale(20.4683 20.4743)">
<stop offset="0.01" stop-color="#FBE6DD"/>
<stop offset="1" stop-color="#E6AEAE"/>
</radialGradient>
<radialGradient id="paint2_radial_842_2412" cx="0" cy="0" r="1" gradientUnits="userSpaceOnUse" gradientTransform="translate(576.292 142.773) rotate(180) scale(20.4683 20.4743)">
<stop offset="0.01" stop-color="#FBE6DD"/>
<stop offset="1" stop-color="#E6AEAE"/>
</radialGradient>
<radialGradient id="paint3_radial_842_2412" cx="0" cy="0" r="1" gradientUnits="userSpaceOnUse" gradientTransform="translate(545.321 143.49) scale(19.1651 19.1707)">
<stop offset="0.01" stop-color="#FBE6DD"/>
<stop offset="1" stop-color="#E6AEAE"/>
</radialGradient>
<radialGradient id="paint4_radial_842_2412" cx="0" cy="0" r="1" gradientUnits="userSpaceOnUse" gradientTransform="translate(567.324 139.817) rotate(172.517) scale(19.1364 19.1418)">
<stop offset="0.01" stop-color="#FBE6DD"/>
<stop offset="1" stop-color="#E6AEAE"/>
</radialGradient>
<linearGradient id="paint5_linear_842_2412" x1="556.533" y1="137.487" x2="544.788" y2="164.321" gradientUnits="userSpaceOnUse">
<stop stop-color="white"/>
<stop offset="1" stop-color="#9F4057"/>
</linearGradient>
<radialGradient id="paint6_radial_842_2412" cx="0" cy="0" r="1" gradientUnits="userSpaceOnUse" gradientTransform="translate(532.867 76.4978) rotate(-0.360106) scale(17.8047 17.8099)">
<stop stop-color="#B1F2B4"/>
<stop offset="1" stop-color="#3D7DA2"/>
</radialGradient>
<linearGradient id="paint7_linear_842_2412" x1="529.345" y1="76.3796" x2="521.759" y2="93.6722" gradientUnits="userSpaceOnUse">
<stop stop-color="white"/>
<stop offset="1" stop-color="#9F4057"/>
</linearGradient>
<radialGradient id="paint8_radial_842_2412" cx="0" cy="0" r="1" gradientUnits="userSpaceOnUse" gradientTransform="translate(96.9947 150.984) rotate(-179.639) scale(28.2147 28.2749)">
<stop stop-color="#F2B8B1"/>
<stop offset="1" stop-color="#8A70C5"/>
</radialGradient>
<radialGradient id="paint9_radial_842_2412" cx="0" cy="0" r="1" gradientUnits="userSpaceOnUse" gradientTransform="translate(124.158 156.318) rotate(180) scale(20.8872 20.9318)">
<stop offset="0.01" stop-color="#FBE6DD"/>
<stop offset="1" stop-color="#E6AEAE"/>
</radialGradient>
<radialGradient id="paint10_radial_842_2412" cx="0" cy="0" r="1" gradientUnits="userSpaceOnUse" gradientTransform="translate(82.4137 156.187) scale(20.8872 20.9318)">
<stop offset="0.01" stop-color="#FBE6DD"/>
<stop offset="1" stop-color="#E6AEAE"/>
</radialGradient>
<radialGradient id="paint11_radial_842_2412" cx="0" cy="0" r="1" gradientUnits="userSpaceOnUse" gradientTransform="translate(114.017 156.92) rotate(180) scale(19.5574 19.5991)">
<stop offset="0.01" stop-color="#FBE6DD"/>
<stop offset="1" stop-color="#E6AEAE"/>
</radialGradient>
<radialGradient id="paint12_radial_842_2412" cx="0" cy="0" r="1" gradientUnits="userSpaceOnUse" gradientTransform="translate(91.563 153.165) rotate(7.49667) scale(19.5287 19.569)">
<stop offset="0.01" stop-color="#FBE6DD"/>
<stop offset="1" stop-color="#E6AEAE"/>
</radialGradient>
<linearGradient id="paint13_linear_842_2412" x1="102.575" y1="150.782" x2="114.598" y2="178.2" gradientUnits="userSpaceOnUse">
<stop stop-color="white"/>
<stop offset="1" stop-color="#9F4057"/>
</linearGradient>
<radialGradient id="paint14_radial_842_2412" cx="0" cy="0" r="1" gradientUnits="userSpaceOnUse" gradientTransform="translate(126.726 88.4307) rotate(-179.639) scale(18.1691 18.2079)">
<stop stop-color="#B1F2B4"/>
<stop offset="1" stop-color="#3D7DA2"/>
</radialGradient>
<linearGradient id="paint15_linear_842_2412" x1="130.318" y1="88.3091" x2="138.084" y2="105.978" gradientUnits="userSpaceOnUse">
<stop stop-color="white"/>
<stop offset="1" stop-color="#9F4057"/>
</linearGradient>
<radialGradient id="paint16_radial_842_2412" cx="0" cy="0" r="1" gradientUnits="userSpaceOnUse" gradientTransform="translate(53.2729 104.126) rotate(-179.639) scale(18.1691 18.2079)">
<stop stop-color="#B1F2B4"/>
<stop offset="1" stop-color="#3D7DA2"/>
</radialGradient>
<linearGradient id="paint17_linear_842_2412" x1="56.8654" y1="104.004" x2="64.6307" y2="121.673" gradientUnits="userSpaceOnUse">
<stop stop-color="white"/>
<stop offset="1" stop-color="#9F4057"/>
</linearGradient>
<clipPath id="clip0_842_2412">
<rect width="624" height="183" fill="white"/>
</clipPath>
</defs>
</svg>
