<svg width="132" height="54" viewBox="0 0 132 54" fill="none" xmlns="http://www.w3.org/2000/svg">
<path d="M20.1575 12.2236L30.6089 0.959923L33.4597 3.62417L23.0083 14.8879L20.1575 12.2236Z" fill="white"/>
<path fill-rule="evenodd" clip-rule="evenodd" d="M55.9679 50.2476H57.8507L60.661 53.5334H61.4447L58.6159 50.2382C60.3132 50.1545 61.1897 49.1585 61.1897 47.7716C61.1897 46.3846 60.2854 45.3188 58.4304 45.3188H55.3325V53.5334H55.9679V50.2476ZM58.389 49.6843H55.9682V45.9238H58.389C59.9008 45.9238 60.5779 46.7522 60.5779 47.7854C60.5779 48.8187 59.8962 49.6843 58.389 49.6843Z" fill="white"/>
<path d="M65.943 45.9285V49.0049H70.1167V49.6053H65.943V52.9516H70.3764V53.552H65.3215V45.3188H70.3718V45.9285H65.943Z" fill="white"/>
<path d="M80.1754 51.3042C80.1754 52.8866 78.8537 53.6639 77.2399 53.6639C75.1715 53.6639 74.0956 52.6074 73.8127 51.1553H74.4342C74.7495 52.3979 75.6631 53.0774 77.2167 53.0774C78.6311 53.0774 79.5354 52.4538 79.5354 51.3414C79.5354 50.2291 78.6821 50.0523 76.9987 49.6753C75.1437 49.2517 74.0307 48.8515 74.0307 47.4832C74.0307 46.0404 75.2921 45.1934 76.8828 45.1934C78.6589 45.1934 79.6885 46.0264 80.027 47.1993H79.4473C79.0717 46.2964 78.2184 45.7798 76.9431 45.7798C75.6677 45.7798 74.6846 46.4034 74.6846 47.5065C74.6846 48.3023 75.2318 48.6328 77.1749 49.0656C78.9836 49.4751 80.1754 49.8149 80.1754 51.3042Z" fill="white"/>
<path d="M84.7806 45.9285V49.0049H88.9544V49.6053H84.7806V52.9516H89.2141V53.552H84.1592V45.3188H89.2094V45.9285H84.7806Z" fill="white"/>
<path fill-rule="evenodd" clip-rule="evenodd" d="M94.3106 50.8016H98.3452L99.4536 53.5382H100.121L96.7406 45.3237H95.9105L92.5298 53.5382H93.1976L94.3106 50.8016ZM96.3232 45.8869L98.0994 50.2152H94.5564L96.3232 45.8869Z" fill="white"/>
<path fill-rule="evenodd" clip-rule="evenodd" d="M104.624 50.2476H106.507L109.345 53.5334H110.129L107.3 50.2382C108.998 50.1545 109.874 49.1585 109.874 47.7716C109.874 46.3846 108.947 45.3188 107.092 45.3188H103.994V53.5334H104.624V50.2476ZM107.045 49.6843H104.625V45.9238H107.045C108.553 45.9238 109.23 46.7522 109.23 47.7854C109.23 48.8187 108.553 49.6843 107.045 49.6843Z" fill="white"/>
<path d="M113.385 49.4286C113.352 48.2973 113.785 47.2026 114.582 46.4015C115.378 45.6004 116.468 45.1635 117.595 45.1933C119.309 45.1602 120.852 46.2276 121.431 47.8462H120.763C120.204 46.5829 118.949 45.7755 117.572 45.7937C115.621 45.8638 114.075 47.4715 114.075 49.4309C114.075 51.3903 115.621 52.998 117.572 53.0681C118.949 53.0863 120.204 52.2789 120.763 51.0156H121.431C120.852 52.6342 119.309 53.7016 117.595 53.6685C116.467 53.6984 115.377 53.2609 114.58 52.4587C113.783 51.6566 113.351 50.5606 113.385 49.4286Z" fill="white"/>
<path d="M131.962 45.3188V53.5334H131.341V49.5774H126.036V53.5334H125.414V45.3188H126.036V48.9816H131.341V45.3188H131.962Z" fill="white"/>
<path d="M14.4482 29.8719L17.3745 32.9902C15.9233 34.6336 13.8399 35.574 11.6518 35.5732C9.25579 35.5732 7.39306 34.9046 6.06365 33.5673C4.73423 32.23 4.06952 30.4195 4.06952 28.1359V21.2385H0.962402V17.2313H4.06952V12.7773H8.81368V17.2313H16.0435V21.2385H8.81368V28.1359C8.81368 30.0938 9.81847 31.0727 11.8281 31.0727C12.8287 31.0504 13.7762 30.6162 14.4482 29.8719Z" fill="white"/>
<path d="M20.6577 35.0381V17.2314H25.4065V35.0381H20.6577Z" fill="white"/>
<path fill-rule="evenodd" clip-rule="evenodd" d="M48.0097 19.3676C46.3558 17.6185 44.0447 16.6488 41.6424 16.6961C39.5209 16.6234 37.4863 17.5454 36.1377 19.1907V12.7773H31.4399V35.038H36.1377V33.0739C37.4853 34.7179 39.5178 35.6398 41.6378 35.5686C44.04 35.6158 46.3512 34.6462 48.0051 32.8971C49.7472 31.0884 50.6857 28.649 50.6067 26.1347C50.6882 23.6194 49.7513 21.1782 48.0097 19.3676ZM40.9561 31.2076C39.651 31.2224 38.3892 30.7381 37.4269 29.8533C36.396 28.8949 35.8379 27.5295 35.9012 26.1207C35.8262 24.7291 36.3697 23.3758 37.3852 22.4253C38.3472 21.545 39.6081 21.0672 40.9097 21.0896C42.2062 21.0648 43.4622 21.5433 44.4156 22.4253C45.3926 23.3158 45.8811 24.5569 45.8811 26.1486C45.8811 27.7403 45.4003 28.9814 44.4388 29.8719C43.4956 30.7554 42.246 31.2346 40.9561 31.2076Z" fill="white"/>
<path d="M67.1025 26.8469V17.2314H71.8049V26.8469C71.8049 29.6083 70.933 31.76 69.1893 33.3021C65.6539 36.3877 60.3936 36.3877 56.8582 33.3021C55.1145 31.7507 54.2427 29.599 54.2427 26.8469V17.2314H58.9451V26.8469C58.8734 28.3567 59.6351 29.7836 60.9273 30.5601C62.2196 31.3365 63.8326 31.3365 65.1249 30.5601C66.4171 29.7836 67.1788 28.3567 67.1071 26.8469H67.1025Z" fill="white"/>
<path d="M81.6966 20.8802C83.2427 18.3 86.0627 16.7656 89.0609 16.873V21.6807H87.9062C86.3215 21.6559 84.7803 22.2006 83.5608 23.2165C82.3242 24.2404 81.7058 25.7313 81.7058 27.6891V35.038H76.9524V17.2313H81.7012L81.6966 20.8802Z" fill="white"/>
<path fill-rule="evenodd" clip-rule="evenodd" d="M93.5222 32.8971C97.4172 36.4623 103.377 36.4623 107.272 32.8971C109.081 31.1036 110.061 28.6337 109.976 26.0835C110.057 23.5582 109.084 21.1136 107.291 19.3397C105.504 17.5742 103.219 16.6915 100.437 16.6915C97.8724 16.6082 95.3842 17.5722 93.5407 19.363C91.7257 21.1346 90.7362 23.5902 90.8139 26.1301C90.7359 28.6662 91.7178 31.1197 93.5222 32.8971ZM103.878 29.7371C102.987 30.6818 101.737 31.2 100.441 31.1613L100.418 31.1659C99.1196 31.1997 97.8658 30.6887 96.9586 29.7557C96.0235 28.7775 95.5218 27.4617 95.5673 26.1069C95.5246 24.7719 96.0271 23.4773 96.9586 22.5232C98.8826 20.6384 101.954 20.6384 103.878 22.5232C105.697 24.5814 105.697 27.6789 103.878 29.7371Z" fill="white"/>
<path d="M118.296 25.7342V35.0425H113.593V25.7342C113.593 23.0038 114.406 20.8071 116.033 19.144C117.659 17.4809 119.823 16.6494 122.525 16.6494C125.215 16.6494 127.379 17.4809 129.018 19.144C130.656 20.8071 131.469 23.0038 131.457 25.7342V35.0425H126.722V25.7342C126.776 24.5204 126.362 23.3322 125.567 22.4159C123.875 20.7236 121.138 20.7236 119.446 22.4159C118.652 23.3327 118.24 24.5209 118.296 25.7342Z" fill="white"/>
<path d="M23.0091 14.8905L16.6465 9.26829L19.2203 6.33154L25.6757 12.0235L23.0091 14.8905Z" fill="white"/>
</svg>
