<svg width="711" height="880" viewBox="0 0 711 880" fill="none" xmlns="http://www.w3.org/2000/svg">
<path d="M605 30L614.856 110.145L674 123.5L614.856 136.855L605 217L595.144 136.855L536 123.5L595.144 110.145L605 30Z" fill="#FDC120"/>
<path d="M624 303L630.536 347.95L663 357L630.536 366.05L624 411L617.464 366.05L585 357L617.464 347.95L624 303Z" fill="#FDC120"/>
<path d="M473 123L476.519 146.308L494 151L476.519 155.692L473 179L469.481 155.692L452 151L469.481 146.308L473 123Z" fill="#FDC120"/>
<circle cx="564" cy="271" r="10" fill="#FDC120"/>
<ellipse cx="535.5" cy="48.5" rx="10.5" ry="9.5" fill="#FDC120"/>
<circle cx="389" cy="194" r="5" fill="#FDC120"/>
<circle cx="389" cy="52" r="5" fill="#FDC120"/>
<circle cx="656" cy="466" r="5" fill="#FDC120"/>
<ellipse cx="324" cy="330.5" rx="5" ry="5.5" fill="#FDC120"/>
<circle cx="682" cy="237" r="5" fill="#FDC120"/>
<path d="M68 675L76.3792 732.02L118 743.5L76.3792 754.98L68 812L59.6208 754.98L18 743.5L59.6208 732.02L68 675Z" fill="#F56D13"/>
<path d="M26.5 518L30.2706 543.805L49 549L30.2706 554.195L26.5 580L22.7294 554.195L4 549L22.7294 543.805L26.5 518Z" fill="#F56D13"/>
<path d="M18 831L21.0165 851.394L36 855.5L21.0165 859.606L18 880L14.9835 859.606L0 855.5L14.9835 851.394L18 831Z" fill="#F56D13"/>
<ellipse cx="17.5" cy="643" rx="8.5" ry="9" fill="#F56D13"/>
<ellipse cx="128.5" cy="803" rx="8.5" ry="9" fill="#F56D13"/>
<ellipse cx="96.5" cy="656" rx="4.5" ry="4" fill="#F56D13"/>
<circle cx="165.5" cy="747.5" r="4.5" fill="#F56D13"/>
<ellipse cx="76" cy="497.5" rx="4" ry="4.5" fill="#F56D13"/>
<ellipse cx="35.5" cy="439" rx="4.5" ry="4" fill="#F56D13"/>
<path d="M698 0L701.519 23.7238L719 28.5L701.519 33.2762L698 57L694.481 33.2762L677 28.5L694.481 23.7238L698 0Z" fill="#FDC120"/>
</svg>
