<svg width="611" height="259" viewBox="0 0 611 259" fill="none" xmlns="http://www.w3.org/2000/svg">
<path d="M553.927 0L560.395 52.6786L599.21 61.4568L560.395 70.235L553.927 122.914L547.458 70.235L508.643 61.4568L547.458 52.6786L553.927 0Z" fill="#FDC120"/>
<path d="M584.654 160.58L588.99 190.198L610.53 196.16L588.99 202.123L584.654 231.741L580.317 202.123L558.777 196.16L580.317 190.198L584.654 160.58Z" fill="#FDC120"/>
<path d="M475.487 93.8027L477.791 109.285L489.234 112.402L477.791 115.518L475.487 131L473.183 115.518L461.74 112.402L473.183 109.285L475.487 93.8027Z" fill="#FDC120"/>
<path d="M400.747 17.4941L403.051 32.976L414.494 36.0929L403.051 39.2098L400.747 54.6917L398.443 39.2098L387 36.0929L398.443 32.976L400.747 17.4941Z" fill="#FDC120"/>
<circle cx="487.321" cy="182.457" r="6.46914" fill="#FDC120"/>
<circle cx="489.235" cy="33.9633" r="6.46914" fill="#FDC120"/>
<circle cx="441.901" cy="70.4689" r="3.23457" fill="#FDC120"/>
<circle cx="428.371" cy="124.531" r="3.23457" fill="#FDC120"/>
<circle cx="534.766" cy="147.296" r="3.23457" fill="#FDC120"/>
<path d="M35.5 120L41.4492 160.788L71 169L41.4492 177.212L35.5 218L29.5508 177.212L0 169L29.5508 160.788L35.5 120Z" fill="#F56D13"/>
<path d="M75 44L77.011 58.1511L87 61L77.011 63.8489L75 78L72.989 63.8489L63 61L72.989 58.1511L75 44Z" fill="#F56D13"/>
<path d="M141.065 146.338L143.572 163.283L156.021 166.695L143.572 170.106L141.065 187.051L138.559 170.106L126.109 166.695L138.559 163.283L141.065 146.338Z" fill="#F56D13"/>
<path d="M101.184 203.669L103.691 220.614L116.14 224.026L103.691 227.437L101.184 244.382L98.678 227.437L86.2285 224.026L98.678 220.614L101.184 203.669Z" fill="#F56D13"/>
<circle cx="14.5" cy="253.5" r="5.5" fill="#F56D13"/>
<ellipse cx="161.423" cy="242.721" rx="3.73897" ry="3.32353" fill="#F56D13"/>
<circle cx="136.497" cy="82.7761" r="3.73897" fill="#F56D13"/>
<ellipse cx="14.7727" cy="74.4665" rx="3.32353" ry="3.73897" fill="#F56D13"/>
<ellipse cx="99.1062" cy="130.551" rx="3.73897" ry="3.32353" fill="#F56D13"/>
</svg>
