<svg width="3840" height="2160" viewBox="0 0 3840 2160" fill="none" xmlns="http://www.w3.org/2000/svg">
<g clip-path="url(#clip0_769_1452)">
<path d="M3840 0H0V2160H3840V0Z" fill="#212C39"/>
<g filter="url(#filter0_f_769_1452)">
<path d="M1664.52 2192.9L1726.94 2205.74L1710.38 2144.2L1730.46 2204.68L1775.48 2159.58L1733.14 2207.2L1794.72 2223.64L1732.3 2210.78L1748.86 2272.32L1728.77 2211.84L1683.76 2256.96L1726.1 2209.32L1664.52 2192.9Z" fill="white"/>
</g>
<g filter="url(#filter1_f_769_1452)">
<path d="M248.878 1659.25L411.66 1692.75L368.47 1532.27L420.848 1689.99L538.236 1572.35L427.832 1696.57L588.41 1739.41L425.628 1705.91L468.818 1866.39L416.44 1708.67L299.054 1826.31L409.456 1702.09L248.878 1659.25Z" fill="white"/>
</g>
<path d="M300.266 1687.2L405.596 1708.88L377.65 1605.04L411.542 1707.09L487.498 1630.97L416.06 1711.35L519.964 1739.07L414.634 1717.39L442.582 1821.23L408.688 1719.17L332.732 1795.3L404.17 1714.92L300.266 1687.2Z" fill="white"/>
<g filter="url(#filter2_f_769_1452)">
<path d="M896.73 364.904L1059.51 398.404L1016.32 237.922L1068.7 395.646L1186.09 278L1075.68 402.222L1236.26 445.06L1073.48 411.56L1116.67 572.042L1064.29 414.32L946.904 531.964L1057.31 407.742L896.73 364.904Z" fill="white"/>
</g>
<path d="M948.118 392.85L1053.45 414.528L1025.5 310.686L1059.39 412.742L1135.35 336.618L1063.91 416.998L1167.82 444.716L1062.49 423.04L1090.43 526.882L1056.54 424.826L980.584 500.948L1052.02 420.57L948.118 392.85Z" fill="white"/>
<g filter="url(#filter3_f_769_1452)">
<path d="M710.67 1940.76L773.09 1953.61L756.528 1892.07L776.612 1952.55L821.626 1907.44L779.29 1955.07L840.866 1971.5L778.446 1958.65L795.006 2020.2L774.922 1959.71L729.908 2004.82L772.244 1957.19L710.67 1940.76Z" fill="white"/>
</g>
<path d="M730.374 1951.48L770.764 1959.79L760.046 1919.97L773.044 1959.11L802.17 1929.92L774.776 1960.74L814.618 1971.37L774.23 1963.06L784.946 2002.88L771.95 1963.74L742.824 1992.93L770.216 1962.11L730.374 1951.48Z" fill="white"/>
<g filter="url(#filter4_f_769_1452)">
<path d="M541.154 855.022L603.574 867.868L587.012 806.33L607.096 866.81L652.11 821.698L609.774 869.334L671.35 885.76L608.93 872.914L625.492 934.452L605.406 873.972L560.394 919.084L602.728 871.45L541.154 855.022Z" fill="white"/>
</g>
<path d="M560.858 865.74L601.248 874.054L590.532 834.234L603.528 873.368L632.654 844.178L605.26 875L645.102 885.63L604.714 877.318L615.43 917.136L602.434 878.002L573.308 907.192L600.7 876.37L560.858 865.74Z" fill="white"/>
<g filter="url(#filter5_f_769_1452)">
<path d="M115.413 1379.79L177.833 1392.64L161.271 1331.1L181.356 1391.58L226.37 1346.47L184.035 1394.1L245.61 1410.53L183.189 1397.68L199.751 1459.22L179.666 1398.74L134.653 1443.85L176.988 1396.22L115.413 1379.79Z" fill="white"/>
</g>
<path d="M135.118 1390.51L175.507 1398.82L164.791 1359L177.787 1398.14L206.914 1368.95L179.52 1399.77L219.362 1410.4L178.973 1402.08L189.69 1441.9L176.693 1402.77L147.567 1431.96L174.961 1401.14L135.118 1390.51Z" fill="white"/>
<g filter="url(#filter6_f_769_1452)">
<path d="M263.682 1139.89L340.788 1155.76L320.33 1079.74L345.142 1154.45L400.746 1098.73L348.45 1157.57L424.512 1177.86L347.406 1161.99L367.864 1238.01L343.052 1163.3L287.448 1219.03L339.744 1160.18L263.682 1139.89Z" fill="white"/>
</g>
<path d="M288.022 1153.13L337.916 1163.4L324.678 1114.21L340.732 1162.55L376.71 1126.49L342.872 1164.57L392.09 1177.7L342.196 1167.43L355.434 1216.62L339.38 1168.27L303.4 1204.33L337.24 1166.26L288.022 1153.13Z" fill="white"/>
<g filter="url(#filter7_f_769_1452)">
<path d="M649.57 487.126L726.678 502.994L706.218 426.976L731.03 501.688L786.634 445.96L734.338 504.802L810.402 525.094L733.294 509.226L753.752 585.244L728.942 510.532L673.338 566.26L725.634 507.418L649.57 487.126Z" fill="white"/>
</g>
<path d="M673.91 500.364L723.804 510.63L710.566 461.442L726.62 509.786L762.6 473.726L728.76 511.802L777.978 524.93L728.086 514.664L741.322 563.852L725.268 515.508L689.29 551.568L723.128 513.492L673.91 500.364Z" fill="white"/>
<g filter="url(#filter8_f_769_1452)">
<path d="M1887.11 1992.1L2008.28 2017.04L1976.13 1897.58L2015.12 2014.98L2102.5 1927.41L2020.32 2019.88L2139.84 2051.76L2018.68 2026.84L2050.82 2146.28L2011.84 2028.88L1924.46 2116.46L2006.64 2023.98L1887.11 1992.1Z" fill="white"/>
</g>
<path d="M1925.36 2012.9L2003.76 2029.04L1982.96 1951.74L2008.18 2027.72L2064.72 1971.05L2011.56 2030.88L2088.9 2051.52L2010.5 2035.38L2031.3 2112.68L2006.06 2036.7L1949.53 2093.36L2002.7 2033.54L1925.36 2012.9Z" fill="white"/>
<g filter="url(#filter9_f_769_1452)">
<path d="M2179.66 627.346L2256.76 643.216L2236.3 567.196L2261.12 641.908L2316.72 586.182L2264.42 645.024L2340.48 665.316L2263.38 649.446L2283.84 725.464L2259.02 650.754L2203.42 706.48L2255.72 647.638L2179.66 627.346Z" fill="white"/>
</g>
<path d="M2204 640.584L2253.88 650.852L2240.64 601.664L2256.7 650.006L2292.68 613.948L2258.84 652.022L2308.06 665.152L2258.16 654.884L2271.4 704.072L2255.36 655.73L2219.38 691.788L2253.22 653.714L2204 640.584Z" fill="white"/>
<g filter="url(#filter10_f_769_1452)">
<path d="M1617.89 1699.25L1557.84 1677.89L1603.89 1633.84L1555.38 1675.16L1540.25 1613.25L1551.78 1675.93L1490.6 1658.08L1550.65 1679.43L1504.6 1723.48L1553.11 1682.16L1568.24 1744.07L1556.71 1681.39L1617.89 1699.25Z" fill="white"/>
</g>
<path d="M1595.48 1698.21L1556.63 1684.39L1586.43 1655.88L1555.03 1682.62L1545.25 1642.56L1552.7 1683.12L1513.12 1671.56L1551.97 1685.38L1522.17 1713.89L1553.57 1687.15L1563.35 1727.21L1555.89 1686.65L1595.48 1698.21Z" fill="white"/>
<g filter="url(#filter11_f_769_1452)">
<path d="M3105.16 1976.35L2948.58 1920.65L3068.68 1805.77L2942.16 1913.53L2902.72 1752.09L2932.78 1915.54L2773.24 1868.98L2929.82 1924.67L2809.72 2039.54L2936.26 1931.79L2975.7 2093.24L2945.64 1929.78L3105.16 1976.35Z" fill="white"/>
</g>
<path d="M3046.74 1973.62L2945.42 1937.59L3023.12 1863.25L2941.26 1932.98L2915.74 1828.51L2935.18 1934.28L2831.96 1904.15L2933.28 1940.18L2855.58 2014.52L2937.44 1944.79L2962.96 2049.26L2943.5 1943.49L3046.74 1973.62Z" fill="white"/>
<g filter="url(#filter12_f_769_1452)">
<path d="M3221.74 533.614L3065.16 477.922L3185.26 363.042L3058.72 470.8L3019.28 309.356L3049.34 472.808L2889.82 426.244L3046.4 481.936L2926.3 596.816L3052.82 489.056L3092.26 650.502L3062.2 487.05L3221.74 533.614Z" fill="white"/>
</g>
<path d="M3163.32 530.892L3062 494.856L3139.7 420.52L3057.84 490.248L3032.32 385.784L3051.76 491.546L2948.54 461.416L3049.86 497.452L2972.14 571.788L3054.02 502.06L3079.54 606.524L3060.08 500.762L3163.32 530.892Z" fill="white"/>
<g filter="url(#filter13_f_769_1452)">
<path d="M2564.34 1977.84L2504.3 1956.48L2550.36 1912.43L2501.84 1953.75L2486.7 1891.85L2498.24 1954.52L2437.06 1936.67L2497.1 1958.02L2451.06 2002.08L2499.56 1960.75L2514.7 2022.66L2503.16 1959.98L2564.34 1977.84Z" fill="white"/>
</g>
<path d="M2541.94 1976.8L2503.08 1962.98L2532.88 1934.47L2501.48 1961.21L2491.7 1921.15L2499.16 1961.71L2459.58 1950.16L2498.42 1963.97L2468.64 1992.48L2500.02 1965.74L2509.82 2005.8L2502.36 1965.24L2541.94 1976.8Z" fill="white"/>
<g filter="url(#filter14_f_769_1452)">
<path d="M3271.9 1137.06L3211.86 1115.7L3257.92 1071.65L3209.4 1112.97L3194.28 1051.06L3205.8 1113.74L3144.62 1095.88L3204.66 1117.24L3158.62 1161.29L3207.14 1119.97L3222.26 1181.88L3210.72 1119.2L3271.9 1137.06Z" fill="white"/>
</g>
<path d="M3249.5 1136.01L3210.64 1122.2L3240.44 1093.69L3209.04 1120.43L3199.26 1080.37L3206.72 1120.93L3167.14 1109.37L3205.98 1123.19L3176.2 1151.7L3207.58 1124.96L3217.38 1165.02L3209.92 1124.46L3249.5 1136.01Z" fill="white"/>
<g filter="url(#filter15_f_769_1452)">
<path d="M3364.12 1806.48L3304.08 1785.12L3350.14 1741.07L3301.62 1782.39L3286.5 1720.48L3298.02 1783.16L3236.84 1765.31L3296.88 1786.66L3250.84 1830.71L3299.36 1789.39L3314.48 1851.3L3302.96 1788.62L3364.12 1806.48Z" fill="white"/>
</g>
<path d="M3341.72 1805.44L3302.86 1791.62L3332.66 1763.11L3301.28 1789.85L3291.48 1749.79L3298.94 1790.35L3259.36 1778.79L3298.22 1792.61L3268.42 1821.12L3299.8 1794.38L3309.6 1834.44L3302.14 1793.88L3341.72 1805.44Z" fill="white"/>
<g filter="url(#filter16_f_769_1452)">
<path d="M3361.6 1524.47L3287.44 1498.09L3344.32 1443.67L3284.4 1494.72L3265.72 1418.24L3279.96 1495.67L3204.38 1473.61L3278.56 1499.99L3221.66 1554.41L3281.6 1503.36L3300.28 1579.84L3286.04 1502.41L3361.6 1524.47Z" fill="white"/>
</g>
<path d="M3333.94 1523.18L3285.94 1506.11L3322.74 1470.9L3283.96 1503.93L3271.88 1454.44L3281.1 1504.54L3232.2 1490.27L3280.18 1507.34L3243.38 1542.55L3282.16 1509.52L3294.24 1559L3285.04 1508.91L3333.94 1523.18Z" fill="white"/>
<g filter="url(#filter17_f_769_1452)">
<path d="M3369.8 766.214L3295.64 739.834L3352.52 685.416L3292.58 736.46L3273.9 659.986L3288.14 737.412L3212.58 715.354L3286.74 741.736L3229.86 796.152L3289.78 745.108L3308.48 821.582L3294.24 744.158L3369.8 766.214Z" fill="white"/>
</g>
<path d="M3342.12 764.922L3294.12 747.852L3330.94 712.642L3292.16 745.67L3280.08 696.186L3289.28 746.284L3240.38 732.012L3288.38 749.082L3251.58 784.294L3290.34 751.266L3302.44 800.748L3293.22 750.65L3342.12 764.922Z" fill="white"/>
<g filter="url(#filter18_f_769_1452)">
<path d="M1531.55 1412.18L1414.99 1370.72L1504.39 1285.21L1410.21 1365.42L1380.85 1245.25L1403.23 1366.91L1284.47 1332.25L1401.03 1373.71L1311.63 1459.22L1405.81 1379.01L1435.17 1499.18L1412.8 1377.52L1531.55 1412.18Z" fill="white"/>
</g>
<path d="M1488.05 1410.15L1412.64 1383.33L1470.48 1328L1409.54 1379.9L1390.54 1302.14L1405.02 1380.86L1328.18 1358.44L1403.6 1385.26L1345.76 1440.59L1406.7 1388.69L1425.69 1466.45L1411.22 1387.72L1488.05 1410.15Z" fill="white"/>
<g filter="url(#filter19_f_769_1452)">
<path d="M1988.49 93.334L1914.32 66.9532L1971.21 12.5361L1911.28 63.58L1892.6 -12.8939L1906.83 64.5308L1831.27 42.4738L1905.44 68.8546L1848.55 123.272L1908.48 72.2278L1927.16 148.702L1912.93 71.2772L1988.49 93.334Z" fill="white"/>
</g>
<path d="M1960.82 92.0414L1912.82 74.9716L1949.63 39.7606L1910.85 72.789L1898.76 23.3058L1907.98 73.404L1859.08 59.132L1907.07 76.2018L1870.26 111.413L1909.04 78.3846L1921.13 127.868L1911.92 77.7694L1960.82 92.0414Z" fill="white"/>
</g>
<defs>
<filter id="filter0_f_769_1452" x="1657.87" y="2137.55" width="143.5" height="141.424" filterUnits="userSpaceOnUse" color-interpolation-filters="sRGB">
<feFlood flood-opacity="0" result="BackgroundImageFix"/>
<feBlend mode="normal" in="SourceGraphic" in2="BackgroundImageFix" result="shape"/>
<feGaussianBlur stdDeviation="3.32609" result="effect1_foregroundBlur_769_1452"/>
</filter>
<filter id="filter1_f_769_1452" x="236.878" y="1520.27" width="363.532" height="358.12" filterUnits="userSpaceOnUse" color-interpolation-filters="sRGB">
<feFlood flood-opacity="0" result="BackgroundImageFix"/>
<feBlend mode="normal" in="SourceGraphic" in2="BackgroundImageFix" result="shape"/>
<feGaussianBlur stdDeviation="6" result="effect1_foregroundBlur_769_1452"/>
</filter>
<filter id="filter2_f_769_1452" x="884.73" y="225.922" width="363.532" height="358.12" filterUnits="userSpaceOnUse" color-interpolation-filters="sRGB">
<feFlood flood-opacity="0" result="BackgroundImageFix"/>
<feBlend mode="normal" in="SourceGraphic" in2="BackgroundImageFix" result="shape"/>
<feGaussianBlur stdDeviation="6" result="effect1_foregroundBlur_769_1452"/>
</filter>
<filter id="filter3_f_769_1452" x="704.018" y="1885.42" width="143.5" height="141.436" filterUnits="userSpaceOnUse" color-interpolation-filters="sRGB">
<feFlood flood-opacity="0" result="BackgroundImageFix"/>
<feBlend mode="normal" in="SourceGraphic" in2="BackgroundImageFix" result="shape"/>
<feGaussianBlur stdDeviation="3.32609" result="effect1_foregroundBlur_769_1452"/>
</filter>
<filter id="filter4_f_769_1452" x="534.502" y="799.678" width="143.5" height="141.426" filterUnits="userSpaceOnUse" color-interpolation-filters="sRGB">
<feFlood flood-opacity="0" result="BackgroundImageFix"/>
<feBlend mode="normal" in="SourceGraphic" in2="BackgroundImageFix" result="shape"/>
<feGaussianBlur stdDeviation="3.32609" result="effect1_foregroundBlur_769_1452"/>
</filter>
<filter id="filter5_f_769_1452" x="108.761" y="1324.45" width="143.501" height="141.426" filterUnits="userSpaceOnUse" color-interpolation-filters="sRGB">
<feFlood flood-opacity="0" result="BackgroundImageFix"/>
<feBlend mode="normal" in="SourceGraphic" in2="BackgroundImageFix" result="shape"/>
<feGaussianBlur stdDeviation="3.32609" result="effect1_foregroundBlur_769_1452"/>
</filter>
<filter id="filter6_f_769_1452" x="257.03" y="1073.09" width="174.134" height="171.572" filterUnits="userSpaceOnUse" color-interpolation-filters="sRGB">
<feFlood flood-opacity="0" result="BackgroundImageFix"/>
<feBlend mode="normal" in="SourceGraphic" in2="BackgroundImageFix" result="shape"/>
<feGaussianBlur stdDeviation="3.32609" result="effect1_foregroundBlur_769_1452"/>
</filter>
<filter id="filter7_f_769_1452" x="642.918" y="420.324" width="174.136" height="171.572" filterUnits="userSpaceOnUse" color-interpolation-filters="sRGB">
<feFlood flood-opacity="0" result="BackgroundImageFix"/>
<feBlend mode="normal" in="SourceGraphic" in2="BackgroundImageFix" result="shape"/>
<feGaussianBlur stdDeviation="3.32609" result="effect1_foregroundBlur_769_1452"/>
</filter>
<filter id="filter8_f_769_1452" x="1880.46" y="1890.93" width="266.034" height="262.004" filterUnits="userSpaceOnUse" color-interpolation-filters="sRGB">
<feFlood flood-opacity="0" result="BackgroundImageFix"/>
<feBlend mode="normal" in="SourceGraphic" in2="BackgroundImageFix" result="shape"/>
<feGaussianBlur stdDeviation="3.32609" result="effect1_foregroundBlur_769_1452"/>
</filter>
<filter id="filter9_f_769_1452" x="2173.01" y="560.544" width="174.124" height="171.572" filterUnits="userSpaceOnUse" color-interpolation-filters="sRGB">
<feFlood flood-opacity="0" result="BackgroundImageFix"/>
<feBlend mode="normal" in="SourceGraphic" in2="BackgroundImageFix" result="shape"/>
<feGaussianBlur stdDeviation="3.32609" result="effect1_foregroundBlur_769_1452"/>
</filter>
<filter id="filter10_f_769_1452" x="1483.95" y="1606.6" width="140.586" height="144.12" filterUnits="userSpaceOnUse" color-interpolation-filters="sRGB">
<feFlood flood-opacity="0" result="BackgroundImageFix"/>
<feBlend mode="normal" in="SourceGraphic" in2="BackgroundImageFix" result="shape"/>
<feGaussianBlur stdDeviation="3.32609" result="effect1_foregroundBlur_769_1452"/>
</filter>
<filter id="filter11_f_769_1452" x="2761.24" y="1740.09" width="355.92" height="365.152" filterUnits="userSpaceOnUse" color-interpolation-filters="sRGB">
<feFlood flood-opacity="0" result="BackgroundImageFix"/>
<feBlend mode="normal" in="SourceGraphic" in2="BackgroundImageFix" result="shape"/>
<feGaussianBlur stdDeviation="6" result="effect1_foregroundBlur_769_1452"/>
</filter>
<filter id="filter12_f_769_1452" x="2877.82" y="297.356" width="355.92" height="365.146" filterUnits="userSpaceOnUse" color-interpolation-filters="sRGB">
<feFlood flood-opacity="0" result="BackgroundImageFix"/>
<feBlend mode="normal" in="SourceGraphic" in2="BackgroundImageFix" result="shape"/>
<feGaussianBlur stdDeviation="6" result="effect1_foregroundBlur_769_1452"/>
</filter>
<filter id="filter13_f_769_1452" x="2430.41" y="1885.19" width="140.584" height="144.118" filterUnits="userSpaceOnUse" color-interpolation-filters="sRGB">
<feFlood flood-opacity="0" result="BackgroundImageFix"/>
<feBlend mode="normal" in="SourceGraphic" in2="BackgroundImageFix" result="shape"/>
<feGaussianBlur stdDeviation="3.32609" result="effect1_foregroundBlur_769_1452"/>
</filter>
<filter id="filter14_f_769_1452" x="3137.97" y="1044.41" width="140.584" height="144.12" filterUnits="userSpaceOnUse" color-interpolation-filters="sRGB">
<feFlood flood-opacity="0" result="BackgroundImageFix"/>
<feBlend mode="normal" in="SourceGraphic" in2="BackgroundImageFix" result="shape"/>
<feGaussianBlur stdDeviation="3.32609" result="effect1_foregroundBlur_769_1452"/>
</filter>
<filter id="filter15_f_769_1452" x="3230.19" y="1713.83" width="140.584" height="144.12" filterUnits="userSpaceOnUse" color-interpolation-filters="sRGB">
<feFlood flood-opacity="0" result="BackgroundImageFix"/>
<feBlend mode="normal" in="SourceGraphic" in2="BackgroundImageFix" result="shape"/>
<feGaussianBlur stdDeviation="3.32609" result="effect1_foregroundBlur_769_1452"/>
</filter>
<filter id="filter16_f_769_1452" x="3197.73" y="1411.59" width="170.525" height="174.9" filterUnits="userSpaceOnUse" color-interpolation-filters="sRGB">
<feFlood flood-opacity="0" result="BackgroundImageFix"/>
<feBlend mode="normal" in="SourceGraphic" in2="BackgroundImageFix" result="shape"/>
<feGaussianBlur stdDeviation="3.32609" result="effect1_foregroundBlur_769_1452"/>
</filter>
<filter id="filter17_f_769_1452" x="3205.93" y="653.334" width="170.524" height="174.9" filterUnits="userSpaceOnUse" color-interpolation-filters="sRGB">
<feFlood flood-opacity="0" result="BackgroundImageFix"/>
<feBlend mode="normal" in="SourceGraphic" in2="BackgroundImageFix" result="shape"/>
<feGaussianBlur stdDeviation="3.32609" result="effect1_foregroundBlur_769_1452"/>
</filter>
<filter id="filter18_f_769_1452" x="1277.82" y="1238.6" width="260.378" height="267.24" filterUnits="userSpaceOnUse" color-interpolation-filters="sRGB">
<feFlood flood-opacity="0" result="BackgroundImageFix"/>
<feBlend mode="normal" in="SourceGraphic" in2="BackgroundImageFix" result="shape"/>
<feGaussianBlur stdDeviation="3.32609" result="effect1_foregroundBlur_769_1452"/>
</filter>
<filter id="filter19_f_769_1452" x="1824.61" y="-19.5461" width="170.532" height="174.9" filterUnits="userSpaceOnUse" color-interpolation-filters="sRGB">
<feFlood flood-opacity="0" result="BackgroundImageFix"/>
<feBlend mode="normal" in="SourceGraphic" in2="BackgroundImageFix" result="shape"/>
<feGaussianBlur stdDeviation="3.32609" result="effect1_foregroundBlur_769_1452"/>
</filter>
<clipPath id="clip0_769_1452">
<rect width="3840" height="2160" fill="white"/>
</clipPath>
</defs>
</svg>
