<svg width="720" height="1640" viewBox="0 0 720 1640" fill="none" xmlns="http://www.w3.org/2000/svg">
<g clip-path="url(#clip0_771_1752)">
<path d="M720 0H0V1640H720V0Z" fill="#212C39"/>
<g filter="url(#filter0_f_771_1752)">
<path d="M196.68 1487.63L253.475 1460.21L203.466 1421.78L255.609 1457.26L263.882 1394.73L259.231 1457.63L317.513 1433.53L260.718 1460.95L310.727 1499.38L258.584 1463.9L250.311 1526.42L254.963 1463.53L196.68 1487.63Z" fill="white"/>
</g>
<path d="M218.613 1484.21L255.362 1466.46L223.003 1441.6L256.743 1464.56L262.096 1424.1L259.086 1464.8L296.799 1449.21L260.049 1466.95L292.408 1491.81L258.668 1468.86L253.315 1509.31L256.325 1468.62L218.613 1484.21Z" fill="white"/>
<g filter="url(#filter1_f_771_1752)">
<path d="M93.658 948.102L150.453 920.683L100.443 882.257L152.587 917.733L160.86 855.211L156.208 918.106L214.49 894.01L157.696 921.429L207.705 959.855L155.562 924.379L147.289 986.901L151.94 924.006L93.658 948.102Z" fill="white"/>
</g>
<path d="M115.59 944.684L152.34 926.942L119.981 902.078L153.721 925.033L159.074 884.577L156.064 925.274L193.776 909.683L157.027 927.425L189.385 952.288L155.646 929.333L150.293 969.789L153.302 929.092L115.59 944.684Z" fill="white"/>
<g filter="url(#filter2_f_771_1752)">
<path d="M400.777 1466.06L422.556 1455.54L403.379 1440.81L423.374 1454.41L426.546 1430.44L424.763 1454.55L447.112 1445.31L425.333 1455.83L444.51 1470.56L424.515 1456.96L421.343 1480.93L423.126 1456.82L400.777 1466.06Z" fill="white"/>
</g>
<path d="M409.188 1464.75L423.28 1457.94L410.871 1448.41L423.809 1457.21L425.862 1441.7L424.708 1457.3L439.169 1451.32L425.077 1458.13L437.485 1467.66L424.547 1458.86L422.495 1474.37L423.649 1458.77L409.188 1464.75Z" fill="white"/>
<g filter="url(#filter3_f_771_1752)">
<path d="M99.4277 1177.81L121.206 1167.3L102.03 1152.56L122.024 1166.17L125.197 1142.19L123.413 1166.31L145.762 1157.07L123.984 1167.58L143.16 1182.32L123.165 1168.71L119.993 1192.69L121.777 1168.57L99.4277 1177.81Z" fill="white"/>
</g>
<path d="M107.838 1176.5L121.93 1169.7L109.522 1160.16L122.46 1168.97L124.512 1153.45L123.358 1169.06L137.819 1163.08L123.727 1169.88L136.136 1179.42L123.198 1170.61L121.145 1186.13L122.299 1170.52L107.838 1176.5Z" fill="white"/>
<g filter="url(#filter4_f_771_1752)">
<path d="M92.0322 1434.14L113.811 1423.62L94.6342 1408.89L114.629 1422.49L117.801 1398.52L116.018 1422.64L138.366 1413.4L116.588 1423.91L135.765 1438.65L115.77 1425.04L112.597 1449.02L114.381 1424.9L92.0322 1434.14Z" fill="white"/>
</g>
<path d="M100.443 1432.83L114.535 1426.03L102.126 1416.49L115.064 1425.29L117.117 1409.78L115.963 1425.39L130.424 1419.41L116.332 1426.21L128.74 1435.74L115.802 1426.94L113.75 1442.46L114.904 1426.85L100.443 1432.83Z" fill="white"/>
<g filter="url(#filter5_f_771_1752)">
<path d="M81.4368 1327.64L108.339 1314.66L84.6509 1296.45L109.35 1313.26L113.269 1283.64L111.066 1313.44L138.673 1302.02L111.77 1315.01L135.459 1333.21L110.76 1316.41L106.841 1346.02L109.044 1316.23L81.4368 1327.64Z" fill="white"/>
</g>
<path d="M91.8254 1326.03L109.233 1317.62L93.9052 1305.84L109.887 1316.72L112.423 1297.55L110.997 1316.83L128.861 1309.45L111.453 1317.85L126.781 1329.63L110.799 1318.75L108.263 1337.92L109.689 1318.64L91.8254 1326.03Z" fill="white"/>
<g filter="url(#filter6_f_771_1752)">
<path d="M47.3167 1041.91L74.2194 1028.93L50.5308 1010.73L75.2303 1027.53L79.149 997.914L76.9457 1027.71L104.553 1016.29L77.6502 1029.28L101.339 1047.48L76.6394 1030.68L72.7206 1060.29L74.9241 1030.5L47.3167 1041.91Z" fill="white"/>
</g>
<path d="M57.7053 1040.3L75.113 1031.89L59.7851 1020.11L75.7671 1030.99L78.3027 1011.82L76.877 1031.1L94.7407 1023.72L77.333 1032.12L92.6609 1043.9L76.6789 1033.02L74.1432 1052.19L75.5689 1032.91L57.7053 1040.3Z" fill="white"/>
<g filter="url(#filter7_f_771_1752)">
<path d="M540.905 731.526L567.808 718.538L544.12 700.337L568.819 717.141L572.738 687.525L570.534 717.318L598.142 705.904L571.239 718.892L594.928 737.093L570.228 720.289L566.31 749.905L568.513 720.112L540.905 731.526Z" fill="white"/>
</g>
<path d="M551.294 729.907L568.702 721.503L553.374 709.726L569.356 720.599L571.892 701.436L570.466 720.713L588.33 713.328L570.922 721.732L586.25 733.509L570.268 722.636L567.732 741.799L569.158 722.522L551.294 729.907Z" fill="white"/>
<g filter="url(#filter8_f_771_1752)">
<path d="M362.691 168.256L321.37 215.901L382.499 231.416L320.576 219.454L337.704 280.151L317.102 220.543L273.101 265.725L314.422 218.08L253.293 202.564L315.215 214.526L298.088 153.83L318.689 213.437L362.691 168.256Z" fill="white"/>
</g>
<path d="M343.897 180.07L317.16 210.899L356.714 220.938L316.647 213.198L327.73 252.472L314.399 213.903L285.928 243.138L312.665 212.309L273.111 202.269L313.178 210.01L302.096 170.735L315.426 209.305L343.897 180.07Z" fill="white"/>
<g filter="url(#filter9_f_771_1752)">
<path d="M670.684 623.052L629.363 670.697L690.492 686.212L628.569 674.25L645.697 734.947L625.096 675.339L581.094 720.521L622.415 672.876L561.286 657.36L623.209 669.322L606.081 608.625L626.682 668.233L670.684 623.052Z" fill="white"/>
</g>
<path d="M651.891 634.866L625.154 665.695L664.707 675.734L624.64 667.994L635.723 707.268L622.392 668.699L593.921 697.934L620.658 667.105L581.104 657.065L621.171 664.806L610.089 625.531L623.419 664.101L651.891 634.866Z" fill="white"/>
<g filter="url(#filter10_f_771_1752)">
<path d="M183.763 268.782L167.918 287.052L191.358 293.002L167.614 288.415L174.181 311.69L166.282 288.833L149.409 306.158L165.254 287.888L141.813 281.938L165.558 286.525L158.99 263.251L166.89 286.108L183.763 268.782Z" fill="white"/>
</g>
<path d="M176.556 273.312L166.303 285.133L181.471 288.983L166.106 286.015L170.356 301.075L165.245 286.285L154.327 297.496L164.579 285.674L149.412 281.824L164.776 284.792L160.527 269.732L165.638 284.522L176.556 273.312Z" fill="white"/>
<g filter="url(#filter11_f_771_1752)">
<path d="M574.539 414.352L558.694 432.622L582.135 438.571L558.39 433.984L564.958 457.259L557.058 434.402L540.185 451.727L556.03 433.457L532.59 427.508L556.335 432.095L549.767 408.82L557.667 431.677L574.539 414.352Z" fill="white"/>
</g>
<path d="M567.333 418.882L557.081 430.704L572.248 434.553L556.884 431.585L561.134 446.646L556.022 431.856L545.104 443.066L555.357 431.244L540.19 427.395L555.554 430.363L551.304 415.303L556.416 430.092L567.333 418.882Z" fill="white"/>
<g filter="url(#filter12_f_771_1752)">
<path d="M479.96 175.995L464.115 194.265L487.556 200.215L463.811 195.628L470.379 218.902L462.479 196.045L445.606 213.371L461.451 195.101L438.011 189.151L461.755 193.738L455.188 170.463L463.087 193.32L479.96 175.995Z" fill="white"/>
</g>
<path d="M472.753 180.525L462.501 192.346L477.668 196.196L462.304 193.228L466.553 208.288L461.442 193.498L450.524 204.709L460.777 192.887L445.609 189.037L460.974 192.005L456.724 176.945L461.836 191.735L472.753 180.525Z" fill="white"/>
<g filter="url(#filter13_f_771_1752)">
<path d="M531.808 269.619L512.235 292.188L541.191 299.537L511.86 293.871L519.973 322.622L510.214 294.387L489.371 315.788L508.944 293.22L479.989 285.87L509.32 291.537L501.207 262.786L510.966 291.021L531.808 269.619Z" fill="white"/>
</g>
<path d="M522.907 275.215L510.242 289.818L528.978 294.574L509.999 290.907L515.248 309.511L508.934 291.241L495.448 305.089L508.113 290.486L489.376 285.731L508.356 289.397L503.106 270.793L509.42 289.063L522.907 275.215Z" fill="white"/>
<g filter="url(#filter14_f_771_1752)">
<path d="M676.145 518.56L656.572 541.129L685.528 548.479L656.196 542.812L664.31 571.563L654.551 543.328L633.708 564.73L653.281 542.161L624.326 534.812L653.657 540.478L645.544 511.727L655.303 539.962L676.145 518.56Z" fill="white"/>
</g>
<path d="M667.244 524.156L654.579 538.76L673.315 543.515L654.336 539.849L659.585 558.452L653.271 540.183L639.785 554.031L652.449 539.428L633.713 534.672L652.693 538.338L647.443 519.735L653.757 538.005L667.244 524.156Z" fill="white"/>
<g filter="url(#filter15_f_771_1752)">
<path d="M345.549 998.847L325.976 1021.42L354.931 1028.77L325.6 1023.1L333.713 1051.85L323.954 1023.62L303.112 1045.02L322.685 1022.45L293.729 1015.1L323.06 1020.77L314.947 992.014L324.706 1020.25L345.549 998.847Z" fill="white"/>
</g>
<path d="M336.647 1004.44L323.982 1019.05L342.718 1023.8L323.739 1020.14L328.989 1038.74L322.674 1020.47L309.188 1034.32L321.853 1019.71L303.117 1014.96L322.096 1018.63L316.846 1000.02L323.161 1018.29L336.647 1004.44Z" fill="white"/>
</g>
<defs>
<filter id="filter0_f_771_1752" x="184.68" y="1382.73" width="144.833" height="155.69" filterUnits="userSpaceOnUse" color-interpolation-filters="sRGB">
<feFlood flood-opacity="0" result="BackgroundImageFix"/>
<feBlend mode="normal" in="SourceGraphic" in2="BackgroundImageFix" result="shape"/>
<feGaussianBlur stdDeviation="6" result="effect1_foregroundBlur_771_1752"/>
</filter>
<filter id="filter1_f_771_1752" x="81.658" y="843.211" width="144.832" height="155.69" filterUnits="userSpaceOnUse" color-interpolation-filters="sRGB">
<feFlood flood-opacity="0" result="BackgroundImageFix"/>
<feBlend mode="normal" in="SourceGraphic" in2="BackgroundImageFix" result="shape"/>
<feGaussianBlur stdDeviation="6" result="effect1_foregroundBlur_771_1752"/>
</filter>
<filter id="filter2_f_771_1752" x="394.125" y="1423.79" width="59.6393" height="63.7945" filterUnits="userSpaceOnUse" color-interpolation-filters="sRGB">
<feFlood flood-opacity="0" result="BackgroundImageFix"/>
<feBlend mode="normal" in="SourceGraphic" in2="BackgroundImageFix" result="shape"/>
<feGaussianBlur stdDeviation="3.32609" result="effect1_foregroundBlur_771_1752"/>
</filter>
<filter id="filter3_f_771_1752" x="92.7756" y="1135.54" width="59.6386" height="63.8044" filterUnits="userSpaceOnUse" color-interpolation-filters="sRGB">
<feFlood flood-opacity="0" result="BackgroundImageFix"/>
<feBlend mode="normal" in="SourceGraphic" in2="BackgroundImageFix" result="shape"/>
<feGaussianBlur stdDeviation="3.32609" result="effect1_foregroundBlur_771_1752"/>
</filter>
<filter id="filter4_f_771_1752" x="85.38" y="1391.87" width="59.6381" height="63.8044" filterUnits="userSpaceOnUse" color-interpolation-filters="sRGB">
<feFlood flood-opacity="0" result="BackgroundImageFix"/>
<feBlend mode="normal" in="SourceGraphic" in2="BackgroundImageFix" result="shape"/>
<feGaussianBlur stdDeviation="3.32609" result="effect1_foregroundBlur_771_1752"/>
</filter>
<filter id="filter5_f_771_1752" x="74.7846" y="1276.99" width="70.5407" height="75.6844" filterUnits="userSpaceOnUse" color-interpolation-filters="sRGB">
<feFlood flood-opacity="0" result="BackgroundImageFix"/>
<feBlend mode="normal" in="SourceGraphic" in2="BackgroundImageFix" result="shape"/>
<feGaussianBlur stdDeviation="3.32609" result="effect1_foregroundBlur_771_1752"/>
</filter>
<filter id="filter6_f_771_1752" x="40.6645" y="991.262" width="70.5407" height="75.6803" filterUnits="userSpaceOnUse" color-interpolation-filters="sRGB">
<feFlood flood-opacity="0" result="BackgroundImageFix"/>
<feBlend mode="normal" in="SourceGraphic" in2="BackgroundImageFix" result="shape"/>
<feGaussianBlur stdDeviation="3.32609" result="effect1_foregroundBlur_771_1752"/>
</filter>
<filter id="filter7_f_771_1752" x="534.253" y="680.873" width="70.5414" height="75.6844" filterUnits="userSpaceOnUse" color-interpolation-filters="sRGB">
<feFlood flood-opacity="0" result="BackgroundImageFix"/>
<feBlend mode="normal" in="SourceGraphic" in2="BackgroundImageFix" result="shape"/>
<feGaussianBlur stdDeviation="3.32609" result="effect1_foregroundBlur_771_1752"/>
</filter>
<filter id="filter8_f_771_1752" x="241.293" y="141.83" width="153.206" height="150.321" filterUnits="userSpaceOnUse" color-interpolation-filters="sRGB">
<feFlood flood-opacity="0" result="BackgroundImageFix"/>
<feBlend mode="normal" in="SourceGraphic" in2="BackgroundImageFix" result="shape"/>
<feGaussianBlur stdDeviation="6" result="effect1_foregroundBlur_771_1752"/>
</filter>
<filter id="filter9_f_771_1752" x="549.286" y="596.625" width="153.206" height="150.322" filterUnits="userSpaceOnUse" color-interpolation-filters="sRGB">
<feFlood flood-opacity="0" result="BackgroundImageFix"/>
<feBlend mode="normal" in="SourceGraphic" in2="BackgroundImageFix" result="shape"/>
<feGaussianBlur stdDeviation="6" result="effect1_foregroundBlur_771_1752"/>
</filter>
<filter id="filter10_f_771_1752" x="135.161" y="256.599" width="62.8493" height="61.7433" filterUnits="userSpaceOnUse" color-interpolation-filters="sRGB">
<feFlood flood-opacity="0" result="BackgroundImageFix"/>
<feBlend mode="normal" in="SourceGraphic" in2="BackgroundImageFix" result="shape"/>
<feGaussianBlur stdDeviation="3.32609" result="effect1_foregroundBlur_771_1752"/>
</filter>
<filter id="filter11_f_771_1752" x="525.938" y="402.168" width="62.8493" height="61.7433" filterUnits="userSpaceOnUse" color-interpolation-filters="sRGB">
<feFlood flood-opacity="0" result="BackgroundImageFix"/>
<feBlend mode="normal" in="SourceGraphic" in2="BackgroundImageFix" result="shape"/>
<feGaussianBlur stdDeviation="3.32609" result="effect1_foregroundBlur_771_1752"/>
</filter>
<filter id="filter12_f_771_1752" x="431.359" y="163.811" width="62.8493" height="61.7433" filterUnits="userSpaceOnUse" color-interpolation-filters="sRGB">
<feFlood flood-opacity="0" result="BackgroundImageFix"/>
<feBlend mode="normal" in="SourceGraphic" in2="BackgroundImageFix" result="shape"/>
<feGaussianBlur stdDeviation="3.32609" result="effect1_foregroundBlur_771_1752"/>
</filter>
<filter id="filter13_f_771_1752" x="473.337" y="256.134" width="74.5063" height="73.1403" filterUnits="userSpaceOnUse" color-interpolation-filters="sRGB">
<feFlood flood-opacity="0" result="BackgroundImageFix"/>
<feBlend mode="normal" in="SourceGraphic" in2="BackgroundImageFix" result="shape"/>
<feGaussianBlur stdDeviation="3.32609" result="effect1_foregroundBlur_771_1752"/>
</filter>
<filter id="filter14_f_771_1752" x="617.674" y="505.075" width="74.5064" height="73.1403" filterUnits="userSpaceOnUse" color-interpolation-filters="sRGB">
<feFlood flood-opacity="0" result="BackgroundImageFix"/>
<feBlend mode="normal" in="SourceGraphic" in2="BackgroundImageFix" result="shape"/>
<feGaussianBlur stdDeviation="3.32609" result="effect1_foregroundBlur_771_1752"/>
</filter>
<filter id="filter15_f_771_1752" x="287.077" y="985.362" width="74.5063" height="73.1403" filterUnits="userSpaceOnUse" color-interpolation-filters="sRGB">
<feFlood flood-opacity="0" result="BackgroundImageFix"/>
<feBlend mode="normal" in="SourceGraphic" in2="BackgroundImageFix" result="shape"/>
<feGaussianBlur stdDeviation="3.32609" result="effect1_foregroundBlur_771_1752"/>
</filter>
<clipPath id="clip0_771_1752">
<rect width="720" height="1640" fill="white"/>
</clipPath>
</defs>
</svg>
