<svg width="64" height="64" viewBox="0 0 64 64" fill="none" xmlns="http://www.w3.org/2000/svg">
<g clip-path="url(#clip0_40_52140)">
<path d="M55.0247 0H8.47923C3.65929 0 -0.248047 3.90733 -0.248047 8.72727V55.2727C-0.248047 60.0927 3.65929 64 8.47923 64H55.0247C59.8446 64 63.752 60.0927 63.752 55.2727V8.72727C63.752 3.90733 59.8446 0 55.0247 0Z" fill="#E36A44"/>
<path d="M50.5111 16H13C10.7989 16 9 17.791 9 20V44C9 46.2098 10.8001 48 13 48H50.5111C52.7122 48 54.5111 46.209 54.5111 44V20C54.5111 17.7905 52.7113 16 50.5111 16ZM49.8969 18.6667C48.6037 19.9642 33.4129 35.2044 32.7888 35.8306C32.2676 36.3534 31.2438 36.3538 30.7223 35.8306L13.6142 18.6667H49.8969ZM11.6667 43.5098V20.4902L23.1391 32L11.6667 43.5098ZM13.6142 45.3333L25.0217 33.8887L28.8337 37.7132C30.3958 39.2804 33.1159 39.2797 34.6775 37.7132L38.4895 33.8888L49.8969 45.3333H13.6142ZM51.8445 43.5098L40.372 32L51.8445 20.4902V43.5098Z" fill="white"/>
</g>
<defs>
<clipPath id="clip0_40_52140">
<rect width="64" height="64" rx="9.675" fill="white"/>
</clipPath>
</defs>
</svg>
