<svg width="64" height="64" viewBox="0 0 64 64" fill="none" xmlns="http://www.w3.org/2000/svg">
<g clip-path="url(#clip0_258_14476)">
<path d="M55.2727 0H8.72727C3.90733 0 0 3.90733 0 8.72727V55.2727C0 60.0927 3.90733 64 8.72727 64H55.2727C60.0927 64 64 60.0927 64 55.2727V8.72727C64 3.90733 60.0927 0 55.2727 0Z" fill="#FF9800"/>
<path d="M31.9988 15.1577C30.3183 15.1577 28.6755 15.656 27.2782 16.5897C25.8809 17.5233 24.7918 18.8504 24.1487 20.403C23.5056 21.9556 23.3374 23.664 23.6652 25.3122C23.9931 26.9604 24.8023 28.4744 25.9906 29.6627C27.1789 30.851 28.6929 31.6603 30.3411 31.9881C31.9894 32.316 33.6978 32.1477 35.2504 31.5046C36.803 30.8615 38.13 29.7725 39.0637 28.3752C39.9973 26.9779 40.4956 25.3351 40.4956 23.6546C40.4962 22.5386 40.2768 21.4334 39.85 20.4023C39.4232 19.3712 38.7973 18.4343 38.0082 17.6451C37.2191 16.856 36.2822 16.2302 35.2511 15.8034C34.2199 15.3766 33.1148 15.1572 31.9988 15.1577ZM31.9988 27.8903C31.161 27.8903 30.3421 27.6419 29.6455 27.1765C28.9489 26.7111 28.406 26.0495 28.0854 25.2755C27.7648 24.5015 27.681 23.6499 27.8444 22.8282C28.0078 22.0065 28.4113 21.2518 29.0036 20.6594C29.596 20.067 30.3508 19.6636 31.1724 19.5002C31.9941 19.3367 32.8458 19.4206 33.6198 19.7412C34.3938 20.0618 35.0553 20.6047 35.5207 21.3013C35.9862 21.9979 36.2346 22.8168 36.2346 23.6546C36.2351 24.211 36.126 24.762 35.9133 25.2762C35.7006 25.7903 35.3886 26.2575 34.9952 26.6509C34.6017 27.0444 34.1346 27.3564 33.6204 27.569C33.1063 27.7817 32.5552 27.8909 31.9988 27.8903Z" fill="white"/>
<path d="M44.5216 33.4522C44.3366 33.1219 44.0883 32.8313 43.7908 32.597C43.4934 32.3627 43.1527 32.1894 42.7882 32.087C42.4238 31.9845 42.0426 31.9549 41.6667 31.9999C41.2908 32.0449 40.9274 32.1635 40.5974 32.3491C34.8121 35.5912 29.1869 35.5912 23.4016 32.3491C23.0698 32.1638 22.7048 32.0458 22.3275 32.0016C21.9501 31.9574 21.5677 31.988 21.2021 32.0916C20.8365 32.1952 20.4949 32.3698 20.1968 32.6054C19.8988 32.8411 19.65 33.1331 19.4648 33.4649C19.2795 33.7966 19.1614 34.1616 19.1173 34.539C19.0731 34.9164 19.1037 35.2988 19.2073 35.6644C19.4166 36.4027 19.9105 37.0276 20.5805 37.4017C22.4785 38.4788 24.5061 39.3094 26.6142 39.8733L22.5216 43.9659C21.984 44.5036 21.6819 45.2329 21.6819 45.9933C21.6819 46.7537 21.984 47.4829 22.5216 48.0206C23.0593 48.5583 23.7886 48.8603 24.549 48.8603C25.3094 48.8603 26.0386 48.5583 26.5763 48.0206L31.9995 42.5764L37.4226 47.9996C37.9604 48.5372 38.6896 48.8393 39.45 48.8393C40.2104 48.8393 40.9397 48.5372 41.4774 47.9996C42.015 47.4619 42.3171 46.7326 42.3171 45.9722C42.3171 45.2118 42.015 44.4826 41.4774 43.9449L37.3848 39.8522C39.4929 39.2883 41.5205 38.4578 43.4184 37.3806C43.7493 37.1956 44.0404 36.9471 44.2751 36.6494C44.5097 36.3516 44.6832 36.0105 44.7857 35.6455C44.8882 35.2805 44.9176 34.8989 44.8723 34.5225C44.827 34.1462 44.7078 33.7824 44.5216 33.4522Z" fill="white"/>
</g>
<defs>
<clipPath id="clip0_258_14476">
<rect width="64" height="64" fill="white"/>
</clipPath>
</defs>
</svg>
