<svg width="64" height="64" viewBox="0 0 64 64" fill="none" xmlns="http://www.w3.org/2000/svg">
<g clip-path="url(#clip0_40_52134)">
<path d="M55.2708 0H8.72532C3.90538 0 -0.00195312 3.90733 -0.00195312 8.72727V55.2727C-0.00195312 60.0927 3.90538 64 8.72532 64H55.2708C60.0907 64 63.998 60.0927 63.998 55.2727V8.72727C63.998 3.90733 60.0907 0 55.2708 0Z" fill="#1C8ADB"/>
<path d="M49.4318 16.5451L48.77 16.7851L12.85 29.727C12.5955 29.8057 12.3742 29.9666 12.221 30.1846C12.0677 30.4025 11.9911 30.6652 12.0032 30.9313C12.0152 31.1975 12.1153 31.4522 12.2876 31.6554C12.4599 31.8586 12.6948 31.9989 12.9555 32.0542L22.2536 34.5997L23.9882 39.6906L25.7227 44.7815C25.8224 45.0311 25.9814 45.2525 26.1861 45.4267C26.3908 45.6008 26.6348 45.7224 26.8971 45.7808C27.1594 45.8392 27.432 45.8327 27.6912 45.7618C27.9504 45.691 28.1884 45.5579 28.3846 45.3742L33.1882 40.836L42.6209 47.2324C43.7736 48.0179 45.4173 47.436 45.7118 46.1415L51.9591 18.5379C52.2646 17.1706 50.8246 16.047 49.4318 16.5451ZM44.8464 22.6724L28.6173 35.9379L27.8536 36.5633C27.6859 36.6963 27.5764 36.8893 27.5482 37.1015L27.3773 38.5124L26.9082 42.476C26.912 42.5243 26.8966 42.572 26.8652 42.6089C26.8339 42.6457 26.7891 42.6685 26.7409 42.6724C26.6927 42.6763 26.6449 42.6608 26.6081 42.6294C26.5713 42.5981 26.5484 42.5534 26.5446 42.5051L25.2246 38.5451L23.8609 34.4906C23.8032 34.3083 23.8109 34.1117 23.8826 33.9345C23.9543 33.7573 24.0855 33.6106 24.2536 33.5197L41.1409 23.8397L44.3191 22.0215C44.7809 21.7524 45.2536 22.3379 44.8464 22.6724Z" fill="white"/>
</g>
<defs>
<clipPath id="clip0_40_52134">
<rect width="64" height="64" fill="white"/>
</clipPath>
</defs>
</svg>
