<svg width="64" height="64" viewBox="0 0 64 64" fill="none" xmlns="http://www.w3.org/2000/svg">
<g clip-path="url(#clip0_40_52131)">
<path d="M55.2727 0H8.72727C3.90733 0 0 3.90733 0 8.72727V55.2727C0 60.0927 3.90733 64 8.72727 64H55.2727C60.0927 64 64 60.0927 64 55.2727V8.72727C64 3.90733 60.0927 0 55.2727 0Z" fill="#0077FF"/>
<path d="M34.054 46.1061C19.4673 46.1061 11.1474 36.1061 10.8008 19.4661H18.1074C18.3474 31.6794 23.734 36.8527 28.0006 37.9194V19.4661H34.8809V29.9994C39.0942 29.5461 43.5204 24.7461 45.0137 19.4661H51.8938C50.7472 25.9727 45.9472 30.7727 42.5338 32.7461C45.9472 34.3461 51.4141 38.5327 53.4941 46.1061H45.9205C44.2938 41.0394 40.2409 37.1194 34.8809 36.5861V46.1061H34.054Z" fill="white"/>
</g>
<defs>
<clipPath id="clip0_40_52131">
<rect width="64" height="64" fill="white"/>
</clipPath>
</defs>
</svg>
