<svg width="89" height="98" viewBox="0 0 89 98" fill="none" xmlns="http://www.w3.org/2000/svg">
<g clip-path="url(#clip0_36_10574)">
<path d="M84.6816 33.6603C80.1688 23.8762 66.4028 21.7904 66.4028 21.7904V3.35986H50.9302H37.3538H21.8812V21.7525C21.8812 21.7525 8.1152 23.8383 3.60237 33.6224C-0.341617 42.193 -0.0761561 77.0821 0.0755357 91.6445C0.113459 94.8679 2.54053 97.4467 5.49852 97.4467H37.3917H50.9302H82.8234C85.7814 97.4467 88.2084 94.8679 88.2464 91.6445C88.3601 77.12 88.6256 42.2309 84.6816 33.6603Z" fill="#376733"/>
<path d="M88.2083 86.1085C88.1704 89.332 85.7434 91.9107 82.7854 91.9107H50.8922H37.3537H5.49842C2.54043 91.9107 0.113362 89.332 0.0754393 86.1085C0.0375164 83.6814 -0.000406575 80.6476 -0.000406575 77.2725C-0.0383295 82.9609 0.0375164 88.0805 0.0754393 91.8349C0.113362 95.0583 2.54043 97.6371 5.49842 97.6371H37.3916H50.9301H82.8233C85.7813 97.6371 88.2083 95.0583 88.2463 91.8349C88.2842 88.0805 88.3221 82.9609 88.3221 77.2725C88.2463 80.6476 88.2463 83.6814 88.2083 86.1085Z" fill="#28482F"/>
<path d="M84.6818 33.6603C80.169 23.8762 66.4029 21.7904 66.4029 21.7904V3.35986H56.0879V21.7525C56.0879 21.7525 69.8539 23.8383 74.3668 33.6224C78.3107 42.193 78.0453 77.0821 77.8936 91.6445C77.8557 94.8679 75.4286 97.4467 72.4706 97.4467H82.7856C85.7436 97.4467 88.1707 94.8679 88.2086 91.6445C88.3603 77.12 88.6258 42.2309 84.6818 33.6603Z" fill="#273F31"/>
<path d="M69.0959 16.5189H19.1514V4.19399C19.1514 2.0703 20.8958 0.36377 22.9816 0.36377H65.3036C67.4273 0.36377 69.1338 2.0703 69.1338 4.19399V16.5189H69.0959Z" fill="#E6E6E6"/>
<path d="M68.5259 18.2261H19.7949V21.6012H68.5259V18.2261Z" fill="#E6E6E6"/>
<path d="M65.3036 0.36377H53.4717C55.5954 0.36377 57.3019 2.0703 57.3019 4.19399V16.5189H69.1339V4.19399C69.0959 2.0703 67.3894 0.36377 65.3036 0.36377Z" fill="#D1D1D1"/>
<path d="M69.1337 18.2261H57.3018V21.6012H69.1337V18.2261Z" fill="#D1D1D1"/>
<path d="M21.8809 21.7905L72.1667 26.8722L66.4024 21.7905H21.8809Z" fill="#21512B"/>
<path d="M74.3658 41.7759H13.1582V80.9124H74.3658V41.7759Z" fill="#E6E6E6"/>
<path d="M59.3488 41.7756C53.3191 47.6536 47.2514 53.5317 41.2217 59.4097C40.2357 60.3578 38.8705 61.4196 37.619 60.8887C36.3675 60.3957 35.9504 58.6133 34.661 58.1962C33.7129 57.8928 32.7649 58.4237 31.9306 58.9546C24.9907 63.3916 19.1126 69.4593 14.8652 76.475L24.4218 77.7644C27.6073 74.541 30.7929 71.3175 33.9784 68.132C34.7369 67.4115 35.8745 66.6151 36.7088 67.2598C37.0881 67.5631 37.2018 68.0562 37.4673 68.4733C38.0741 69.4593 39.3635 69.8385 40.4632 69.6489C41.6009 69.4593 42.5869 68.8525 43.535 68.2078C47.6307 65.4015 51.1196 61.8747 54.5326 58.272C58.6662 53.9488 62.6861 49.5118 66.5542 44.9611C67.4643 43.9372 68.3366 42.8753 69.095 41.6997H59.3488V41.7756Z" fill="#376733"/>
<path d="M74.3668 73.6318H13.1592V80.951H74.3668V73.6318Z" fill="#545454"/>
<path d="M74.3658 41.7759H13.1582V44.658H74.3658V41.7759Z" fill="#545454"/>
<path d="M72.1669 66.4633C72.1669 69.2696 69.8916 71.5829 67.0473 71.5829C64.241 71.5829 61.9277 69.3076 61.9277 66.4633C61.9277 63.657 64.2031 61.3438 67.0473 61.3438C69.8916 61.3438 72.1669 63.657 72.1669 66.4633Z" fill="#545454"/>
<path opacity="0.46" d="M10.6941 37.1112C8.60829 41.8895 8.22906 47.2746 8.68414 52.47C8.79791 53.9111 8.98752 55.3901 9.59429 56.6795C10.2011 58.0068 11.225 59.1824 12.5902 59.6754C14.5622 60.358 16.8755 59.372 18.2028 57.7413C19.5301 56.1106 20.0989 53.9869 20.4023 51.9012C21.1229 47.0091 20.7436 41.662 23.4741 37.4905C24.8393 35.3668 26.8871 33.8119 28.8591 32.2192C29.8072 31.4607 30.8691 30.4368 30.7932 29.2233C30.7174 28.2752 29.9589 27.5167 29.1246 26.9858C25.5219 24.7484 21.6917 26.379 18.3924 28.2752C14.9414 30.2851 12.2868 33.5086 10.6941 37.1112Z" fill="white"/>
<path opacity="0.46" d="M14.9031 62.5196C13.2724 62.4817 11.6038 62.9747 10.2765 63.8848C9.93517 64.1124 9.59387 64.3778 9.32841 64.7191C8.56995 65.7051 8.60787 67.1462 9.17672 68.246C10.3144 70.4455 13.5758 71.204 15.5478 69.6871C17.5198 68.2081 17.7473 64.8708 15.927 63.1643L14.9031 62.5196Z" fill="white"/>
<path d="M21.882 3.35986H20.5547V16.5191H21.882V3.35986Z" fill="#D1D1D1"/>
<path d="M26.6974 3.35986H25.3701V16.5191H26.6974V3.35986Z" fill="#D1D1D1"/>
<path d="M31.5138 3.35986H30.1865V16.5191H31.5138V3.35986Z" fill="#D1D1D1"/>
<path d="M36.2921 3.35986H34.9648V16.5191H36.2921V3.35986Z" fill="#D1D1D1"/>
<path d="M41.1086 3.35986H39.7812V16.5191H41.1086V3.35986Z" fill="#D1D1D1"/>
<path d="M45.925 3.35986H44.5977V16.5191H45.925V3.35986Z" fill="#D1D1D1"/>
<path d="M50.7404 3.35986H49.4131V16.5191H50.7404V3.35986Z" fill="#D1D1D1"/>
<path d="M55.5187 3.35986H54.1914V16.5191H55.5187V3.35986Z" fill="#D1D1D1"/>
<path d="M46.4176 3.51155C46.8348 3.51155 47.3278 3.4357 47.4416 3.01855C47.5553 2.52555 46.9486 2.22217 46.4556 2.1084C42.8908 1.38786 39.1744 1.46371 35.5338 1.57748C32.5758 1.65332 29.6178 1.72917 26.6598 1.80501C25.4842 1.84294 21.1989 1.16032 20.668 2.63932C20.137 4.08039 22.5262 3.58739 23.3605 3.58739C24.8016 3.58739 26.2047 3.58739 27.6458 3.58739C30.6417 3.58739 33.6755 3.54947 36.6714 3.54947C39.9328 3.54947 43.1563 3.51155 46.4176 3.51155Z" fill="white"/>
<path d="M22.1843 19.7424C22.0326 19.8561 21.843 20.0078 21.805 20.1975C21.6913 20.5388 21.9567 20.8801 22.298 20.9938C22.6394 21.1076 22.9807 21.0697 23.322 21.0318C26.3558 20.6146 29.4655 20.6146 32.4993 20.9559C33.7887 21.1076 35.0781 21.3351 36.3295 21.0318C36.6329 20.9559 36.9363 20.8421 37.0121 20.5388C37.1259 20.0837 36.4812 19.8182 36.0261 19.7803C33.5232 19.5528 31.0203 19.3631 28.5174 19.2494C26.5833 19.1735 23.8529 18.5288 22.1843 19.7424Z" fill="white"/>
</g>
<defs>
<clipPath id="clip0_36_10574">
<rect width="88.2846" height="97.2723" fill="white" transform="translate(0 0.36377)"/>
</clipPath>
</defs>
</svg>
