<svg width="89" height="98" viewBox="0 0 89 98" fill="none" xmlns="http://www.w3.org/2000/svg">
<g clip-path="url(#clip0_36_10601)">
<path d="M85.2519 33.6608C80.7391 23.8767 66.9731 21.7909 66.9731 21.7909V3.36035H51.5005H37.9241H22.4515V21.753C22.4515 21.753 8.68551 23.8387 4.17268 33.6228C0.228696 42.1934 0.494156 77.0825 0.645848 91.6449C0.683771 94.8684 3.11084 97.4471 6.06883 97.4471H37.962H51.5005H83.3937C86.3517 97.4471 88.7787 94.8684 88.8167 91.6449C88.9304 77.1204 89.1959 42.2314 85.2519 33.6608Z" fill="#DE1149"/>
<path d="M88.7786 86.107C88.7407 89.3305 86.3137 91.9092 83.3557 91.9092H51.4625H37.924H6.06873C3.11074 91.9092 0.683675 89.3305 0.645752 86.107C0.607829 83.68 0.569906 80.6461 0.569906 77.271C0.531983 82.9594 0.607829 88.079 0.645752 91.8334C0.683675 95.0569 3.11074 97.6356 6.06873 97.6356H37.9619H51.5004H83.3936C86.3516 97.6356 88.7786 95.0569 88.8166 91.8334C88.8545 88.079 88.8924 82.9594 88.8924 77.271C88.8166 80.6461 88.8166 83.68 88.7786 86.107Z" fill="#E81C3A"/>
<path d="M85.2521 33.6608C80.7393 23.8767 66.9732 21.7909 66.9732 21.7909V3.36035H56.6582V21.753C56.6582 21.753 70.4242 23.8387 74.9371 33.6228C78.881 42.1934 78.6156 77.0825 78.4639 91.6449C78.426 94.8684 75.9989 97.4471 73.0409 97.4471H83.3559C86.3139 97.4471 88.741 94.8684 88.7789 91.6449C88.9306 77.1204 89.1961 42.2314 85.2521 33.6608Z" fill="#CD1044"/>
<path d="M69.6652 16.5189H19.7207V4.19399C19.7207 2.0703 21.4652 0.36377 23.5509 0.36377H65.8729C67.9966 0.36377 69.7031 2.0703 69.7031 4.19399V16.5189H69.6652Z" fill="#E6E6E6"/>
<path d="M69.0962 18.2256H20.3652V21.6007H69.0962V18.2256Z" fill="#E6E6E6"/>
<path d="M65.873 0.36377H54.041C56.1647 0.36377 57.8712 2.0703 57.8712 4.19399V16.5189H69.7032V4.19399C69.6653 2.0703 67.9587 0.36377 65.873 0.36377Z" fill="#D1D1D1"/>
<path d="M69.703 18.2256H57.8711V21.6007H69.703V18.2256Z" fill="#D1D1D1"/>
<path d="M22.4512 21.7891L72.737 26.8707L66.9727 21.7891H22.4512Z" fill="#E81C3A"/>
<path d="M74.9361 41.7744H13.7285V80.9109H74.9361V41.7744Z" fill="#E6E6E6"/>
<path d="M59.9201 41.7756C53.8904 47.6536 47.8227 53.5317 41.793 59.4097C40.807 60.3578 39.4417 61.4196 38.1903 60.8887C36.9388 60.3957 36.5217 58.6133 35.2323 58.1962C34.2842 57.8928 33.3361 58.4237 32.5018 58.9546C25.5619 63.3916 19.6839 69.4593 15.4365 76.475L24.9931 77.7644C28.1786 74.541 31.3642 71.3175 34.5497 68.132C35.3081 67.4115 36.4458 66.6151 37.2801 67.2598C37.6594 67.5631 37.7731 68.0561 38.0386 68.4733C38.6454 69.4593 39.9347 69.8385 41.0345 69.6489C42.1722 69.4593 43.1582 68.8525 44.1063 68.2078C48.2019 65.4015 51.6908 61.8747 55.1039 58.272C59.2375 53.9488 63.2573 49.5118 67.1255 44.9611C68.0356 43.9372 68.9079 42.8753 69.6663 41.6997H59.9201V41.7756Z" fill="#DE1149"/>
<path d="M74.9361 73.6309H13.7285V80.95H74.9361V73.6309Z" fill="#545454"/>
<path d="M74.9361 41.7744H13.7285V44.6566H74.9361V41.7744Z" fill="#545454"/>
<path d="M72.7372 66.4633C72.7372 69.2696 70.4619 71.5829 67.6176 71.5829C64.8113 71.5829 62.498 69.3076 62.498 66.4633C62.498 63.657 64.7734 61.3438 67.6176 61.3438C70.4619 61.3438 72.7372 63.657 72.7372 66.4633Z" fill="#545454"/>
<path opacity="0.46" d="M11.2634 37.1112C9.17763 41.8895 8.7984 47.2746 9.25347 52.47C9.36724 53.9111 9.55686 55.3901 10.1636 56.6795C10.7704 58.0068 11.7943 59.1824 13.1595 59.6754C15.1315 60.358 17.4448 59.372 18.7721 57.7413C20.0994 56.1106 20.6683 53.9869 20.9717 51.9012C21.6922 47.0091 21.313 41.662 24.0434 37.4905C25.4086 35.3668 27.4565 33.8119 29.4285 32.2192C30.3765 31.4607 31.4384 30.4368 31.3625 29.2233C31.2867 28.2752 30.5282 27.5167 29.6939 26.9858C26.0913 24.7484 22.261 26.379 18.9617 28.2752C15.5108 30.2851 12.8562 33.5086 11.2634 37.1112Z" fill="white"/>
<path opacity="0.46" d="M15.4744 62.5196C13.8437 62.4817 12.1751 62.9747 10.8478 63.8848C10.5065 64.1124 10.1652 64.3778 9.8997 64.7191C9.14124 65.7051 9.17916 67.1462 9.748 68.246C10.8857 70.4455 14.1471 71.204 16.1191 69.6871C18.0911 68.2081 18.3186 64.8708 16.4983 63.1643L15.4744 62.5196Z" fill="white"/>
<path d="M22.4513 3.36035H21.124V16.5196H22.4513V3.36035Z" fill="#D1D1D1"/>
<path d="M27.2677 3.36035H25.9404V16.5196H27.2677V3.36035Z" fill="#D1D1D1"/>
<path d="M32.0841 3.36035H30.7568V16.5196H32.0841V3.36035Z" fill="#D1D1D1"/>
<path d="M36.8625 3.36035H35.5352V16.5196H36.8625V3.36035Z" fill="#D1D1D1"/>
<path d="M41.6779 3.36035H40.3506V16.5196H41.6779V3.36035Z" fill="#D1D1D1"/>
<path d="M46.4943 3.36035H45.167V16.5196H46.4943V3.36035Z" fill="#D1D1D1"/>
<path d="M51.3107 3.36035H49.9834V16.5196H51.3107V3.36035Z" fill="#D1D1D1"/>
<path d="M56.089 3.36035H54.7617V16.5196H56.089V3.36035Z" fill="#D1D1D1"/>
<path d="M46.9879 3.51106C47.4051 3.51106 47.8981 3.43521 48.0119 3.01806C48.1256 2.52506 47.5189 2.22168 47.0259 2.10791C43.4611 1.38737 39.7447 1.46322 36.1041 1.57699C33.1461 1.65283 30.1881 1.72868 27.2301 1.80453C26.0545 1.84245 21.7692 1.15984 21.2383 2.63883C20.7074 4.0799 23.0965 3.5869 23.9308 3.5869C25.3719 3.5869 26.775 3.5869 28.2161 3.5869C31.212 3.5869 34.2458 3.54898 37.2418 3.54898C40.5031 3.54898 43.7266 3.51106 46.9879 3.51106Z" fill="white"/>
<path d="M22.7546 19.7424C22.6029 19.8561 22.4133 20.0078 22.3754 20.1974C22.2616 20.5388 22.5271 20.8801 22.8684 20.9938C23.2097 21.1076 23.551 21.0697 23.8923 21.0318C26.9261 20.6146 30.0358 20.6146 33.0696 20.9559C34.359 21.1076 35.6484 21.3351 36.8998 21.0318C37.2032 20.9559 37.5066 20.8421 37.5825 20.5388C37.6962 20.0837 37.0515 19.8182 36.5965 19.7803C34.0935 19.5528 31.5906 19.3631 29.0877 19.2494C27.1536 19.1735 24.4232 18.5288 22.7546 19.7424Z" fill="white"/>
</g>
<defs>
<clipPath id="clip0_36_10601">
<rect width="88.2846" height="97.2723" fill="white" transform="translate(0.569336 0.36377)"/>
</clipPath>
</defs>
</svg>
