<svg width="90" height="98" viewBox="0 0 90 98" fill="none" xmlns="http://www.w3.org/2000/svg">
<g clip-path="url(#clip0_36_10628)">
<path d="M85.5351 33.6613C81.0223 23.8771 67.2563 21.7914 67.2563 21.7914V3.36084H51.7837H38.2073H22.7347V21.7535C22.7347 21.7535 8.96871 23.8392 4.45588 33.6233C0.511899 42.1939 0.77736 77.083 0.929051 91.6454C0.966974 94.8689 3.39404 97.4476 6.35203 97.4476H38.2452H51.7837H83.6769C86.6349 97.4476 89.0619 94.8689 89.0999 91.6454C89.2136 77.1209 89.4791 42.2318 85.5351 33.6613Z" fill="#6B11DE"/>
<path d="M89.0618 86.107C89.0239 89.3305 86.5969 91.9092 83.6389 91.9092H51.7457H38.2072H6.35193C3.39395 91.9092 0.966878 89.3305 0.928955 86.107C0.891032 83.68 0.853109 80.6461 0.853109 77.271C0.815186 82.9594 0.891032 88.079 0.928955 91.8334C0.966878 95.0569 3.39395 97.6356 6.35193 97.6356H38.2451H51.7836H83.6768C86.6348 97.6356 89.0618 95.0569 89.0998 91.8334C89.1377 88.079 89.1756 82.9594 89.1756 77.271C89.0998 80.6461 89.0998 83.68 89.0618 86.107Z" fill="#6533A5"/>
<path d="M85.5343 33.6613C81.0215 23.8771 67.2555 21.7914 67.2555 21.7914V3.36084H56.9404V21.7535C56.9404 21.7535 70.7065 23.8392 75.2193 33.6233C79.1633 42.1939 78.8978 77.083 78.7461 91.6454C78.7082 94.8689 76.2811 97.4476 73.3231 97.4476H83.6382C86.5962 97.4476 89.0232 94.8689 89.0612 91.6454C89.2128 77.1209 89.4783 42.2318 85.5343 33.6613Z" fill="#550FAF"/>
<path d="M69.9484 16.5189H20.0039V4.19399C20.0039 2.0703 21.7484 0.36377 23.8341 0.36377H66.1561C68.2798 0.36377 69.9863 2.0703 69.9863 4.19399V16.5189H69.9484Z" fill="#E6E6E6"/>
<path d="M69.3794 18.2256H20.6484V21.6007H69.3794V18.2256Z" fill="#E6E6E6"/>
<path d="M66.1562 0.36377H54.3242C56.4479 0.36377 58.1544 2.0703 58.1544 4.19399V16.5189H69.9864V4.19399C69.9485 2.0703 68.2419 0.36377 66.1562 0.36377Z" fill="#D1D1D1"/>
<path d="M69.9863 18.2256H58.1543V21.6007H69.9863V18.2256Z" fill="#D1D1D1"/>
<path d="M22.7334 21.7891L73.0192 26.8707L67.2549 21.7891H22.7334Z" fill="#6533A5"/>
<path d="M75.2193 41.7744H14.0117V80.9109H75.2193V41.7744Z" fill="#E6E6E6"/>
<path d="M60.2033 41.7756C54.1736 47.6536 48.1059 53.5317 42.0762 59.4097C41.0902 60.3578 39.7249 61.4196 38.4735 60.8887C37.222 60.3957 36.8049 58.6133 35.5155 58.1962C34.5674 57.8928 33.6193 58.4237 32.785 58.9546C25.8451 63.3916 19.9671 69.4593 15.7197 76.475L25.2763 77.7644C28.4618 74.541 31.6474 71.3175 34.8329 68.132C35.5913 67.4115 36.729 66.6151 37.5633 67.2598C37.9426 67.5631 38.0563 68.0561 38.3218 68.4733C38.9286 69.4593 40.2179 69.8385 41.3177 69.6489C42.4554 69.4593 43.4414 68.8525 44.3895 68.2078C48.4851 65.4015 51.9741 61.8747 55.3871 58.272C59.5207 53.9488 63.5405 49.5118 67.4087 44.9611C68.3188 43.9372 69.1911 42.8753 69.9495 41.6997H60.2033V41.7756Z" fill="#6B11DE"/>
<path d="M75.2193 73.6309H14.0117V80.95H75.2193V73.6309Z" fill="#545454"/>
<path d="M75.2193 41.7744H14.0117V44.6566H75.2193V41.7744Z" fill="#545454"/>
<path d="M73.0204 66.4633C73.0204 69.2696 70.7451 71.5829 67.9008 71.5829C65.0945 71.5829 62.7812 69.3076 62.7812 66.4633C62.7812 63.657 65.0566 61.3438 67.9008 61.3438C70.7451 61.3438 73.0204 63.657 73.0204 66.4633Z" fill="#545454"/>
<path opacity="0.46" d="M11.5466 37.1112C9.46083 41.8895 9.0816 47.2746 9.53668 52.47C9.65045 53.9111 9.84006 55.3901 10.4468 56.6795C11.0536 58.0068 12.0775 59.1824 13.4427 59.6754C15.4147 60.358 17.728 59.372 19.0553 57.7413C20.3826 56.1106 20.9515 53.9869 21.2549 51.9012C21.9754 47.0091 21.5962 41.662 24.3266 37.4905C25.6918 35.3668 27.7397 33.8119 29.7117 32.2192C30.6597 31.4607 31.7216 30.4368 31.6457 29.2233C31.5699 28.2752 30.8114 27.5167 29.9771 26.9858C26.3745 24.7484 22.5442 26.379 19.2449 28.2752C15.794 30.2851 13.1394 33.5086 11.5466 37.1112Z" fill="white"/>
<path opacity="0.46" d="M15.7576 62.5196C14.1269 62.4817 12.4583 62.9747 11.131 63.8848C10.7897 64.1124 10.4484 64.3778 10.1829 64.7191C9.42444 65.7051 9.46236 67.1462 10.0312 68.246C11.1689 70.4455 14.4303 71.204 16.4023 69.6871C18.3743 68.2081 18.6018 64.8708 16.7815 63.1643L15.7576 62.5196Z" fill="white"/>
<path d="M22.7345 3.36084H21.4072V16.5201H22.7345V3.36084Z" fill="#D1D1D1"/>
<path d="M27.5509 3.36084H26.2236V16.5201H27.5509V3.36084Z" fill="#D1D1D1"/>
<path d="M32.3673 3.36084H31.04V16.5201H32.3673V3.36084Z" fill="#D1D1D1"/>
<path d="M37.1457 3.36084H35.8184V16.5201H37.1457V3.36084Z" fill="#D1D1D1"/>
<path d="M41.9611 3.36084H40.6338V16.5201H41.9611V3.36084Z" fill="#D1D1D1"/>
<path d="M46.7775 3.36084H45.4502V16.5201H46.7775V3.36084Z" fill="#D1D1D1"/>
<path d="M51.5939 3.36084H50.2666V16.5201H51.5939V3.36084Z" fill="#D1D1D1"/>
<path d="M56.3722 3.36084H55.0449V16.5201H56.3722V3.36084Z" fill="#D1D1D1"/>
<path d="M47.2702 3.51106C47.6873 3.51106 48.1803 3.43521 48.2941 3.01806C48.4079 2.52506 47.8011 2.22168 47.3081 2.10791C43.7433 1.38737 40.0269 1.46322 36.3863 1.57699C33.4283 1.65283 30.4703 1.72868 27.5123 1.80453C26.3367 1.84245 22.0514 1.15984 21.5205 2.63883C20.9896 4.0799 23.3787 3.5869 24.213 3.5869C25.6541 3.5869 27.0573 3.5869 28.4983 3.5869C31.4942 3.5869 34.5281 3.54898 37.524 3.54898C40.7854 3.54898 44.0088 3.51106 47.2702 3.51106Z" fill="white"/>
<path d="M23.0368 19.7429C22.8851 19.8566 22.6955 20.0083 22.6576 20.1979C22.5438 20.5392 22.8093 20.8806 23.1506 20.9943C23.4919 21.1081 23.8332 21.0702 24.1745 21.0322C27.2083 20.6151 30.318 20.6151 33.3519 20.9564C34.6412 21.1081 35.9306 21.3356 37.1821 21.0322C37.4855 20.9564 37.7888 20.8426 37.8647 20.5392C37.9784 20.0842 37.3338 19.8187 36.8787 19.7808C34.3758 19.5532 31.8729 19.3636 29.3699 19.2499C27.4359 19.174 24.7054 18.5293 23.0368 19.7429Z" fill="white"/>
</g>
<defs>
<clipPath id="clip0_36_10628">
<rect width="88.2846" height="97.2723" fill="white" transform="translate(0.853516 0.36377)"/>
</clipPath>
</defs>
</svg>
