<svg width="89" height="98" viewBox="0 0 89 98" fill="none" xmlns="http://www.w3.org/2000/svg">
<g clip-path="url(#clip0_36_10655)">
<path d="M84.9658 33.6593C80.453 23.8752 66.6869 21.7894 66.6869 21.7894V3.35889H51.2144H37.638H22.1654V21.7515C22.1654 21.7515 8.39938 23.8373 3.88655 33.6214C-0.0574369 42.192 0.208024 77.0811 0.359715 91.6435C0.397638 94.8669 2.82471 97.4457 5.78269 97.4457H37.6759H51.2144H83.1076C86.0655 97.4457 88.4926 94.8669 88.5305 91.6435C88.6443 77.119 88.9098 42.2299 84.9658 33.6593Z" fill="#FDC020"/>
<path d="M88.4935 86.1066C88.4556 89.33 86.0285 91.9088 83.0705 91.9088H51.1773H37.6388H5.78357C2.82559 91.9088 0.398518 89.33 0.360596 86.1066C0.322673 83.6795 0.28475 80.6456 0.28475 77.2705C0.246827 82.9589 0.322673 88.0785 0.360596 91.8329C0.398518 95.0564 2.82559 97.6351 5.78357 97.6351H37.6768H51.2152H83.1084C86.0664 97.6351 88.4935 95.0564 88.5314 91.8329C88.5693 88.0785 88.6073 82.9589 88.6073 77.2705C88.5314 80.6456 88.5314 83.6795 88.4935 86.1066Z" fill="#EAB52F"/>
<path d="M84.9669 33.6593C80.4541 23.8752 66.6881 21.7894 66.6881 21.7894V3.35889H56.373V21.7515C56.373 21.7515 70.1391 23.8373 74.6519 33.6214C78.5959 42.192 78.3304 77.0811 78.1787 91.6435C78.1408 94.8669 75.7137 97.4457 72.7558 97.4457H83.0708C86.0288 97.4457 88.4559 94.8669 88.4938 91.6435C88.6455 77.119 88.9109 42.2299 84.9669 33.6593Z" fill="#EAB52F"/>
<path d="M69.3791 16.518H19.4346V4.19301C19.4346 2.06932 21.179 0.362793 23.2648 0.362793H65.5868C67.7105 0.362793 69.417 2.06932 69.417 4.19301V16.518H69.3791Z" fill="#E6E6E6"/>
<path d="M68.8101 18.2236H20.0791V21.5988H68.8101V18.2236Z" fill="#E6E6E6"/>
<path d="M65.5878 0.362793H53.7559C55.8795 0.362793 57.5861 2.06932 57.5861 4.19301V16.518H69.418V4.19301C69.3801 2.06932 67.6736 0.362793 65.5878 0.362793Z" fill="#D1D1D1"/>
<path d="M69.4169 18.2236H57.585V21.5988H69.4169V18.2236Z" fill="#D1D1D1"/>
<path d="M22.166 21.7896L72.4518 26.8712L66.6875 21.7896H22.166Z" fill="#EAB52F"/>
<path d="M74.651 41.7744H13.4434V80.9109H74.651V41.7744Z" fill="#E6E6E6"/>
<path d="M59.633 41.7741C53.6033 47.6521 47.5356 53.5302 41.5059 59.4083C40.5199 60.3563 39.1546 61.4182 37.9032 60.8872C36.6517 60.3943 36.2346 58.6119 34.9452 58.1947C33.9971 57.8913 33.049 58.4223 32.2147 58.9532C25.2748 63.3902 19.3968 69.4578 15.1494 76.4736L24.706 77.763C27.8915 74.5395 31.077 71.3161 34.2626 68.1305C35.021 67.41 36.1587 66.6136 36.993 67.2583C37.3723 67.5617 37.486 68.0547 37.7515 68.4718C38.3583 69.4578 39.6476 69.8371 40.7474 69.6474C41.8851 69.4578 42.8711 68.8511 43.8192 68.2064C47.9148 65.4001 51.4037 61.8732 54.8168 58.2706C58.9504 53.9473 62.9702 49.5104 66.8384 44.9596C67.7485 43.9357 68.6208 42.8739 69.3792 41.6982H59.633V41.7741Z" fill="#FFC931"/>
<path d="M74.651 73.6309H13.4434V80.95H74.651V73.6309Z" fill="#545454"/>
<path d="M74.651 41.7744H13.4434V44.6566H74.651V41.7744Z" fill="#545454"/>
<path d="M70.9793 70.0712C72.9786 68.0719 72.9786 64.8304 70.9793 62.8311C68.98 60.8318 65.7385 60.8318 63.7392 62.8311C61.7399 64.8304 61.7399 68.0719 63.7392 70.0712C65.7385 72.0705 68.98 72.0705 70.9793 70.0712Z" fill="#545454"/>
<path opacity="0.46" d="M10.9782 37.1093C8.89247 41.8876 8.51324 47.2726 8.96832 52.4681C9.08209 53.9091 9.2717 55.3881 9.87847 56.6775C10.4852 58.0048 11.5092 59.1804 12.8744 59.6734C14.8464 60.356 17.1597 59.37 18.487 57.7394C19.8143 56.1087 20.3831 53.985 20.6865 51.8992C21.407 47.0072 21.0278 41.66 23.7583 37.4885C25.1235 35.3648 27.1713 33.81 29.1433 32.2172C30.0914 31.4588 31.1532 30.4348 31.0774 29.2213C31.0015 28.2732 30.2431 27.5148 29.4088 26.9839C25.8061 24.7464 21.9759 26.3771 18.6766 28.2732C15.2256 30.2832 12.571 33.5066 10.9782 37.1093Z" fill="white"/>
<path opacity="0.46" d="M15.1882 62.5177C13.5575 62.4797 11.8889 62.9727 10.5616 63.8829C10.2203 64.1104 9.87902 64.3759 9.61356 64.7172C8.8551 65.7032 8.89303 67.1443 9.46187 68.244C10.5996 70.4436 13.8609 71.202 15.8329 69.6851C17.8049 68.2061 18.0325 64.8689 16.2122 63.1624L15.1882 62.5177Z" fill="white"/>
<path d="M22.1652 3.35889H20.8379V16.5181H22.1652V3.35889Z" fill="#D1D1D1"/>
<path d="M26.9816 3.35889H25.6543V16.5181H26.9816V3.35889Z" fill="#D1D1D1"/>
<path d="M31.799 3.35889H30.4717V16.5181H31.799V3.35889Z" fill="#D1D1D1"/>
<path d="M36.5763 3.35889H35.249V16.5181H36.5763V3.35889Z" fill="#D1D1D1"/>
<path d="M41.3927 3.35889H40.0654V16.5181H41.3927V3.35889Z" fill="#D1D1D1"/>
<path d="M46.2091 3.35889H44.8818V16.5181H46.2091V3.35889Z" fill="#D1D1D1"/>
<path d="M51.0246 3.35889H49.6973V16.5181H51.0246V3.35889Z" fill="#D1D1D1"/>
<path d="M55.8029 3.35889H54.4756V16.5181H55.8029V3.35889Z" fill="#D1D1D1"/>
<path d="M46.7028 3.51008C47.12 3.51008 47.6129 3.43424 47.7267 3.01708C47.8405 2.52409 47.2337 2.2207 46.7407 2.10693C43.176 1.3864 39.4595 1.46224 35.8189 1.57601C32.8609 1.65186 29.9029 1.7277 26.9449 1.80355C25.7693 1.84147 21.484 1.15886 20.9531 2.63785C20.4222 4.07893 22.8113 3.58593 23.6457 3.58593C25.0867 3.58593 26.4899 3.58593 27.9309 3.58593C30.9269 3.58593 33.9607 3.548 36.9566 3.548C40.218 3.548 43.4414 3.51008 46.7028 3.51008Z" fill="white"/>
<path d="M22.4694 19.7409C22.3177 19.8547 22.1281 20.0064 22.0902 20.196C21.9764 20.5373 22.2419 20.8786 22.5832 20.9924C22.9245 21.1061 23.2658 21.0682 23.6071 21.0303C26.641 20.6131 29.7506 20.6131 32.7845 20.9544C34.0739 21.1061 35.3632 21.3337 36.6147 21.0303C36.9181 20.9544 37.2215 20.8407 37.2973 20.5373C37.4111 20.0822 36.7664 19.8168 36.3113 19.7788C33.8084 19.5513 31.3055 19.3617 28.8026 19.2479C26.8685 19.1721 24.138 18.5274 22.4694 19.7409Z" fill="white"/>
</g>
<defs>
<clipPath id="clip0_36_10655">
<rect width="88.2846" height="97.2723" fill="white" transform="translate(0.28418 0.36377)"/>
</clipPath>
</defs>
</svg>
