<svg width="218" height="116" viewBox="0 0 218 116" fill="none" xmlns="http://www.w3.org/2000/svg">
<g clip-path="url(#clip0_40_52146)">
<path opacity="0.8" d="M163.811 70.5411C156.757 67.406 148.919 64.2708 145 65.8384C137.946 69.7573 142.649 82.2979 142.649 82.2979C142.649 81.5141 130.892 57.2168 118.351 61.9195C118.351 62.7033 117.568 62.7033 117.568 63.4871C122.27 85.433 107.378 116.001 107.378 116.001C107.378 116.001 105.027 97.1897 89.3513 91.7033C75.2432 86.2168 65.054 112.082 65.054 112.865C65.054 112.082 66.6216 97.1897 58 92.487C50.1622 87.7843 26.6486 108.947 25.8649 109.73C25.8649 108.947 35.2703 92.487 33.7027 81.5141C33.7027 71.3249 0 65.0546 0 65.0546C0 65.0546 34.4865 47.8114 46.2432 40.7573C46.2432 40.7573 46.2432 40.7573 47.027 40.7573L39.973 50.9465L49.3784 51.7303L87.7838 54.8654H90.9189L105.811 56.433L112.081 57.2168H114.432H115.216L120.703 50.1627L122.27 47.8114L136.378 52.5141L162.243 60.3519C163.811 63.487 163.811 66.6222 163.811 70.5411Z" fill="url(#paint0_linear_40_52146)"/>
<path d="M181.837 57.2195C182.621 64.2735 189.675 72.8951 190.459 73.6789C189.675 73.6789 165.378 57.2195 158.324 61.1384C151.27 65.0573 155.972 77.5978 155.972 77.5978C155.972 76.8141 144.216 52.5168 131.675 57.2195C130.891 57.2195 130.891 57.2195 130.108 58.0033C129.324 58.0033 129.324 58.787 128.54 58.787C119.135 65.0573 121.486 80.733 121.486 80.733C121.486 80.733 109.729 65.8411 105.027 51.733C105.027 50.9492 105.027 50.9492 104.243 50.1654C104.243 48.5979 103.459 47.8141 103.459 47.0303V46.2465C102.675 41.5438 102.675 36.8411 105.027 32.9222C105.027 32.9222 105.027 32.9222 105.027 32.1384C109.729 25.0843 115.216 25.8681 115.216 25.8681C111.297 -3.13188 149.702 0.00326061 155.189 0.00326061C155.972 0.00326061 155.972 0.00326061 155.972 0.00326061C155.972 0.00326061 148.135 7.8411 150.486 12.5438C150.486 13.3276 152.054 13.3276 153.621 13.3276C161.459 13.3276 181.054 6.27353 181.054 6.27353C181.054 6.27353 177.918 10.1924 175.567 14.1114C174.783 15.6789 174 17.2465 174 18.0303C174 20.3816 174 21.9492 175.567 23.5168C181.837 28.2195 217.108 39.1924 217.108 39.1924C217.108 39.1924 181.837 47.0303 181.054 54.8681C181.837 56.4357 181.837 57.2195 181.837 57.2195Z" fill="url(#paint1_linear_40_52146)"/>
<path opacity="0.4" d="M123.837 27.4382C123.837 27.4382 129.324 30.5733 145.783 20.3841C148.918 18.0328 152.053 15.6814 153.621 14.1139C152.053 14.1139 150.486 14.1139 150.486 13.3301C148.135 8.62739 155.972 0.789551 155.972 0.789551C155.972 0.789551 155.972 0.789551 155.189 0.789551C152.837 0.789551 148.918 1.57333 143.432 2.35712C126.972 4.70847 108.945 23.5193 123.837 27.4382Z" fill="url(#paint2_linear_40_52146)"/>
<path opacity="0.4" d="M136.377 29.7889C151.269 18.0321 177.134 8.62671 177.134 8.62671C177.134 8.62671 170.863 26.6537 157.539 33.7078C144.215 41.5456 136.377 29.7889 136.377 29.7889Z" fill="url(#paint3_linear_40_52146)"/>
<path opacity="0.4" d="M165.378 34.4895C175.567 25.0841 212.405 39.9759 212.405 39.9759C212.405 39.9759 198.297 47.03 177.135 44.6786C155.972 42.3273 165.378 34.4895 165.378 34.4895Z" fill="url(#paint4_linear_40_52146)"/>
<path d="M119.919 111.301C119.919 111.301 117.568 92.4899 101.892 87.0035C87.7842 81.517 77.5951 107.382 77.5951 108.166C77.5951 107.382 79.1626 92.4899 70.541 87.7872C62.7032 83.0845 39.1897 104.247 38.4059 105.03C38.4059 104.247 47.8113 87.7872 46.2437 76.8143C46.2437 65.8413 12.541 60.3548 12.541 60.3548C12.541 60.3548 28.2167 51.7332 39.9734 44.6791C44.6761 41.544 49.3789 38.4089 50.9464 36.8413C51.7302 35.2737 52.514 32.9224 51.7302 31.3548C51.7302 29.7872 50.9464 28.2197 50.1626 27.4359C48.5951 22.7332 45.4599 19.598 45.4599 19.598C45.4599 19.598 62.7032 24.3007 69.7572 23.517C71.3248 23.517 72.1086 22.7332 72.8924 21.9494C74.4599 17.2467 66.6221 10.9764 66.6221 10.9764C66.6221 10.9764 66.6221 10.9764 67.4059 10.9764C71.3248 10.1926 97.9734 10.1926 105.811 32.1386C106.595 34.4899 107.379 36.8413 107.379 39.1926C108.946 39.1926 113.649 39.1926 119.136 41.544C119.919 42.3278 120.703 42.3278 122.271 43.1116C123.055 43.8953 124.622 44.6791 125.406 46.2467C126.973 47.8143 127.757 49.3818 128.541 51.7332C128.541 51.7332 128.541 51.7332 128.541 52.517C129.325 54.0845 130.109 56.4359 130.109 58.0035C134.811 79.9494 119.919 111.301 119.919 111.301Z" fill="url(#paint5_linear_40_52146)"/>
<path opacity="0.4" d="M79.9461 54.8689C76.0272 73.6797 80.7299 97.977 80.7299 97.977C80.7299 97.977 94.0543 84.6526 94.838 69.7608C94.838 53.3013 79.9461 54.8689 79.9461 54.8689Z" fill="url(#paint6_linear_40_52146)"/>
<path opacity="0.4" d="M61.9202 46.2471C50.1635 42.3281 21.9473 56.4362 21.9473 56.4362C21.9473 56.4362 43.1094 72.1119 58.0013 61.139C72.8932 50.166 61.9202 46.2471 61.9202 46.2471Z" fill="url(#paint7_linear_40_52146)"/>
<path opacity="0.4" d="M121.487 99.5454C121.487 99.5454 141.866 61.14 119.136 45.4643C106.595 36.0589 97.1899 54.8697 97.1899 57.221C96.4061 76.0319 121.487 99.5454 121.487 99.5454Z" fill="url(#paint8_linear_40_52146)"/>
<path opacity="0.8" d="M106.594 54.0793C111.356 54.0793 115.216 50.2193 115.216 45.4577C115.216 40.6961 111.356 36.8361 106.594 36.8361C101.833 36.8361 97.9727 40.6961 97.9727 45.4577C97.9727 50.2193 101.833 54.0793 106.594 54.0793Z" fill="url(#paint9_linear_40_52146)"/>
<path opacity="0.8" d="M141.079 39.9721C141.079 47.81 134.809 54.0802 126.971 54.0802C119.134 54.0802 112.863 47.81 112.863 39.9721C112.863 32.1343 119.134 25.864 126.971 25.864C134.809 25.864 141.079 32.1343 141.079 39.9721Z" fill="url(#paint10_linear_40_52146)"/>
<path d="M112.081 55.6522C116.842 55.6522 120.702 51.7921 120.702 47.0306C120.702 42.269 116.842 38.4089 112.081 38.4089C107.319 38.4089 103.459 42.269 103.459 47.0306C103.459 51.7921 107.319 55.6522 112.081 55.6522Z" fill="url(#paint11_linear_40_52146)"/>
<path d="M112.081 29.7855C112.081 33.7044 108.946 36.8396 105.027 36.8396C101.108 36.8396 97.9727 33.7044 97.9727 29.7855C97.9727 25.8666 101.108 22.7314 105.027 22.7314C108.946 22.7314 112.081 25.8666 112.081 29.7855Z" fill="url(#paint12_linear_40_52146)"/>
<path d="M150.485 39.9739C150.485 47.8118 144.215 54.8658 135.593 54.8658C127.755 54.8658 120.701 48.5955 120.701 39.9739C120.701 31.3523 126.971 25.082 135.593 25.082C144.215 25.082 150.485 31.3523 150.485 39.9739Z" fill="url(#paint13_linear_40_52146)"/>
<path d="M146.567 33.7045C146.567 35.2721 146.567 36.0559 145.783 36.8397C144.999 36.8397 143.432 36.0559 143.432 35.2721C143.432 33.7045 143.432 32.9207 144.215 32.137C144.999 32.137 146.567 32.9207 146.567 33.7045Z" fill="white"/>
<path d="M116 43.8923C116 44.6761 116 45.4598 115.216 45.4598C114.432 45.4598 113.648 44.6761 113.648 43.8923C113.648 43.1085 113.648 42.3247 114.432 42.3247C114.432 43.1085 115.216 43.1085 116 43.8923Z" fill="white"/>
<path d="M161.992 21.2191C161.997 21.824 162.135 22.4203 162.397 22.9655C162.722 23.6217 163.223 24.1739 163.845 24.5596C164.467 24.9454 165.184 25.1494 165.915 25.1486C166.526 25.1464 167.127 24.9981 167.668 24.716C168.21 24.4339 168.677 24.0262 169.029 23.5269C169.412 23.0033 169.658 22.3923 169.745 21.7493C169.762 21.5729 169.762 21.3954 169.745 21.2191C169.745 20.1769 169.332 19.1774 168.596 18.4405C167.86 17.7036 166.862 17.2896 165.822 17.2896C164.781 17.2896 163.783 17.7036 163.048 18.4405C162.312 19.1774 161.898 20.1769 161.898 21.2191H161.992Z" fill="#FBE6DD"/>
<path d="M55.0697 38.5097C55.0728 38.8726 55.1558 39.2304 55.3126 39.5576C55.5076 39.9513 55.8086 40.2826 56.1817 40.514C56.5547 40.7455 56.9849 40.8679 57.4237 40.8674C57.79 40.8661 58.1507 40.7771 58.4757 40.6079C58.8007 40.4386 59.0806 40.194 59.292 39.8944C59.5216 39.5802 59.6693 39.2136 59.7217 38.8278C59.7316 38.722 59.7316 38.6155 59.7217 38.5097C59.7217 37.8844 59.4737 37.2847 59.0322 36.8425C58.5907 36.4004 57.992 36.152 57.3677 36.152C56.7433 36.152 56.1446 36.4004 55.7032 36.8425C55.2617 37.2847 55.0137 37.8844 55.0137 38.5097H55.0697Z" fill="#FBE6DD"/>
<path d="M94.4207 70.7334C94.4269 71.4592 94.5928 72.1748 94.9064 72.8291C95.2965 73.6166 95.8985 74.2791 96.6446 74.742C97.3907 75.2049 98.2511 75.4497 99.1287 75.4488C99.8613 75.4462 100.583 75.2682 101.233 74.9297C101.883 74.5912 102.442 74.1019 102.865 73.5028C103.325 72.8744 103.62 72.1412 103.725 71.3696C103.744 71.158 103.744 70.945 103.725 70.7334C103.725 69.4828 103.229 68.2834 102.346 67.3991C101.463 66.5147 100.265 66.0179 99.0166 66.0179C97.7679 66.0179 96.5705 66.5147 95.6876 67.3991C94.8046 68.2834 94.3086 69.4828 94.3086 70.7334H94.4207Z" fill="#FBE6DD"/>
</g>
<defs>
<linearGradient id="paint0_linear_40_52146" x1="0" y1="78.3492" x2="163.64" y2="78.3492" gradientUnits="userSpaceOnUse">
<stop stop-color="#9967C0"/>
<stop offset="0.1891" stop-color="#8571D6"/>
<stop offset="0.3936" stop-color="#916DDC"/>
<stop offset="0.6054" stop-color="#8F72E0"/>
<stop offset="0.8208" stop-color="#7B57C6"/>
<stop offset="1" stop-color="#7750C9"/>
</linearGradient>
<linearGradient id="paint1_linear_40_52146" x1="150.516" y1="43.3598" x2="242.07" y2="97.2888" gradientUnits="userSpaceOnUse">
<stop stop-color="#6B6901"/>
<stop offset="1" stop-color="#272C00"/>
</linearGradient>
<linearGradient id="paint2_linear_40_52146" x1="114.38" y1="35.1579" x2="157.085" y2="-3.54041" gradientUnits="userSpaceOnUse">
<stop/>
<stop offset="1" stop-color="#FDAC06"/>
</linearGradient>
<linearGradient id="paint3_linear_40_52146" x1="127.207" y1="50.6158" x2="173.179" y2="8.95799" gradientUnits="userSpaceOnUse">
<stop/>
<stop offset="1" stop-color="#FDAC06"/>
</linearGradient>
<linearGradient id="paint4_linear_40_52146" x1="148.491" y1="73.9604" x2="194.395" y2="32.3637" gradientUnits="userSpaceOnUse">
<stop/>
<stop offset="1" stop-color="#FDAC06"/>
</linearGradient>
<linearGradient id="paint5_linear_40_52146" x1="100.108" y1="6.23689" x2="40.4084" y2="147.587" gradientUnits="userSpaceOnUse">
<stop stop-color="#6B6901"/>
<stop offset="1" stop-color="#272C00"/>
</linearGradient>
<linearGradient id="paint6_linear_40_52146" x1="88.8586" y1="35.6796" x2="84.569" y2="95.2976" gradientUnits="userSpaceOnUse">
<stop/>
<stop offset="1" stop-color="#FDAC06"/>
</linearGradient>
<linearGradient id="paint7_linear_40_52146" x1="106.138" y1="61.2245" x2="31.7635" y2="53.5223" gradientUnits="userSpaceOnUse">
<stop/>
<stop offset="1" stop-color="#FDAC06"/>
</linearGradient>
<linearGradient id="paint8_linear_40_52146" x1="123.433" y1="117.608" x2="106.134" y2="22.8296" gradientUnits="userSpaceOnUse">
<stop/>
<stop offset="1" stop-color="#FDAC06"/>
</linearGradient>
<linearGradient id="paint9_linear_40_52146" x1="115.556" y1="35.8657" x2="105.49" y2="46.2281" gradientUnits="userSpaceOnUse">
<stop stop-color="#9F4057"/>
<stop offset="0.1891" stop-color="#A1445B"/>
<stop offset="0.3936" stop-color="#A85167"/>
<stop offset="0.6054" stop-color="#B3677B"/>
<stop offset="0.8208" stop-color="#C28596"/>
<stop offset="1" stop-color="#D1A4B2"/>
</linearGradient>
<linearGradient id="paint10_linear_40_52146" x1="141.453" y1="24.6256" x2="125.304" y2="41.2497" gradientUnits="userSpaceOnUse">
<stop stop-color="#9F4057"/>
<stop offset="0.1891" stop-color="#A1445B"/>
<stop offset="0.3936" stop-color="#A85167"/>
<stop offset="0.6054" stop-color="#B3677B"/>
<stop offset="0.8208" stop-color="#C28596"/>
<stop offset="1" stop-color="#D1A4B2"/>
</linearGradient>
<linearGradient id="paint11_linear_40_52146" x1="121.046" y1="37.7012" x2="110.979" y2="48.0636" gradientUnits="userSpaceOnUse">
<stop offset="0.3755" stop-color="#FD432C"/>
<stop offset="0.5192" stop-color="#FA3E2D"/>
<stop offset="0.6863" stop-color="#F13031"/>
<stop offset="0.8643" stop-color="#E21938"/>
<stop offset="1" stop-color="#D4023E"/>
</linearGradient>
<linearGradient id="paint12_linear_40_52146" x1="112.73" y1="22.0927" x2="104.445" y2="30.6202" gradientUnits="userSpaceOnUse">
<stop offset="0.3755" stop-color="#FD432C"/>
<stop offset="0.5192" stop-color="#FA3E2D"/>
<stop offset="0.6863" stop-color="#F13031"/>
<stop offset="0.8643" stop-color="#E21938"/>
<stop offset="1" stop-color="#D4023E"/>
</linearGradient>
<linearGradient id="paint13_linear_40_52146" x1="151.367" y1="23.6595" x2="134.485" y2="41.0383" gradientUnits="userSpaceOnUse">
<stop offset="0.3755" stop-color="#FD432C"/>
<stop offset="0.5192" stop-color="#FA3E2D"/>
<stop offset="0.6863" stop-color="#F13031"/>
<stop offset="0.8643" stop-color="#E21938"/>
<stop offset="1" stop-color="#D4023E"/>
</linearGradient>
<clipPath id="clip0_40_52146">
<rect width="217.892" height="116" fill="white"/>
</clipPath>
</defs>
</svg>
