<svg width="637" height="134" viewBox="0 0 637 134" fill="none" xmlns="http://www.w3.org/2000/svg">
<path d="M215.285 3.00415C215.285 45.4073 172.711 79.7829 120.204 79.7829C67.696 79.7829 25.1406 45.389 25.1406 3.00415" stroke="#D9C5B8" stroke-width="0.609065" stroke-miterlimit="10"/>
<path d="M45.8726 68.8062C47.0837 69.2484 48.412 69.2496 49.6238 68.8094C50.8357 68.3693 51.8537 67.516 52.4987 66.3997C53.1438 65.2833 53.3747 63.9753 53.1509 62.7056C52.9271 61.4358 52.2629 60.2856 51.275 59.4571L51.5065 58.848L52.2678 56.7224C52.2955 56.6416 52.2906 56.5531 52.2542 56.4758C52.2178 56.3985 52.1528 56.3384 52.0729 56.3082L51.7683 56.2047L51.9876 55.5956C52.0153 55.5148 52.0104 55.4264 51.974 55.3491C51.9377 55.2718 51.8726 55.2117 51.7927 55.1815L49.9655 54.5297C49.9255 54.5152 49.8831 54.5088 49.8406 54.5107C49.7981 54.5127 49.7564 54.523 49.7179 54.5411C49.6794 54.5592 49.6449 54.5848 49.6163 54.6163C49.5877 54.6478 49.5657 54.6846 49.5514 54.7247L49.3382 55.3337L49.0336 55.2241C48.9937 55.2096 48.9512 55.2031 48.9087 55.205C48.8662 55.207 48.8245 55.2173 48.786 55.2354C48.7476 55.2536 48.713 55.2791 48.6844 55.3106C48.6559 55.3421 48.6338 55.3789 48.6195 55.419L47.8582 57.5446L47.6267 58.1841C46.3384 58.1992 45.0965 58.6675 44.1191 59.507C43.1417 60.3465 42.4912 61.5034 42.2818 62.7747C42.0725 64.046 42.3177 65.3505 42.9743 66.459C43.6309 67.5676 44.6571 68.4094 45.8726 68.8367V68.8062Z" fill="url(#paint0_linear_40_51958)"/>
<path style="mix-blend-mode:screen" opacity="0.9" d="M6.75797 39.7195C11.5795 31.5658 18.7097 25.0242 27.2476 20.9212C35.7855 16.8182 45.348 15.3379 54.7269 16.6674C64.1057 17.997 72.8801 22.0766 79.9412 28.3909C87.0024 34.7052 92.0335 42.9708 94.399 52.1433C96.7644 61.3158 96.358 70.9837 93.231 79.9253C90.1041 88.8669 84.3969 96.6811 76.8307 102.38C69.2645 108.08 60.1787 111.409 50.7213 111.946C41.264 112.484 31.8595 110.206 23.6961 105.401C18.2434 102.227 13.4748 98.0029 9.66651 92.9728C5.85825 87.9427 3.08608 82.2068 1.51062 76.0976C-0.0648471 69.9883 -0.412276 63.6271 0.488462 57.3827C1.3892 51.1382 3.52019 45.1345 6.75797 39.7195Z" fill="url(#paint1_radial_40_51958)"/>
<path d="M77.092 86.9264C78.3459 87.2084 79.659 87.0409 80.802 86.4531C81.9449 85.8652 82.8449 84.8945 83.3448 83.7104C83.8447 82.5264 83.9126 81.2043 83.5368 79.9753C83.1609 78.7463 82.3651 77.6884 81.2885 76.9865L81.4407 76.3226L81.9341 74.1178C81.943 74.0762 81.9436 74.0332 81.9359 73.9914C81.9281 73.9495 81.9122 73.9096 81.889 73.874C81.8658 73.8383 81.8358 73.8076 81.8006 73.7836C81.7655 73.7596 81.726 73.7427 81.6843 73.7341L81.3737 73.661L81.5138 73.0519C81.532 72.9687 81.5166 72.8818 81.471 72.8099C81.4254 72.738 81.3532 72.6871 81.2702 72.6682L79.376 72.2418C79.293 72.2253 79.2067 72.2413 79.1353 72.2867C79.0638 72.3321 79.0126 72.4033 78.9923 72.4855L78.8522 73.0945L78.5355 73.0214C78.4523 73.0033 78.3653 73.0187 78.2935 73.0643C78.2216 73.1099 78.1707 73.1821 78.1518 73.2651L77.6584 75.4699L77.5122 76.1338C76.236 76.3074 75.0616 76.9249 74.1951 77.878C73.3287 78.831 72.8255 80.0587 72.7739 81.3458C72.7223 82.6328 73.1256 83.8968 73.913 84.9162C74.7003 85.9356 75.8215 86.6451 77.0798 86.9203L77.092 86.9264Z" fill="url(#paint2_linear_40_51958)"/>
<path style="mix-blend-mode:screen" opacity="0.9" d="M35.3051 66.5295C39.0873 57.8446 45.3588 50.4757 53.3273 45.3537C61.2958 40.2318 70.6038 37.5867 80.075 37.7527C89.5462 37.9187 98.7557 40.8883 106.54 46.2864C114.324 51.6844 120.333 59.2686 123.809 68.0806C127.284 76.8927 128.07 86.5372 126.066 95.7956C124.063 105.054 119.36 113.511 112.552 120.097C105.744 126.684 97.1362 131.105 87.8167 132.801C78.4972 134.498 68.8839 133.394 60.1915 129.629C54.3901 127.149 49.1383 123.544 44.7405 119.02C40.3426 114.496 36.8862 109.145 34.5715 103.276C32.2567 97.407 31.1297 91.137 31.2556 84.8292C31.3815 78.5215 32.7579 72.3015 35.3051 66.5295Z" fill="url(#paint3_radial_40_51958)"/>
<path d="M117.9 93.7387C119.187 93.672 120.409 93.1543 121.351 92.2766C122.294 91.3988 122.898 90.2171 123.056 88.9387C123.215 87.6604 122.918 86.367 122.218 85.2857C121.518 84.2043 120.459 83.4041 119.228 83.0253L119.185 82.3492L119.051 80.1079C119.049 80.0654 119.038 80.0239 119.02 79.9856C119.002 79.9474 118.976 79.9131 118.944 79.8848C118.912 79.8565 118.876 79.8347 118.835 79.8208C118.795 79.8068 118.753 79.8009 118.71 79.8033H118.388L118.351 79.1577C118.35 79.115 118.339 79.0731 118.321 79.0344C118.303 78.9958 118.277 78.9611 118.245 78.9327C118.214 78.9042 118.176 78.8825 118.136 78.8689C118.095 78.8552 118.053 78.8499 118.01 78.8532L116.079 78.9628C116.037 78.9651 115.995 78.9758 115.957 78.9942C115.919 79.0127 115.884 79.0385 115.856 79.0701C115.828 79.1018 115.806 79.1388 115.792 79.1789C115.778 79.219 115.772 79.2615 115.775 79.3039L115.811 79.9495H115.488C115.404 79.9542 115.325 79.992 115.268 80.0547C115.211 80.1173 115.181 80.1999 115.184 80.2845L115.312 82.5441L115.354 83.2202C114.173 83.736 113.211 84.6516 112.638 85.8062C112.065 86.9607 111.917 88.2803 112.22 89.5332C112.523 90.786 113.258 91.8919 114.296 92.6566C115.334 93.4213 116.608 93.7958 117.894 93.7144L117.9 93.7387Z" fill="url(#paint4_linear_40_51958)"/>
<path style="mix-blend-mode:screen" opacity="0.9" d="M64.4431 76.1162C65.7036 66.7278 69.7185 57.9237 75.9807 50.8163C82.2429 43.7089 90.4712 38.6171 99.626 36.1843C108.781 33.7514 118.451 34.0867 127.416 37.1477C136.38 40.2088 144.236 45.8582 149.991 53.3823C155.746 60.9063 159.141 69.9673 159.749 79.4204C160.356 88.8735 158.148 98.2945 153.403 106.493C148.658 114.692 141.589 121.3 133.09 125.483C124.591 129.666 115.043 131.236 105.652 129.994C99.394 129.197 93.356 127.166 87.8881 124.019C82.4202 120.872 77.6311 116.671 73.7982 111.659C69.9654 106.648 67.1649 100.926 65.559 94.8253C63.9532 88.7241 63.5739 82.365 64.4431 76.1162Z" fill="url(#paint5_radial_40_51958)"/>
<path d="M209.869 52.6982C211.012 52.1239 211.918 51.1676 212.431 49.9953C212.943 48.8229 213.029 47.5082 212.674 46.279C212.319 45.0498 211.545 43.9835 210.487 43.2649C209.428 42.5462 208.152 42.2205 206.878 42.3441L206.574 41.7351L205.569 39.713C205.531 39.6362 205.464 39.5777 205.383 39.5503C205.302 39.5229 205.213 39.5288 205.136 39.5668L204.85 39.713L204.564 39.1343C204.526 39.0576 204.459 38.9991 204.378 38.9717C204.297 38.9443 204.208 38.9502 204.131 38.9882L202.396 39.847C202.319 39.8849 202.26 39.9518 202.233 40.0329C202.205 40.114 202.211 40.2027 202.249 40.2794L202.536 40.858L202.249 41.0042C202.211 41.0223 202.176 41.0481 202.148 41.0799C202.12 41.1117 202.098 41.1489 202.084 41.1893C202.071 41.2297 202.065 41.2724 202.068 41.3149C202.072 41.3574 202.084 41.3988 202.103 41.4366L203.108 43.4587L203.407 44.0678C202.537 45.009 202.025 46.2252 201.958 47.505C201.892 48.7848 202.277 50.0473 203.045 51.0731C203.813 52.0989 204.916 52.8232 206.163 53.1201C207.409 53.417 208.721 53.2677 209.869 52.6982Z" fill="url(#paint6_linear_40_51958)"/>
<path style="mix-blend-mode:screen" opacity="0.9" d="M161.783 60.7191C159.252 51.5914 159.483 41.9182 162.447 32.9217C165.411 23.9252 170.975 16.0091 178.436 10.1734C185.897 4.33772 194.921 0.844371 204.366 0.134697C213.812 -0.574977 223.256 1.53086 231.505 6.18617C239.754 10.8415 246.439 17.8374 250.714 26.29C254.989 34.7426 256.663 44.2726 255.524 53.6761C254.385 63.0796 250.484 71.9346 244.315 79.1223C238.146 86.31 229.985 91.5079 220.863 94.0594C214.794 95.7887 208.443 96.2963 202.177 95.5529C195.911 94.8095 189.855 92.8299 184.36 89.7287C178.864 86.6276 174.039 82.4665 170.164 77.4868C166.288 72.5071 163.44 66.8078 161.783 60.7191Z" fill="url(#paint7_radial_40_51958)"/>
<path d="M183.192 71.3415C184.457 71.5901 185.769 71.3849 186.898 70.7619C188.027 70.139 188.9 69.1383 189.364 67.9355C189.827 66.7328 189.853 65.405 189.435 64.1855C189.017 62.966 188.182 61.9329 187.078 61.2676L187.206 60.6037L187.626 58.3806C187.641 58.2959 187.621 58.209 187.572 58.1385C187.523 58.0679 187.449 58.0193 187.364 58.003L187.048 57.9482L187.169 57.3086C187.178 57.267 187.179 57.224 187.17 57.1822C187.162 57.1404 187.146 57.1007 187.122 57.0655C187.098 57.0302 187.067 57.0001 187.031 56.977C186.996 56.9539 186.956 56.9383 186.914 56.931L185.013 56.5717C184.929 56.5556 184.842 56.5735 184.772 56.6215C184.701 56.6694 184.652 56.7435 184.636 56.8275L184.514 57.4365L184.197 57.3817C184.156 57.3729 184.113 57.3726 184.071 57.3808C184.029 57.389 183.989 57.4055 183.954 57.4294C183.919 57.4532 183.889 57.484 183.866 57.5198C183.843 57.5555 183.827 57.5956 183.82 57.6375L183.399 59.8545L183.271 60.5184C181.999 60.7315 180.843 61.3864 180.006 62.3679C179.169 63.3494 178.705 64.5946 178.695 65.8845C178.686 67.1744 179.132 68.4263 179.954 69.42C180.777 70.4137 181.923 71.0855 183.192 71.3171V71.3415Z" fill="url(#paint8_linear_40_51958)"/>
<path style="mix-blend-mode:screen" opacity="0.9" d="M140.028 48.6903C143.524 39.8865 149.55 32.3162 157.347 26.9361C165.143 21.556 174.359 18.6074 183.83 18.4629C193.301 18.3183 202.603 20.9843 210.56 26.124C218.517 31.2637 224.772 38.6464 228.534 47.3395C232.297 56.0326 233.398 65.6458 231.7 74.9647C230.001 84.2836 225.579 92.8899 218.991 99.6963C212.403 106.503 203.945 111.204 194.687 113.206C185.428 115.207 175.784 114.42 166.973 110.943C161.093 108.655 155.725 105.224 151.181 100.847C146.636 96.4697 143.006 91.2343 140.499 85.4439C137.993 79.6536 136.661 73.4233 136.58 67.1144C136.499 60.8054 137.671 54.543 140.028 48.6903Z" fill="url(#paint9_radial_40_51958)"/>
<path d="M159.859 87.6017C160.878 86.813 161.587 85.6904 161.861 84.431C162.135 83.1716 161.956 81.856 161.356 80.7153C160.756 79.5745 159.774 78.6816 158.581 78.1934C157.388 77.7051 156.062 77.6528 154.834 78.0455L154.414 77.5156L153.019 75.7371C152.966 75.6705 152.89 75.6273 152.805 75.6171C152.721 75.6068 152.636 75.6302 152.569 75.6823L152.313 75.8833L151.917 75.3717C151.864 75.305 151.787 75.2619 151.703 75.2516C151.618 75.2414 151.533 75.2648 151.466 75.3169L149.937 76.535C149.87 76.5888 149.827 76.6668 149.817 76.7522C149.807 76.8376 149.83 76.9236 149.883 76.9918L150.285 77.4973L150.029 77.6983C149.962 77.7511 149.919 77.828 149.909 77.9124C149.898 77.9968 149.922 78.0818 149.974 78.149L151.369 79.9275L151.783 80.4635C151.125 81.5613 150.871 82.8549 151.067 84.12C151.263 85.385 151.895 86.5417 152.854 87.3894C153.813 88.2372 155.039 88.7225 156.318 88.7613C157.598 88.8001 158.85 88.3898 159.859 87.6017Z" fill="url(#paint10_linear_40_51958)"/>
<path style="mix-blend-mode:screen" opacity="0.9" d="M102.23 107.618C97.9057 99.1909 96.1762 89.6706 97.2601 80.2606C98.3441 70.8505 102.193 61.9728 108.32 54.7491C114.447 47.5255 122.578 42.28 131.685 39.6754C140.793 37.0709 150.467 37.2241 159.488 40.1157C168.508 43.0073 176.469 48.5076 182.364 55.9216C188.259 63.3357 191.825 72.3308 192.611 81.7704C193.396 91.2101 191.366 100.671 186.777 108.957C182.188 117.244 175.246 123.984 166.828 128.327C161.234 131.248 155.117 133.029 148.83 133.568C142.543 134.107 136.212 133.393 130.203 131.466C124.194 129.54 118.628 126.44 113.826 122.347C109.024 118.253 105.083 113.247 102.23 107.618Z" fill="url(#paint11_radial_40_51958)"/>
<path d="M405.874 3.00415C405.874 45.4073 363.3 79.7829 310.792 79.7829C258.285 79.7829 215.705 45.389 215.705 3.00415" stroke="#D9C5B8" stroke-width="0.609065" stroke-miterlimit="10"/>
<path d="M236.437 68.8062C237.648 69.2484 238.976 69.2496 240.188 68.8094C241.4 68.3693 242.418 67.516 243.063 66.3997C243.708 65.2833 243.939 63.9753 243.715 62.7056C243.491 61.4358 242.827 60.2856 241.839 59.4571L242.071 58.848L242.832 56.7224C242.86 56.6416 242.855 56.5531 242.818 56.4758C242.782 56.3985 242.717 56.3384 242.637 56.3082L242.333 56.2047L242.546 55.5956C242.56 55.5556 242.567 55.5132 242.565 55.4707C242.563 55.4282 242.553 55.3865 242.534 55.348C242.516 55.3095 242.491 55.275 242.459 55.2464C242.428 55.2178 242.391 55.1958 242.351 55.1815L240.524 54.5297C240.484 54.5152 240.441 54.5088 240.399 54.5107C240.356 54.5127 240.315 54.523 240.276 54.5411C240.238 54.5592 240.203 54.5848 240.174 54.6163C240.146 54.6478 240.124 54.6846 240.109 54.7247L239.896 55.3337L239.592 55.2241C239.552 55.2096 239.509 55.2031 239.467 55.205C239.424 55.207 239.383 55.2173 239.344 55.2354C239.306 55.2536 239.271 55.2791 239.243 55.3106C239.214 55.3421 239.192 55.3789 239.178 55.419L238.428 57.5142L238.197 58.1537C236.909 58.1687 235.667 58.6371 234.689 59.4765C233.712 60.316 233.061 61.473 232.852 62.7443C232.643 64.0156 232.888 65.32 233.545 66.4286C234.201 67.5371 235.227 68.3789 236.443 68.8062H236.437Z" fill="url(#paint12_linear_40_51958)"/>
<path style="mix-blend-mode:screen" opacity="0.9" d="M197.322 39.7195C202.144 31.5658 209.274 25.0242 217.812 20.9212C226.35 16.8182 235.912 15.3379 245.291 16.6674C254.67 17.997 263.445 22.0766 270.506 28.3909C277.567 34.7052 282.598 42.9708 284.963 52.1433C287.329 61.3158 286.922 70.9837 283.795 79.9253C280.669 88.8669 274.961 96.6811 267.395 102.38C259.829 108.08 250.743 111.409 241.286 111.946C231.828 112.484 222.424 110.206 214.261 105.401C208.808 102.227 204.039 98.0029 200.231 92.9728C196.423 87.9427 193.651 82.2068 192.075 76.0976C190.5 69.9883 190.152 63.6271 191.053 57.3827C191.954 51.1382 194.085 45.1345 197.322 39.7195Z" fill="url(#paint13_radial_40_51958)"/>
<path d="M267.664 86.9256C268.919 87.2125 270.236 87.0485 271.382 86.4622C272.528 85.8759 273.432 84.9048 273.934 83.7191C274.436 82.5335 274.504 81.2089 274.127 79.9777C273.751 78.7466 272.952 77.6873 271.873 76.9857L272.025 76.3218L272.518 74.117C272.527 74.0754 272.528 74.0324 272.52 73.9906C272.513 73.9487 272.497 73.9088 272.473 73.8732C272.45 73.8375 272.42 73.8068 272.385 73.7828C272.35 73.7588 272.31 73.7419 272.269 73.7332L271.958 73.6602L272.098 73.0511C272.116 72.9679 272.101 72.881 272.055 72.8091C272.01 72.7372 271.938 72.6863 271.855 72.6674L269.96 72.241C269.877 72.2228 269.79 72.2382 269.718 72.2839C269.647 72.3295 269.596 72.4017 269.577 72.4847L269.437 73.0937L269.12 73.0206C269.037 73.0025 268.95 73.0178 268.878 73.0635C268.806 73.1091 268.755 73.1813 268.736 73.2643L268.243 75.4691L268.091 76.133C266.815 76.3074 265.641 76.9257 264.775 77.8792C263.909 78.8327 263.407 80.0606 263.356 81.3475C263.305 82.6344 263.709 83.8982 264.497 84.917C265.284 85.9359 266.406 86.6449 267.664 86.9195V86.9256Z" fill="url(#paint14_linear_40_51958)"/>
<path style="mix-blend-mode:screen" opacity="0.9" d="M225.253 62.8766C229.035 54.1916 235.306 46.8224 243.274 41.7001C251.242 36.5778 260.55 33.9322 270.021 34.0975C279.492 34.2629 288.702 37.2318 296.486 42.6291C304.271 48.0265 310.281 55.6101 313.757 64.4217C317.233 73.2334 318.019 82.8777 316.017 92.1361C314.014 101.394 309.312 109.852 302.504 116.439C295.697 123.026 287.09 127.447 277.771 129.145C268.452 130.842 258.839 129.74 250.146 125.976C244.344 123.496 239.093 119.891 234.695 115.367C230.297 110.844 226.84 105.493 224.525 99.6237C222.209 93.7548 221.082 87.4849 221.207 81.1771C221.332 74.8693 222.707 68.649 225.253 62.8766Z" fill="url(#paint15_radial_40_51958)"/>
<path d="M308.47 93.7354C309.757 93.6698 310.979 93.153 311.923 92.2757C312.867 91.3985 313.471 90.2168 313.631 88.9381C313.79 87.6595 313.494 86.3656 312.794 85.2837C312.094 84.2018 311.035 83.401 309.804 83.0219L309.761 82.3458L309.633 80.0862C309.627 80.0011 309.588 79.9218 309.524 79.865C309.461 79.8082 309.377 79.7783 309.292 79.7817H308.969L308.933 79.1361C308.931 79.0937 308.92 79.0521 308.901 79.0138C308.883 78.9756 308.857 78.9413 308.826 78.913C308.794 78.8847 308.757 78.863 308.717 78.849C308.677 78.835 308.634 78.8291 308.592 78.8315L306.661 78.9412C306.619 78.9435 306.577 78.9542 306.539 78.9726C306.501 78.991 306.466 79.0168 306.438 79.0485C306.41 79.0802 306.388 79.1171 306.374 79.1573C306.36 79.1974 306.354 79.2398 306.357 79.2822L306.393 79.9279H306.07C306.028 79.9294 305.987 79.9393 305.948 79.9571C305.91 79.9749 305.876 80.0001 305.848 80.0313C305.819 80.0625 305.797 80.0991 305.783 80.1388C305.769 80.1786 305.763 80.2207 305.766 80.2628L305.894 82.5225L305.93 83.1985C304.716 83.6938 303.72 84.6078 303.122 85.7746C302.525 86.9414 302.365 88.2838 302.672 89.5584C302.979 90.8329 303.733 91.9551 304.797 92.7214C305.861 93.4878 307.164 93.8475 308.47 93.7354Z" fill="url(#paint16_linear_40_51958)"/>
<path style="mix-blend-mode:screen" opacity="0.9" d="M255.007 77.9426C256.268 68.5545 260.282 59.7505 266.544 52.6431C272.806 45.5357 281.034 40.4437 290.188 38.0105C299.343 35.5773 309.013 35.9121 317.978 38.9725C326.942 42.033 334.798 47.6818 340.553 55.2053C346.309 62.7287 349.705 71.7892 350.313 81.2421C350.921 90.6949 348.714 100.116 343.97 108.315C339.226 116.514 332.158 123.122 323.66 127.306C315.161 131.49 305.614 133.061 296.223 131.821C289.964 131.024 283.925 128.994 278.457 125.847C272.988 122.7 268.198 118.499 264.365 113.488C260.531 108.477 257.73 102.755 256.124 96.653C254.518 90.5515 254.138 84.1919 255.007 77.9426Z" fill="url(#paint17_radial_40_51958)"/>
<path d="M400.44 52.6986C401.582 52.1242 402.488 51.1686 403 49.997C403.512 48.8254 403.599 47.5116 403.244 46.283C402.89 45.0543 402.118 43.9881 401.061 43.2689C400.003 42.5497 398.728 42.2227 397.455 42.3445L397.151 41.7354L396.146 39.7133C396.108 39.6366 396.041 39.5781 395.96 39.5507C395.879 39.5233 395.79 39.5292 395.713 39.5671L395.427 39.7133L395.141 39.1347C395.102 39.0576 395.034 38.999 394.951 38.9716C394.869 38.9442 394.78 38.9503 394.702 38.9885L392.972 39.8473C392.896 39.8853 392.837 39.9522 392.81 40.0333C392.782 40.1144 392.788 40.203 392.826 40.2797L393.112 40.8584L392.826 41.0045C392.788 41.0227 392.753 41.0484 392.725 41.0803C392.696 41.1121 392.675 41.1493 392.661 41.1896C392.647 41.23 392.642 41.2727 392.645 41.3152C392.649 41.3577 392.66 41.3991 392.68 41.437L393.685 43.4591L393.983 44.0681C393.116 45.0093 392.606 46.2243 392.54 47.5024C392.475 48.7805 392.859 50.0412 393.625 51.066C394.392 52.0907 395.493 52.815 396.738 53.1132C397.982 53.4114 399.292 53.2647 400.44 52.6986Z" fill="url(#paint18_linear_40_51958)"/>
<path style="mix-blend-mode:screen" opacity="0.9" d="M352.324 60.7191C349.793 51.5914 350.024 41.9182 352.988 32.9217C355.952 23.9252 361.516 16.0091 368.977 10.1734C376.438 4.33772 385.462 0.844371 394.907 0.134697C404.353 -0.574977 413.797 1.53086 422.046 6.18617C430.295 10.8415 436.98 17.8374 441.255 26.29C445.53 34.7426 447.204 44.2726 446.065 53.6761C444.926 63.0796 441.026 71.9346 434.856 79.1223C428.687 86.31 420.526 91.5079 411.404 94.0594C405.335 95.7887 398.984 96.2963 392.718 95.5529C386.452 94.8095 380.396 92.8299 374.901 89.7287C369.405 86.6276 364.58 82.4665 360.705 77.4868C356.829 72.5071 353.981 66.8078 352.324 60.7191Z" fill="url(#paint19_radial_40_51958)"/>
<path d="M373.757 71.3416C375.022 71.5901 376.334 71.3849 377.462 70.762C378.591 70.1391 379.464 69.1383 379.928 67.9356C380.392 66.7328 380.417 65.4051 379.999 64.1856C379.581 62.9661 378.747 61.9329 377.643 61.2676L377.764 60.6038L378.191 58.3807C378.205 58.296 378.186 58.2091 378.137 58.1385C378.088 58.068 378.013 58.0193 377.929 58.0031L377.612 57.9482L377.734 57.3087C377.75 57.2247 377.732 57.1378 377.684 57.067C377.636 56.9962 377.562 56.9473 377.478 56.9311L375.572 56.5717C375.488 56.5588 375.403 56.578 375.333 56.6255C375.263 56.6729 375.213 56.7451 375.194 56.8276L375.078 57.4366L374.762 57.3818C374.72 57.373 374.677 57.3727 374.635 57.3809C374.593 57.389 374.554 57.4056 374.519 57.4294C374.483 57.4533 374.453 57.4841 374.43 57.5198C374.407 57.5556 374.391 57.5957 374.384 57.6376L373.958 59.8546L373.836 60.5185C372.564 60.7316 371.407 61.3865 370.57 62.368C369.733 63.3495 369.269 64.5947 369.26 65.8846C369.25 67.1745 369.696 68.4264 370.519 69.4201C371.341 70.4137 372.488 71.0855 373.757 71.3172V71.3416Z" fill="url(#paint20_linear_40_51958)"/>
<path style="mix-blend-mode:screen" opacity="0.9" d="M330.593 48.6903C334.088 39.8865 340.115 32.3162 347.911 26.9361C355.707 21.556 364.923 18.6074 374.395 18.4629C383.866 18.3183 393.168 20.9843 401.124 26.124C409.081 31.2637 415.336 38.6464 419.099 47.3395C422.861 56.0326 423.963 65.6458 422.264 74.9647C420.566 84.2836 416.143 92.8899 409.555 99.6963C402.967 106.503 394.51 111.204 385.251 113.206C375.993 115.207 366.349 114.42 357.538 110.943C351.657 108.655 346.29 105.224 341.745 100.847C337.201 96.4697 333.57 91.2343 331.064 85.4439C328.558 79.6536 327.225 73.4233 327.145 67.1144C327.064 60.8054 328.236 54.543 330.593 48.6903Z" fill="url(#paint21_radial_40_51958)"/>
<path d="M350.441 87.6022C351.46 86.8135 352.169 85.6909 352.443 84.4315C352.717 83.1721 352.538 81.8565 351.938 80.7158C351.338 79.5751 350.356 78.6822 349.163 78.1939C347.97 77.7056 346.644 77.6533 345.416 78.046L344.996 77.5161L343.601 75.7376C343.548 75.671 343.472 75.6278 343.387 75.6176C343.303 75.6073 343.218 75.6308 343.151 75.6828L342.895 75.8838L342.499 75.3722C342.445 75.3051 342.367 75.2619 342.282 75.2516C342.196 75.2414 342.11 75.265 342.042 75.3174L340.519 76.5355C340.452 76.5894 340.409 76.6673 340.399 76.7527C340.389 76.8381 340.412 76.9241 340.465 76.9923L340.86 77.4978L340.611 77.6988C340.544 77.7516 340.501 77.8285 340.491 77.9129C340.48 77.9973 340.504 78.0823 340.556 78.1495L341.945 79.928L342.365 80.464C341.692 81.5619 341.427 82.8617 341.616 84.1356C341.805 85.4094 342.437 86.5759 343.401 87.4304C344.364 88.2849 345.598 88.7729 346.885 88.8088C348.173 88.8446 349.431 88.4261 350.441 87.6266V87.6022Z" fill="url(#paint22_linear_40_51958)"/>
<path style="mix-blend-mode:screen" opacity="0.9" d="M295.632 105.789C291.308 97.3613 289.578 87.841 290.662 78.431C291.746 69.0209 295.595 60.1432 301.722 52.9195C307.85 45.6959 315.981 40.4504 325.088 37.8459C334.195 35.2413 343.87 35.3945 352.89 38.2861C361.91 41.1777 369.871 46.678 375.766 54.092C381.662 61.5061 385.228 70.5012 386.013 79.9409C386.799 89.3805 384.768 98.8413 380.179 107.128C375.59 115.414 368.648 122.154 360.23 126.497C354.637 129.418 348.519 131.2 342.232 131.739C335.945 132.277 329.614 131.563 323.605 129.637C317.597 127.711 312.03 124.611 307.228 120.517C302.426 116.423 298.485 111.417 295.632 105.789Z" fill="url(#paint23_radial_40_51958)"/>
<path d="M596.436 3.00415C596.436 45.4073 553.862 79.7829 501.349 79.7829C448.835 79.7829 406.268 45.389 406.268 3.00415" stroke="#D9C5B8" stroke-width="0.609065" stroke-miterlimit="10"/>
<path d="M427 68.8062C428.211 69.2484 429.539 69.2496 430.751 68.8094C431.963 68.3693 432.981 67.516 433.626 66.3997C434.271 65.2833 434.502 63.9753 434.278 62.7056C434.054 61.4358 433.39 60.2856 432.402 59.4571L432.634 58.848L433.395 56.7224C433.421 56.6415 433.415 56.5537 433.379 56.4768C433.343 56.3999 433.279 56.3396 433.2 56.3082L432.896 56.2047L433.109 55.5956C433.123 55.5556 433.13 55.5132 433.128 55.4707C433.126 55.4282 433.115 55.3865 433.097 55.348C433.079 55.3095 433.054 55.275 433.022 55.2464C432.991 55.2178 432.954 55.1958 432.914 55.1815L431.087 54.5297C431.047 54.5152 431.004 54.5088 430.962 54.5107C430.919 54.5127 430.877 54.523 430.839 54.5411C430.801 54.5592 430.766 54.5848 430.737 54.6163C430.709 54.6478 430.687 54.6846 430.672 54.7247L430.453 55.3337L430.149 55.2241C430.109 55.2097 430.067 55.2033 430.025 55.2053C429.983 55.2073 429.942 55.2177 429.904 55.2359C429.866 55.254 429.832 55.2796 429.804 55.311C429.776 55.3424 429.754 55.3792 429.741 55.419L428.979 57.5446L428.748 58.1841C427.459 58.1992 426.218 58.6675 425.24 59.507C424.263 60.3465 423.612 61.5034 423.403 62.7747C423.194 64.046 423.439 65.3505 424.095 66.459C424.752 67.5676 425.778 68.4094 426.994 68.8367L427 68.8062Z" fill="url(#paint24_linear_40_51958)"/>
<path style="mix-blend-mode:screen" opacity="0.9" d="M387.887 39.7195C392.708 31.5658 399.839 25.0242 408.377 20.9212C416.914 16.8182 426.477 15.3379 435.856 16.6674C445.235 17.997 454.009 22.0766 461.07 28.3909C468.131 34.7052 473.162 42.9708 475.528 52.1433C477.893 61.3158 477.487 70.9837 474.36 79.9253C471.233 88.8669 465.526 96.6811 457.96 102.38C450.393 108.08 441.308 111.409 431.85 111.946C422.393 112.484 412.988 110.206 404.825 105.401C399.372 102.227 394.604 98.0029 390.795 92.9728C386.987 87.9427 384.215 82.2068 382.64 76.0976C381.064 69.9883 380.717 63.6271 381.617 57.3827C382.518 51.1382 384.649 45.1345 387.887 39.7195Z" fill="url(#paint25_radial_40_51958)"/>
<path d="M458.221 86.9256C459.476 87.2125 460.792 87.0485 461.938 86.4622C463.085 85.8759 463.988 84.9048 464.49 83.7191C464.992 82.5335 465.061 81.2089 464.684 79.9777C464.307 78.7466 463.509 77.6873 462.429 76.9857L462.576 76.3218L463.069 74.117C463.079 74.0757 463.08 74.033 463.073 73.9912C463.066 73.9493 463.051 73.9094 463.028 73.8736C463.006 73.8378 462.976 73.8069 462.941 73.7828C462.906 73.7587 462.867 73.7419 462.825 73.7332L462.509 73.6602L462.655 73.0511C462.673 72.9679 462.658 72.881 462.612 72.8091C462.566 72.7372 462.494 72.6863 462.411 72.6674L460.517 72.241C460.434 72.2228 460.347 72.2382 460.275 72.2839C460.203 72.3295 460.152 72.4017 460.133 72.4847L459.993 73.0937L459.676 73.0206C459.593 73.0025 459.506 73.0178 459.434 73.0635C459.363 73.1091 459.312 73.1813 459.293 73.2643L458.799 75.4691L458.647 76.133C457.371 76.3074 456.197 76.9257 455.331 77.8792C454.466 78.8327 453.963 80.0606 453.912 81.3475C453.862 82.6344 454.265 83.8982 455.053 84.917C455.841 85.9359 456.963 86.6449 458.221 86.9195V86.9256Z" fill="url(#paint26_linear_40_51958)"/>
<path style="mix-blend-mode:screen" opacity="0.9" d="M415.818 62.8766C419.599 54.1916 425.87 46.8224 433.839 41.7001C441.807 36.5778 451.114 33.9322 460.585 34.0975C470.057 34.2629 479.266 37.2318 487.051 42.6291C494.835 48.0265 500.845 55.6101 504.321 64.4217C507.797 73.2334 508.584 82.8777 506.581 92.1361C504.578 101.394 499.876 109.852 493.069 116.439C486.262 123.026 477.655 127.447 468.335 129.145C459.016 130.842 449.403 129.74 440.71 125.976C434.909 123.496 429.657 119.891 425.259 115.367C420.861 110.844 417.404 105.493 415.089 99.6237C412.774 93.7548 411.646 87.4849 411.771 81.1771C411.896 74.8693 413.272 68.649 415.818 62.8766Z" fill="url(#paint27_radial_40_51958)"/>
<path d="M499.022 93.7354C500.307 93.6638 501.525 93.1426 502.464 92.263C503.404 91.3834 504.003 90.2015 504.159 88.9243C504.314 87.647 504.015 86.3558 503.314 85.2767C502.614 84.1976 501.556 83.3994 500.326 83.0219L500.289 82.3458L500.161 80.0862C500.155 80.0011 500.116 79.9218 500.052 79.865C499.988 79.8082 499.905 79.7783 499.82 79.7817H499.497L499.461 79.1361C499.458 79.0937 499.448 79.0521 499.429 79.0138C499.411 78.9756 499.385 78.9413 499.353 78.913C499.322 78.8847 499.285 78.863 499.245 78.849C499.204 78.835 499.162 78.8291 499.12 78.8315L497.189 78.9412C497.146 78.9435 497.105 78.9542 497.067 78.9726C497.028 78.991 496.994 79.0168 496.966 79.0485C496.937 79.0802 496.916 79.1171 496.902 79.1573C496.888 79.1974 496.882 79.2398 496.884 79.2822L496.921 79.9279H496.598C496.556 79.9294 496.514 79.9393 496.476 79.9571C496.438 79.9749 496.404 80.0001 496.375 80.0313C496.347 80.0625 496.325 80.0991 496.311 80.1388C496.297 80.1786 496.291 80.2207 496.294 80.2628L496.421 82.5225L496.458 83.1985C495.277 83.7144 494.315 84.63 493.742 85.7845C493.169 86.9391 493.021 88.2587 493.324 89.5115C493.627 90.7643 494.362 91.8703 495.4 92.6349C496.437 93.3996 497.711 93.7741 498.998 93.6927L499.022 93.7354Z" fill="url(#paint28_linear_40_51958)"/>
<path style="mix-blend-mode:screen" opacity="0.9" d="M446.791 74.898C448.051 65.5098 452.066 56.7059 458.327 49.5984C464.589 42.491 472.817 37.399 481.972 34.9658C491.126 32.5326 500.796 32.8674 509.761 35.9279C518.725 38.9883 526.581 44.6371 532.337 52.1606C538.092 59.684 541.488 68.7446 542.096 78.1974C542.704 87.6502 540.497 97.0712 535.753 105.27C531.009 113.469 523.941 120.078 515.443 124.261C506.945 128.445 497.397 130.016 488.006 128.776C481.747 127.979 475.708 125.949 470.24 122.802C464.771 119.655 459.981 115.454 456.148 110.443C452.314 105.432 449.513 99.7098 447.907 93.6083C446.301 87.5068 445.921 81.1472 446.791 74.898Z" fill="url(#paint29_radial_40_51958)"/>
<path d="M590.993 52.6982C592.135 52.1239 593.041 51.1682 593.553 49.9966C594.065 48.825 594.152 47.5112 593.797 46.2826C593.443 45.054 592.671 43.9878 591.614 43.2686C590.556 42.5493 589.281 42.2223 588.008 42.3441L587.704 41.7351L586.699 39.713C586.661 39.6362 586.594 39.5777 586.513 39.5503C586.432 39.5229 586.343 39.5288 586.266 39.5668L585.98 39.713L585.688 39.1343C585.65 39.0576 585.583 38.9991 585.502 38.9717C585.421 38.9443 585.332 38.9502 585.255 38.9882L583.525 39.847C583.487 39.8651 583.452 39.8909 583.424 39.9227C583.396 39.9545 583.374 39.9917 583.36 40.0321C583.347 40.0724 583.341 40.1152 583.345 40.1577C583.348 40.2002 583.36 40.2416 583.379 40.2794L583.666 40.858L583.373 41.0042C583.298 41.0433 583.24 41.1103 583.213 41.1909C583.186 41.2716 583.191 41.3596 583.227 41.4366L584.238 43.4587L584.537 44.0678C583.657 45.0067 583.135 46.2253 583.063 47.5101C582.991 48.7948 583.374 50.0639 584.144 51.0951C584.913 52.1263 586.021 52.8538 587.274 53.1502C588.526 53.4467 589.842 53.2931 590.993 52.7165V52.6982Z" fill="url(#paint30_linear_40_51958)"/>
<path style="mix-blend-mode:screen" opacity="0.9" d="M542.912 60.7191C540.381 51.5914 540.612 41.9182 543.576 32.9217C546.54 23.9252 552.104 16.0091 559.565 10.1734C567.026 4.33772 576.05 0.844371 585.495 0.134697C594.941 -0.574977 604.385 1.53086 612.634 6.18617C620.883 10.8415 627.568 17.8374 631.843 26.29C636.118 34.7426 637.792 44.2726 636.653 53.6761C635.514 63.0796 631.613 71.9346 625.444 79.1223C619.275 86.31 611.114 91.5079 601.992 94.0594C595.923 95.7887 589.572 96.2963 583.306 95.5529C577.04 94.8095 570.984 92.8299 565.488 89.7287C559.993 86.6276 555.168 82.4665 551.293 77.4868C547.417 72.5071 544.569 66.8078 542.912 60.7191Z" fill="url(#paint31_radial_40_51958)"/>
<path d="M564.321 71.3416C565.585 71.5878 566.896 71.381 568.023 70.7573C569.15 70.1337 570.022 69.1331 570.484 67.9311C570.947 66.7292 570.972 65.4026 570.555 64.1841C570.137 62.9656 569.304 61.9331 568.201 61.2676L568.329 60.6038L568.749 58.3807C568.765 58.2967 568.747 58.2097 568.699 58.1389C568.651 58.0681 568.577 58.0193 568.493 58.0031L568.177 57.9482L568.298 57.3087C568.314 57.2247 568.297 57.1378 568.249 57.067C568.201 56.9962 568.127 56.9473 568.043 56.9311L566.136 56.5717C566.053 56.5588 565.967 56.578 565.897 56.6255C565.827 56.6729 565.778 56.7451 565.759 56.8276L565.637 57.4366L565.326 57.3818C565.285 57.373 565.242 57.3727 565.2 57.3809C565.158 57.389 565.118 57.4056 565.083 57.4294C565.048 57.4533 565.018 57.4841 564.995 57.5198C564.971 57.5556 564.956 57.5957 564.949 57.6376L564.522 59.8546L564.4 60.5185C563.128 60.7316 561.972 61.3865 561.135 62.368C560.298 63.3495 559.834 64.5947 559.824 65.8846C559.815 67.1745 560.261 68.4264 561.083 69.4201C561.906 70.4137 563.052 71.0855 564.321 71.3172V71.3416Z" fill="url(#paint32_linear_40_51958)"/>
<path style="mix-blend-mode:screen" opacity="0.9" d="M521.157 48.6903C524.653 39.8865 530.679 32.3162 538.475 26.9361C546.272 21.556 555.488 18.6074 564.959 18.4629C574.43 18.3183 583.732 20.9843 591.689 26.124C599.646 31.2637 605.9 38.6464 609.663 47.3395C613.426 56.0326 614.527 65.6458 612.829 74.9647C611.13 84.2836 606.707 92.8899 600.12 99.6963C593.532 106.503 585.074 111.204 575.816 113.206C566.557 115.207 556.913 114.42 548.102 110.943C542.221 108.656 536.853 105.225 532.308 100.848C527.763 96.4711 524.132 91.2356 521.626 85.445C519.12 79.6544 517.788 73.4239 517.707 67.1146C517.627 60.8054 518.799 54.5429 521.157 48.6903Z" fill="url(#paint33_radial_40_51958)"/>
<path d="M541.006 87.6022C542.025 86.8135 542.734 85.6909 543.007 84.4315C543.281 83.1721 543.103 81.8565 542.503 80.7158C541.903 79.5751 540.92 78.6822 539.728 78.1939C538.535 77.7056 537.208 77.6533 535.981 78.046L535.56 77.5161L534.166 75.7376C534.113 75.671 534.036 75.6278 533.952 75.6176C533.867 75.6073 533.782 75.6308 533.715 75.6828L533.459 75.8838L533.063 75.3722C533.009 75.3051 532.931 75.2619 532.846 75.2516C532.761 75.2414 532.675 75.265 532.607 75.3174L531.084 76.5355C531.017 76.5894 530.974 76.6673 530.963 76.7527C530.953 76.8381 530.977 76.9241 531.029 76.9923L531.425 77.4978L531.175 77.6988C531.109 77.7516 531.065 77.8285 531.055 77.9129C531.045 77.9973 531.068 78.0823 531.12 78.1495L532.509 79.928L532.929 80.464C532.256 81.5619 531.991 82.8617 532.18 84.1356C532.37 85.4094 533.002 86.5759 533.965 87.4304C534.929 88.2849 536.162 88.7729 537.45 88.8088C538.737 88.8446 539.996 88.4261 541.006 87.6266V87.6022Z" fill="url(#paint34_linear_40_51958)"/>
<path style="mix-blend-mode:screen" opacity="0.9" d="M487.011 105.789C482.687 97.3613 480.957 87.841 482.041 78.431C483.125 69.0209 486.974 60.1432 493.101 52.9195C499.229 45.6959 507.359 40.4504 516.467 37.8459C525.574 35.2413 535.249 35.3945 544.269 38.2861C553.289 41.1777 561.25 46.678 567.145 54.092C573.041 61.5061 576.606 70.5012 577.392 79.9409C578.177 89.3805 576.147 98.8413 571.558 107.128C566.969 115.414 560.027 122.154 551.609 126.497C546.016 129.418 539.898 131.2 533.611 131.739C527.324 132.277 520.993 131.563 514.984 129.637C508.975 127.711 503.409 124.611 498.607 120.517C493.805 116.423 489.864 111.417 487.011 105.789Z" fill="url(#paint35_radial_40_51958)"/>
<defs>
<linearGradient id="paint0_linear_40_51958" x1="58.5508" y1="58.8701" x2="48.2339" y2="55.1384" gradientUnits="userSpaceOnUse">
<stop stop-color="#D5923A"/>
<stop offset="0.01" stop-color="#D89845"/>
<stop offset="0.07" stop-color="#E4B06D"/>
<stop offset="0.12" stop-color="#EEC48E"/>
<stop offset="0.18" stop-color="#F5D3A8"/>
<stop offset="0.24" stop-color="#FBDDBB"/>
<stop offset="0.3" stop-color="#FEE4C5"/>
<stop offset="0.36" stop-color="#FFE6C9"/>
</linearGradient>
<radialGradient id="paint1_radial_40_51958" cx="0" cy="0" r="1" gradientUnits="userSpaceOnUse" gradientTransform="translate(53.7099 59.4609) rotate(-149.036) scale(47.8527 47.6043)">
<stop stop-color="#D5923A"/>
<stop offset="0.01" stop-color="#D6953F" stop-opacity="0.97"/>
<stop offset="0.11" stop-color="#E0A85F" stop-opacity="0.74"/>
<stop offset="0.21" stop-color="#E8B87B" stop-opacity="0.54"/>
<stop offset="0.31" stop-color="#EFC693" stop-opacity="0.38"/>
<stop offset="0.42" stop-color="#F5D2A7" stop-opacity="0.24"/>
<stop offset="0.54" stop-color="#F9DBB6" stop-opacity="0.13"/>
<stop offset="0.66" stop-color="#FDE1C1" stop-opacity="0.06"/>
<stop offset="0.81" stop-color="#FEE5C7" stop-opacity="0.01"/>
<stop offset="1" stop-color="#FFE6C9" stop-opacity="0"/>
</radialGradient>
<linearGradient id="paint2_linear_40_51958" x1="77.393" y1="74.954" x2="66.6372" y2="72.5394" gradientUnits="userSpaceOnUse">
<stop stop-color="#F2DABA"/>
<stop offset="0.01" stop-color="#F1D5B1"/>
<stop offset="0.07" stop-color="#F3D7B2"/>
<stop offset="0.12" stop-color="#F3DCBE"/>
<stop offset="0.18" stop-color="#F5D3A8"/>
<stop offset="0.24" stop-color="#FBDDBB"/>
<stop offset="0.3" stop-color="#FEE4C5"/>
<stop offset="0.36" stop-color="#FFE6C9"/>
</linearGradient>
<radialGradient id="paint3_radial_40_51958" cx="0" cy="0" r="1" gradientUnits="userSpaceOnUse" gradientTransform="translate(75.8764 80.6673) rotate(-156.272) scale(47.9864 47.7922)">
<stop stop-color="#D5923A"/>
<stop offset="0.01" stop-color="#D6953F" stop-opacity="0.97"/>
<stop offset="0.11" stop-color="#E0A85F" stop-opacity="0.74"/>
<stop offset="0.21" stop-color="#E8B87B" stop-opacity="0.54"/>
<stop offset="0.31" stop-color="#EFC693" stop-opacity="0.38"/>
<stop offset="0.42" stop-color="#F5D2A7" stop-opacity="0.24"/>
<stop offset="0.54" stop-color="#F9DBB6" stop-opacity="0.13"/>
<stop offset="0.66" stop-color="#FDE1C1" stop-opacity="0.06"/>
<stop offset="0.81" stop-color="#FEE5C7" stop-opacity="0.01"/>
<stop offset="1" stop-color="#FFE6C9" stop-opacity="0"/>
</radialGradient>
<linearGradient id="paint4_linear_40_51958" x1="122.959" y1="86.1091" x2="112.001" y2="86.7352" gradientUnits="userSpaceOnUse">
<stop stop-color="#D5923A"/>
<stop offset="0.01" stop-color="#D89845"/>
<stop offset="0.07" stop-color="#E4B06D"/>
<stop offset="0.12" stop-color="#EEC48E"/>
<stop offset="0.18" stop-color="#F5D3A8"/>
<stop offset="0.24" stop-color="#FBDDBB"/>
<stop offset="0.3" stop-color="#FEE4C5"/>
<stop offset="0.36" stop-color="#FFE6C9"/>
</linearGradient>
<radialGradient id="paint5_radial_40_51958" cx="0" cy="0" r="1" gradientUnits="userSpaceOnUse" gradientTransform="translate(118.953 91.0698) rotate(-172.444) scale(47.7235 47.7235)">
<stop stop-color="#D5923A"/>
<stop offset="0.01" stop-color="#D6953F" stop-opacity="0.97"/>
<stop offset="0.11" stop-color="#E0A85F" stop-opacity="0.74"/>
<stop offset="0.21" stop-color="#E8B87B" stop-opacity="0.54"/>
<stop offset="0.31" stop-color="#EFC693" stop-opacity="0.38"/>
<stop offset="0.42" stop-color="#F5D2A7" stop-opacity="0.24"/>
<stop offset="0.54" stop-color="#F9DBB6" stop-opacity="0.13"/>
<stop offset="0.66" stop-color="#FDE1C1" stop-opacity="0.06"/>
<stop offset="0.81" stop-color="#FEE5C7" stop-opacity="0.01"/>
<stop offset="1" stop-color="#FFE6C9" stop-opacity="0"/>
</radialGradient>
<linearGradient id="paint6_linear_40_51958" x1="211.135" y1="30.5046" x2="201.257" y2="35.3338" gradientUnits="userSpaceOnUse">
<stop stop-color="#D5923A"/>
<stop offset="0.01" stop-color="#D89845"/>
<stop offset="0.07" stop-color="#E4B06D"/>
<stop offset="0.12" stop-color="#EEC48E"/>
<stop offset="0.18" stop-color="#F5D3A8"/>
<stop offset="0.24" stop-color="#FBDDBB"/>
<stop offset="0.3" stop-color="#FEE4C5"/>
<stop offset="0.36" stop-color="#FFE6C9"/>
</linearGradient>
<radialGradient id="paint7_radial_40_51958" cx="0" cy="0" r="1" gradientUnits="userSpaceOnUse" gradientTransform="translate(198.818 46.7944) rotate(164.846) scale(48.0131 47.6734)">
<stop stop-color="#D5923A"/>
<stop offset="0.01" stop-color="#D6953F" stop-opacity="0.97"/>
<stop offset="0.11" stop-color="#E0A85F" stop-opacity="0.74"/>
<stop offset="0.21" stop-color="#E8B87B" stop-opacity="0.54"/>
<stop offset="0.31" stop-color="#EFC693" stop-opacity="0.38"/>
<stop offset="0.42" stop-color="#F5D2A7" stop-opacity="0.24"/>
<stop offset="0.54" stop-color="#F9DBB6" stop-opacity="0.13"/>
<stop offset="0.66" stop-color="#FDE1C1" stop-opacity="0.06"/>
<stop offset="0.81" stop-color="#FEE5C7" stop-opacity="0.01"/>
<stop offset="1" stop-color="#FFE6C9" stop-opacity="0"/>
</radialGradient>
<linearGradient id="paint8_linear_40_51958" x1="190.073" y1="65.0723" x2="179.29" y2="63.0252" gradientUnits="userSpaceOnUse">
<stop stop-color="#D5923A"/>
<stop offset="0.01" stop-color="#D89845"/>
<stop offset="0.07" stop-color="#E4B06D"/>
<stop offset="0.12" stop-color="#EEC48E"/>
<stop offset="0.18" stop-color="#F5D3A8"/>
<stop offset="0.24" stop-color="#FBDDBB"/>
<stop offset="0.3" stop-color="#FEE4C5"/>
<stop offset="0.36" stop-color="#FFE6C9"/>
</linearGradient>
<radialGradient id="paint9_radial_40_51958" cx="0" cy="0" r="1" gradientUnits="userSpaceOnUse" gradientTransform="translate(185.552 63.2574) rotate(-158.091) scale(47.8758 47.6956)">
<stop stop-color="#D5923A"/>
<stop offset="0.01" stop-color="#D6953F" stop-opacity="0.97"/>
<stop offset="0.11" stop-color="#E0A85F" stop-opacity="0.74"/>
<stop offset="0.21" stop-color="#E8B87B" stop-opacity="0.54"/>
<stop offset="0.31" stop-color="#EFC693" stop-opacity="0.38"/>
<stop offset="0.42" stop-color="#F5D2A7" stop-opacity="0.24"/>
<stop offset="0.54" stop-color="#F9DBB6" stop-opacity="0.13"/>
<stop offset="0.66" stop-color="#FDE1C1" stop-opacity="0.06"/>
<stop offset="0.81" stop-color="#FEE5C7" stop-opacity="0.01"/>
<stop offset="1" stop-color="#FFE6C9" stop-opacity="0"/>
</radialGradient>
<linearGradient id="paint10_linear_40_51958" x1="159.597" y1="78.2467" x2="150.958" y2="85.0158" gradientUnits="userSpaceOnUse">
<stop stop-color="#D5923A"/>
<stop offset="0.01" stop-color="#D89845"/>
<stop offset="0.07" stop-color="#E4B06D"/>
<stop offset="0.12" stop-color="#EEC48E"/>
<stop offset="0.18" stop-color="#F5D3A8"/>
<stop offset="0.24" stop-color="#FBDDBB"/>
<stop offset="0.3" stop-color="#FEE4C5"/>
<stop offset="0.36" stop-color="#FFE6C9"/>
</linearGradient>
<radialGradient id="paint11_radial_40_51958" cx="0" cy="0" r="1" gradientUnits="userSpaceOnUse" gradientTransform="translate(156.643 83.5254) rotate(152.916) scale(47.7137 47.7137)">
<stop stop-color="#D5923A"/>
<stop offset="0.01" stop-color="#D6953F" stop-opacity="0.97"/>
<stop offset="0.11" stop-color="#E0A85F" stop-opacity="0.74"/>
<stop offset="0.21" stop-color="#E8B87B" stop-opacity="0.54"/>
<stop offset="0.31" stop-color="#EFC693" stop-opacity="0.38"/>
<stop offset="0.42" stop-color="#F5D2A7" stop-opacity="0.24"/>
<stop offset="0.54" stop-color="#F9DBB6" stop-opacity="0.13"/>
<stop offset="0.66" stop-color="#FDE1C1" stop-opacity="0.06"/>
<stop offset="0.81" stop-color="#FEE5C7" stop-opacity="0.01"/>
<stop offset="1" stop-color="#FFE6C9" stop-opacity="0"/>
</radialGradient>
<linearGradient id="paint12_linear_40_51958" x1="249.046" y1="59.5213" x2="238.729" y2="55.7897" gradientUnits="userSpaceOnUse">
<stop stop-color="#D5923A"/>
<stop offset="0.01" stop-color="#D89845"/>
<stop offset="0.07" stop-color="#E4B06D"/>
<stop offset="0.12" stop-color="#EEC48E"/>
<stop offset="0.18" stop-color="#F5D3A8"/>
<stop offset="0.24" stop-color="#FBDDBB"/>
<stop offset="0.3" stop-color="#FEE4C5"/>
<stop offset="0.36" stop-color="#FFE6C9"/>
</linearGradient>
<radialGradient id="paint13_radial_40_51958" cx="0" cy="0" r="1" gradientUnits="userSpaceOnUse" gradientTransform="translate(243.397 60.4767) rotate(-149.036) scale(47.8527 47.6043)">
<stop stop-color="#D5923A"/>
<stop offset="0.01" stop-color="#D6953F" stop-opacity="0.97"/>
<stop offset="0.11" stop-color="#E0A85F" stop-opacity="0.74"/>
<stop offset="0.21" stop-color="#E8B87B" stop-opacity="0.54"/>
<stop offset="0.31" stop-color="#EFC693" stop-opacity="0.38"/>
<stop offset="0.42" stop-color="#F5D2A7" stop-opacity="0.24"/>
<stop offset="0.54" stop-color="#F9DBB6" stop-opacity="0.13"/>
<stop offset="0.66" stop-color="#FDE1C1" stop-opacity="0.06"/>
<stop offset="0.81" stop-color="#FEE5C7" stop-opacity="0.01"/>
<stop offset="1" stop-color="#FFE6C9" stop-opacity="0"/>
</radialGradient>
<linearGradient id="paint14_linear_40_51958" x1="268.795" y1="75.0362" x2="258.039" y2="72.6216" gradientUnits="userSpaceOnUse">
<stop stop-color="#E8D7AE"/>
<stop offset="0.01" stop-color="#F3CA94"/>
<stop offset="0.07" stop-color="#F2D0A5"/>
<stop offset="0.12" stop-color="#F8DCB9"/>
<stop offset="0.18" stop-color="#F5D3A8"/>
<stop offset="0.24" stop-color="#FBDDBB"/>
<stop offset="0.3" stop-color="#FEE4C5"/>
<stop offset="0.36" stop-color="#FFE6C9"/>
</linearGradient>
<radialGradient id="paint15_radial_40_51958" cx="0" cy="0" r="1" gradientUnits="userSpaceOnUse" gradientTransform="translate(265.623 77.4199) rotate(-156.272) scale(47.9864 47.7922)">
<stop stop-color="#D5923A"/>
<stop offset="0.01" stop-color="#D6953F" stop-opacity="0.97"/>
<stop offset="0.11" stop-color="#E0A85F" stop-opacity="0.74"/>
<stop offset="0.21" stop-color="#E8B87B" stop-opacity="0.54"/>
<stop offset="0.31" stop-color="#EFC693" stop-opacity="0.38"/>
<stop offset="0.42" stop-color="#F5D2A7" stop-opacity="0.24"/>
<stop offset="0.54" stop-color="#F9DBB6" stop-opacity="0.13"/>
<stop offset="0.66" stop-color="#FDE1C1" stop-opacity="0.06"/>
<stop offset="0.81" stop-color="#FEE5C7" stop-opacity="0.01"/>
<stop offset="1" stop-color="#FFE6C9" stop-opacity="0"/>
</radialGradient>
<linearGradient id="paint16_linear_40_51958" x1="313.516" y1="86.1018" x2="302.558" y2="86.7279" gradientUnits="userSpaceOnUse">
<stop stop-color="#D5923A"/>
<stop offset="0.01" stop-color="#D89845"/>
<stop offset="0.07" stop-color="#E4B06D"/>
<stop offset="0.12" stop-color="#EEC48E"/>
<stop offset="0.18" stop-color="#F5D3A8"/>
<stop offset="0.24" stop-color="#FBDDBB"/>
<stop offset="0.3" stop-color="#FEE4C5"/>
<stop offset="0.36" stop-color="#FFE6C9"/>
</linearGradient>
<radialGradient id="paint17_radial_40_51958" cx="0" cy="0" r="1" gradientUnits="userSpaceOnUse" gradientTransform="translate(308.836 92.3376) rotate(-172.444) scale(47.7235 47.7235)">
<stop stop-color="#D5923A"/>
<stop offset="0.01" stop-color="#D6953F" stop-opacity="0.97"/>
<stop offset="0.11" stop-color="#E0A85F" stop-opacity="0.74"/>
<stop offset="0.21" stop-color="#E8B87B" stop-opacity="0.54"/>
<stop offset="0.31" stop-color="#EFC693" stop-opacity="0.38"/>
<stop offset="0.42" stop-color="#F5D2A7" stop-opacity="0.24"/>
<stop offset="0.54" stop-color="#F9DBB6" stop-opacity="0.13"/>
<stop offset="0.66" stop-color="#FDE1C1" stop-opacity="0.06"/>
<stop offset="0.81" stop-color="#FEE5C7" stop-opacity="0.01"/>
<stop offset="1" stop-color="#FFE6C9" stop-opacity="0"/>
</radialGradient>
<linearGradient id="paint18_linear_40_51958" x1="402.045" y1="31.6992" x2="392.167" y2="36.5284" gradientUnits="userSpaceOnUse">
<stop stop-color="#D5923A"/>
<stop offset="0.01" stop-color="#D89845"/>
<stop offset="0.07" stop-color="#E4B06D"/>
<stop offset="0.12" stop-color="#EEC48E"/>
<stop offset="0.18" stop-color="#F5D3A8"/>
<stop offset="0.24" stop-color="#FBDDBB"/>
<stop offset="0.3" stop-color="#FEE4C5"/>
<stop offset="0.36" stop-color="#FFE6C9"/>
</linearGradient>
<radialGradient id="paint19_radial_40_51958" cx="0" cy="0" r="1" gradientUnits="userSpaceOnUse" gradientTransform="translate(390.136 47.299) rotate(164.846) scale(48.0131 47.6734)">
<stop stop-color="#D5923A"/>
<stop offset="0.01" stop-color="#D6953F" stop-opacity="0.97"/>
<stop offset="0.11" stop-color="#E0A85F" stop-opacity="0.74"/>
<stop offset="0.21" stop-color="#E8B87B" stop-opacity="0.54"/>
<stop offset="0.31" stop-color="#EFC693" stop-opacity="0.38"/>
<stop offset="0.42" stop-color="#F5D2A7" stop-opacity="0.24"/>
<stop offset="0.54" stop-color="#F9DBB6" stop-opacity="0.13"/>
<stop offset="0.66" stop-color="#FDE1C1" stop-opacity="0.06"/>
<stop offset="0.81" stop-color="#FEE5C7" stop-opacity="0.01"/>
<stop offset="1" stop-color="#FFE6C9" stop-opacity="0"/>
</radialGradient>
<linearGradient id="paint20_linear_40_51958" x1="380.625" y1="65.076" x2="369.848" y2="63.03" gradientUnits="userSpaceOnUse">
<stop stop-color="#D5923A"/>
<stop offset="0.01" stop-color="#D89845"/>
<stop offset="0.07" stop-color="#E4B06D"/>
<stop offset="0.12" stop-color="#EEC48E"/>
<stop offset="0.18" stop-color="#F5D3A8"/>
<stop offset="0.24" stop-color="#FBDDBB"/>
<stop offset="0.3" stop-color="#FEE4C5"/>
<stop offset="0.36" stop-color="#FFE6C9"/>
</linearGradient>
<radialGradient id="paint21_radial_40_51958" cx="0" cy="0" r="1" gradientUnits="userSpaceOnUse" gradientTransform="translate(375.486 63.851) rotate(-158.091) scale(47.8758 47.6956)">
<stop stop-color="#D5923A"/>
<stop offset="0.01" stop-color="#D6953F" stop-opacity="0.97"/>
<stop offset="0.11" stop-color="#E0A85F" stop-opacity="0.74"/>
<stop offset="0.21" stop-color="#E8B87B" stop-opacity="0.54"/>
<stop offset="0.31" stop-color="#EFC693" stop-opacity="0.38"/>
<stop offset="0.42" stop-color="#F5D2A7" stop-opacity="0.24"/>
<stop offset="0.54" stop-color="#F9DBB6" stop-opacity="0.13"/>
<stop offset="0.66" stop-color="#FDE1C1" stop-opacity="0.06"/>
<stop offset="0.81" stop-color="#FEE5C7" stop-opacity="0.01"/>
<stop offset="1" stop-color="#FFE6C9" stop-opacity="0"/>
</radialGradient>
<linearGradient id="paint22_linear_40_51958" x1="350.161" y1="78.2608" x2="341.522" y2="85.03" gradientUnits="userSpaceOnUse">
<stop stop-color="#D5923A"/>
<stop offset="0.01" stop-color="#D89845"/>
<stop offset="0.07" stop-color="#E4B06D"/>
<stop offset="0.12" stop-color="#EEC48E"/>
<stop offset="0.18" stop-color="#F5D3A8"/>
<stop offset="0.24" stop-color="#FBDDBB"/>
<stop offset="0.3" stop-color="#FEE4C5"/>
<stop offset="0.36" stop-color="#FFE6C9"/>
</linearGradient>
<radialGradient id="paint23_radial_40_51958" cx="0" cy="0" r="1" gradientUnits="userSpaceOnUse" gradientTransform="translate(349.037 81.978) rotate(152.916) scale(47.7137 47.7137)">
<stop stop-color="#D5923A"/>
<stop offset="0.01" stop-color="#D6953F" stop-opacity="0.97"/>
<stop offset="0.11" stop-color="#E0A85F" stop-opacity="0.74"/>
<stop offset="0.21" stop-color="#E8B87B" stop-opacity="0.54"/>
<stop offset="0.31" stop-color="#EFC693" stop-opacity="0.38"/>
<stop offset="0.42" stop-color="#F5D2A7" stop-opacity="0.24"/>
<stop offset="0.54" stop-color="#F9DBB6" stop-opacity="0.13"/>
<stop offset="0.66" stop-color="#FDE1C1" stop-opacity="0.06"/>
<stop offset="0.81" stop-color="#FEE5C7" stop-opacity="0.01"/>
<stop offset="1" stop-color="#FFE6C9" stop-opacity="0"/>
</radialGradient>
<linearGradient id="paint24_linear_40_51958" x1="439.534" y1="60.1704" x2="429.218" y2="56.4388" gradientUnits="userSpaceOnUse">
<stop stop-color="#D5923A"/>
<stop offset="0.01" stop-color="#D89845"/>
<stop offset="0.07" stop-color="#E4B06D"/>
<stop offset="0.12" stop-color="#EEC48E"/>
<stop offset="0.18" stop-color="#F5D3A8"/>
<stop offset="0.24" stop-color="#FBDDBB"/>
<stop offset="0.3" stop-color="#FEE4C5"/>
<stop offset="0.36" stop-color="#FFE6C9"/>
</linearGradient>
<radialGradient id="paint25_radial_40_51958" cx="0" cy="0" r="1" gradientUnits="userSpaceOnUse" gradientTransform="translate(433.084 61.4924) rotate(-149.036) scale(47.8527 47.6043)">
<stop stop-color="#D5923A"/>
<stop offset="0.01" stop-color="#D6953F" stop-opacity="0.97"/>
<stop offset="0.11" stop-color="#E0A85F" stop-opacity="0.74"/>
<stop offset="0.21" stop-color="#E8B87B" stop-opacity="0.54"/>
<stop offset="0.31" stop-color="#EFC693" stop-opacity="0.38"/>
<stop offset="0.42" stop-color="#F5D2A7" stop-opacity="0.24"/>
<stop offset="0.54" stop-color="#F9DBB6" stop-opacity="0.13"/>
<stop offset="0.66" stop-color="#FDE1C1" stop-opacity="0.06"/>
<stop offset="0.81" stop-color="#FEE5C7" stop-opacity="0.01"/>
<stop offset="1" stop-color="#FFE6C9" stop-opacity="0"/>
</radialGradient>
<linearGradient id="paint26_linear_40_51958" x1="460.199" y1="75.1205" x2="449.443" y2="72.7059" gradientUnits="userSpaceOnUse">
<stop stop-color="#EDD1AC"/>
<stop offset="0.01" stop-color="#F5D9B5"/>
<stop offset="0.07" stop-color="#F2CA95"/>
<stop offset="0.12" stop-color="#F3D8B5"/>
<stop offset="0.18" stop-color="#F5D3A8"/>
<stop offset="0.24" stop-color="#FBDDBB"/>
<stop offset="0.3" stop-color="#FEE4C5"/>
<stop offset="0.36" stop-color="#FFE6C9"/>
</linearGradient>
<radialGradient id="paint27_radial_40_51958" cx="0" cy="0" r="1" gradientUnits="userSpaceOnUse" gradientTransform="translate(455.984 77.8334) rotate(-156.272) scale(47.9864 47.7922)">
<stop stop-color="#D5923A"/>
<stop offset="0.01" stop-color="#D6953F" stop-opacity="0.97"/>
<stop offset="0.11" stop-color="#E0A85F" stop-opacity="0.74"/>
<stop offset="0.21" stop-color="#E8B87B" stop-opacity="0.54"/>
<stop offset="0.31" stop-color="#EFC693" stop-opacity="0.38"/>
<stop offset="0.42" stop-color="#F5D2A7" stop-opacity="0.24"/>
<stop offset="0.54" stop-color="#F9DBB6" stop-opacity="0.13"/>
<stop offset="0.66" stop-color="#FDE1C1" stop-opacity="0.06"/>
<stop offset="0.81" stop-color="#FEE5C7" stop-opacity="0.01"/>
<stop offset="1" stop-color="#FFE6C9" stop-opacity="0"/>
</radialGradient>
<linearGradient id="paint28_linear_40_51958" x1="504.073" y1="86.0918" x2="493.122" y2="86.7175" gradientUnits="userSpaceOnUse">
<stop stop-color="#D5923A"/>
<stop offset="0.01" stop-color="#D89845"/>
<stop offset="0.07" stop-color="#E4B06D"/>
<stop offset="0.12" stop-color="#EEC48E"/>
<stop offset="0.18" stop-color="#F5D3A8"/>
<stop offset="0.24" stop-color="#FBDDBB"/>
<stop offset="0.3" stop-color="#FEE4C5"/>
<stop offset="0.36" stop-color="#FFE6C9"/>
</linearGradient>
<radialGradient id="paint29_radial_40_51958" cx="0" cy="0" r="1" gradientUnits="userSpaceOnUse" gradientTransform="translate(499.943 88.7351) rotate(-172.444) scale(47.7234 47.7235)">
<stop stop-color="#D5923A"/>
<stop offset="0.01" stop-color="#D6953F" stop-opacity="0.97"/>
<stop offset="0.11" stop-color="#E0A85F" stop-opacity="0.74"/>
<stop offset="0.21" stop-color="#E8B87B" stop-opacity="0.54"/>
<stop offset="0.31" stop-color="#EFC693" stop-opacity="0.38"/>
<stop offset="0.42" stop-color="#F5D2A7" stop-opacity="0.24"/>
<stop offset="0.54" stop-color="#F9DBB6" stop-opacity="0.13"/>
<stop offset="0.66" stop-color="#FDE1C1" stop-opacity="0.06"/>
<stop offset="0.81" stop-color="#FEE5C7" stop-opacity="0.01"/>
<stop offset="1" stop-color="#FFE6C9" stop-opacity="0"/>
</radialGradient>
<linearGradient id="paint30_linear_40_51958" x1="592.952" y1="32.8877" x2="583.074" y2="37.7168" gradientUnits="userSpaceOnUse">
<stop stop-color="#D5923A"/>
<stop offset="0.01" stop-color="#D89845"/>
<stop offset="0.07" stop-color="#E4B06D"/>
<stop offset="0.12" stop-color="#EEC48E"/>
<stop offset="0.18" stop-color="#F5D3A8"/>
<stop offset="0.24" stop-color="#FBDDBB"/>
<stop offset="0.3" stop-color="#FEE4C5"/>
<stop offset="0.36" stop-color="#FFE6C9"/>
</linearGradient>
<radialGradient id="paint31_radial_40_51958" cx="0" cy="0" r="1" gradientUnits="userSpaceOnUse" gradientTransform="translate(581.446 47.8053) rotate(164.846) scale(48.0131 47.6734)">
<stop stop-color="#D5923A"/>
<stop offset="0.01" stop-color="#D6953F" stop-opacity="0.97"/>
<stop offset="0.11" stop-color="#E0A85F" stop-opacity="0.74"/>
<stop offset="0.21" stop-color="#E8B87B" stop-opacity="0.54"/>
<stop offset="0.31" stop-color="#EFC693" stop-opacity="0.38"/>
<stop offset="0.42" stop-color="#F5D2A7" stop-opacity="0.24"/>
<stop offset="0.54" stop-color="#F9DBB6" stop-opacity="0.13"/>
<stop offset="0.66" stop-color="#FDE1C1" stop-opacity="0.06"/>
<stop offset="0.81" stop-color="#FEE5C7" stop-opacity="0.01"/>
<stop offset="1" stop-color="#FFE6C9" stop-opacity="0"/>
</radialGradient>
<linearGradient id="paint32_linear_40_51958" x1="571.183" y1="65.0807" x2="560.4" y2="63.0336" gradientUnits="userSpaceOnUse">
<stop stop-color="#D5923A"/>
<stop offset="0.01" stop-color="#D89845"/>
<stop offset="0.07" stop-color="#E4B06D"/>
<stop offset="0.12" stop-color="#EEC48E"/>
<stop offset="0.18" stop-color="#F5D3A8"/>
<stop offset="0.24" stop-color="#FBDDBB"/>
<stop offset="0.3" stop-color="#FEE4C5"/>
<stop offset="0.36" stop-color="#FFE6C9"/>
</linearGradient>
<radialGradient id="paint33_radial_40_51958" cx="0" cy="0" r="1" gradientUnits="userSpaceOnUse" gradientTransform="translate(565.422 64.4391) rotate(-158.091) scale(47.8758 47.6956)">
<stop stop-color="#D5923A"/>
<stop offset="0.01" stop-color="#D6953F" stop-opacity="0.97"/>
<stop offset="0.11" stop-color="#E0A85F" stop-opacity="0.74"/>
<stop offset="0.21" stop-color="#E8B87B" stop-opacity="0.54"/>
<stop offset="0.31" stop-color="#EFC693" stop-opacity="0.38"/>
<stop offset="0.42" stop-color="#F5D2A7" stop-opacity="0.24"/>
<stop offset="0.54" stop-color="#F9DBB6" stop-opacity="0.13"/>
<stop offset="0.66" stop-color="#FDE1C1" stop-opacity="0.06"/>
<stop offset="0.81" stop-color="#FEE5C7" stop-opacity="0.01"/>
<stop offset="1" stop-color="#FFE6C9" stop-opacity="0"/>
</radialGradient>
<linearGradient id="paint34_linear_40_51958" x1="540.731" y1="78.2707" x2="532.092" y2="85.0399" gradientUnits="userSpaceOnUse">
<stop stop-color="#D5923A"/>
<stop offset="0.01" stop-color="#D89845"/>
<stop offset="0.07" stop-color="#E4B06D"/>
<stop offset="0.12" stop-color="#EEC48E"/>
<stop offset="0.18" stop-color="#F5D3A8"/>
<stop offset="0.24" stop-color="#FBDDBB"/>
<stop offset="0.3" stop-color="#FEE4C5"/>
<stop offset="0.36" stop-color="#FFE6C9"/>
</linearGradient>
<radialGradient id="paint35_radial_40_51958" cx="0" cy="0" r="1" gradientUnits="userSpaceOnUse" gradientTransform="translate(539.405 82.2549) rotate(152.916) scale(47.7137 47.7137)">
<stop stop-color="#D5923A"/>
<stop offset="0.01" stop-color="#D6953F" stop-opacity="0.97"/>
<stop offset="0.11" stop-color="#E0A85F" stop-opacity="0.74"/>
<stop offset="0.21" stop-color="#E8B87B" stop-opacity="0.54"/>
<stop offset="0.31" stop-color="#EFC693" stop-opacity="0.38"/>
<stop offset="0.42" stop-color="#F5D2A7" stop-opacity="0.24"/>
<stop offset="0.54" stop-color="#F9DBB6" stop-opacity="0.13"/>
<stop offset="0.66" stop-color="#FDE1C1" stop-opacity="0.06"/>
<stop offset="0.81" stop-color="#FEE5C7" stop-opacity="0.01"/>
<stop offset="1" stop-color="#FFE6C9" stop-opacity="0"/>
</radialGradient>
</defs>
</svg>
