<svg id="Слой_1" data-name="Слой 1" xmlns="http://www.w3.org/2000/svg" viewBox="0 0 32 32"><defs><style>.cls-1{fill:#fff;}.cls-2{fill:#4ec7e4;}.cls-3{fill:#ed2424;}</style></defs><title>новогодний курсор</title><path class="cls-1" d="M19,31.52c-5.88,0-7.93-1.66-7.93-2.74V25.84A2,2,0,0,1,13,23.89H25a2,2,0,0,1,1.95,1.95v2.94C26.93,29.86,25,31.52,19,31.52Z"/><path class="cls-2" d="M19,32c-6.64,0-8.41-2-8.41-3.22V25.84A2.42,2.42,0,0,1,13,23.42H25a2.42,2.42,0,0,1,2.43,2.42v2.94C27.41,30.38,24.81,32,19,32Zm-6-7.63a1.47,1.47,0,0,0-1.47,1.47v2.94c0,.71,1.87,2.27,7.45,2.27s7.44-1.53,7.44-2.27V25.84A1.47,1.47,0,0,0,25,24.37Z"/><path class="cls-3" d="M28.93,9.55A9.55,9.55,0,0,0,9.85,9s0,.47,0,.57A9.36,9.36,0,0,0,9.94,11l.22,3.84a18,18,0,0,0-2.71-1.48,3.37,3.37,0,0,0-3.88.77c-1.37,1.38-.6,3.58,0,4.55,1.05,1.67,7.22,7,7.22,7s.74,2.11,8.22,2.11,8.44-2.11,8.44-2.11l1.48-15.51h0C28.91,9.91,28.93,9.73,28.93,9.55Z"/><path class="cls-1" d="M24,16.59l-.87-.5.88-.24a.28.28,0,0,0,.2-.34.3.3,0,0,0-.35-.2l-1.41.38-2.15-1.24,2.14-1.24,1.42.38H24a.28.28,0,0,0,.07-.55l-.88-.23.87-.51a.27.27,0,0,0,.1-.38.28.28,0,0,0-.38-.1l-.87.5.24-.88a.28.28,0,0,0-.2-.34.3.3,0,0,0-.35.2l-.37,1.42L20.05,14v-2.2l1-1a.28.28,0,0,0,0-.4.27.27,0,0,0-.39,0l-.64.65V9.69a.29.29,0,0,0-.28-.28.28.28,0,0,0-.28.28V11l-.64-.65a.28.28,0,1,0-.4.4l1,1V14l-2.15-1.24L17,11.31a.29.29,0,0,0-.34-.2.28.28,0,0,0-.2.34l.23.88-.87-.5a.28.28,0,0,0-.38.1.27.27,0,0,0,.1.38l.87.51-.87.23a.28.28,0,0,0-.2.35.28.28,0,0,0,.27.2h.07l1.42-.38,2.15,1.24-2.15,1.24-1.42-.38a.29.29,0,0,0-.34.2.28.28,0,0,0,.2.34l.87.24-.87.5a.28.28,0,0,0,.14.52.32.32,0,0,0,.14,0l.87-.51-.23.88a.28.28,0,0,0,.2.34h.07a.28.28,0,0,0,.27-.21l.38-1.41,2.15-1.24v2.48l-1,1a.27.27,0,0,0,0,.39.28.28,0,0,0,.4,0l.64-.64v1a.27.27,0,0,0,.28.28.28.28,0,0,0,.28-.28v-1l.64.64a.26.26,0,0,0,.2.08.28.28,0,0,0,.2-.47l-1-1V14.94l2.15,1.24.38,1.42a.27.27,0,0,0,.27.2h.07a.28.28,0,0,0,.2-.34l-.24-.88.87.51a.32.32,0,0,0,.14,0,.27.27,0,0,0,.24-.14A.28.28,0,0,0,24,16.59Z"/></svg>