<svg width="100" height="101" viewBox="0 0 100 101" fill="none" xmlns="http://www.w3.org/2000/svg">
<g clip-path="url(#clip0_36_12326)">
<path d="M10.3991 6.85162C9.52032 6.22856 8.60335 5.66959 7.58475 5.31583C6.16656 4.84378 4.60951 4.79543 3.25461 4.15652C4.26849 5.80968 4.6923 7.74219 5.44967 9.5224C7.25196 13.8051 11.1587 17.2004 15.6306 18.3992L16.8055 19.0627C17.1276 19.129 17.5009 19.17 17.7183 18.9526C17.8973 18.7736 17.8954 18.4648 17.868 18.2074C17.376 13.5984 14.1985 9.55148 10.3991 6.85162Z" fill="#726538"/>
<path d="M26.4454 23.872L25.039 25.2784L24.8088 25.5085L23.3896 26.9277C24.2053 27.7434 43.763 50.6253 60.4642 67.301C69.0996 75.9108 92.9795 96.6455 92.9795 96.6455L96.3401 97.0654L96.6379 97.3631L96.6105 97.1057L96.868 97.133L96.5703 96.8352L96.1504 93.4747C96.1504 93.4747 75.4286 69.6076 66.8059 60.9593C50.1558 44.2325 27.274 24.7006 26.4454 23.872Z" fill="#644E34"/>
<path d="M37.2211 33.2411L32.7589 37.7033L14.8684 18.0739L17.2338 15.7086L37.2211 33.2411Z" fill="#BABABA"/>
<path d="M32.0343 36.9006L36.3682 32.489L35.6566 31.8542L31.3478 36.1629L32.0343 36.9006Z" fill="#939393"/>
<path d="M34.1036 30.5322L29.9482 34.6875L30.5179 35.2572L34.6732 31.1018L34.1036 30.5322Z" fill="#939393"/>
<path opacity="0.46" d="M17.9567 20.1379C21.9748 24.872 26.2105 29.4401 30.638 33.8164C30.8969 34.0754 31.1558 34.3343 31.4784 34.4778C31.788 34.6084 32.1481 34.585 32.2494 34.3283C32.3759 33.9946 32.0387 33.555 31.7278 33.2186C27.5304 28.6121 23.2308 24.1079 18.8417 19.6932C17.9741 18.8 16.9458 18.948 17.9567 20.1379Z" fill="white"/>
<path opacity="0.46" d="M7.94766 11.9447C8.22067 12.3967 8.54515 12.849 9.00994 13.1092C9.30691 13.2783 9.68044 13.345 9.96253 13.1924C10.4115 12.9765 10.4977 12.3723 10.379 11.8956C10.1684 11.148 9.58583 10.5654 9.00354 10.0343C8.39537 9.47725 7.79997 8.90743 7.1918 8.35039C6.79061 7.97477 6.12887 7.0829 5.58817 7.02805C5.92038 8.71553 7.038 10.498 7.94766 11.9447Z" fill="white"/>
</g>
<defs>
<clipPath id="clip0_36_12326">
<rect width="8.98653" height="131.939" fill="white" transform="translate(0.287109 7.12402) rotate(-45)"/>
</clipPath>
</defs>
</svg>
