<svg width="315" height="316" viewBox="0 0 315 316" fill="none" xmlns="http://www.w3.org/2000/svg">
<g clip-path="url(#clip0_338_1713)">
<path d="M90.5584 3.40893L84.2376 14.6735L73.8008 5.78042L75.1238 3.55715C75.1238 3.55715 75.8587 4.00181 76.8877 4.29824C77.9167 4.59468 79.3867 4.89111 81.0036 4.74289C83.2086 4.44646 84.6785 3.40893 85.5605 2.66785C86.0015 2.22319 86.2955 1.92676 86.2955 1.92676L90.5584 3.40893Z" fill="url(#paint0_linear_338_1713)"/>
<path d="M89.0894 5.03945L86.1495 8.59668C86.1495 8.59668 80.4166 5.92876 76.8887 4.29836C77.9176 4.5948 79.3876 4.89123 81.0046 4.74302C83.2095 4.44658 84.6795 3.40906 85.5615 2.66797L89.0894 5.03945Z" fill="url(#paint1_linear_338_1713)"/>
<path d="M99.9659 2.5197L86.8832 23.863L83.0613 19.2683C81.4443 16.8968 84.6783 8.44841 88.5002 3.55722C89.8231 1.77861 91.2931 0.444653 92.6161 0.148218C92.9101 0 93.2041 0 93.4981 0L99.9659 2.5197Z" fill="url(#paint2_linear_338_1713)"/>
<path d="M86.8832 22.5291C86.7362 25.3452 89.2351 24.6041 90.7051 23.5666C92.763 22.2326 94.233 20.3058 95.556 18.379C97.1729 16.0075 98.4959 13.4878 99.5249 10.9681C100.26 9.18948 101.142 7.11443 101.142 5.1876C101.289 2.22325 98.4959 1.63038 96.2909 3.11255C94.086 4.59473 92.322 6.96621 90.9991 9.18948C90.2641 10.5234 89.5291 11.8574 88.9411 13.3396C87.7651 16.3039 87.0302 19.4165 86.8832 22.5291Z" fill="url(#paint3_linear_338_1713)"/>
<path d="M95.2633 1.77859C94.8223 2.22324 94.0873 2.66789 93.6463 3.11255C93.0583 3.5572 92.6173 4.00185 92.0294 4.4465C91.8824 4.59472 91.7354 4.74294 91.4414 4.74294C91.2944 4.74294 91.1474 4.74294 91.0004 4.59472C90.2654 4.29829 89.3834 3.85363 88.6484 3.5572C89.9714 1.77859 91.4414 0.444629 92.7643 0.148193C93.0583 0.296411 93.3523 0.444629 93.6463 0.592846C93.9403 0.889282 94.6753 1.33393 95.2633 1.77859Z" fill="#FFF1C9"/>
<path d="M98.7903 28.3095L90.5585 20.7504C89.8235 15.4146 92.3224 10.3752 97.0263 7.85547L108.198 13.9324L98.7903 28.3095Z" fill="url(#paint4_linear_338_1713)"/>
<path d="M102.32 28.1613C100.703 29.1989 98.351 28.9024 98.057 26.6792C97.91 26.0863 98.057 25.4934 98.204 24.9005C98.939 21.0469 100.997 17.3415 104.084 14.8218C104.966 14.0807 105.848 13.4878 107.024 13.4878C107.906 13.4878 108.641 13.9324 109.082 14.5253C110.405 16.4521 108.935 19.8612 108.053 21.6398C106.877 24.0112 104.966 26.0863 102.908 27.8649C102.614 28.0131 102.467 28.1613 102.32 28.1613Z" fill="url(#paint5_linear_338_1713)"/>
<path d="M147.152 31.5704C147.593 26.0863 148.181 20.7505 148.622 15.2664C149.504 14.8218 150.239 14.8218 151.268 14.97C150.386 20.6023 149.945 26.3828 148.916 32.015C148.475 32.3115 147.299 32.3115 147.152 31.5704Z" fill="url(#paint6_linear_338_1713)"/>
<path d="M166.557 38.2401C169.497 33.0525 172.584 27.8648 175.524 22.8254C176.553 22.8254 177.435 23.1219 178.317 23.7147C174.936 28.7541 171.555 34.2382 168.174 39.4258C167.439 39.574 166.41 39.1294 166.557 38.2401Z" fill="url(#paint7_linear_338_1713)"/>
<path d="M178.757 53.9512C184.784 52.9137 190.958 51.5798 196.985 50.5422C197.72 51.4315 198.014 52.3209 198.014 53.3584C191.693 53.9512 185.225 55.137 178.904 55.8781C178.463 55.4334 178.169 54.5441 178.757 53.9512Z" fill="url(#paint8_linear_338_1713)"/>
<path d="M176.994 77.0732C182.139 79.4447 187.578 81.8162 192.87 84.3359C192.87 85.5217 192.723 86.411 192.135 87.4485C186.843 84.4841 181.404 81.9644 176.112 78.8519C175.818 78.259 176.112 77.2215 176.994 77.0732Z" fill="url(#paint9_linear_338_1713)"/>
<path d="M187.724 65.6605C186.401 76.4804 181.55 86.8556 175.817 96.0451C173.612 99.6023 171.407 103.16 169.055 106.569C168.467 107.458 167.879 108.347 167.291 109.236C153.768 128.949 138.186 147.328 123.045 165.856C114.373 176.379 105.553 186.754 96.2921 196.685C87.3253 206.319 78.3584 215.953 70.8616 226.921C66.5987 233.146 62.9238 239.668 61.7478 247.227C61.0128 252.859 63.6588 256.268 68.5097 256.713C69.2447 256.861 70.1266 256.713 71.0086 256.713C75.2715 256.268 79.5344 255.231 83.5033 253.6C89.2362 251.229 93.2051 249.154 95.1161 242.929L95.4101 241.891C96.733 237.148 97.615 232.109 98.35 227.218C98.497 225.736 98.644 224.253 98.791 222.623C98.938 221.289 99.085 220.103 99.085 218.769C99.232 216.398 98.938 213.434 99.967 211.358C103.789 203.355 113.638 209.283 118.195 213.285C144.213 237.148 162.735 270.201 164.793 305.625C164.94 309.33 164.94 314.518 160.53 315.852C156.708 317.038 152.886 313.777 150.093 311.702C148.917 310.812 147.741 310.071 146.418 309.33C143.772 307.7 140.979 306.514 138.039 305.328C132.453 303.105 126.573 301.327 120.4 300.289C115.843 299.548 111.286 299.103 106.729 298.955C102.907 298.955 99.232 299.103 95.5571 299.548C89.6772 300.289 83.9443 301.771 78.2115 303.105C73.2136 304.291 68.2157 305.328 63.2178 305.921C52.34 307.107 40.2863 305.477 32.3485 298.066C25.4396 291.544 22.4997 281.762 21.1767 272.276C18.2368 252.267 20.5887 230.923 31.0255 213.285C36.3174 204.392 43.9612 197.278 51.0171 189.719C58.3669 182.011 65.5697 174.156 72.7726 166.449C75.2715 163.781 77.7705 161.113 80.1224 158.445C80.7104 157.852 81.2984 157.259 81.8864 156.518C87.4722 150.589 92.9111 144.512 98.203 138.435C98.791 137.843 99.379 137.25 99.82 136.509C105.112 130.58 110.257 124.651 115.402 118.574C115.99 117.981 116.578 117.24 117.019 116.647C120.694 112.349 124.368 107.903 127.896 103.456C128.778 102.27 129.807 101.233 130.689 100.047C130.983 99.6023 131.277 99.3059 131.718 98.8613C136.422 92.9325 141.126 87.0038 145.83 80.9269C149.652 76.0357 154.062 71.1446 156.708 65.5123C161.706 54.9888 158.619 44.1689 148.035 38.8331C143.772 36.6098 139.068 35.7205 134.364 35.4241C129.66 35.1277 125.103 36.4616 120.547 35.8688C115.99 35.4241 110.698 31.7187 106.141 28.4579C104.671 27.4204 103.201 26.3828 102.025 25.4935C101.437 24.0113 100.996 22.5292 102.76 19.5648C102.76 19.5648 103.936 17.3416 105.7 17.3416C105.7 17.3416 107.317 18.3791 108.64 19.2684C109.228 19.713 109.816 20.0095 110.257 20.1577C114.814 22.381 118.489 23.8631 123.486 24.3078C127.896 24.7524 132.453 24.456 136.863 24.0113C144.507 23.4185 151.857 22.9738 159.501 24.6042C166.262 26.0864 172.877 28.9025 177.875 33.6455C186.401 41.7975 189.194 54.2477 187.724 65.6605Z" fill="url(#paint10_linear_338_1713)"/>
<path d="M155.09 110.719C128.484 142.289 97.7615 170.302 73.3601 203.651C68.5092 210.173 63.9523 216.991 61.4533 224.55C59.8364 229.144 59.1014 234.184 60.7184 238.779C66.3042 229.144 72.1841 219.066 78.946 210.173C84.0908 203.206 89.9707 196.833 95.8506 190.311C115.548 168.672 135.246 147.032 154.796 125.392C156.854 123.169 159.059 120.649 159.647 117.685C160.235 114.424 158.177 111.015 155.09 110.719Z" fill="url(#paint11_linear_338_1713)"/>
<path d="M41.1668 218.176C78.0629 177.417 113.342 135.471 147.004 92.3397C153.619 83.8913 160.234 75.1464 162.733 64.7712C165.232 54.396 162.439 42.0939 153.325 36.1652C148.768 33.2008 143.476 32.3115 138.185 31.8669C135.098 31.7187 131.864 31.4222 128.777 31.8669C128.189 32.0151 127.601 32.0151 127.013 32.0151C126.719 32.0151 126.425 31.7187 126.131 31.7187C125.102 31.5704 124.661 32.9044 124.514 33.7937C124.367 34.3866 124.367 34.9794 124.514 35.5723C123.779 35.1277 123.338 34.2384 123.338 33.4973C123.338 33.2008 123.485 32.3115 123.191 32.0151C123.044 31.8669 122.897 31.8669 122.75 31.8669C121.427 31.7187 120.104 31.4222 118.928 31.1258C113.636 29.6436 108.785 26.8275 103.934 24.0113C103.64 23.8631 103.199 23.7149 102.758 23.5667C102.317 23.4185 102.023 23.4185 101.876 22.9738C101.729 22.6774 101.729 22.2327 101.876 21.9363C102.023 21.3434 102.611 20.7506 103.199 20.8988C103.934 21.047 104.522 21.6399 105.11 22.0845C105.845 22.6774 106.58 23.2702 107.315 23.7149C110.255 25.7899 113.489 27.7168 117.017 28.7543C118.781 29.3472 120.839 29.6436 122.603 29.6436C122.897 29.6436 123.191 29.6436 123.338 29.3472C123.632 28.9025 123.632 28.3096 123.779 27.865C123.926 27.2721 124.22 26.8275 124.514 26.2346C124.955 25.4935 125.396 24.6042 126.278 24.456C126.131 24.456 125.837 25.4935 125.69 25.6417C125.543 26.0864 125.396 26.531 125.249 26.9757C125.102 27.865 124.955 28.7543 125.102 29.6436C125.102 29.94 125.102 30.0883 125.396 30.0883C125.543 30.0883 125.837 30.2365 125.984 30.0883C126.278 30.0883 126.425 29.94 126.719 29.94C127.454 29.6436 128.483 29.6436 129.365 29.6436C133.481 29.3472 137.45 28.7543 141.566 28.7543C141.86 28.7543 142.154 28.7543 142.301 28.7543C149.797 28.9025 157.294 31.4222 162.733 36.4616C168.172 41.3528 171.406 48.9119 170.524 56.0263C169.789 61.6586 166.702 66.698 163.762 71.5892C138.185 112.645 107.903 150.886 73.947 185.569C62.1873 197.574 49.6926 209.432 42.1957 224.55C34.6989 239.668 33.3759 258.64 43.5187 272.276C34.6989 266.495 29.995 255.824 30.142 245.449C30.289 235.073 34.2579 225.736 41.1668 218.176Z" fill="url(#paint12_linear_338_1713)"/>
<path d="M120.546 299.992C115.989 299.251 111.432 298.807 106.876 298.658C103.054 298.658 99.3788 298.807 95.7038 299.251C89.824 299.992 84.0911 301.475 78.3582 302.809C81.1512 300.437 82.7681 296.732 83.5031 293.174C84.2381 288.876 83.6501 284.281 82.6211 280.131C80.2692 270.794 76.1533 261.159 67.4805 257.009C67.9215 256.861 68.3624 256.861 68.6564 256.713C69.3914 256.861 70.2734 256.713 71.1554 256.713C75.4183 256.268 79.6812 255.231 83.6501 253.6C89.383 251.229 93.3519 249.154 95.2628 242.929L95.5568 241.891C94.5279 247.968 95.1159 253.304 96.5858 259.381C99.3788 270.497 103.201 281.613 109.963 290.803C112.755 294.36 116.283 297.917 120.546 299.992Z" fill="url(#paint13_linear_338_1713)"/>
<path d="M160.53 315.704C156.708 316.889 152.886 313.629 150.093 311.554C148.917 310.664 147.741 309.923 146.418 309.182C129.955 295.101 115.843 275.537 107.17 254.49C102.907 244.115 99.9675 233.295 98.6445 222.623C98.7915 221.289 98.9385 220.103 98.9385 218.769C99.0855 216.398 98.7915 213.434 99.8205 211.358C103.642 203.355 113.491 209.283 118.048 213.285C144.067 237.148 162.588 270.201 164.646 305.625C164.94 309.182 164.793 314.37 160.53 315.704Z" fill="url(#paint14_linear_338_1713)"/>
<path d="M53.9569 284.43C59.9837 286.06 66.8926 283.392 70.2735 278.056C70.5675 277.76 70.7145 277.315 70.7145 276.87C70.7145 276.129 70.2735 275.536 69.6855 275.24C69.0975 274.944 68.3625 274.795 67.7746 274.795C62.7767 274.202 57.7788 274.499 52.9279 275.24C51.0169 275.536 48.812 276.278 48.077 278.501C47.489 280.428 49.253 282.058 50.7229 282.947C51.7519 283.688 52.7809 284.133 53.9569 284.43Z" fill="#A15723"/>
<path d="M90.7051 283.688C96.8789 282.799 102.024 277.167 102.759 270.497C102.759 270.052 102.906 269.608 102.612 269.163C102.318 268.422 101.583 268.126 100.995 267.977C100.26 267.829 99.6719 268.126 99.0839 268.274C94.38 269.756 89.8231 272.128 85.7072 275.092C84.0902 276.278 82.4733 277.908 82.7673 280.279C83.0613 282.503 85.5602 283.392 87.1772 283.688C88.3531 283.985 89.6761 283.985 90.7051 283.688Z" fill="#A15723"/>
<path d="M82.3272 264.124C82.4742 264.568 82.6212 264.865 83.0622 265.013C83.3561 265.161 83.6501 265.161 83.9441 265.161C84.6791 265.161 85.2671 265.161 86.0021 265.161C84.5321 261.456 83.7971 257.602 83.5031 253.749C83.5031 253.749 82.1802 253.749 82.0332 253.749C81.7392 253.749 81.2982 253.749 81.0042 254.045C80.4162 254.49 80.5632 255.527 80.5632 256.12C80.5632 257.899 80.8572 259.677 81.2982 261.456C81.5922 262.197 82.0332 263.234 82.3272 264.124Z" fill="#A15723"/>
<path d="M46.3134 206.467C46.3134 207.356 46.4604 208.394 46.9014 209.135C48.0773 211.062 50.8703 210.914 52.9282 210.321C58.5141 208.542 63.071 204.244 65.276 198.76C66.0109 196.833 66.4519 194.61 65.7169 192.683C64.541 189.57 60.5721 188.088 57.3381 188.829C49.4003 190.608 46.1664 198.908 46.3134 206.467Z" fill="#A15723"/>
<path d="M27.0554 236.852C27.0554 237.741 27.2024 238.779 27.6434 239.52C28.8193 241.447 31.6123 241.298 33.6702 240.706C39.2561 238.927 43.813 234.629 46.018 229.145C46.7529 227.218 47.1939 224.994 46.459 223.068C45.283 219.955 41.3141 218.473 38.0801 219.214C29.9953 220.844 26.7614 229.293 27.0554 236.852Z" fill="#A15723"/>
<path d="M134.805 141.4C133.041 142.882 130.836 143.919 128.632 144.66C128.485 144.66 128.191 144.809 128.044 144.809C127.897 144.809 127.897 144.809 127.75 144.809C127.603 144.809 127.456 144.809 127.456 144.957C127.309 144.957 127.162 144.957 127.015 144.957C126.868 144.957 126.721 144.957 126.574 144.957H126.28C126.133 144.957 125.839 144.957 125.692 144.957C125.398 144.957 125.104 144.809 124.81 144.66C124.663 144.512 124.516 144.512 124.369 144.364C124.075 144.216 123.928 144.068 123.781 143.919C123.193 143.475 122.605 142.882 122.164 142.141C120.988 140.214 122.017 137.546 122.899 135.619C123.781 133.692 125.104 132.062 126.427 130.431C123.193 126.281 119.518 122.28 115.549 118.426C116.137 117.833 116.725 117.092 117.166 116.499C121.282 120.649 124.81 124.799 127.897 128.801C128.338 128.356 128.632 128.06 129.073 127.764C129.661 127.319 130.249 126.726 130.836 126.43C132.159 125.54 133.776 125.096 135.246 125.54C135.981 125.837 136.569 126.43 137.157 126.874C137.598 127.171 137.892 127.615 138.186 127.912C138.333 128.06 138.627 128.356 138.774 128.653C138.774 128.653 138.774 128.653 138.774 128.801C138.921 128.949 138.921 129.098 138.921 129.246C138.921 129.394 138.921 129.394 139.068 129.542C139.068 129.69 139.068 129.839 139.215 129.839C139.215 129.987 139.215 129.987 139.362 130.135C139.362 130.283 139.362 130.431 139.362 130.431C139.362 130.58 139.362 130.58 139.362 130.728C139.362 130.876 139.362 131.173 139.509 131.321C139.803 135.619 137.745 139.028 134.805 141.4Z" fill="#A15723"/>
<path d="M117.019 160.816C115.255 162.298 113.05 163.336 110.845 164.077C110.698 164.077 110.404 164.225 110.257 164.225C110.11 164.225 110.11 164.225 109.963 164.225C109.816 164.225 109.669 164.225 109.522 164.225C109.375 164.225 109.228 164.225 109.081 164.225C108.934 164.225 108.787 164.225 108.64 164.225H108.346C108.199 164.225 107.905 164.225 107.758 164.225C107.464 164.225 107.17 164.077 106.876 163.929C106.729 163.781 106.582 163.781 106.435 163.632C106.141 163.484 105.994 163.336 105.847 163.188C105.259 162.743 104.671 162.15 104.23 161.409C103.054 159.482 104.083 156.814 104.965 154.888C105.847 152.961 107.17 151.33 108.493 149.7C105.406 145.698 102.025 141.844 98.2031 138.287C98.7911 137.694 99.3791 137.101 99.8201 136.36C103.642 140.362 107.023 144.216 109.963 148.07C110.404 147.625 110.698 147.328 111.139 146.884C111.727 146.439 112.315 145.846 112.903 145.55C114.226 144.809 115.843 144.216 117.313 144.809C118.048 145.105 118.636 145.698 119.224 146.143C119.665 146.439 119.959 146.884 120.253 147.18C120.4 147.477 120.694 147.625 120.694 147.921V148.07C120.694 148.218 120.841 148.366 120.841 148.514C120.841 148.662 120.988 148.662 120.988 148.811C120.988 148.959 121.135 149.107 121.135 149.107C121.135 149.255 121.135 149.255 121.282 149.404C121.282 149.552 121.282 149.7 121.429 149.7V149.996C121.429 150.145 121.429 150.441 121.429 150.589C121.87 155.036 119.959 158.297 117.019 160.816Z" fill="#A15723"/>
<path d="M98.9372 180.826C97.1732 182.308 94.9683 183.345 92.7633 184.086C92.6163 184.086 92.3223 184.235 92.1753 184.235C92.0283 184.235 92.0283 184.235 91.8813 184.235C91.7344 184.235 91.5873 184.235 91.4404 184.383C91.2934 184.383 91.1464 184.383 90.9994 184.383C90.8524 184.383 90.7054 184.383 90.5584 184.383C90.4114 184.383 90.4114 184.383 90.2644 184.383C90.1174 184.383 89.8234 184.383 89.6764 184.383C89.3824 184.383 89.0884 184.235 88.7944 184.086C88.6474 183.938 88.5004 183.938 88.3534 183.79C88.0594 183.642 87.9124 183.493 87.7654 183.345C87.1774 182.901 86.5895 182.308 86.1485 181.567C84.9725 179.64 86.0015 176.972 86.8835 175.045C87.7654 173.118 89.0884 171.488 90.4114 169.857C87.3244 165.856 83.7965 162.002 79.9746 158.296C80.5626 157.704 81.1506 157.111 81.7386 156.37C85.5605 160.372 88.9414 164.225 91.8813 168.227C92.3223 167.782 92.6163 167.486 93.0573 167.19C93.6453 166.745 94.2333 166.152 94.8213 165.856C96.1443 164.966 97.7612 164.522 99.2312 164.966C99.9662 165.263 100.554 165.856 101.142 166.3C101.583 166.597 101.877 167.041 102.171 167.338C102.318 167.634 102.612 167.782 102.759 168.079V168.227C102.906 168.375 102.906 168.523 102.906 168.672C102.906 168.672 102.906 168.82 103.053 168.968C103.053 169.116 103.053 169.265 103.2 169.265C103.2 169.413 103.2 169.413 103.2 169.561C103.2 169.709 103.2 169.857 103.347 170.006C103.347 170.154 103.347 170.154 103.347 170.302C103.347 170.45 103.347 170.747 103.347 170.895C103.935 175.045 101.877 178.454 98.9372 180.826Z" fill="#A15723"/>
<path d="M162.44 303.253C162.44 307.996 161.411 313.629 155.384 310.812C152.738 309.627 150.386 307.7 148.181 305.773C145.094 303.105 142.154 300.289 139.508 297.176C138.332 295.991 137.303 294.805 136.274 293.619C135.686 293.026 135.098 292.285 134.51 291.544C126.572 282.206 119.664 271.979 114.225 261.011C111.579 255.675 109.08 250.043 107.022 244.263C104.964 238.334 103.347 232.109 102.612 225.884C102.171 221.882 100.26 213.285 104.082 210.617C107.022 208.542 110.697 209.728 113.49 211.507C115.842 212.989 117.9 214.619 119.958 216.398C125.984 221.882 130.835 228.7 135.539 235.221C142.742 245.3 148.916 256.268 153.767 267.681C154.355 269.015 154.943 270.349 155.384 271.683C156.707 274.944 157.883 278.205 158.912 281.614C159.353 283.096 159.941 284.578 160.235 286.208C161.264 290.803 162.146 295.25 162.44 299.993C162.44 300.882 162.587 301.623 162.587 302.364C162.44 302.66 162.44 302.957 162.44 303.253Z" fill="url(#paint15_linear_338_1713)"/>
<path d="M162.441 303.253C162.441 307.996 161.412 313.628 155.385 310.812C152.739 309.626 150.387 307.7 148.182 305.773C145.095 303.105 142.156 300.289 139.51 297.176C138.334 295.99 137.305 294.805 136.276 293.619C135.688 293.026 135.1 292.285 134.512 291.544C134.953 290.803 135.394 290.21 135.835 289.617C136.423 288.728 137.158 287.69 138.334 287.987C139.51 288.135 140.392 289.172 141.274 289.914C145.389 293.174 149.946 295.842 154.797 297.769C157.296 298.658 159.795 299.548 162.441 300.141C162.441 301.03 162.588 301.771 162.588 302.512C162.441 302.66 162.441 302.957 162.441 303.253Z" fill="url(#paint16_linear_338_1713)"/>
<path d="M153.62 267.681C150.386 264.272 146.858 261.16 143.036 258.492C142.007 257.751 140.831 257.01 139.655 257.158C137.598 257.306 136.275 259.529 135.54 261.456C132.894 267.829 131.277 274.499 130.689 281.317C126.72 270.053 121.428 258.788 117.459 247.524C128.19 240.706 124.662 226.625 119.811 216.398C125.838 221.882 130.689 228.7 135.393 235.222C142.448 245.3 148.622 256.12 153.62 267.681Z" fill="url(#paint17_linear_338_1713)"/>
<path d="M140.978 293.767C140.684 295.25 140.096 296.435 139.361 297.176C138.185 295.991 137.156 294.805 136.127 293.619C127.308 283.837 119.958 272.869 114.078 261.011C111.432 255.675 108.933 250.043 106.875 244.263C107.61 243.077 108.492 242.039 109.962 241.743C112.608 241.15 114.813 242.188 116.871 243.818C123.927 249.747 129.659 257.158 133.922 265.31C138.038 273.313 142.448 284.578 140.978 293.767Z" fill="#A15723"/>
<path d="M140.979 13.3395C153.473 10.227 166.85 13.0431 177.581 19.8611C182.873 23.2701 187.724 27.7166 191.252 33.0525C194.926 38.3883 197.425 44.317 198.748 50.5422C201.541 62.9924 199.777 76.332 193.457 87.4483C190.37 92.9324 186.107 97.9718 180.668 101.529C177.875 103.308 174.641 104.197 171.407 104.642C168.173 105.086 165.086 105.086 161.852 104.642C160.97 104.493 160.382 103.752 160.529 102.863C160.676 101.974 161.411 101.381 162.293 101.529C168.026 102.27 174.2 101.677 178.904 98.7129C183.755 95.6003 187.577 91.0056 190.37 85.818C196.102 75.4427 197.572 62.9924 194.926 51.4315C193.604 45.651 191.252 40.1669 187.871 35.424C184.49 30.681 180.227 26.5309 175.229 23.5665C165.527 17.1932 153.179 14.8217 142.008 17.6378C140.832 17.9343 139.656 17.1932 139.362 16.0074C139.068 14.8217 139.803 13.636 140.979 13.3395Z" fill="url(#paint18_linear_338_1713)"/>
<path d="M143.919 130.58C143.772 129.69 143.625 128.653 143.184 127.912C142.743 127.171 142.302 126.578 141.567 126.133C140.979 125.688 140.391 125.096 139.656 124.799C138.186 124.206 136.569 124.799 135.246 125.54C134.658 125.985 134.07 126.43 133.482 126.874C131.13 129.097 128.779 131.765 127.309 134.73C126.427 136.657 125.398 139.176 126.574 141.251C127.015 141.992 127.456 142.437 128.191 143.03C128.779 143.475 129.514 144.067 130.248 144.216C131.277 144.364 132.159 144.216 133.188 143.919C139.068 141.992 144.507 137.398 143.919 130.58Z" fill="url(#paint19_linear_338_1713)"/>
<path d="M128.042 138.88C128.042 139.028 127.895 139.324 127.895 139.473C127.601 141.103 127.748 143.03 129.365 143.919C130.541 144.512 132.011 144.364 133.187 143.919C139.067 141.992 144.506 137.398 143.918 130.728C143.771 129.246 143.33 127.615 142.007 126.726C139.655 125.244 136.862 127.022 135.245 128.653C132.158 131.321 129.218 134.73 128.042 138.88Z" fill="url(#paint20_linear_338_1713)"/>
<path d="M128.926 140.807C128.779 142.437 129.661 143.326 131.278 143.178C132.307 143.03 133.483 142.882 134.365 142.437C135.982 141.548 136.57 139.473 136.717 137.694C136.864 136.064 136.717 134.582 136.423 132.951C136.276 132.358 136.129 131.765 135.835 131.321C135.688 131.173 135.541 130.876 135.247 130.876C134.512 130.728 133.336 132.21 132.748 132.803C131.572 134.137 130.396 135.619 129.808 137.398C129.367 138.139 128.926 139.621 128.926 140.807Z" fill="url(#paint21_linear_338_1713)"/>
<path d="M141.862 135.619C141.862 135.619 141.862 135.323 141.715 134.73C141.715 134.285 141.715 133.544 141.715 132.803C141.862 132.062 142.009 131.469 142.156 131.024C142.303 130.58 142.45 130.135 142.45 130.135C142.45 130.135 142.744 130.431 142.891 130.876C143.038 131.321 143.332 132.062 143.185 132.951C143.038 133.692 142.744 134.433 142.45 134.878C142.156 135.323 141.862 135.619 141.862 135.619Z" fill="#FFF1C9"/>
<path d="M134.51 134.285C128.336 125.392 120.692 117.388 111.432 110.126C111.726 109.088 112.314 108.347 113.196 107.606C123.044 116.203 130.688 124.651 135.98 132.951C135.833 133.692 135.245 134.582 134.51 134.285Z" fill="url(#paint22_linear_338_1713)"/>
<path d="M131.13 127.764C131.13 127.764 128.925 126.133 126.867 123.614C124.809 121.094 123.633 118.574 123.633 118.574C123.633 118.574 125.838 120.205 127.896 122.724C130.101 125.244 131.13 127.764 131.13 127.764Z" fill="#FFF1C9"/>
<path d="M126.722 149.996C126.575 149.107 126.428 148.069 125.987 147.328C125.546 146.587 125.105 145.994 124.37 145.55C123.782 145.105 123.194 144.512 122.459 144.216C120.989 143.623 119.372 144.216 118.049 144.957C117.461 145.401 116.873 145.846 116.285 146.291C113.933 148.514 111.581 151.182 110.111 154.146C109.229 156.073 108.2 158.593 109.376 160.668C109.817 161.409 110.258 161.854 110.993 162.446C111.581 162.891 112.316 163.484 113.051 163.632C114.08 163.78 114.962 163.632 115.991 163.336C121.871 161.409 127.31 156.814 126.722 149.996Z" fill="url(#paint23_linear_338_1713)"/>
<path d="M110.991 158.296C110.991 158.445 110.844 158.741 110.844 158.889C110.55 160.52 110.697 162.446 112.314 163.336C113.49 163.929 114.96 163.78 116.136 163.336C122.016 161.409 127.455 156.814 126.867 150.144C126.72 148.662 126.279 147.032 124.956 146.142C122.604 144.66 119.811 146.439 118.194 148.069C114.96 150.737 112.02 154.146 110.991 158.296Z" fill="url(#paint24_linear_338_1713)"/>
<path d="M111.727 160.223C111.58 161.854 112.462 162.743 114.079 162.595C115.108 162.446 116.284 162.298 117.166 161.854C118.783 160.964 119.371 158.889 119.518 157.111C119.665 155.48 119.518 153.998 119.224 152.368C119.077 151.775 118.93 151.182 118.636 150.737C118.489 150.589 118.342 150.293 118.048 150.293C117.313 150.144 116.137 151.627 115.549 152.219C114.373 153.553 113.197 155.036 112.609 156.814C112.315 157.555 111.727 159.037 111.727 160.223Z" fill="url(#paint25_linear_338_1713)"/>
<path d="M117.313 153.702C111.139 144.809 103.495 136.805 94.2344 129.542C94.5284 128.505 95.1164 127.764 95.9983 127.022C105.847 135.619 113.491 144.067 118.783 152.368C118.636 153.109 118.195 153.998 117.313 153.702Z" fill="url(#paint26_linear_338_1713)"/>
<path d="M114.079 147.328C114.079 147.328 111.874 145.698 109.816 143.178C107.758 140.658 106.582 138.139 106.582 138.139C106.582 138.139 108.787 139.769 110.845 142.289C112.903 144.66 114.079 147.328 114.079 147.328Z" fill="#FFF1C9"/>
<path d="M124.809 155.036C124.809 155.036 124.809 154.739 124.662 154.146C124.662 153.702 124.662 152.961 124.662 152.219C124.809 151.478 124.956 150.885 125.103 150.441C125.25 149.996 125.397 149.552 125.397 149.552C125.397 149.552 125.691 149.848 125.838 150.293C125.985 150.737 126.279 151.478 126.132 152.368C125.985 153.109 125.691 153.85 125.397 154.294C125.103 154.739 124.809 155.036 124.809 155.036Z" fill="#FFF1C9"/>
<path d="M108.2 169.413C108.053 168.523 107.906 167.486 107.465 166.745C107.024 166.004 106.583 165.411 105.848 164.966C105.261 164.521 104.673 163.929 103.938 163.632C102.468 163.039 100.851 163.632 99.5276 164.373C98.9396 164.818 98.3517 165.263 97.7637 165.707C95.4117 167.93 93.0598 170.598 91.5898 173.563C90.7078 175.49 89.6789 178.009 90.8548 180.084C91.2958 180.825 91.7368 181.27 92.4718 181.863C93.0598 182.308 93.7948 182.9 94.5297 183.049C95.5587 183.197 96.4407 183.049 97.4697 182.752C103.35 180.825 108.788 176.231 108.2 169.413Z" fill="url(#paint27_linear_338_1713)"/>
<path d="M92.47 177.713C92.47 177.861 92.323 178.157 92.323 178.306C92.029 179.936 92.176 181.863 93.793 182.752C94.9689 183.345 96.4389 183.197 97.6149 182.752C103.495 180.825 108.934 176.231 108.346 169.561C108.199 168.079 107.758 166.448 106.435 165.559C104.083 164.077 101.29 165.855 99.6728 167.486C96.4389 170.154 93.499 173.563 92.47 177.713Z" fill="url(#paint28_linear_338_1713)"/>
<path d="M93.2053 179.64C93.0583 181.27 93.9403 182.159 95.5573 182.011C96.5862 181.863 97.7622 181.715 98.6442 181.27C100.261 180.381 100.849 178.306 100.996 176.527C101.143 174.897 100.996 173.415 100.702 171.784C100.555 171.191 100.408 170.598 100.114 170.154C99.9672 170.006 99.8202 169.709 99.5262 169.709C98.7912 169.561 97.6152 171.043 97.0272 171.636C95.8513 172.97 94.6753 174.452 94.0873 176.231C93.7933 176.972 93.2053 178.454 93.2053 179.64Z" fill="url(#paint29_linear_338_1713)"/>
<path d="M98.7914 173.118C92.6175 164.225 84.9737 156.221 75.7129 148.959C76.0069 147.921 76.5949 147.18 77.4768 146.439C87.3256 155.036 94.9695 163.484 100.261 171.784C100.261 172.525 99.6734 173.415 98.7914 173.118Z" fill="url(#paint30_linear_338_1713)"/>
<path d="M95.5574 166.745C95.5574 166.745 93.3524 165.114 91.2945 162.595C89.2365 160.075 88.0605 157.555 88.0605 157.555C88.0605 157.555 90.2655 159.186 92.3235 161.705C94.3814 164.077 95.5574 166.745 95.5574 166.745Z" fill="#FFF1C9"/>
<path d="M106.288 174.452C106.288 174.452 106.288 174.156 106.141 173.563C106.141 173.118 106.141 172.377 106.141 171.636C106.288 170.895 106.435 170.302 106.582 169.857C106.729 169.413 106.876 168.968 106.876 168.968C106.876 168.968 107.17 169.264 107.317 169.709C107.464 170.154 107.758 170.895 107.611 171.784C107.464 172.525 107.17 173.266 106.876 173.711C106.582 174.304 106.288 174.452 106.288 174.452Z" fill="#FFF1C9"/>
<path d="M41.7567 210.321C43.0797 210.024 44.4027 209.728 45.8726 209.876C47.0486 210.024 48.0776 210.617 49.1066 211.062C49.9885 211.655 51.1645 212.099 51.8995 212.989C53.5165 214.767 53.5165 217.287 53.0755 219.51C52.7815 220.548 52.4875 221.585 52.0465 222.623C50.1355 227.218 47.7836 231.664 44.4027 235.221C42.1977 237.445 39.1108 240.112 35.8769 239.52C34.7009 239.371 33.6719 238.779 32.7899 238.186C31.9079 237.593 30.732 236.852 30.144 235.962C29.409 234.628 29.262 233.146 29.115 231.664C28.527 222.919 32.0549 212.989 41.7567 210.321Z" fill="url(#paint31_linear_338_1713)"/>
<path d="M38.5228 236.555C38.2288 236.703 38.0818 236.852 37.7878 237C35.7299 238.334 32.9369 238.927 30.879 237.296C29.409 235.962 29.115 233.887 28.968 231.961C28.527 222.771 32.055 212.84 41.7567 210.321C43.9617 209.728 46.3136 209.58 48.2246 210.914C51.4585 213.433 50.5765 218.176 49.1066 221.437C46.7546 227.069 43.5207 232.998 38.5228 236.555Z" fill="url(#paint32_linear_338_1713)"/>
<path d="M35.2901 236.555C33.2321 237.445 31.4681 236.852 30.7332 234.48C30.2922 232.998 29.9982 231.368 30.2922 229.886C30.7332 227.218 33.2321 225.291 35.731 224.253C37.789 223.216 40.1409 222.623 42.3459 222.178C43.2279 222.03 43.9629 221.882 44.8448 222.178C45.2858 222.326 45.5798 222.475 45.7268 222.771C46.3148 223.809 44.8448 226.18 44.4039 227.069C43.2279 229.441 41.6109 231.812 39.553 233.591C38.671 234.48 37.054 235.814 35.2901 236.555Z" fill="url(#paint33_linear_338_1713)"/>
<path d="M35.877 215.657C35.877 215.657 36.4649 215.508 37.0529 215.36C37.7879 215.212 38.6699 214.916 39.6989 214.323C40.5808 213.878 41.4628 213.285 42.0508 212.841C42.6388 212.396 43.0798 211.951 43.0798 211.951C43.0798 211.951 42.6388 211.803 41.7568 211.803C41.0218 211.803 39.8459 211.951 38.8169 212.396C37.7879 212.989 37.0529 213.73 36.6119 214.471C36.0239 215.064 35.877 215.657 35.877 215.657Z" fill="#FFF1C9"/>
<path d="M34.1134 221.437C31.3205 209.135 33.9664 194.165 40.2873 183.493C43.3742 178.157 47.6371 174.007 51.9 169.561C57.3389 163.929 62.7778 158.296 68.0697 152.664C74.2435 146.142 80.5644 139.621 86.7382 133.099L104.966 113.979C108.053 110.718 111.14 107.606 114.668 104.79C116.432 103.308 118.196 101.974 120.106 100.788C122.017 99.6021 124.075 98.4164 126.28 97.6753C130.69 96.1931 135.394 95.8967 139.951 96.3413C144.508 96.9342 148.771 98.1199 153.034 99.3057C157.297 100.491 161.413 101.529 165.675 101.825C169.791 102.122 173.907 101.381 177.729 99.7503C178.464 99.4539 179.493 99.7503 179.787 100.491C180.081 101.233 179.787 102.27 179.052 102.566C174.789 104.493 170.085 105.383 165.528 105.086C160.972 104.79 156.562 103.752 152.299 102.566C148.036 101.529 143.773 100.195 139.657 99.7503C135.541 99.3057 131.278 99.6021 127.456 100.936C125.545 101.529 123.781 102.566 122.017 103.752C120.253 104.938 118.49 106.272 116.873 107.606C113.639 110.422 110.552 113.535 107.465 116.647L89.3842 135.915C81.4464 144.216 73.6555 152.664 65.7177 160.964C58.3679 168.82 49.8421 176.379 43.8152 185.42C39.8463 191.349 38.3763 197.87 37.0533 204.837C35.8774 211.506 34.8484 218.473 37.7883 224.994C37.9353 225.439 38.2293 225.884 38.2293 226.476C37.9353 229.737 34.7014 224.401 34.4074 223.512C34.4074 222.623 34.2604 222.03 34.1134 221.437Z" fill="url(#paint34_linear_338_1713)"/>
<path d="M66.0107 182.011C67.3336 182.011 68.8036 182.159 70.1266 182.604C71.1556 183.049 72.1845 183.79 72.9195 184.679C73.6545 185.42 74.6835 186.31 75.1245 187.199C76.1534 189.274 75.5655 191.794 74.6835 193.869C74.2425 194.906 73.6545 195.795 72.9195 196.685C69.9796 200.687 66.5987 204.392 62.4828 207.06C59.8368 208.69 56.1619 210.617 53.222 209.135C52.193 208.69 51.311 207.949 50.429 207.06C49.694 206.319 48.8121 205.281 48.5181 204.244C48.0771 202.91 48.3711 201.28 48.5181 199.946C50.135 190.904 56.0149 182.159 66.0107 182.011Z" fill="url(#paint35_linear_338_1713)"/>
<path d="M56.6022 206.615C56.3082 206.764 56.0142 206.764 55.7202 206.912C53.3683 207.653 50.5753 207.653 48.9584 205.578C47.7824 203.947 48.0764 201.872 48.3704 199.946C50.1343 190.904 56.0142 182.159 66.01 182.011C68.2149 182.011 70.7139 182.308 72.1838 184.234C74.8298 187.495 72.6248 191.794 70.5669 194.61C66.892 199.501 62.3351 204.392 56.6022 206.615Z" fill="url(#paint36_linear_338_1713)"/>
<path d="M53.5158 205.874C51.1638 206.319 49.6939 205.281 49.5469 202.762C49.5469 201.279 49.5469 199.501 50.1349 198.167C51.1638 195.647 54.1038 194.461 56.7497 194.017C59.1017 193.572 61.3066 193.424 63.6586 193.572C64.5405 193.572 65.2755 193.72 66.1575 194.165C66.4515 194.313 66.8925 194.61 66.8925 194.906C67.1865 196.092 65.2755 198.019 64.5405 198.76C62.7766 200.835 60.7186 202.613 58.3667 203.947C57.3377 204.54 55.2797 205.578 53.5158 205.874Z" fill="url(#paint37_linear_338_1713)"/>
<path d="M58.9531 185.717C58.9531 185.717 59.5411 185.717 60.2761 185.717C61.0111 185.717 62.0401 185.568 63.069 185.42C64.098 185.124 64.98 184.827 65.715 184.531C66.45 184.235 66.8909 183.938 66.8909 183.938C66.8909 183.938 66.45 183.642 65.715 183.345C64.98 183.049 63.804 182.901 62.628 183.197C61.4521 183.493 60.5701 184.086 59.9821 184.679C59.2471 185.272 58.9531 185.717 58.9531 185.717Z" fill="#FFF1C9"/>
<path d="M99.5254 261.752C98.7904 260.715 98.0554 259.826 97.0264 259.233C92.4695 256.565 85.4137 259.084 81.8858 262.493C78.6518 265.606 76.5939 270.794 77.7699 275.388C78.2108 276.871 79.0928 278.205 80.1218 279.538C81.0038 280.576 81.8858 281.762 83.0617 282.503C85.7077 283.985 88.9416 283.689 91.5875 282.355C97.1734 279.687 103.2 273.165 101.877 266.495C101.583 264.865 100.554 263.679 99.6724 262.345C99.8194 262.049 99.6724 261.901 99.5254 261.752Z" fill="url(#paint38_linear_338_1713)"/>
<path d="M81.8858 262.345C78.6518 265.458 76.5939 270.646 77.7699 275.24C78.3578 277.315 79.6808 279.242 81.5918 280.428C84.2377 281.91 87.4716 281.614 90.1176 280.28C95.7035 277.612 101.73 271.09 100.407 264.42C99.9664 262.345 98.7904 260.418 96.8794 259.233C92.4695 256.417 85.5607 258.936 81.8858 262.345Z" fill="url(#paint39_linear_338_1713)"/>
<path d="M79.0938 274.647C79.3878 275.537 79.8288 276.426 80.4168 277.315C82.3277 279.687 85.7087 280.131 88.3546 278.946C90.8535 277.76 92.7645 275.537 94.3815 273.165C94.5285 272.869 94.6755 272.572 94.6755 272.276C94.6755 271.98 94.5285 271.831 94.3815 271.683C92.1765 269.163 88.9426 266.94 85.8557 266.199C84.6797 265.903 83.3567 265.903 82.1807 266.347C78.6528 267.533 78.0648 271.535 79.0938 274.647Z" fill="url(#paint40_linear_338_1713)"/>
<path d="M95.7034 261.604C95.7034 261.604 95.2624 261.308 94.6744 261.011C94.0864 260.715 93.2044 260.567 92.1754 260.419C91.1465 260.27 90.2645 260.122 89.5295 260.122C88.7945 259.974 88.3535 259.974 88.3535 259.974C88.3535 259.974 88.7945 259.677 89.5295 259.381C90.2645 259.085 91.2934 258.788 92.4694 258.936C93.6454 259.085 94.6744 259.826 95.1154 260.419C95.4094 260.715 95.5564 261.011 95.5564 261.16C95.5564 261.456 95.7034 261.604 95.7034 261.604Z" fill="#FFF1C9"/>
<path d="M85.8541 251.525C84.8251 256.861 87.765 261.308 88.353 266.792C88.353 266.94 88.353 267.088 88.353 267.237C88.206 267.829 87.765 268.274 87.1771 268.274C86.5891 268.274 86.7361 268.126 86.4421 267.533C84.8251 264.569 83.5021 261.16 82.9141 257.751C82.6202 256.417 81.7382 249.747 84.2371 250.043C84.8251 250.191 86.0011 250.784 85.8541 251.525Z" fill="url(#paint41_linear_338_1713)"/>
<path d="M57.6317 262.79C57.4847 263.234 57.4847 263.679 57.6317 263.976C57.7787 264.272 58.0727 264.42 58.2197 264.568C58.8077 265.013 59.3957 265.31 59.8367 265.754C60.8657 261.901 62.6296 258.343 64.6876 255.083C64.6876 255.083 63.6586 254.341 63.5116 254.193C63.2176 254.045 62.9236 253.749 62.4826 253.749C61.7476 253.749 61.3066 254.638 60.8657 255.231C59.8367 256.713 58.9547 258.195 58.3667 259.974C58.2197 260.863 57.9257 261.752 57.6317 262.79Z" fill="#A15723"/>
<path d="M72.4796 270.794C72.4796 269.608 72.3326 268.274 71.8916 267.236C69.6866 262.345 62.4838 260.418 57.6329 261.159C53.223 261.901 48.5191 265.013 47.0491 269.311C46.4611 270.794 46.6081 272.424 46.6081 274.054C46.7551 275.388 46.7551 276.871 47.3431 278.204C48.6661 280.872 51.606 282.503 54.399 283.096C60.5728 284.133 69.0986 282.206 71.8916 275.981C72.4796 274.499 72.4796 272.869 72.4796 271.386C72.4796 271.09 72.4796 270.942 72.4796 270.794Z" fill="url(#paint42_linear_338_1713)"/>
<path d="M57.6316 261.159C53.2217 261.901 48.5178 265.013 47.0478 269.311C46.3128 271.386 46.3128 273.758 47.1948 275.685C48.5178 278.353 51.4577 279.983 54.2506 280.576C60.4245 281.614 68.9503 279.687 71.7432 273.462C72.6252 271.535 72.7722 269.163 71.8902 267.236C69.6853 262.345 62.4824 260.418 57.6316 261.159Z" fill="url(#paint43_linear_338_1713)"/>
<path d="M48.2242 269.608C47.9302 270.497 47.7832 271.535 47.7832 272.424C47.9302 275.388 50.5761 277.76 53.3691 278.353C56.162 278.946 58.955 278.056 61.6009 277.019C61.8949 276.871 62.1889 276.722 62.3359 276.426C62.4829 276.129 62.4829 275.981 62.3359 275.685C62.0419 272.424 60.4249 268.719 58.367 266.199C57.485 265.161 56.456 264.42 55.28 264.124C52.0461 263.531 49.2532 266.495 48.2242 269.608Z" fill="url(#paint44_linear_338_1713)"/>
<path d="M69.391 268.422C69.391 268.422 69.244 267.977 68.803 267.385C68.362 266.792 67.921 266.051 67.186 265.458C66.451 264.717 65.7161 264.124 65.1281 263.679C64.5401 263.234 64.2461 262.79 64.2461 262.79C64.2461 262.79 64.6871 262.79 65.4221 262.938C66.1571 263.086 67.186 263.531 68.068 264.272C68.95 265.161 69.391 266.347 69.391 267.088C69.391 267.533 69.391 267.829 69.391 267.977C69.391 268.274 69.391 268.422 69.391 268.422Z" fill="#FFF1C9"/>
<path d="M66.8936 254.49C63.0717 258.343 62.9247 263.679 60.2787 268.422C60.2787 268.57 60.1317 268.718 60.1317 268.718C59.6908 269.163 58.9558 269.163 58.5148 268.867C58.0738 268.57 58.2208 268.422 58.2208 267.829C58.5148 264.42 59.3968 261.011 60.8667 257.75C61.4547 256.565 64.3946 250.488 66.3056 252.266C66.8936 252.859 67.4816 254.045 66.8936 254.49Z" fill="url(#paint45_linear_338_1713)"/>
<path d="M58.5144 192.831C56.8974 190.904 56.1625 188.385 55.5745 185.865C54.3985 181.122 54.5455 175.934 54.8395 171.043C53.0755 171.636 51.0176 172.97 51.0176 174.897C51.1646 182.011 53.5165 189.126 57.4854 195.054C57.6324 195.203 57.7794 195.054 57.9264 194.906C58.0734 194.758 58.2204 194.61 58.2204 194.462C58.3674 193.572 58.9554 193.424 58.5144 192.831Z" fill="url(#paint46_linear_338_1713)"/>
<path d="M55.2796 187.644C55.2796 187.644 54.8386 187.199 54.2506 186.31C53.6626 185.42 53.0747 184.235 52.7807 182.604C52.4867 181.122 52.4867 179.64 52.6337 178.602C52.7807 177.565 53.0747 176.972 53.0747 176.972C53.0747 176.972 53.2217 177.565 53.3686 178.602C53.5156 179.492 53.8096 180.826 54.1036 182.308C54.3976 183.79 54.6916 185.124 54.8386 186.013C55.1326 187.051 55.2796 187.644 55.2796 187.644Z" fill="#FFF1C9"/>
<path d="M37.3465 196.24C37.3465 196.24 37.1995 197.13 37.0525 198.463C36.9055 199.797 36.6115 201.576 36.1706 203.651C35.8766 205.578 35.4356 207.505 35.2886 208.839C34.9946 210.173 34.8476 211.062 34.8476 211.062C34.8476 211.062 34.7006 210.173 34.5536 208.839C34.4066 207.505 34.4066 205.578 34.7006 203.503C34.9946 201.428 35.7296 199.649 36.3175 198.463C36.9055 196.833 37.3465 196.24 37.3465 196.24Z" fill="#FFF1C9"/>
<path d="M140.979 98.2684C140.979 98.2684 139.509 98.2684 137.304 98.1202C134.952 98.1202 131.865 98.1202 128.631 99.3059C125.397 100.343 122.604 101.826 120.546 103.011C118.488 104.049 117.312 104.79 117.312 104.79C117.312 104.79 118.341 103.752 120.252 102.418C122.163 101.085 124.809 99.1577 128.19 97.972C131.718 96.7862 135.099 97.0827 137.304 97.5273C139.509 97.8238 140.979 98.2684 140.979 98.2684Z" fill="#FFF1C9"/>
<path d="M186.402 95.0073C186.402 95.0073 185.079 97.2306 182.58 99.1574C180.081 101.084 177.582 101.677 177.582 101.677C177.582 101.677 179.346 99.7503 181.698 97.9717C184.05 96.1931 186.402 95.0073 186.402 95.0073Z" fill="#FFF1C9"/>
<path d="M196.69 46.6885C196.69 46.6885 196.543 46.2438 196.102 45.3545C195.661 44.4652 195.22 43.2795 194.485 41.9455C193.015 39.1294 190.516 35.4239 187.576 31.5703C184.489 27.8648 181.549 24.4558 179.05 22.529C177.874 21.4915 176.698 20.8986 175.963 20.454C175.228 20.0093 174.787 19.8611 174.787 19.8611C174.787 19.8611 175.228 20.0093 176.11 20.3057C176.992 20.6022 178.168 21.195 179.491 22.0843C182.284 23.863 185.518 26.9755 188.605 30.8292C191.692 34.6828 193.897 38.6847 195.073 41.7973C195.661 43.2795 196.102 44.6134 196.249 45.5027C196.543 46.2438 196.69 46.6885 196.69 46.6885Z" fill="#FFF1C9"/>
<path d="M169.057 106.569C168.469 107.458 167.881 108.347 167.293 109.236C164.941 109.533 162.442 109.236 160.237 108.644C157.003 107.903 153.916 106.569 150.682 105.531C148.036 104.642 145.39 104.049 142.744 103.456C137.893 102.418 132.748 101.677 128.191 103.456C129.073 102.27 130.102 101.233 130.984 100.047C132.013 99.8988 132.895 99.7505 133.924 99.7505C138.922 99.6023 144.067 100.788 148.771 102.418C152.299 103.604 155.68 104.938 159.208 105.679C161.413 106.124 163.618 106.42 165.823 106.42C166.264 106.569 167.587 106.569 169.057 106.569Z" fill="#A15723"/>
<path d="M71.5965 300.882C57.3378 306.218 40.4332 306.662 31.1724 292.433C22.4996 279.242 18.9716 259.677 23.0875 244.411C25.4395 253.304 29.5554 262.049 34.1123 270.053C38.6692 278.056 44.8431 285.319 52.3399 290.655C58.2198 294.805 64.9816 297.917 71.5965 300.882Z" fill="url(#paint47_linear_338_1713)"/>
<path d="M175.524 58.546C175.23 62.6961 174.495 66.8462 173.466 70.8481C172.29 74.85 167.145 85.3734 172.878 88.3378C176.553 86.2627 179.052 82.4091 180.816 78.4072C185.225 69.5142 187.724 59.2871 185.813 49.5048C184.931 45.3547 183.167 41.3528 180.669 37.7956C178.023 34.2384 172.878 29.7918 168.174 29.3472C168.909 31.8669 170.526 34.2384 171.408 36.6098C172.437 39.1295 173.319 41.7975 174.054 44.4654C174.348 45.7993 174.642 47.1333 174.936 48.4672C175.671 51.8763 175.818 55.137 175.524 58.546Z" fill="url(#paint48_linear_338_1713)"/>
<path d="M185.667 57.0637C185.667 57.0637 185.373 56.0261 184.932 54.3957C184.491 52.7653 183.903 50.6903 183.168 48.1706C182.433 45.7991 181.845 43.5758 181.257 42.0937C180.669 40.4633 180.375 39.574 180.375 39.574C180.375 39.574 180.963 40.3151 181.845 41.7972C182.727 43.2794 183.756 45.3545 184.491 47.7259C185.226 50.2456 185.52 52.4689 185.52 54.2475C185.814 56.0261 185.667 57.0637 185.667 57.0637Z" fill="#FFF1C9"/>
<path d="M158.472 118.129C158.472 118.129 157.149 121.39 154.503 124.947C151.857 128.356 149.064 130.58 149.064 130.58C149.064 130.58 150.828 127.467 153.327 124.058C155.826 120.501 158.472 118.129 158.472 118.129Z" fill="#FFF1C9"/>
<path d="M158.619 65.2157C158.619 65.2157 158.766 64.4746 158.913 63.1406C159.06 61.8067 159.354 60.1763 159.501 58.2494C159.648 56.3226 159.795 54.6922 159.795 53.3583C159.795 52.0243 159.795 51.2832 159.795 51.2832C159.795 51.2832 160.236 52.0243 160.53 53.21C160.824 54.544 161.265 56.3226 160.971 58.3977C160.824 60.4727 160.236 62.2513 159.648 63.437C159.06 64.6228 158.619 65.2157 158.619 65.2157Z" fill="#FFF1C9"/>
<path d="M41.1686 300.437C41.1686 300.437 40.8747 300.289 40.2867 300.289C39.6987 300.141 38.9637 299.844 38.0817 299.548C36.1708 298.807 33.8188 297.176 31.7609 294.657C29.8499 292.137 28.8209 289.469 28.3799 287.394C28.2329 286.357 28.0859 285.615 28.0859 285.023C28.0859 284.43 28.0859 284.133 28.0859 284.133C28.0859 284.133 28.2329 284.43 28.3799 285.023C28.5269 285.615 28.8209 286.357 29.1149 287.246C29.8499 289.024 31.1729 291.396 32.9368 293.767C34.7008 295.991 36.7587 297.769 38.3757 298.955C39.1107 299.548 39.8457 299.993 40.2867 300.141C40.8747 300.289 41.1686 300.437 41.1686 300.437Z" fill="#FFF1C9"/>
<path d="M147.741 253.452C147.741 253.452 146.565 251.674 144.801 248.858C143.037 246.041 140.538 242.04 137.745 237.741C134.952 233.443 132.159 229.737 129.954 227.07C128.925 225.736 128.043 224.698 127.308 223.957C126.72 223.216 126.279 222.919 126.279 222.919C126.279 222.919 126.72 223.216 127.455 223.809C128.19 224.402 129.219 225.291 130.395 226.477C132.894 228.848 135.981 232.405 138.774 236.852C141.714 241.15 143.772 245.449 145.242 248.413C146.859 251.525 147.741 253.452 147.741 253.452Z" fill="#FFF1C9"/>
<path d="M137.158 295.694C137.158 295.694 136.423 294.953 135.247 293.767C133.924 292.582 132.16 290.803 130.102 288.432C128.044 286.06 125.545 283.244 123.194 279.835C120.695 276.426 118.196 272.572 115.844 268.422C113.492 264.124 111.581 259.974 109.964 256.12C108.494 252.266 107.171 248.709 106.436 245.597C105.554 242.632 104.966 240.113 104.672 238.334C104.378 236.555 104.084 235.666 104.084 235.666C104.084 235.666 104.378 236.555 104.819 238.334C105.26 239.964 106.142 242.484 107.171 245.448C108.2 248.413 109.523 251.822 111.14 255.675C112.757 259.529 114.815 263.531 117.167 267.681C119.519 271.831 121.871 275.685 124.223 279.094C126.574 282.503 128.779 285.467 130.69 287.987C132.601 290.507 134.218 292.433 135.394 293.619C136.57 294.953 137.158 295.694 137.158 295.694Z" fill="#FFF1C9"/>
<path d="M103.643 208.394C103.643 208.394 103.496 208.839 103.202 209.432C102.908 210.024 102.614 210.766 102.173 211.507C101.732 212.248 101.291 212.989 100.997 213.582C100.703 214.175 100.409 214.471 100.409 214.471C100.409 214.471 100.262 214.026 100.262 213.433C100.262 212.692 100.409 211.803 100.997 210.914C101.438 210.024 102.173 209.432 102.761 208.987C103.202 208.542 103.643 208.394 103.643 208.394Z" fill="#FFF1C9"/>
<path d="M160.824 312.888C160.824 312.888 161.118 312.146 161.559 310.812C162 309.627 162.441 307.848 162.735 305.921C163.029 303.994 163.176 302.216 163.029 301.03C163.029 299.696 162.882 298.955 162.882 298.955C162.882 298.955 163.323 299.696 163.764 301.03C164.205 302.364 164.499 304.291 164.205 306.366C163.911 308.441 163.029 310.22 162.294 311.257C161.412 312.295 160.824 312.888 160.824 312.888Z" fill="#FFF1C9"/>
<path d="M68.6561 153.85C68.6561 153.85 67.4801 156.073 65.2751 158.296C63.0702 160.371 60.8652 161.557 60.8652 161.557C60.8652 161.557 62.0412 159.334 64.2462 157.111C66.3041 155.036 68.6561 153.85 68.6561 153.85Z" fill="#FFF1C9"/>
<path d="M127.162 34.5347C127.162 34.5347 126.721 34.8312 125.839 35.1276C124.957 35.424 123.781 35.7205 122.458 35.7205C121.135 35.7205 119.959 35.2758 119.077 34.9794C118.195 34.6829 117.754 34.2383 117.754 34.2383C117.754 34.2383 118.342 34.2383 119.224 34.2383C120.106 34.2383 121.282 34.2383 122.458 34.2383C123.634 34.2383 124.81 34.3865 125.692 34.3865C126.574 34.3865 127.162 34.5347 127.162 34.5347Z" fill="#FFF1C9"/>
<path d="M97.1733 2.66797C97.1733 2.66797 96.5853 3.26084 95.5564 4.29836C94.6744 5.33589 93.3514 6.81806 92.1754 8.44846C90.9995 10.0789 89.9705 11.7092 89.3825 13.0432C88.7945 14.2289 88.3535 15.1182 88.3535 15.1182C88.3535 15.1182 88.3535 14.2289 88.6475 12.7468C88.9415 11.4128 89.6765 9.48598 90.9995 7.55915C92.3224 5.78054 93.9394 4.44658 95.1154 3.70549C96.2913 2.9644 97.1733 2.66797 97.1733 2.66797Z" fill="#FFF1C9"/>
<path d="M93.3516 12.1538L101.142 17.1932L105.405 13.3396L96.5855 9.04126C95.1155 9.78235 94.0865 10.8199 93.3516 12.1538Z" fill="url(#paint49_linear_338_1713)"/>
<path d="M108.787 19.2684C108.64 19.4166 108.64 19.4166 108.493 19.5648C107.905 20.1577 107.611 20.8988 107.317 21.7881C107.023 22.6774 106.729 23.7149 106.582 24.6042C106.288 25.9382 106.141 27.2721 106.288 28.4579C104.818 27.4204 103.348 26.3828 102.172 25.4935C101.584 24.0113 101.143 22.5292 102.907 19.5648C102.907 19.5648 104.083 17.3416 105.847 17.3416C105.847 17.3416 107.317 18.5273 108.787 19.2684Z" fill="url(#paint50_linear_338_1713)"/>
<g filter="url(#filter0_f_338_1713)">
<path d="M56.0603 140.392L57.423 188.016L98.9757 165.395L58.7858 190.398L98.9757 215.401L57.423 192.78L56.0603 240.404L54.6975 192.78L13.1449 215.401L53.3348 190.398L13.1449 165.395L54.6975 188.016L56.0603 140.392Z" fill="white"/>
</g>
<path d="M51.6877 156.571L52.5694 187.386L79.4564 172.749L53.4512 188.927L79.4564 205.106L52.5694 190.469L51.6877 221.284L50.8059 190.469L23.9189 205.106L49.9241 188.927L23.9189 172.749L50.8059 187.386L51.6877 156.571Z" fill="white"/>
<g filter="url(#filter1_f_338_1713)">
<path d="M163.545 283.132L164.051 300.796L179.462 292.406L164.556 301.679L179.462 310.953L164.051 302.563L163.545 320.226L163.04 302.563L147.628 310.953L162.534 301.679L147.628 292.406L163.04 300.796L163.545 283.132Z" fill="white"/>
</g>
<path d="M161.924 289.133L162.251 300.562L172.223 295.133L162.578 301.134L172.223 307.134L162.251 301.705L161.924 313.135L161.597 301.705L151.625 307.134L161.27 301.134L151.625 295.133L161.597 300.562L161.924 289.133Z" fill="white"/>
<g filter="url(#filter2_f_338_1713)">
<path d="M124.924 17.373L125.43 35.0364L140.841 26.6465L125.935 35.9199L140.841 45.1933L125.43 36.8033L124.924 54.4667L124.419 36.8033L109.007 45.1933L123.913 35.9199L109.007 26.6465L124.419 35.0364L124.924 17.373Z" fill="white"/>
</g>
<path d="M123.303 23.3735L123.63 34.8028L133.602 29.374L123.957 35.3744L133.602 41.3748L123.63 35.946L123.303 47.3753L122.976 35.946L113.003 41.3748L122.649 35.3744L113.003 29.374L122.976 34.8028L123.303 23.3735Z" fill="white"/>
<path opacity="0.8" d="M192.311 41.2835C188.205 39.4473 183.642 37.611 181.361 38.5291C177.255 40.8245 179.992 48.1695 179.992 48.1695C179.992 47.7104 173.149 33.4794 165.849 36.2338C165.849 36.6929 165.393 36.6929 165.393 37.152C168.13 50.0057 159.462 67.9092 159.462 67.9092C159.462 67.9092 158.093 56.8917 148.968 53.6782C140.756 50.4648 134.825 65.6139 134.825 66.073C134.825 65.6139 135.737 56.8917 130.719 54.1373C126.156 51.3829 112.469 63.7776 112.013 64.2367C112.013 63.7776 117.488 54.1373 116.575 47.7104C116.575 41.7426 96.957 38.0701 96.957 38.0701C96.957 38.0701 117.032 27.9707 123.875 23.8391C123.875 23.8391 123.875 23.8391 124.331 23.8391L120.225 29.8069L125.7 30.266L148.056 32.1023H149.881L158.549 33.0204L162.199 33.4794H163.568H164.024L167.218 29.3479L168.13 27.9707L176.342 30.7251L191.398 35.3157C192.311 37.152 192.311 38.9882 192.311 41.2835Z" fill="url(#paint51_linear_338_1713)"/>
<path d="M202.805 33.4806C203.261 37.6121 207.367 42.6618 207.823 43.1209C207.367 43.1209 193.224 33.4806 189.118 35.7759C185.012 38.0712 187.749 45.4162 187.749 45.4162C187.749 44.9572 180.905 30.7262 173.606 33.4806C173.149 33.4806 173.149 33.4806 172.693 33.9396C172.237 33.9396 172.237 34.3987 171.781 34.3987C166.306 38.0712 167.675 47.2525 167.675 47.2525C167.675 47.2525 160.831 38.5303 158.094 30.2671C158.094 29.8081 158.094 29.8081 157.637 29.349C157.637 28.4309 157.181 27.9718 157.181 27.5127V27.0537C156.725 24.2993 156.725 21.5449 158.094 19.2496C158.094 19.2496 158.094 19.2496 158.094 18.7905C160.831 14.659 164.025 15.118 164.025 15.118C161.743 -1.86733 184.099 -0.0310766 187.293 -0.0310766C187.749 -0.0310766 187.749 -0.0310766 187.749 -0.0310766C187.749 -0.0310766 183.187 4.55956 184.555 7.31394C184.555 7.77301 185.468 7.77301 186.38 7.77301C190.943 7.77301 202.349 3.64143 202.349 3.64143C202.349 3.64143 200.524 5.93675 199.155 8.23207C198.699 9.1502 198.243 10.0683 198.243 10.5274C198.243 11.9046 198.243 12.8227 199.155 13.7408C202.805 16.4952 223.336 22.9221 223.336 22.9221C223.336 22.9221 202.805 27.5127 202.349 32.1034C202.805 33.0215 202.805 33.4806 202.805 33.4806Z" fill="url(#paint52_linear_338_1713)"/>
<path opacity="0.4" d="M169.041 16.0376C169.041 16.0376 172.235 17.8739 181.816 11.906C183.641 10.5288 185.466 9.15165 186.378 8.23352C185.466 8.23352 184.553 8.23352 184.553 7.77446C183.184 5.02008 187.747 0.429443 187.747 0.429443C187.747 0.429443 187.747 0.429443 187.29 0.429443C185.922 0.429443 183.641 0.888507 180.447 1.34757C170.866 2.72476 160.372 13.7423 169.041 16.0376Z" fill="url(#paint53_linear_338_1713)"/>
<path opacity="0.4" d="M176.344 17.4138C185.012 10.5278 200.068 5.01904 200.068 5.01904C200.068 5.01904 196.418 15.5775 188.662 19.7091C180.906 24.2997 176.344 17.4138 176.344 17.4138Z" fill="url(#paint54_linear_338_1713)"/>
<path opacity="0.4" d="M193.226 20.168C199.157 14.6592 220.6 23.3815 220.6 23.3815C220.6 23.3815 212.388 27.513 200.07 26.1358C187.751 24.7586 193.226 20.168 193.226 20.168Z" fill="url(#paint55_linear_338_1713)"/>
<path d="M166.762 65.1552C166.762 65.1552 165.394 54.1377 156.269 50.9243C148.057 47.7108 142.126 62.8599 142.126 63.319C142.126 62.8599 143.038 54.1377 138.019 51.3833C133.457 48.6289 119.77 61.0237 119.314 61.4827C119.314 61.0237 124.789 51.3833 123.876 44.9564C123.876 38.5295 104.258 35.3161 104.258 35.3161C104.258 35.3161 113.383 30.2664 120.226 26.1348C122.964 24.2986 125.701 22.4623 126.613 21.5442C127.07 20.626 127.526 19.2489 127.07 18.3307C127.07 17.4126 126.613 16.4945 126.157 16.0354C125.245 13.281 123.42 11.4448 123.42 11.4448C123.42 11.4448 133.457 14.1992 137.563 13.7401C138.476 13.7401 138.932 13.281 139.388 12.822C140.301 10.0676 135.738 6.39508 135.738 6.39508C135.738 6.39508 135.738 6.39508 136.194 6.39508C138.476 5.93601 153.988 5.93601 158.55 18.7898C159.006 20.167 159.463 21.5442 159.463 22.9214C160.375 22.9214 163.113 22.9214 166.306 24.2986C166.762 24.7576 167.219 24.7576 168.131 25.2167C168.587 25.6757 169.5 26.1348 169.956 27.0529C170.869 27.9711 171.325 28.8892 171.781 30.2664C171.781 30.2664 171.781 30.2664 171.781 30.7254C172.237 31.6436 172.694 33.0208 172.694 33.9389C175.431 46.7927 166.762 65.1552 166.762 65.1552Z" fill="url(#paint56_linear_338_1713)"/>
<path opacity="0.4" d="M143.494 32.1028C141.212 43.1204 143.95 57.3513 143.95 57.3513C143.95 57.3513 151.706 49.5473 152.162 40.8251C152.162 31.1847 143.494 32.1028 143.494 32.1028Z" fill="url(#paint57_linear_338_1713)"/>
<path opacity="0.4" d="M133.001 27.053C126.157 24.7576 109.732 33.0208 109.732 33.0208C109.732 33.0208 122.051 42.2021 130.719 35.7752C139.388 29.3483 133.001 27.053 133.001 27.053Z" fill="url(#paint58_linear_338_1713)"/>
<path opacity="0.4" d="M167.675 58.2703C167.675 58.2703 179.538 35.7761 166.307 26.5949C159.007 21.0861 153.532 32.1036 153.532 33.4808C153.076 44.4984 167.675 58.2703 167.675 58.2703Z" fill="url(#paint59_linear_338_1713)"/>
<path opacity="0.8" d="M159.007 31.6416C161.779 31.6416 164.026 29.3808 164.026 26.5919C164.026 23.8031 161.779 21.5422 159.007 21.5422C156.235 21.5422 153.988 23.8031 153.988 26.5919C153.988 29.3808 156.235 31.6416 159.007 31.6416Z" fill="url(#paint60_linear_338_1713)"/>
<path opacity="0.8" d="M179.079 23.3786C179.079 27.9693 175.429 31.6418 170.867 31.6418C166.304 31.6418 162.654 27.9693 162.654 23.3786C162.654 18.788 166.304 15.1155 170.867 15.1155C175.429 15.1155 179.079 18.788 179.079 23.3786Z" fill="url(#paint61_linear_338_1713)"/>
<path d="M162.2 32.5618C164.972 32.5618 167.219 30.301 167.219 27.5121C167.219 24.7232 164.972 22.4624 162.2 22.4624C159.429 22.4624 157.182 24.7232 157.182 27.5121C157.182 30.301 159.429 32.5618 162.2 32.5618Z" fill="url(#paint62_linear_338_1713)"/>
<path d="M162.201 17.4121C162.201 19.7074 160.376 21.5437 158.094 21.5437C155.813 21.5437 153.988 19.7074 153.988 17.4121C153.988 15.1168 155.813 13.2805 158.094 13.2805C160.376 13.2805 162.201 15.1168 162.201 17.4121Z" fill="url(#paint63_linear_338_1713)"/>
<path d="M184.554 23.3797C184.554 27.9703 180.904 32.1019 175.885 32.1019C171.323 32.1019 167.217 28.4294 167.217 23.3797C167.217 18.33 170.867 14.6575 175.885 14.6575C180.904 14.6575 184.554 18.33 184.554 23.3797Z" fill="url(#paint64_linear_338_1713)"/>
<path d="M182.274 19.7074C182.274 20.6256 182.274 21.0846 181.818 21.5437C181.362 21.5437 180.449 21.0846 180.449 20.6256C180.449 19.7074 180.449 19.2484 180.905 18.7893C181.362 18.7893 182.274 19.2484 182.274 19.7074Z" fill="white"/>
<path d="M164.48 25.6747C164.48 26.1338 164.48 26.5928 164.024 26.5928C163.568 26.5928 163.111 26.1338 163.111 25.6747C163.111 25.2157 163.111 24.7566 163.568 24.7566C163.568 25.2157 164.024 25.2157 164.48 25.6747Z" fill="white"/>
<ellipse cx="180.993" cy="277.967" rx="0.930599" ry="0.939079" fill="#FDC120"/>
<path d="M188.671 246.508L189.17 250.734L192.161 251.438L189.17 252.143L188.671 256.369L188.173 252.143L185.182 251.438L188.173 250.734L188.671 246.508Z" fill="#FDC120"/>
<path d="M235.899 140.392L237.76 155.686L248.928 158.235L237.76 160.783L235.899 176.077L234.039 160.783L222.871 158.235L234.039 155.686L235.899 140.392Z" fill="#FDC120"/>
<ellipse cx="235.899" cy="92.0297" rx="0.930599" ry="0.939079" fill="#FDC120"/>
<ellipse cx="220.079" cy="101.89" rx="0.930599" ry="0.939079" fill="#FDC120"/>
<ellipse cx="250.323" cy="168.095" rx="0.930599" ry="0.939079" fill="#FDC120"/>
<ellipse cx="264.747" cy="52.1188" rx="0.930599" ry="0.939079" fill="#FDC120"/>
<ellipse cx="291.735" cy="41.7889" rx="0.930599" ry="0.939079" fill="#FDC120"/>
<ellipse cx="232.177" cy="77.9435" rx="0.930599" ry="0.939079" fill="#FDC120"/>
<ellipse cx="237.296" cy="126.776" rx="0.930599" ry="0.939079" fill="#FDC120"/>
<ellipse cx="261.491" cy="189.694" rx="0.930599" ry="0.939079" fill="#FDC120"/>
<ellipse cx="224.267" cy="209.415" rx="0.930599" ry="0.939079" fill="#FDC120"/>
<ellipse cx="254.046" cy="239.465" rx="0.930599" ry="0.939079" fill="#FDC120"/>
<ellipse cx="220.079" cy="258.716" rx="0.930599" ry="0.939079" fill="#FDC120"/>
<ellipse cx="265.678" cy="226.788" rx="2.3265" ry="2.3477" fill="#FDC120"/>
<ellipse cx="237.295" cy="108.464" rx="2.3265" ry="2.3477" fill="#FDC120"/>
<ellipse cx="247.067" cy="186.407" rx="2.3265" ry="2.3477" fill="#FDC120"/>
<ellipse cx="277.776" cy="77.0044" rx="2.3265" ry="2.3477" fill="#FDC120"/>
<ellipse cx="241.948" cy="59.1619" rx="2.3265" ry="2.3477" fill="#FDC120"/>
<ellipse cx="281.963" cy="55.4056" rx="2.3265" ry="2.3477" fill="#FDC120"/>
<path d="M217.054 213.64L218.417 225.111L226.593 227.022L218.417 228.934L217.054 240.404L215.692 228.934L207.516 227.022L215.692 225.111L217.054 213.64Z" fill="#FDC120"/>
<path d="M264.515 72.3091L266.675 90.2191L279.637 93.2036L266.675 96.1881L264.515 114.098L262.355 96.1881L249.393 93.2036L262.355 90.2191L264.515 72.3091Z" fill="#FDC120"/>
<path d="M206.352 253.082L207.582 262.942L214.96 264.586L207.582 266.229L206.352 276.089L205.123 266.229L197.744 264.586L205.123 262.942L206.352 253.082Z" fill="#FDC120"/>
<path d="M267.772 196.737L268.47 202.573L272.658 203.545L268.47 204.518L267.772 210.354L267.075 204.518L262.887 203.545L267.075 202.573L267.772 196.737Z" fill="#FDC120"/>
<path d="M250.556 37.5632L251.253 43.3991L255.441 44.3716L251.253 45.344L250.556 51.1799L249.858 45.344L245.67 44.3716L249.858 43.3991L250.556 37.5632Z" fill="#FDC120"/>
<path d="M255.675 122.08L256.373 127.916L260.56 128.889L256.373 129.861L255.675 135.697L254.977 129.861L250.789 128.889L254.977 127.916L255.675 122.08Z" fill="#FDC120"/>
<path d="M251.487 63.3877L252.185 69.2235L256.373 70.196L252.185 71.1685L251.487 77.0043L250.789 71.1685L246.602 70.196L250.789 69.2235L251.487 63.3877Z" fill="#FDC120"/>
<path d="M292.897 87.3342L293.595 93.1701L297.783 94.1425L293.595 95.115L292.897 100.951L292.2 95.115L288.012 94.1425L292.2 93.1701L292.897 87.3342Z" fill="#FDC120"/>
<path d="M237.061 244.63L237.759 250.466L241.947 251.438L237.759 252.411L237.061 258.247L236.364 252.411L232.176 251.438L236.364 250.466L237.061 244.63Z" fill="#FDC120"/>
<path d="M246.6 204.25L247.796 213.909L254.975 215.518L247.796 217.128L246.6 226.787L245.404 217.128L238.225 215.518L245.404 213.909L246.6 204.25Z" fill="#FDC120"/>
<path d="M219.148 115.507L220.477 125.971L228.454 127.715L220.477 129.458L219.148 139.923L217.819 129.458L209.842 127.715L217.819 125.971L219.148 115.507Z" fill="#FDC120"/>
<path d="M294.992 54.4666L296.321 64.9308L304.298 66.6746L296.321 68.4183L294.992 78.8826L293.662 68.4183L285.686 66.6746L293.662 64.9308L294.992 54.4666Z" fill="#FDC120"/>
<path d="M273.122 23.4771L274.452 33.9413L282.428 35.6851L274.452 37.4288L273.122 47.8931L271.793 37.4288L263.816 35.6851L271.793 33.9413L273.122 23.4771Z" fill="#FDC120"/>
</g>
<defs>
<filter id="filter0_f_338_1713" x="-6.07351" y="121.174" width="124.268" height="138.448" filterUnits="userSpaceOnUse" color-interpolation-filters="sRGB">
<feFlood flood-opacity="0" result="BackgroundImageFix"/>
<feBlend mode="normal" in="SourceGraphic" in2="BackgroundImageFix" result="shape"/>
<feGaussianBlur stdDeviation="9.60902" result="effect1_foregroundBlur_338_1713"/>
</filter>
<filter id="filter1_f_338_1713" x="135.629" y="271.132" width="55.834" height="61.0935" filterUnits="userSpaceOnUse" color-interpolation-filters="sRGB">
<feFlood flood-opacity="0" result="BackgroundImageFix"/>
<feBlend mode="normal" in="SourceGraphic" in2="BackgroundImageFix" result="shape"/>
<feGaussianBlur stdDeviation="6" result="effect1_foregroundBlur_338_1713"/>
</filter>
<filter id="filter2_f_338_1713" x="97.0078" y="5.37305" width="55.834" height="61.0935" filterUnits="userSpaceOnUse" color-interpolation-filters="sRGB">
<feFlood flood-opacity="0" result="BackgroundImageFix"/>
<feBlend mode="normal" in="SourceGraphic" in2="BackgroundImageFix" result="shape"/>
<feGaussianBlur stdDeviation="6" result="effect1_foregroundBlur_338_1713"/>
</filter>
<linearGradient id="paint0_linear_338_1713" x1="95.8562" y1="-11.1998" x2="62.5111" y2="30.1383" gradientUnits="userSpaceOnUse">
<stop stop-color="#613D3A"/>
<stop offset="1" stop-color="#351942"/>
</linearGradient>
<linearGradient id="paint1_linear_338_1713" x1="76.9925" y1="5.64774" x2="89.1197" y2="5.64774" gradientUnits="userSpaceOnUse">
<stop stop-color="#BF9A73"/>
<stop offset="1"/>
</linearGradient>
<linearGradient id="paint2_linear_338_1713" x1="97.3644" y1="-1.66226" x2="83.4388" y2="19.933" gradientUnits="userSpaceOnUse">
<stop stop-color="#FFD75E"/>
<stop offset="0.1196" stop-color="#F7C656"/>
<stop offset="0.356" stop-color="#E19941"/>
<stop offset="0.5554" stop-color="#CC6F2D"/>
<stop offset="0.6271" stop-color="#D07731"/>
<stop offset="0.7369" stop-color="#DA8C3B"/>
<stop offset="0.8702" stop-color="#EBAF4B"/>
<stop offset="1" stop-color="#FFD75E"/>
</linearGradient>
<linearGradient id="paint3_linear_338_1713" x1="87.5502" y1="27.3318" x2="98.2048" y2="3.65096" gradientUnits="userSpaceOnUse">
<stop stop-color="#FFD75E"/>
<stop offset="1" stop-color="#CC6F2D"/>
</linearGradient>
<linearGradient id="paint4_linear_338_1713" x1="110.86" y1="0.885089" x2="77.4992" y2="42.2432" gradientUnits="userSpaceOnUse">
<stop stop-color="#613D3A"/>
<stop offset="1" stop-color="#351942"/>
</linearGradient>
<linearGradient id="paint5_linear_338_1713" x1="96.5897" y1="32.8468" x2="103.711" y2="21.452" gradientUnits="userSpaceOnUse">
<stop stop-color="#613D3A"/>
<stop offset="1" stop-color="#351942"/>
</linearGradient>
<linearGradient id="paint6_linear_338_1713" x1="124.766" y1="40.8009" x2="155.9" y2="18.9061" gradientUnits="userSpaceOnUse">
<stop stop-color="#FFD75E"/>
<stop offset="1" stop-color="#CC6F2D"/>
</linearGradient>
<linearGradient id="paint7_linear_338_1713" x1="135.987" y1="56.7542" x2="167.121" y2="34.8593" gradientUnits="userSpaceOnUse">
<stop stop-color="#FFD75E"/>
<stop offset="1" stop-color="#CC6F2D"/>
</linearGradient>
<linearGradient id="paint8_linear_338_1713" x1="152.101" y1="79.6704" x2="183.235" y2="57.7754" gradientUnits="userSpaceOnUse">
<stop stop-color="#FFD75E"/>
<stop offset="1" stop-color="#CC6F2D"/>
</linearGradient>
<linearGradient id="paint9_linear_338_1713" x1="164.133" y1="96.7782" x2="195.267" y2="74.8833" gradientUnits="userSpaceOnUse">
<stop stop-color="#FFD75E"/>
<stop offset="1" stop-color="#CC6F2D"/>
</linearGradient>
<linearGradient id="paint10_linear_338_1713" x1="200.848" y1="152.192" x2="-10.136" y2="196.196" gradientUnits="userSpaceOnUse">
<stop stop-color="#FFD75E"/>
<stop offset="0.1196" stop-color="#F7C656"/>
<stop offset="0.356" stop-color="#E19941"/>
<stop offset="0.5554" stop-color="#CC6F2D"/>
<stop offset="0.6271" stop-color="#D07731"/>
<stop offset="0.7369" stop-color="#DA8C3B"/>
<stop offset="0.8702" stop-color="#EBAF4B"/>
<stop offset="1" stop-color="#FFD75E"/>
</linearGradient>
<linearGradient id="paint11_linear_338_1713" x1="59.8083" y1="174.705" x2="159.711" y2="174.705" gradientUnits="userSpaceOnUse">
<stop stop-color="#F0BF3F"/>
<stop offset="1" stop-color="white" stop-opacity="0"/>
</linearGradient>
<linearGradient id="paint12_linear_338_1713" x1="191.886" y1="-1.22657" x2="49.4816" y2="172.974" gradientUnits="userSpaceOnUse">
<stop stop-color="#FFD75E"/>
<stop offset="0.1771" stop-color="#F0B850"/>
<stop offset="0.4011" stop-color="#E09941"/>
<stop offset="0.6178" stop-color="#D58236"/>
<stop offset="0.8218" stop-color="#CE742F"/>
<stop offset="1" stop-color="#CC6F2D"/>
</linearGradient>
<linearGradient id="paint13_linear_338_1713" x1="100.939" y1="358.625" x2="97.3146" y2="318.139" gradientUnits="userSpaceOnUse">
<stop stop-color="#FFD75E"/>
<stop offset="1" stop-color="#CC6F2D"/>
</linearGradient>
<linearGradient id="paint14_linear_338_1713" x1="150.91" y1="237.277" x2="81.5196" y2="325.651" gradientUnits="userSpaceOnUse">
<stop stop-color="#FFD75E"/>
<stop offset="1" stop-color="#CC6F2D"/>
</linearGradient>
<linearGradient id="paint15_linear_338_1713" x1="173.433" y1="206.379" x2="127.923" y2="265.054" gradientUnits="userSpaceOnUse">
<stop stop-color="#FFD75E"/>
<stop offset="1" stop-color="#CC6F2D"/>
</linearGradient>
<linearGradient id="paint16_linear_338_1713" x1="134.292" y1="299.686" x2="162.399" y2="299.686" gradientUnits="userSpaceOnUse">
<stop stop-color="#FFD646"/>
<stop offset="1" stop-color="white" stop-opacity="0"/>
</linearGradient>
<linearGradient id="paint17_linear_338_1713" x1="147.13" y1="226.819" x2="123.095" y2="260.943" gradientUnits="userSpaceOnUse">
<stop stop-color="#FFD646"/>
<stop offset="1" stop-color="white" stop-opacity="0"/>
</linearGradient>
<linearGradient id="paint18_linear_338_1713" x1="206.454" y1="-4.6987" x2="141.196" y2="85.1073" gradientUnits="userSpaceOnUse">
<stop stop-color="#FFD75E"/>
<stop offset="1" stop-color="#CC6F2D"/>
</linearGradient>
<linearGradient id="paint19_linear_338_1713" x1="103.914" y1="96.1088" x2="123.625" y2="120.169" gradientUnits="userSpaceOnUse">
<stop stop-color="#FFD75E"/>
<stop offset="1" stop-color="#CC6F2D"/>
</linearGradient>
<linearGradient id="paint20_linear_338_1713" x1="149.171" y1="151.043" x2="123.029" y2="120.983" gradientUnits="userSpaceOnUse">
<stop stop-color="#FFD75E"/>
<stop offset="1" stop-color="#CC6F2D"/>
</linearGradient>
<linearGradient id="paint21_linear_338_1713" x1="129.24" y1="136.737" x2="136.587" y2="137.426" gradientUnits="userSpaceOnUse">
<stop stop-color="#FFD646"/>
<stop offset="1" stop-color="white" stop-opacity="0"/>
</linearGradient>
<linearGradient id="paint22_linear_338_1713" x1="140.561" y1="143.087" x2="111.934" y2="106.798" gradientUnits="userSpaceOnUse">
<stop stop-color="#FFD75E"/>
<stop offset="1" stop-color="#CC6F2D"/>
</linearGradient>
<linearGradient id="paint23_linear_338_1713" x1="86.7762" y1="115.535" x2="106.487" y2="139.595" gradientUnits="userSpaceOnUse">
<stop stop-color="#FFD75E"/>
<stop offset="1" stop-color="#CC6F2D"/>
</linearGradient>
<linearGradient id="paint24_linear_338_1713" x1="132.033" y1="170.47" x2="105.891" y2="140.409" gradientUnits="userSpaceOnUse">
<stop stop-color="#FFD75E"/>
<stop offset="1" stop-color="#CC6F2D"/>
</linearGradient>
<linearGradient id="paint25_linear_338_1713" x1="112.1" y1="156.163" x2="119.447" y2="156.852" gradientUnits="userSpaceOnUse">
<stop stop-color="#FFD646"/>
<stop offset="1" stop-color="white" stop-opacity="0"/>
</linearGradient>
<linearGradient id="paint26_linear_338_1713" x1="123.424" y1="162.513" x2="94.7962" y2="126.224" gradientUnits="userSpaceOnUse">
<stop stop-color="#FFD75E"/>
<stop offset="1" stop-color="#CC6F2D"/>
</linearGradient>
<linearGradient id="paint27_linear_338_1713" x1="68.2608" y1="134.961" x2="87.9718" y2="159.021" gradientUnits="userSpaceOnUse">
<stop stop-color="#FFD75E"/>
<stop offset="1" stop-color="#CC6F2D"/>
</linearGradient>
<linearGradient id="paint28_linear_338_1713" x1="113.518" y1="189.896" x2="87.3753" y2="159.835" gradientUnits="userSpaceOnUse">
<stop stop-color="#FFD75E"/>
<stop offset="1" stop-color="#CC6F2D"/>
</linearGradient>
<linearGradient id="paint29_linear_338_1713" x1="93.5849" y1="175.589" x2="100.932" y2="176.278" gradientUnits="userSpaceOnUse">
<stop stop-color="#FFD646"/>
<stop offset="1" stop-color="white" stop-opacity="0"/>
</linearGradient>
<linearGradient id="paint30_linear_338_1713" x1="104.908" y1="181.939" x2="76.2809" y2="145.65" gradientUnits="userSpaceOnUse">
<stop stop-color="#FFD75E"/>
<stop offset="1" stop-color="#CC6F2D"/>
</linearGradient>
<linearGradient id="paint31_linear_338_1713" x1="109.51" y1="248.634" x2="66.2025" y2="233.908" gradientUnits="userSpaceOnUse">
<stop stop-color="#FFD75E"/>
<stop offset="1" stop-color="#CC6F2D"/>
</linearGradient>
<linearGradient id="paint32_linear_338_1713" x1="10.9438" y1="213.347" x2="65.8607" y2="233.828" gradientUnits="userSpaceOnUse">
<stop stop-color="#FFD75E"/>
<stop offset="1" stop-color="#CC6F2D"/>
</linearGradient>
<linearGradient id="paint33_linear_338_1713" x1="40.762" y1="233.924" x2="35.9962" y2="224.042" gradientUnits="userSpaceOnUse">
<stop stop-color="#FFD646"/>
<stop offset="1" stop-color="white" stop-opacity="0"/>
</linearGradient>
<linearGradient id="paint34_linear_338_1713" x1="24.1513" y1="228.564" x2="147.779" y2="104.453" gradientUnits="userSpaceOnUse">
<stop stop-color="#FFD75E"/>
<stop offset="1" stop-color="#CC6F2D"/>
</linearGradient>
<linearGradient id="paint35_linear_338_1713" x1="122.611" y1="235.603" x2="84.0362" y2="210.886" gradientUnits="userSpaceOnUse">
<stop stop-color="#FFD75E"/>
<stop offset="1" stop-color="#CC6F2D"/>
</linearGradient>
<linearGradient id="paint36_linear_338_1713" x1="35.3779" y1="177.412" x2="83.8601" y2="210.519" gradientUnits="userSpaceOnUse">
<stop stop-color="#FFD75E"/>
<stop offset="1" stop-color="#CC6F2D"/>
</linearGradient>
<linearGradient id="paint37_linear_338_1713" x1="59.4012" y1="204.625" x2="57.1704" y2="193.87" gradientUnits="userSpaceOnUse">
<stop stop-color="#FFD646"/>
<stop offset="1" stop-color="white" stop-opacity="0"/>
</linearGradient>
<linearGradient id="paint38_linear_338_1713" x1="111.86" y1="302.801" x2="95.9646" y2="279.835" gradientUnits="userSpaceOnUse">
<stop stop-color="#FFD75E"/>
<stop offset="1" stop-color="#CC6F2D"/>
</linearGradient>
<linearGradient id="paint39_linear_338_1713" x1="79.4261" y1="291.209" x2="99.4083" y2="246.363" gradientUnits="userSpaceOnUse">
<stop stop-color="#FFD75E"/>
<stop offset="1" stop-color="#CC6F2D"/>
</linearGradient>
<linearGradient id="paint40_linear_338_1713" x1="86.6134" y1="289.348" x2="86.4535" y2="254.768" gradientUnits="userSpaceOnUse">
<stop stop-color="#FFD646"/>
<stop offset="1" stop-color="white" stop-opacity="0"/>
</linearGradient>
<linearGradient id="paint41_linear_338_1713" x1="87.2185" y1="266.716" x2="80.6935" y2="239.893" gradientUnits="userSpaceOnUse">
<stop stop-color="#FFD75E"/>
<stop offset="1" stop-color="#CC6F2D"/>
</linearGradient>
<linearGradient id="paint42_linear_338_1713" x1="59.297" y1="311.576" x2="59.4877" y2="283.573" gradientUnits="userSpaceOnUse">
<stop stop-color="#FFD75E"/>
<stop offset="1" stop-color="#CC6F2D"/>
</linearGradient>
<linearGradient id="paint43_linear_338_1713" x1="39.2505" y1="283.374" x2="81.0955" y2="258.137" gradientUnits="userSpaceOnUse">
<stop stop-color="#FFD75E"/>
<stop offset="1" stop-color="#CC6F2D"/>
</linearGradient>
<linearGradient id="paint44_linear_338_1713" x1="46.2025" y1="285.988" x2="65.8924" y2="257.673" gradientUnits="userSpaceOnUse">
<stop stop-color="#FFD646"/>
<stop offset="1" stop-color="white" stop-opacity="0"/>
</linearGradient>
<linearGradient id="paint45_linear_338_1713" x1="59.5298" y1="267.766" x2="69.6192" y2="242.089" gradientUnits="userSpaceOnUse">
<stop stop-color="#FFD75E"/>
<stop offset="1" stop-color="#CC6F2D"/>
</linearGradient>
<linearGradient id="paint46_linear_338_1713" x1="59.3882" y1="194.751" x2="49.104" y2="165.16" gradientUnits="userSpaceOnUse">
<stop stop-color="#FFD75E"/>
<stop offset="1" stop-color="#CC6F2D"/>
</linearGradient>
<linearGradient id="paint47_linear_338_1713" x1="13.8741" y1="315.726" x2="56.1127" y2="262.249" gradientUnits="userSpaceOnUse">
<stop stop-color="#FFD646"/>
<stop offset="1" stop-color="white" stop-opacity="0"/>
</linearGradient>
<linearGradient id="paint48_linear_338_1713" x1="179.365" y1="37.4464" x2="160.496" y2="110.976" gradientUnits="userSpaceOnUse">
<stop stop-color="#FFD646"/>
<stop offset="1" stop-color="white" stop-opacity="0"/>
</linearGradient>
<linearGradient id="paint49_linear_338_1713" x1="93.3352" y1="13.1914" x2="105.439" y2="13.1914" gradientUnits="userSpaceOnUse">
<stop stop-color="#BF9A73"/>
<stop offset="1"/>
</linearGradient>
<linearGradient id="paint50_linear_338_1713" x1="113.586" y1="11.6522" x2="103.438" y2="25.3847" gradientUnits="userSpaceOnUse">
<stop stop-color="#FFD75E"/>
<stop offset="1" stop-color="#CC6F2D"/>
</linearGradient>
<linearGradient id="paint51_linear_338_1713" x1="96.957" y1="45.8567" x2="192.211" y2="45.8567" gradientUnits="userSpaceOnUse">
<stop stop-color="#342044"/>
<stop offset="0.1891" stop-color="#292248"/>
<stop offset="0.3936" stop-color="#312153"/>
<stop offset="0.6054" stop-color="#261A48"/>
<stop offset="0.8208" stop-color="#251842"/>
<stop offset="1" stop-color="#28174D"/>
</linearGradient>
<linearGradient id="paint52_linear_338_1713" x1="184.573" y1="25.3629" x2="238.035" y2="56.6606" gradientUnits="userSpaceOnUse">
<stop stop-color="#6B6901"/>
<stop offset="1" stop-color="#272C00"/>
</linearGradient>
<linearGradient id="paint53_linear_338_1713" x1="163.536" y1="20.5591" x2="188.533" y2="-1.95305" gradientUnits="userSpaceOnUse">
<stop/>
<stop offset="1" stop-color="#FDAC06"/>
</linearGradient>
<linearGradient id="paint54_linear_338_1713" x1="171.006" y1="29.6121" x2="197.915" y2="5.37841" gradientUnits="userSpaceOnUse">
<stop/>
<stop offset="1" stop-color="#FDAC06"/>
</linearGradient>
<linearGradient id="paint55_linear_338_1713" x1="183.396" y1="43.2862" x2="210.266" y2="19.088" gradientUnits="userSpaceOnUse">
<stop/>
<stop offset="1" stop-color="#FDAC06"/>
</linearGradient>
<linearGradient id="paint56_linear_338_1713" x1="155.231" y1="3.61912" x2="120.114" y2="86.2526" gradientUnits="userSpaceOnUse">
<stop stop-color="#6B6901"/>
<stop offset="1" stop-color="#272C00"/>
</linearGradient>
<linearGradient id="paint57_linear_338_1713" x1="148.682" y1="20.8637" x2="146.154" y2="55.7798" gradientUnits="userSpaceOnUse">
<stop/>
<stop offset="1" stop-color="#FDAC06"/>
</linearGradient>
<linearGradient id="paint58_linear_338_1713" x1="158.74" y1="35.8253" x2="115.441" y2="31.3689" gradientUnits="userSpaceOnUse">
<stop/>
<stop offset="1" stop-color="#FDAC06"/>
</linearGradient>
<linearGradient id="paint59_linear_338_1713" x1="168.808" y1="68.8498" x2="158.617" y2="13.3599" gradientUnits="userSpaceOnUse">
<stop/>
<stop offset="1" stop-color="#FDAC06"/>
</linearGradient>
<linearGradient id="paint60_linear_338_1713" x1="164.224" y1="20.9739" x2="158.327" y2="27.0068" gradientUnits="userSpaceOnUse">
<stop stop-color="#9F4057"/>
<stop offset="0.1891" stop-color="#A1445B"/>
<stop offset="0.3936" stop-color="#A85167"/>
<stop offset="0.6054" stop-color="#B3677B"/>
<stop offset="0.8208" stop-color="#C28596"/>
<stop offset="1" stop-color="#D1A4B2"/>
</linearGradient>
<linearGradient id="paint61_linear_338_1713" x1="179.296" y1="14.3902" x2="169.836" y2="24.0685" gradientUnits="userSpaceOnUse">
<stop stop-color="#9F4057"/>
<stop offset="0.1891" stop-color="#A1445B"/>
<stop offset="0.3936" stop-color="#A85167"/>
<stop offset="0.6054" stop-color="#B3677B"/>
<stop offset="0.8208" stop-color="#C28596"/>
<stop offset="1" stop-color="#D1A4B2"/>
</linearGradient>
<linearGradient id="paint62_linear_338_1713" x1="167.419" y1="22.0479" x2="161.522" y2="28.0808" gradientUnits="userSpaceOnUse">
<stop offset="0.3755" stop-color="#FD432C"/>
<stop offset="0.5192" stop-color="#FA3E2D"/>
<stop offset="0.6863" stop-color="#F13031"/>
<stop offset="0.8643" stop-color="#E21938"/>
<stop offset="1" stop-color="#D4023E"/>
</linearGradient>
<linearGradient id="paint63_linear_338_1713" x1="162.578" y1="12.9064" x2="157.725" y2="17.871" gradientUnits="userSpaceOnUse">
<stop offset="0.3755" stop-color="#FD432C"/>
<stop offset="0.5192" stop-color="#FA3E2D"/>
<stop offset="0.6863" stop-color="#F13031"/>
<stop offset="0.8643" stop-color="#E21938"/>
<stop offset="1" stop-color="#D4023E"/>
</linearGradient>
<linearGradient id="paint64_linear_338_1713" x1="185.068" y1="13.8243" x2="175.178" y2="23.9421" gradientUnits="userSpaceOnUse">
<stop offset="0.3755" stop-color="#FD432C"/>
<stop offset="0.5192" stop-color="#FA3E2D"/>
<stop offset="0.6863" stop-color="#F13031"/>
<stop offset="0.8643" stop-color="#E21938"/>
<stop offset="1" stop-color="#D4023E"/>
</linearGradient>
<clipPath id="clip0_338_1713">
<rect width="315" height="316" fill="white"/>
</clipPath>
</defs>
</svg>
