<svg width="24" height="24" viewBox="0 0 24 24" fill="none" xmlns="http://www.w3.org/2000/svg">
<path d="M4.82274 20C4.61198 20 4.40123 19.9198 4.2411 19.7585C3.91963 19.437 3.91963 18.9159 4.2411 18.5944L18.5944 4.2411C18.9159 3.91963 19.437 3.91963 19.7585 4.2411C20.08 4.56256 20.08 5.08373 19.7585 5.40539L5.40539 19.7585C5.24406 19.9188 5.0333 20 4.82274 20V20Z" fill="#B4B4B4"/>
<path d="M19.1771 20C18.9663 20 18.7557 19.9198 18.5954 19.7585L4.2411 5.40539C3.91963 5.08373 3.91963 4.56256 4.2411 4.2411C4.56256 3.91963 5.08373 3.91963 5.40539 4.2411L19.7585 18.5944C20.08 18.9159 20.08 19.437 19.7585 19.7585C19.5972 19.9188 19.3866 20 19.1771 20Z" fill="#B4B4B4"/>
</svg>
