<svg width="20" height="23" viewBox="0 0 20 23" fill="none" xmlns="http://www.w3.org/2000/svg">
<path d="M9.93846 2.8855V0.17684C9.93846 0.0263586 10.1266 -0.0535845 10.2535 0.0404662L15.8213 4.13167C15.9154 4.20221 15.9154 4.33858 15.8213 4.40912L10.2535 8.50033C10.1266 8.59438 9.93846 8.50973 9.93846 8.36395V5.66C5.80963 5.72583 2.50375 9.23392 2.7859 13.438C3.02573 17.0495 5.96952 19.9792 9.58106 20.2096C13.4089 20.4542 16.6631 17.7173 17.2462 14.101C17.3544 13.4286 17.9375 12.9395 18.6193 12.9395C19.4611 12.9395 20.1147 13.6872 19.9831 14.5149C19.1648 19.6736 14.4106 23.5437 8.8992 22.9277C4.29071 22.4104 0.589815 18.7236 0.0678334 14.1152C-0.623439 8.08651 4.06029 2.95134 9.93846 2.8855Z" fill="#E36A44"/>
</svg>
