<svg width="375" height="51" viewBox="0 0 375 51" fill="none" xmlns="http://www.w3.org/2000/svg">
<path d="M251.001 -32.5518C251.001 -5.71489 279.874 16.0414 315.483 16.0414C351.093 16.0414 379.953 -5.72645 379.953 -32.5518" stroke="#D9C5B8" stroke-width="0.314356" stroke-miterlimit="10"/>
<path d="M365.89 9.09373C365.069 9.37359 364.168 9.3743 363.346 9.09573C362.525 8.81717 361.834 8.27715 361.397 7.57062C360.959 6.86409 360.803 6.03625 360.954 5.23263C361.106 4.429 361.557 3.70103 362.227 3.17667L362.07 2.79119L361.553 1.44588C361.535 1.39472 361.538 1.33876 361.563 1.28984C361.587 1.24091 361.631 1.20286 361.686 1.18375L361.892 1.11822L361.743 0.732742C361.725 0.681586 361.728 0.625624 361.753 0.576701C361.777 0.527778 361.821 0.489736 361.876 0.470621L363.115 0.0581585C363.142 0.0489722 363.171 0.0448796 363.199 0.0461124C363.228 0.0473452 363.256 0.0538833 363.283 0.0653462C363.309 0.0768092 363.332 0.092971 363.352 0.112907C363.371 0.132844 363.386 0.15616 363.396 0.181514L363.54 0.56699L363.747 0.497602C363.774 0.488415 363.803 0.484323 363.831 0.485555C363.86 0.486788 363.888 0.493326 363.915 0.504789C363.941 0.516252 363.964 0.532414 363.983 0.55235C364.003 0.572287 364.018 0.595603 364.028 0.620957L364.544 1.96627L364.701 2.37102C365.575 2.38052 366.417 2.67694 367.08 3.20825C367.742 3.73955 368.184 4.47178 368.326 5.27639C368.468 6.081 368.301 6.90657 367.856 7.60817C367.411 8.30977 366.715 8.84256 365.89 9.113L365.89 9.09373Z" fill="url(#paint0_linear_252_2201)"/>
<path style="mix-blend-mode:screen" opacity="0.9" d="M392.417 -9.31427C389.147 -14.4747 384.311 -18.6149 378.521 -21.2117C372.731 -23.8085 366.246 -24.7454 359.885 -23.9039C353.525 -23.0624 347.574 -20.4804 342.786 -16.4841C337.997 -12.4878 334.585 -7.25656 332.981 -1.45128C331.376 4.35399 331.652 10.4728 333.773 16.1319C335.893 21.791 339.764 26.7366 344.895 30.3437C350.026 33.9508 356.188 36.0576 362.602 36.3979C369.016 36.7382 375.394 35.2967 380.93 32.2555C384.628 30.2468 387.862 27.5732 390.444 24.3896C393.027 21.2061 394.907 17.5759 395.976 13.7093C397.044 9.84279 397.28 5.81682 396.669 1.86469C396.058 -2.08744 394.613 -5.88715 392.417 -9.31427V-9.31427Z" fill="url(#paint1_radial_252_2201)"/>
<path d="M344.717 20.5635C343.867 20.742 342.976 20.636 342.201 20.2639C341.426 19.8919 340.816 19.2775 340.476 18.5281C340.137 17.7787 340.091 16.942 340.346 16.1641C340.601 15.3863 341.141 14.7168 341.871 14.2725L341.768 13.8523L341.433 12.4569C341.427 12.4306 341.427 12.4034 341.432 12.3769C341.437 12.3505 341.448 12.3252 341.464 12.3026C341.48 12.2801 341.5 12.2606 341.524 12.2454C341.548 12.2302 341.574 12.2196 341.603 12.2141L341.813 12.1678L341.718 11.7823C341.706 11.7297 341.716 11.6747 341.747 11.6292C341.778 11.5837 341.827 11.5515 341.883 11.5395L343.168 11.2697C343.224 11.2592 343.283 11.2693 343.331 11.2981C343.38 11.3268 343.415 11.3718 343.428 11.4239L343.523 11.8093L343.738 11.7631C343.794 11.7516 343.853 11.7613 343.902 11.7902C343.951 11.8191 343.985 11.8647 343.998 11.9173L344.333 13.3127L344.432 13.7329C345.298 13.8427 346.094 14.2336 346.682 14.8367C347.269 15.4399 347.61 16.217 347.645 17.0315C347.68 17.8461 347.407 18.6461 346.873 19.2912C346.339 19.9364 345.579 20.3855 344.725 20.5596L344.717 20.5635Z" fill="url(#paint2_linear_252_2201)"/>
<path style="mix-blend-mode:screen" opacity="0.9" d="M373.056 7.65347C370.491 2.15683 366.238 -2.50697 360.834 -5.74864C355.429 -8.9903 349.117 -10.6644 342.694 -10.5593C336.271 -10.4543 330.025 -8.57479 324.746 -5.15839C319.467 -1.74199 315.391 3.05803 313.034 8.63517C310.677 14.2123 310.145 20.3163 311.504 26.1759C312.862 32.0355 316.052 37.3877 320.669 41.5564C325.286 45.725 331.123 48.5229 337.444 49.5966C343.764 50.6703 350.283 49.9716 356.178 47.5888C360.113 46.0197 363.674 43.7376 366.657 40.8746C369.64 38.0116 371.984 34.6248 373.553 30.9103C375.123 27.1958 375.888 23.2275 375.802 19.2354C375.717 15.2432 374.783 11.3065 373.056 7.65347V7.65347Z" fill="url(#paint3_radial_252_2201)"/>
<path d="M317.04 24.8738C316.167 24.8315 315.339 24.5039 314.699 23.9484C314.06 23.3929 313.651 22.6449 313.543 21.8359C313.436 21.0268 313.637 20.2083 314.112 19.5239C314.586 18.8395 315.304 18.333 316.139 18.0933L316.168 17.6654L316.259 16.2468C316.261 16.22 316.268 16.1937 316.28 16.1695C316.293 16.1452 316.31 16.1236 316.332 16.1057C316.353 16.0877 316.378 16.074 316.406 16.0651C316.433 16.0563 316.462 16.0525 316.49 16.0541L316.709 16.0541L316.734 15.6455C316.735 15.6185 316.742 15.5919 316.754 15.5675C316.766 15.543 316.784 15.5211 316.806 15.5031C316.827 15.4851 316.852 15.4713 316.88 15.4627C316.907 15.454 316.936 15.4507 316.965 15.4528L318.275 15.5221C318.303 15.5236 318.332 15.5304 318.358 15.542C318.384 15.5537 318.407 15.57 318.426 15.5901C318.445 15.6101 318.46 15.6335 318.469 15.6589C318.479 15.6843 318.483 15.7112 318.481 15.738L318.456 16.1466L318.675 16.1466C318.733 16.1496 318.786 16.1735 318.825 16.2132C318.864 16.2528 318.884 16.3051 318.882 16.3586L318.795 17.7887L318.766 18.2166C319.567 18.5431 320.22 19.1226 320.608 19.8533C320.997 20.584 321.097 21.4192 320.892 22.2121C320.686 23.005 320.188 23.7049 319.484 24.1889C318.78 24.6729 317.916 24.9099 317.044 24.8584L317.04 24.8738Z" fill="url(#paint4_linear_252_2201)"/>
<path style="mix-blend-mode:screen" opacity="0.9" d="M353.297 13.7202C352.442 7.77837 349.719 2.20628 345.472 -2.29199C341.226 -6.79026 335.645 -10.0129 329.437 -11.5526C323.228 -13.0923 316.67 -12.8802 310.59 -10.9428C304.511 -9.00549 299.183 -5.42996 295.28 -0.668006C291.377 4.09395 289.075 9.82865 288.663 15.8115C288.251 21.7944 289.749 27.7569 292.966 32.9457C296.184 38.1346 300.978 42.3169 306.742 44.9643C312.506 47.6116 318.981 48.6052 325.35 47.8195C329.594 47.315 333.689 46.0296 337.397 44.0377C341.105 42.0458 344.353 39.3871 346.953 36.2155C349.552 33.044 351.451 29.4226 352.54 25.5612C353.629 21.6998 353.887 17.6751 353.297 13.7202V13.7202Z" fill="url(#paint5_radial_252_2201)"/>
<path style="mix-blend-mode:screen" opacity="0.9" d="M287.279 3.9764C288.996 -1.80053 288.839 -7.92266 286.829 -13.6165C284.819 -19.3104 281.046 -24.3205 275.986 -28.0139C270.926 -31.7073 264.806 -33.9182 258.4 -34.3674C251.995 -34.8165 245.59 -33.4838 239.995 -30.5374C234.401 -27.5911 229.868 -23.1634 226.969 -17.8138C224.069 -12.4641 222.934 -6.43255 223.707 -0.481106C224.479 5.47034 227.124 11.0746 231.308 15.6237C235.492 20.1728 241.027 23.4626 247.213 25.0774C251.328 26.1718 255.636 26.4931 259.885 26.0227C264.135 25.5522 268.242 24.2993 271.969 22.3365C275.695 20.3738 278.968 17.7403 281.596 14.5887C284.224 11.437 286.156 7.82991 287.279 3.9764V3.9764Z" fill="url(#paint6_radial_252_2201)"/>
<path d="M272.763 10.6991C271.905 10.8564 271.015 10.7265 270.25 10.3323C269.484 9.93806 268.892 9.30468 268.578 8.54346C268.263 7.78224 268.246 6.9419 268.529 6.17008C268.813 5.39827 269.379 4.74438 270.127 4.32332L270.041 3.90315L269.756 2.49616C269.746 2.44257 269.759 2.38757 269.792 2.34291C269.826 2.29825 269.876 2.26748 269.933 2.25717L270.148 2.22247L270.065 1.81773C270.06 1.79136 270.059 1.76414 270.065 1.7377C270.07 1.71125 270.082 1.68613 270.098 1.66382C270.114 1.64151 270.135 1.62247 270.159 1.60786C270.183 1.59324 270.211 1.58333 270.239 1.57873L271.528 1.3513C271.585 1.34113 271.644 1.35246 271.692 1.38281C271.74 1.41317 271.773 1.46006 271.784 1.5132L271.866 1.89867L272.081 1.86398C272.109 1.85841 272.139 1.8582 272.167 1.86338C272.195 1.86856 272.222 1.87902 272.246 1.89413C272.27 1.90925 272.29 1.9287 272.306 1.95134C272.322 1.97398 272.332 1.99933 272.337 2.02588L272.622 3.42902L272.709 3.84918C273.572 3.98403 274.356 4.39852 274.924 5.01971C275.491 5.64091 275.806 6.42901 275.812 7.24539C275.819 8.06176 275.517 8.85408 274.959 9.48298C274.401 10.1119 273.623 10.537 272.763 10.6837L272.763 10.6991Z" fill="url(#paint7_linear_252_2201)"/>
<path style="mix-blend-mode:screen" opacity="0.9" d="M302.034 -3.63706C299.663 -9.20899 295.576 -14.0002 290.289 -17.4052C285.002 -20.8103 278.752 -22.6765 272.328 -22.768C265.905 -22.8594 259.597 -21.1721 254.201 -17.9192C248.805 -14.6663 244.563 -9.9938 242.011 -4.49198C239.459 1.00984 238.712 7.09406 239.864 12.992C241.016 18.8899 244.015 24.3368 248.483 28.6446C252.951 32.9523 258.687 35.9276 264.965 37.1945C271.244 38.4614 277.785 37.9631 283.76 35.7625C287.748 34.3148 291.389 32.1429 294.471 29.3727C297.552 26.6025 300.015 23.289 301.714 19.6243C303.414 15.9596 304.317 12.0165 304.372 8.02351C304.427 4.03055 303.632 0.0671364 302.034 -3.63706V-3.63706Z" fill="url(#paint8_radial_252_2201)"/>
<path d="M288.586 20.9907C287.895 20.4915 287.414 19.781 287.229 18.9839C287.043 18.1869 287.164 17.3542 287.571 16.6323C287.978 15.9103 288.644 15.3452 289.453 15.0362C290.262 14.7272 291.162 14.694 291.994 14.9426L292.279 14.6072L293.225 13.4816C293.261 13.4394 293.313 13.4121 293.37 13.4056C293.427 13.3991 293.485 13.414 293.531 13.4469L293.704 13.5741L293.973 13.2503C294.008 13.2081 294.061 13.1808 294.118 13.1743C294.175 13.1679 294.233 13.1827 294.278 13.2156L295.315 13.9866C295.361 14.0207 295.39 14.07 295.397 14.1241C295.404 14.1781 295.388 14.2325 295.352 14.2757L295.08 14.5956L295.253 14.7228C295.298 14.7562 295.328 14.8049 295.335 14.8583C295.341 14.9117 295.326 14.9656 295.29 15.0081L294.344 16.1337L294.064 16.4729C294.51 17.1677 294.682 17.9865 294.549 18.7871C294.416 19.5878 293.988 20.3198 293.337 20.8564C292.687 21.3929 291.855 21.7001 290.988 21.7246C290.12 21.7491 289.27 21.4895 288.586 20.9907V20.9907Z" fill="url(#paint9_linear_252_2201)"/>
<path style="mix-blend-mode:screen" opacity="0.9" d="M327.67 33.6587C330.603 28.3249 331.776 22.2996 331.04 16.344C330.305 10.3883 327.695 4.76966 323.54 0.197821C319.384 -4.37401 313.87 -7.69387 307.694 -9.3423C301.518 -10.9907 294.956 -10.8938 288.839 -9.06366C282.722 -7.23356 277.323 -3.75244 273.325 0.939884C269.327 5.63221 266.908 11.3252 266.376 17.2996C265.843 23.2739 267.22 29.2616 270.332 34.5061C273.444 39.7505 278.152 44.0165 283.861 46.7649C287.654 48.6136 291.803 49.7411 296.067 50.0822C300.33 50.4233 304.624 49.9712 308.699 48.7521C312.774 47.533 316.549 45.5711 319.806 42.9802C323.062 40.3893 325.735 37.2209 327.67 33.6587V33.6587Z" fill="url(#paint10_radial_252_2201)"/>
<path d="M121.747 -32.5518C121.747 -5.71489 150.619 16.0414 186.229 16.0414C221.838 16.0414 250.715 -5.72645 250.715 -32.5518" stroke="#D9C5B8" stroke-width="0.314356" stroke-miterlimit="10"/>
<path d="M236.652 9.09373C235.831 9.37359 234.93 9.3743 234.108 9.09573C233.286 8.81717 232.596 8.27715 232.159 7.57062C231.721 6.86409 231.565 6.03625 231.716 5.23263C231.868 4.429 232.319 3.70103 232.989 3.17667L232.832 2.79119L232.315 1.44588C232.297 1.39472 232.3 1.33876 232.324 1.28984C232.349 1.24091 232.393 1.20286 232.447 1.18375L232.654 1.11822L232.509 0.732742C232.5 0.707437 232.495 0.680565 232.497 0.653672C232.498 0.626779 232.505 0.600395 232.517 0.576037C232.529 0.551678 232.547 0.529827 232.568 0.511736C232.589 0.493644 232.614 0.479672 232.642 0.470621L233.881 0.0581585C233.908 0.0489722 233.937 0.0448796 233.965 0.0461124C233.994 0.0473452 234.023 0.0538833 234.049 0.0653462C234.075 0.0768092 234.098 0.092971 234.118 0.112907C234.137 0.132844 234.152 0.15616 234.162 0.181514L234.306 0.56699L234.513 0.497602C234.54 0.488415 234.569 0.484323 234.597 0.485555C234.626 0.486788 234.655 0.493326 234.681 0.504789C234.707 0.516252 234.73 0.532414 234.75 0.55235C234.769 0.572287 234.784 0.595603 234.794 0.620957L235.302 1.947L235.459 2.35175C236.332 2.36125 237.175 2.65767 237.837 3.18897C238.5 3.72028 238.941 4.4525 239.083 5.25712C239.225 6.06173 239.059 6.8873 238.614 7.5889C238.168 8.2905 237.473 8.82328 236.648 9.09373L236.652 9.09373Z" fill="url(#paint11_linear_252_2201)"/>
<path style="mix-blend-mode:screen" opacity="0.9" d="M263.179 -9.31427C259.909 -14.4747 255.073 -18.6149 249.283 -21.2117C243.493 -23.8085 237.008 -24.7454 230.647 -23.9039C224.287 -23.0624 218.336 -20.4804 213.547 -16.4841C208.759 -12.4878 205.347 -7.25656 203.742 -1.45128C202.138 4.35399 202.414 10.4728 204.534 16.1319C206.655 21.791 210.526 26.7366 215.657 30.3437C220.788 33.9508 226.95 36.0576 233.364 36.3979C239.777 36.7382 246.155 35.2967 251.692 32.2555C255.389 30.2468 258.623 27.5732 261.206 24.3896C263.789 21.2061 265.669 17.5759 266.737 13.7093C267.806 9.84279 268.041 5.81682 267.43 1.86469C266.82 -2.08744 265.374 -5.88715 263.179 -9.31427V-9.31427Z" fill="url(#paint12_radial_252_2201)"/>
<path d="M215.478 20.5627C214.626 20.7443 213.734 20.6405 212.956 20.2694C212.179 19.8983 211.566 19.2837 211.226 18.5333C210.885 17.7829 210.839 16.9446 211.094 16.1654C211.35 15.3862 211.891 14.7158 212.623 14.2717L212.52 13.8516L212.186 12.4561C212.18 12.4298 212.179 12.4026 212.184 12.3762C212.19 12.3497 212.2 12.3244 212.216 12.3019C212.232 12.2793 212.252 12.2598 212.276 12.2446C212.3 12.2294 212.327 12.2188 212.355 12.2133L212.566 12.167L212.471 11.7816C212.458 11.7289 212.469 11.6739 212.5 11.6284C212.531 11.5829 212.579 11.5507 212.636 11.5387L213.92 11.2689C213.977 11.2574 214.036 11.2671 214.084 11.296C214.133 11.3249 214.168 11.3705 214.181 11.4231L214.276 11.8085L214.49 11.7623C214.547 11.7508 214.606 11.7605 214.655 11.7894C214.703 11.8183 214.738 11.864 214.751 11.9165L215.085 13.3119L215.188 13.7321C216.054 13.8425 216.85 14.2338 217.437 14.8373C218.024 15.4407 218.365 16.2179 218.399 17.0324C218.434 17.8469 218.16 18.6467 217.626 19.2915C217.091 19.9363 216.331 20.385 215.478 20.5589L215.478 20.5627Z" fill="url(#paint13_linear_252_2201)"/>
<path style="mix-blend-mode:screen" opacity="0.9" d="M244.238 5.34139C241.673 -0.155289 237.42 -4.81924 232.016 -8.06115C226.612 -11.3031 220.3 -12.9775 213.877 -12.8728C207.454 -12.7682 201.208 -10.8891 195.929 -7.47317C190.65 -4.05719 186.574 0.742451 184.216 6.31933C181.859 11.8962 181.326 18.0001 182.684 23.8597C184.042 29.7193 187.231 35.0718 191.847 39.2408C196.464 43.4098 202.301 46.2082 208.621 47.2825C214.941 48.3569 221.461 47.6589 227.356 45.2768C231.29 43.7076 234.852 41.4255 237.835 38.5626C240.817 35.6997 243.162 32.313 244.732 28.5986C246.302 24.8842 247.067 20.916 246.982 16.9238C246.897 12.9316 245.964 8.99477 244.238 5.34139V5.34139Z" fill="url(#paint14_radial_252_2201)"/>
<path d="M187.804 24.8714C186.932 24.8299 186.103 24.5029 185.462 23.9476C184.822 23.3924 184.412 22.6445 184.304 21.8353C184.197 21.026 184.397 20.2071 184.872 19.5224C185.347 18.8377 186.065 18.3308 186.9 18.0909L186.929 17.663L187.015 16.2329C187.02 16.1791 187.046 16.1288 187.089 16.0929C187.132 16.0569 187.189 16.038 187.247 16.0402L187.466 16.0402L187.49 15.6316C187.492 15.6047 187.499 15.5784 187.512 15.5542C187.524 15.53 187.542 15.5083 187.563 15.4904C187.585 15.4725 187.61 15.4587 187.637 15.4499C187.664 15.441 187.693 15.4373 187.722 15.4388L189.031 15.5082C189.06 15.5097 189.088 15.5164 189.114 15.5281C189.14 15.5398 189.163 15.5561 189.182 15.5761C189.202 15.5962 189.216 15.6196 189.226 15.645C189.235 15.6704 189.239 15.6972 189.238 15.7241L189.213 16.1327L189.432 16.1327C189.46 16.1337 189.488 16.14 189.514 16.1512C189.54 16.1624 189.564 16.1784 189.583 16.1982C189.602 16.2179 189.617 16.241 189.626 16.2662C189.636 16.2914 189.64 16.318 189.638 16.3447L189.552 17.7748L189.527 18.2027C190.35 18.5162 191.026 19.0946 191.431 19.8331C191.836 20.5716 191.945 21.4212 191.736 22.2278C191.528 23.0345 191.017 23.7447 190.295 24.2297C189.574 24.7147 188.69 24.9424 187.804 24.8714V24.8714Z" fill="url(#paint15_linear_252_2201)"/>
<path style="mix-blend-mode:screen" opacity="0.9" d="M224.059 14.877C223.204 8.93524 220.481 3.36323 216.235 -1.13505C211.988 -5.63333 206.408 -8.85605 200.2 -10.396C193.991 -11.936 187.433 -11.7241 181.354 -9.78714C175.274 -7.85018 169.947 -4.27506 166.043 0.486528C162.14 5.24811 159.837 10.9825 159.425 16.9652C159.012 22.9479 160.509 28.9104 163.727 34.0994C166.944 39.2884 171.737 43.4711 177.5 46.119C183.264 48.7669 189.739 49.7612 196.107 48.9762C200.352 48.4722 204.447 47.1871 208.156 45.1954C211.865 43.2038 215.113 40.5451 217.713 37.3735C220.313 34.2019 222.212 30.5804 223.302 26.7187C224.391 22.8571 224.648 18.8321 224.059 14.877V14.877Z" fill="url(#paint16_radial_252_2201)"/>
<path style="mix-blend-mode:screen" opacity="0.9" d="M158.061 3.9764C159.777 -1.80053 159.62 -7.92266 157.61 -13.6165C155.6 -19.3104 151.827 -24.3205 146.767 -28.0139C141.707 -31.7073 135.587 -33.9182 129.182 -34.3674C122.776 -34.8165 116.371 -33.4838 110.777 -30.5374C105.182 -27.5911 100.649 -23.1634 97.7498 -17.8138C94.8506 -12.4641 93.7154 -6.43255 94.4878 -0.481106C95.2601 5.47034 97.9053 11.0746 102.089 15.6237C106.273 20.1728 111.808 23.4626 117.994 25.0774C122.11 26.1718 126.417 26.4931 130.666 26.0227C134.916 25.5522 139.023 24.2993 142.75 22.3365C146.477 20.3738 149.749 17.7403 152.377 14.5887C155.005 11.437 156.937 7.82991 158.061 3.9764V3.9764Z" fill="url(#paint17_radial_252_2201)"/>
<path d="M143.524 10.6999C142.667 10.8572 141.777 10.7273 141.011 10.3331C140.246 9.93886 139.654 9.30548 139.339 8.54426C139.025 7.78305 139.008 6.9427 139.291 6.17089C139.574 5.39907 140.14 4.74519 140.889 4.32413L140.807 3.90395L140.517 2.49697C140.508 2.44338 140.521 2.38837 140.554 2.34371C140.587 2.29905 140.638 2.26829 140.695 2.25797L140.91 2.22327L140.827 1.81853C140.816 1.76537 140.828 1.71035 140.861 1.66554C140.894 1.62073 140.944 1.5898 141.001 1.57953L142.294 1.3521C142.35 1.34392 142.408 1.35606 142.456 1.38609C142.503 1.41612 142.537 1.46182 142.55 1.514L142.628 1.89948L142.843 1.86478C142.871 1.85921 142.9 1.859 142.929 1.86418C142.957 1.86937 142.984 1.87982 143.008 1.89494C143.032 1.91005 143.052 1.92951 143.068 1.95214C143.083 1.97478 143.094 2.00013 143.099 2.02668L143.388 3.42982L143.471 3.84999C144.334 3.98484 145.118 4.39932 145.685 5.02052C146.253 5.64171 146.568 6.42982 146.574 7.24619C146.581 8.06256 146.278 8.85489 145.72 9.48378C145.163 10.1127 144.385 10.5378 143.524 10.6845L143.524 10.6999Z" fill="url(#paint18_linear_252_2201)"/>
<path style="mix-blend-mode:screen" opacity="0.9" d="M172.8 -3.63706C170.429 -9.20899 166.342 -14.0002 161.055 -17.4052C155.767 -20.8103 149.517 -22.6765 143.094 -22.768C136.671 -22.8594 130.363 -21.1721 124.966 -17.9192C119.57 -14.6663 115.328 -9.9938 112.777 -4.49198C110.225 1.00984 109.478 7.09406 110.63 12.992C111.782 18.8899 114.781 24.3368 119.249 28.6446C123.717 32.9523 129.452 35.9276 135.731 37.1945C142.01 38.4614 148.55 37.9631 154.526 35.7625C158.514 34.3148 162.154 32.1429 165.236 29.3727C168.318 26.6025 170.78 23.289 172.48 19.6243C174.18 15.9596 175.083 12.0165 175.138 8.02351C175.193 4.03055 174.398 0.0671364 172.8 -3.63706V-3.63706Z" fill="url(#paint19_radial_252_2201)"/>
<path d="M159.336 20.991C158.645 20.4918 158.164 19.7813 157.979 18.9843C157.793 18.1872 157.914 17.3546 158.321 16.6326C158.728 15.9106 159.394 15.3455 160.203 15.0365C161.012 14.7275 161.912 14.6943 162.744 14.9429L163.029 14.6075L163.975 13.4819C164.011 13.4398 164.063 13.4125 164.12 13.406C164.177 13.3995 164.235 13.4143 164.281 13.4472L164.454 13.5744L164.723 13.2506C164.759 13.2082 164.812 13.1808 164.87 13.1743C164.928 13.1679 164.986 13.1828 165.032 13.2159L166.065 13.9869C166.111 14.021 166.14 14.0703 166.147 14.1244C166.154 14.1784 166.138 14.2329 166.102 14.276L165.834 14.596L166.003 14.7232C166.048 14.7566 166.078 14.8053 166.085 14.8587C166.091 14.9121 166.076 14.9659 166.04 15.0084L165.099 16.134L164.814 16.4732C165.27 17.1681 165.45 17.9908 165.321 18.797C165.193 19.6032 164.764 20.3414 164.111 20.8823C163.458 21.4231 162.621 21.7319 161.748 21.7546C160.875 21.7773 160.021 21.5125 159.336 21.0064L159.336 20.991Z" fill="url(#paint20_linear_252_2201)"/>
<path style="mix-blend-mode:screen" opacity="0.9" d="M196.51 32.5C199.442 27.1662 200.615 21.1409 199.88 15.1853C199.145 9.22963 196.535 3.61096 192.38 -0.96087C188.224 -5.53271 182.71 -8.85256 176.534 -10.501C170.357 -12.1494 163.796 -12.0525 157.679 -10.2224C151.562 -8.39225 146.163 -4.91114 142.165 -0.218808C138.166 4.47352 135.748 10.1665 135.216 16.1409C134.683 22.1152 136.06 28.1029 139.172 33.3474C142.284 38.5918 146.992 42.8578 152.701 45.6062C156.494 47.4549 160.643 48.5824 164.907 48.9235C169.17 49.2646 173.464 48.8125 177.539 47.5934C181.614 46.3743 185.389 44.4124 188.646 41.8215C191.902 39.2306 194.575 36.0622 196.51 32.5V32.5Z" fill="url(#paint21_radial_252_2201)"/>
<path d="M-7.49166 -32.5518C-7.49167 -5.71489 21.3809 16.0414 56.9945 16.0414C92.6081 16.0414 121.477 -5.72645 121.477 -32.5518" stroke="#D9C5B8" stroke-width="0.314356" stroke-miterlimit="10"/>
<path d="M107.414 9.09373C106.592 9.37359 105.691 9.3743 104.87 9.09573C104.048 8.81717 103.357 8.27715 102.92 7.57062C102.482 6.86409 102.326 6.03625 102.478 5.23263C102.629 4.429 103.08 3.70103 103.75 3.17667L103.593 2.79119L103.077 1.44588C103.059 1.39469 103.063 1.33913 103.087 1.29046C103.112 1.24179 103.155 1.20364 103.209 1.18375L103.415 1.11822L103.271 0.732742C103.261 0.707437 103.256 0.680565 103.258 0.653672C103.259 0.626779 103.266 0.600395 103.278 0.576037C103.291 0.551678 103.308 0.529827 103.329 0.511736C103.351 0.493644 103.376 0.479672 103.403 0.470621L104.642 0.0581585C104.669 0.0489722 104.698 0.0448796 104.727 0.0461124C104.756 0.0473452 104.784 0.0538833 104.81 0.0653462C104.836 0.0768092 104.859 0.092971 104.879 0.112907C104.898 0.132844 104.913 0.15616 104.923 0.181514L105.072 0.56699L105.278 0.497602C105.305 0.488475 105.333 0.484435 105.362 0.485714C105.391 0.486994 105.418 0.493568 105.444 0.505054C105.47 0.51654 105.493 0.532708 105.512 0.552609C105.531 0.57251 105.546 0.595745 105.555 0.620957L106.071 1.96627L106.228 2.37102C107.102 2.38052 107.944 2.67694 108.607 3.20825C109.27 3.73955 109.711 4.47178 109.853 5.27639C109.995 6.081 109.829 6.90657 109.383 7.60817C108.938 8.30977 108.242 8.84256 107.418 9.113L107.414 9.09373Z" fill="url(#paint22_linear_252_2201)"/>
<path style="mix-blend-mode:screen" opacity="0.9" d="M133.94 -9.31427C130.67 -14.4747 125.835 -18.6149 120.045 -21.2117C114.254 -23.8085 107.769 -24.7454 101.409 -23.9039C95.0483 -23.0624 89.0977 -20.4804 84.309 -16.4841C79.5202 -12.4878 76.1082 -7.25656 74.504 -1.45128C72.8998 4.35399 73.1755 10.4728 75.2961 16.1319C77.4168 21.791 81.2872 26.7366 86.4185 30.3437C91.5497 33.9508 97.7115 36.0576 104.125 36.3979C110.539 36.7382 116.917 35.2967 122.453 32.2555C126.151 30.2468 129.385 27.5732 131.968 24.3896C134.55 21.2061 136.431 17.5759 137.499 13.7093C138.567 9.84279 138.803 5.81682 138.192 1.86469C137.581 -2.08744 136.136 -5.88715 133.94 -9.31427V-9.31427Z" fill="url(#paint23_radial_252_2201)"/>
<path d="M86.2432 20.5627C85.392 20.7443 84.4994 20.6405 83.722 20.2694C82.9446 19.8983 82.332 19.2837 81.9915 18.5333C81.6511 17.7829 81.6045 16.9446 81.8601 16.1654C82.1156 15.3862 82.6569 14.7158 83.389 14.2717L83.2899 13.8516L82.9553 12.4561C82.9486 12.4301 82.9476 12.403 82.9524 12.3765C82.9571 12.3501 82.9675 12.3248 82.9829 12.3021C82.9983 12.2795 83.0184 12.2599 83.0421 12.2447C83.0657 12.2294 83.0924 12.2188 83.1206 12.2133L83.3354 12.167L83.2362 11.7816C83.2239 11.7289 83.2343 11.6739 83.2653 11.6284C83.2962 11.5829 83.3451 11.5507 83.4014 11.5387L84.686 11.2689C84.7424 11.2574 84.8014 11.2671 84.8501 11.296C84.8989 11.3249 84.9334 11.3705 84.9463 11.4231L85.0412 11.8085L85.256 11.7623C85.3124 11.7508 85.3714 11.7605 85.4202 11.7894C85.4689 11.8183 85.5034 11.864 85.5163 11.9165L85.8508 13.3119L85.9541 13.7321C86.8195 13.8425 87.6156 14.2338 88.2027 14.8373C88.7899 15.4407 89.1306 16.2179 89.1651 17.0324C89.1996 17.8469 88.9257 18.6467 88.3914 19.2915C87.8571 19.9363 87.0966 20.385 86.2432 20.5589L86.2432 20.5627Z" fill="url(#paint24_linear_252_2201)"/>
<path style="mix-blend-mode:screen" opacity="0.9" d="M114.999 5.34139C112.435 -0.155289 108.182 -4.81924 102.778 -8.06115C97.3741 -11.3031 91.0619 -12.9775 84.6388 -12.8728C78.2157 -12.7682 71.97 -10.8891 66.6907 -7.47317C61.4115 -4.05719 57.3356 0.742451 54.9781 6.31933C52.6207 11.8962 52.0874 18.0001 53.4456 23.8597C54.8039 29.7193 57.9927 35.0718 62.6092 39.2408C67.2257 43.4098 73.0628 46.2082 79.3829 47.2825C85.703 48.3569 92.2225 47.6589 98.1177 45.2768C102.052 43.7076 105.614 41.4255 108.596 38.5626C111.579 35.6997 113.923 32.313 115.494 28.5986C117.064 24.8842 117.828 20.916 117.744 16.9238C117.659 12.9316 116.726 8.99477 114.999 5.34139V5.34139Z" fill="url(#paint25_radial_252_2201)"/>
<path d="M58.5741 24.8714C57.7029 24.8261 56.8765 24.4963 56.2396 23.9396C55.6027 23.3829 55.196 22.6349 55.0906 21.8265C54.9852 21.0181 55.1879 20.2009 55.6632 19.5179C56.1384 18.835 56.856 18.3298 57.6902 18.0909L57.715 17.663L57.8017 16.2329C57.806 16.1791 57.8325 16.1288 57.8756 16.0929C57.9188 16.0569 57.9752 16.038 58.033 16.0402L58.2519 16.0402L58.2767 15.6316C58.2783 15.6047 58.2856 15.5784 58.2981 15.5542C58.3106 15.53 58.328 15.5083 58.3495 15.4904C58.371 15.4725 58.3961 15.4587 58.4233 15.4499C58.4505 15.441 58.4793 15.4373 58.508 15.4388L59.8174 15.5082C59.8462 15.5097 59.8744 15.5164 59.9003 15.5281C59.9263 15.5398 59.9495 15.5561 59.9687 15.5761C59.9879 15.5962 60.0027 15.6196 60.0121 15.645C60.0216 15.6704 60.0256 15.6972 60.024 15.7241L59.9992 16.1327L60.2181 16.1327C60.2467 16.1337 60.2748 16.14 60.3007 16.1512C60.3266 16.1624 60.3499 16.1784 60.3691 16.1982C60.3884 16.2179 60.4032 16.241 60.4127 16.2662C60.4223 16.2914 60.4263 16.318 60.4246 16.3447L60.3379 17.7748L60.3131 18.2027C61.1142 18.5291 61.7665 19.1086 62.1552 19.8394C62.5439 20.5701 62.6443 21.4052 62.4386 22.1982C62.233 22.9911 61.7346 23.691 61.0308 24.175C60.3271 24.6589 59.4631 24.896 58.5907 24.8444L58.5741 24.8714Z" fill="url(#paint26_linear_252_2201)"/>
<path style="mix-blend-mode:screen" opacity="0.9" d="M93.9963 12.9492C93.1416 7.00751 90.4189 1.4355 86.1723 -3.06278C81.9257 -7.56107 76.3457 -10.7838 70.1373 -12.3237C63.9289 -13.8637 57.3707 -13.6518 51.2913 -11.7149C45.2119 -9.77791 39.884 -6.20279 35.9809 -1.44121C32.0778 3.32038 29.7746 9.05476 29.3622 15.0374C28.9498 21.0201 30.4468 26.9826 33.664 32.1717C36.8813 37.3607 41.6744 41.5434 47.4378 44.1913C53.2012 46.8392 59.6762 47.8334 66.0449 47.0485C70.2896 46.5445 74.3849 45.2594 78.0935 43.2677C81.8022 41.276 85.0506 38.6174 87.6504 35.4458C90.2502 32.2742 92.1497 28.6526 93.2391 24.791C94.3284 20.9294 94.5858 16.9044 93.9963 12.9492V12.9492Z" fill="url(#paint27_radial_252_2201)"/>
<path style="mix-blend-mode:screen" opacity="0.9" d="M28.8105 3.9764C30.5271 -1.80053 30.3704 -7.92266 28.3603 -13.6165C26.3502 -19.3104 22.5768 -24.3205 17.5168 -28.0139C12.4569 -31.7073 6.33753 -33.9182 -0.0682516 -34.3674C-6.47403 -34.8165 -12.8787 -33.4838 -18.4732 -30.5374C-24.0677 -27.5911 -28.6009 -23.1634 -31.5001 -17.8138C-34.3994 -12.4641 -35.5345 -6.43255 -34.7622 -0.481106C-33.9898 5.47034 -31.3446 11.0746 -27.1608 15.6237C-22.9769 20.1728 -17.4422 23.4626 -11.2558 25.0774C-7.14039 26.1718 -2.83308 26.4931 1.41641 26.0227C5.6659 25.5522 9.77308 24.2993 13.4999 22.3365C17.2267 20.3738 20.499 17.7403 23.1272 14.5887C25.7554 11.437 27.6871 7.82991 28.8105 3.9764V3.9764Z" fill="url(#paint28_radial_252_2201)"/>
<path d="M14.2901 10.6999C13.4327 10.8557 12.5438 10.7248 11.7795 10.3301C11.0152 9.93545 10.4242 9.30217 10.1103 8.54144C9.79633 7.78071 9.77949 6.9411 10.0627 6.16993C10.3458 5.39875 10.911 4.74527 11.6589 4.32413L11.5721 3.90395L11.2872 2.49697C11.2763 2.44381 11.2884 2.38879 11.3209 2.34398C11.3534 2.29917 11.4037 2.26824 11.4606 2.25797L11.6754 2.22328L11.5928 1.81853C11.5819 1.76537 11.5941 1.71035 11.6266 1.66554C11.6591 1.62073 11.7093 1.5898 11.7663 1.57953L13.0591 1.3521C13.1158 1.34392 13.1738 1.35606 13.2213 1.38609C13.2688 1.41612 13.3023 1.46182 13.3152 1.514L13.3979 1.89948L13.6085 1.86478C13.6368 1.85921 13.6659 1.859 13.6942 1.86418C13.7226 1.86937 13.7496 1.87982 13.7735 1.89494C13.7974 1.91005 13.8177 1.92951 13.8334 1.95214C13.8491 1.97478 13.8597 2.00013 13.8646 2.02668L14.1537 3.42982L14.2364 3.84999C15.0992 3.98484 15.8833 4.39932 16.451 5.02052C17.0186 5.64171 17.3333 6.42982 17.3397 7.24619C17.3462 8.06256 17.0439 8.85489 16.4861 9.48378C15.9282 10.1127 15.1507 10.5378 14.2901 10.6845L14.2901 10.6999Z" fill="url(#paint29_linear_252_2201)"/>
<path style="mix-blend-mode:screen" opacity="0.9" d="M43.56 -3.63706C41.1894 -9.20899 37.1022 -14.0002 31.815 -17.4052C26.5278 -20.8103 20.2777 -22.6765 13.8545 -22.768C7.43121 -22.8594 1.12299 -21.1721 -4.27313 -17.9192C-9.66924 -14.6663 -13.9111 -9.9938 -16.4629 -4.49198C-19.0146 1.00984 -19.7617 7.09406 -18.6098 12.992C-17.4578 18.8899 -14.4585 24.3368 -9.99076 28.6446C-5.52303 32.9523 0.21265 35.9276 6.49156 37.1945C12.7705 38.4614 19.3109 37.9631 25.2865 35.7625C29.2747 34.3152 32.9154 32.1436 35.9976 29.3735C39.0798 26.6033 41.5422 23.2898 43.242 19.6249C44.9417 15.9601 45.8451 12.0168 45.8997 8.02368C45.9543 4.03058 45.1591 0.0670794 43.56 -3.63706V-3.63706Z" fill="url(#paint30_radial_252_2201)"/>
<path d="M30.102 20.991C29.4107 20.4918 28.93 19.7813 28.7443 18.9843C28.5587 18.1872 28.6798 17.3546 29.0866 16.6326C29.4934 15.9106 30.1598 15.3455 30.9687 15.0365C31.7775 14.7275 32.6772 14.6943 33.5097 14.9429L33.7947 14.6075L34.7406 13.4819C34.7764 13.4398 34.8286 13.4125 34.8858 13.406C34.943 13.3995 35.0007 13.4143 35.0463 13.4472L35.2198 13.5744L35.4883 13.2506C35.5248 13.2082 35.5777 13.1808 35.6356 13.1743C35.6935 13.1679 35.7518 13.1828 35.7981 13.2159L36.8307 13.9869C36.8762 14.021 36.9055 14.0703 36.9125 14.1244C36.9194 14.1784 36.9034 14.2329 36.8679 14.276L36.5994 14.596L36.7687 14.7232C36.8139 14.7566 36.8432 14.8053 36.8502 14.8587C36.8571 14.9121 36.8412 14.9659 36.8059 15.0084L35.8642 16.134L35.5791 16.4732C36.0357 17.1681 36.2155 17.9908 36.087 18.797C35.9586 19.6032 35.53 20.3414 34.8766 20.8823C34.2232 21.4231 33.3866 21.7319 32.5135 21.7546C31.6405 21.7773 30.7867 21.5125 30.102 21.0064L30.102 20.991Z" fill="url(#paint31_linear_252_2201)"/>
<path style="mix-blend-mode:screen" opacity="0.9" d="M66.7207 32.5C69.6534 27.1662 70.8263 21.1409 70.0912 15.1853C69.3561 9.22963 66.7459 3.61096 62.5906 -0.96087C58.4352 -5.53271 52.921 -8.85256 46.7447 -10.501C40.5684 -12.1494 34.0071 -12.0525 27.8898 -10.2224C21.7725 -8.39225 16.3737 -4.91114 12.3755 -0.218808C8.37734 4.47352 5.95914 10.1665 5.42646 16.1409C4.89377 22.1152 6.27053 28.1029 9.38275 33.3474C12.495 38.5918 17.203 42.8578 22.9121 45.6062C26.7053 47.4549 30.8539 48.5824 35.1176 48.9235C39.3812 49.2646 43.675 48.8125 47.75 47.5934C51.8251 46.3743 55.6002 44.4124 58.8567 41.8215C62.1131 39.2306 64.7861 36.0622 66.7207 32.5V32.5Z" fill="url(#paint32_radial_252_2201)"/>
<defs>
<linearGradient id="paint0_linear_252_2201" x1="357.292" y1="2.80514" x2="364.171" y2="0.139089" gradientUnits="userSpaceOnUse">
<stop stop-color="#D5923A"/>
<stop offset="0.01" stop-color="#D89845"/>
<stop offset="0.07" stop-color="#E4B06D"/>
<stop offset="0.12" stop-color="#EEC48E"/>
<stop offset="0.18" stop-color="#F5D3A8"/>
<stop offset="0.24" stop-color="#FBDDBB"/>
<stop offset="0.3" stop-color="#FEE4C5"/>
<stop offset="0.36" stop-color="#FFE6C9"/>
</linearGradient>
<radialGradient id="paint1_radial_252_2201" cx="0" cy="0" r="1" gradientUnits="userSpaceOnUse" gradientTransform="translate(360.575 3.18002) rotate(-29.2462) scale(31.8934 30.657)">
<stop stop-color="#D5923A"/>
<stop offset="0.01" stop-color="#D6953F" stop-opacity="0.97"/>
<stop offset="0.11" stop-color="#E0A85F" stop-opacity="0.74"/>
<stop offset="0.21" stop-color="#E8B87B" stop-opacity="0.54"/>
<stop offset="0.31" stop-color="#EFC693" stop-opacity="0.38"/>
<stop offset="0.42" stop-color="#F5D2A7" stop-opacity="0.24"/>
<stop offset="0.54" stop-color="#F9DBB6" stop-opacity="0.13"/>
<stop offset="0.66" stop-color="#FDE1C1" stop-opacity="0.06"/>
<stop offset="0.81" stop-color="#FEE5C7" stop-opacity="0.01"/>
<stop offset="1" stop-color="#FFE6C9" stop-opacity="0"/>
</radialGradient>
<linearGradient id="paint2_linear_252_2201" x1="344.513" y1="12.9862" x2="351.756" y2="11.2439" gradientUnits="userSpaceOnUse">
<stop stop-color="#F2DABA"/>
<stop offset="0.01" stop-color="#F1D5B1"/>
<stop offset="0.07" stop-color="#F3D7B2"/>
<stop offset="0.12" stop-color="#F3DCBE"/>
<stop offset="0.18" stop-color="#F5D3A8"/>
<stop offset="0.24" stop-color="#FBDDBB"/>
<stop offset="0.3" stop-color="#FEE4C5"/>
<stop offset="0.36" stop-color="#FFE6C9"/>
</linearGradient>
<radialGradient id="paint3_radial_252_2201" cx="0" cy="0" r="1" gradientUnits="userSpaceOnUse" gradientTransform="translate(345.541 16.6013) rotate(-22.304) scale(32.2015 30.5687)">
<stop stop-color="#D5923A"/>
<stop offset="0.01" stop-color="#D6953F" stop-opacity="0.97"/>
<stop offset="0.11" stop-color="#E0A85F" stop-opacity="0.74"/>
<stop offset="0.21" stop-color="#E8B87B" stop-opacity="0.54"/>
<stop offset="0.31" stop-color="#EFC693" stop-opacity="0.38"/>
<stop offset="0.42" stop-color="#F5D2A7" stop-opacity="0.24"/>
<stop offset="0.54" stop-color="#F9DBB6" stop-opacity="0.13"/>
<stop offset="0.66" stop-color="#FDE1C1" stop-opacity="0.06"/>
<stop offset="0.81" stop-color="#FEE5C7" stop-opacity="0.01"/>
<stop offset="1" stop-color="#FFE6C9" stop-opacity="0"/>
</radialGradient>
<linearGradient id="paint4_linear_252_2201" x1="313.609" y1="20.045" x2="321.037" y2="20.4998" gradientUnits="userSpaceOnUse">
<stop stop-color="#D5923A"/>
<stop offset="0.01" stop-color="#D89845"/>
<stop offset="0.07" stop-color="#E4B06D"/>
<stop offset="0.12" stop-color="#EEC48E"/>
<stop offset="0.18" stop-color="#F5D3A8"/>
<stop offset="0.24" stop-color="#FBDDBB"/>
<stop offset="0.3" stop-color="#FEE4C5"/>
<stop offset="0.36" stop-color="#FFE6C9"/>
</linearGradient>
<radialGradient id="paint5_radial_252_2201" cx="0" cy="0" r="1" gradientUnits="userSpaceOnUse" gradientTransform="translate(316.329 23.1843) rotate(-7.05709) scale(32.3289 30.2379)">
<stop stop-color="#D5923A"/>
<stop offset="0.01" stop-color="#D6953F" stop-opacity="0.97"/>
<stop offset="0.11" stop-color="#E0A85F" stop-opacity="0.74"/>
<stop offset="0.21" stop-color="#E8B87B" stop-opacity="0.54"/>
<stop offset="0.31" stop-color="#EFC693" stop-opacity="0.38"/>
<stop offset="0.42" stop-color="#F5D2A7" stop-opacity="0.24"/>
<stop offset="0.54" stop-color="#F9DBB6" stop-opacity="0.13"/>
<stop offset="0.66" stop-color="#FDE1C1" stop-opacity="0.06"/>
<stop offset="0.81" stop-color="#FEE5C7" stop-opacity="0.01"/>
<stop offset="1" stop-color="#FFE6C9" stop-opacity="0"/>
</radialGradient>
<radialGradient id="paint6_radial_252_2201" cx="0" cy="0" r="1" gradientUnits="userSpaceOnUse" gradientTransform="translate(262.163 -4.83656) rotate(14.1845) scale(32.4176 30.3064)">
<stop stop-color="#D5923A"/>
<stop offset="0.01" stop-color="#D6953F" stop-opacity="0.97"/>
<stop offset="0.11" stop-color="#E0A85F" stop-opacity="0.74"/>
<stop offset="0.21" stop-color="#E8B87B" stop-opacity="0.54"/>
<stop offset="0.31" stop-color="#EFC693" stop-opacity="0.38"/>
<stop offset="0.42" stop-color="#F5D2A7" stop-opacity="0.24"/>
<stop offset="0.54" stop-color="#F9DBB6" stop-opacity="0.13"/>
<stop offset="0.66" stop-color="#FDE1C1" stop-opacity="0.06"/>
<stop offset="0.81" stop-color="#FEE5C7" stop-opacity="0.01"/>
<stop offset="1" stop-color="#FFE6C9" stop-opacity="0"/>
</radialGradient>
<linearGradient id="paint7_linear_252_2201" x1="268.096" y1="6.73135" x2="275.371" y2="5.25131" gradientUnits="userSpaceOnUse">
<stop stop-color="#D5923A"/>
<stop offset="0.01" stop-color="#D89845"/>
<stop offset="0.07" stop-color="#E4B06D"/>
<stop offset="0.12" stop-color="#EEC48E"/>
<stop offset="0.18" stop-color="#F5D3A8"/>
<stop offset="0.24" stop-color="#FBDDBB"/>
<stop offset="0.3" stop-color="#FEE4C5"/>
<stop offset="0.36" stop-color="#FFE6C9"/>
</linearGradient>
<radialGradient id="paint8_radial_252_2201" cx="0" cy="0" r="1" gradientUnits="userSpaceOnUse" gradientTransform="translate(271.161 5.58242) rotate(-20.5722) scale(32.1753 30.4614)">
<stop stop-color="#D5923A"/>
<stop offset="0.01" stop-color="#D6953F" stop-opacity="0.97"/>
<stop offset="0.11" stop-color="#E0A85F" stop-opacity="0.74"/>
<stop offset="0.21" stop-color="#E8B87B" stop-opacity="0.54"/>
<stop offset="0.31" stop-color="#EFC693" stop-opacity="0.38"/>
<stop offset="0.42" stop-color="#F5D2A7" stop-opacity="0.24"/>
<stop offset="0.54" stop-color="#F9DBB6" stop-opacity="0.13"/>
<stop offset="0.66" stop-color="#FDE1C1" stop-opacity="0.06"/>
<stop offset="0.81" stop-color="#FEE5C7" stop-opacity="0.01"/>
<stop offset="1" stop-color="#FFE6C9" stop-opacity="0"/>
</radialGradient>
<linearGradient id="paint9_linear_252_2201" x1="288.764" y1="15.0699" x2="294.31" y2="19.7265" gradientUnits="userSpaceOnUse">
<stop stop-color="#D5923A"/>
<stop offset="0.01" stop-color="#D89845"/>
<stop offset="0.07" stop-color="#E4B06D"/>
<stop offset="0.12" stop-color="#EEC48E"/>
<stop offset="0.18" stop-color="#F5D3A8"/>
<stop offset="0.24" stop-color="#FBDDBB"/>
<stop offset="0.3" stop-color="#FEE4C5"/>
<stop offset="0.36" stop-color="#FFE6C9"/>
</linearGradient>
<radialGradient id="paint10_radial_252_2201" cx="0" cy="0" r="1" gradientUnits="userSpaceOnUse" gradientTransform="translate(290.768 18.4102) rotate(25.5115) scale(31.9226 30.6102)">
<stop stop-color="#D5923A"/>
<stop offset="0.01" stop-color="#D6953F" stop-opacity="0.97"/>
<stop offset="0.11" stop-color="#E0A85F" stop-opacity="0.74"/>
<stop offset="0.21" stop-color="#E8B87B" stop-opacity="0.54"/>
<stop offset="0.31" stop-color="#EFC693" stop-opacity="0.38"/>
<stop offset="0.42" stop-color="#F5D2A7" stop-opacity="0.24"/>
<stop offset="0.54" stop-color="#F9DBB6" stop-opacity="0.13"/>
<stop offset="0.66" stop-color="#FDE1C1" stop-opacity="0.06"/>
<stop offset="0.81" stop-color="#FEE5C7" stop-opacity="0.01"/>
<stop offset="1" stop-color="#FFE6C9" stop-opacity="0"/>
</radialGradient>
<linearGradient id="paint11_linear_252_2201" x1="228.101" y1="3.21729" x2="234.98" y2="0.551248" gradientUnits="userSpaceOnUse">
<stop stop-color="#D5923A"/>
<stop offset="0.01" stop-color="#D89845"/>
<stop offset="0.07" stop-color="#E4B06D"/>
<stop offset="0.12" stop-color="#EEC48E"/>
<stop offset="0.18" stop-color="#F5D3A8"/>
<stop offset="0.24" stop-color="#FBDDBB"/>
<stop offset="0.3" stop-color="#FEE4C5"/>
<stop offset="0.36" stop-color="#FFE6C9"/>
</linearGradient>
<radialGradient id="paint12_radial_252_2201" cx="0" cy="0" r="1" gradientUnits="userSpaceOnUse" gradientTransform="translate(231.932 3.82288) rotate(-29.2462) scale(31.8934 30.657)">
<stop stop-color="#D5923A"/>
<stop offset="0.01" stop-color="#D6953F" stop-opacity="0.97"/>
<stop offset="0.11" stop-color="#E0A85F" stop-opacity="0.74"/>
<stop offset="0.21" stop-color="#E8B87B" stop-opacity="0.54"/>
<stop offset="0.31" stop-color="#EFC693" stop-opacity="0.38"/>
<stop offset="0.42" stop-color="#F5D2A7" stop-opacity="0.24"/>
<stop offset="0.54" stop-color="#F9DBB6" stop-opacity="0.13"/>
<stop offset="0.66" stop-color="#FDE1C1" stop-opacity="0.06"/>
<stop offset="0.81" stop-color="#FEE5C7" stop-opacity="0.01"/>
<stop offset="1" stop-color="#FFE6C9" stop-opacity="0"/>
</radialGradient>
<linearGradient id="paint13_linear_252_2201" x1="214.711" y1="13.0379" x2="221.954" y2="11.2956" gradientUnits="userSpaceOnUse">
<stop stop-color="#E8D7AE"/>
<stop offset="0.01" stop-color="#F3CA94"/>
<stop offset="0.07" stop-color="#F2D0A5"/>
<stop offset="0.12" stop-color="#F8DCB9"/>
<stop offset="0.18" stop-color="#F5D3A8"/>
<stop offset="0.24" stop-color="#FBDDBB"/>
<stop offset="0.3" stop-color="#FEE4C5"/>
<stop offset="0.36" stop-color="#FFE6C9"/>
</linearGradient>
<radialGradient id="paint14_radial_252_2201" cx="0" cy="0" r="1" gradientUnits="userSpaceOnUse" gradientTransform="translate(216.859 14.5458) rotate(-22.304) scale(32.2015 30.5687)">
<stop stop-color="#D5923A"/>
<stop offset="0.01" stop-color="#D6953F" stop-opacity="0.97"/>
<stop offset="0.11" stop-color="#E0A85F" stop-opacity="0.74"/>
<stop offset="0.21" stop-color="#E8B87B" stop-opacity="0.54"/>
<stop offset="0.31" stop-color="#EFC693" stop-opacity="0.38"/>
<stop offset="0.42" stop-color="#F5D2A7" stop-opacity="0.24"/>
<stop offset="0.54" stop-color="#F9DBB6" stop-opacity="0.13"/>
<stop offset="0.66" stop-color="#FDE1C1" stop-opacity="0.06"/>
<stop offset="0.81" stop-color="#FEE5C7" stop-opacity="0.01"/>
<stop offset="1" stop-color="#FFE6C9" stop-opacity="0"/>
</radialGradient>
<linearGradient id="paint15_linear_252_2201" x1="184.382" y1="20.0402" x2="191.81" y2="20.4949" gradientUnits="userSpaceOnUse">
<stop stop-color="#D5923A"/>
<stop offset="0.01" stop-color="#D89845"/>
<stop offset="0.07" stop-color="#E4B06D"/>
<stop offset="0.12" stop-color="#EEC48E"/>
<stop offset="0.18" stop-color="#F5D3A8"/>
<stop offset="0.24" stop-color="#FBDDBB"/>
<stop offset="0.3" stop-color="#FEE4C5"/>
<stop offset="0.36" stop-color="#FFE6C9"/>
</linearGradient>
<radialGradient id="paint16_radial_252_2201" cx="0" cy="0" r="1" gradientUnits="userSpaceOnUse" gradientTransform="translate(187.553 23.9875) rotate(-7.05709) scale(32.3289 30.2379)">
<stop stop-color="#D5923A"/>
<stop offset="0.01" stop-color="#D6953F" stop-opacity="0.97"/>
<stop offset="0.11" stop-color="#E0A85F" stop-opacity="0.74"/>
<stop offset="0.21" stop-color="#E8B87B" stop-opacity="0.54"/>
<stop offset="0.31" stop-color="#EFC693" stop-opacity="0.38"/>
<stop offset="0.42" stop-color="#F5D2A7" stop-opacity="0.24"/>
<stop offset="0.54" stop-color="#F9DBB6" stop-opacity="0.13"/>
<stop offset="0.66" stop-color="#FDE1C1" stop-opacity="0.06"/>
<stop offset="0.81" stop-color="#FEE5C7" stop-opacity="0.01"/>
<stop offset="1" stop-color="#FFE6C9" stop-opacity="0"/>
</radialGradient>
<radialGradient id="paint17_radial_252_2201" cx="0" cy="0" r="1" gradientUnits="userSpaceOnUse" gradientTransform="translate(132.417 -4.51715) rotate(14.1845) scale(32.4176 30.3064)">
<stop stop-color="#D5923A"/>
<stop offset="0.01" stop-color="#D6953F" stop-opacity="0.97"/>
<stop offset="0.11" stop-color="#E0A85F" stop-opacity="0.74"/>
<stop offset="0.21" stop-color="#E8B87B" stop-opacity="0.54"/>
<stop offset="0.31" stop-color="#EFC693" stop-opacity="0.38"/>
<stop offset="0.42" stop-color="#F5D2A7" stop-opacity="0.24"/>
<stop offset="0.54" stop-color="#F9DBB6" stop-opacity="0.13"/>
<stop offset="0.66" stop-color="#FDE1C1" stop-opacity="0.06"/>
<stop offset="0.81" stop-color="#FEE5C7" stop-opacity="0.01"/>
<stop offset="1" stop-color="#FFE6C9" stop-opacity="0"/>
</radialGradient>
<linearGradient id="paint18_linear_252_2201" x1="138.867" y1="6.73443" x2="146.138" y2="5.25521" gradientUnits="userSpaceOnUse">
<stop stop-color="#D5923A"/>
<stop offset="0.01" stop-color="#D89845"/>
<stop offset="0.07" stop-color="#E4B06D"/>
<stop offset="0.12" stop-color="#EEC48E"/>
<stop offset="0.18" stop-color="#F5D3A8"/>
<stop offset="0.24" stop-color="#FBDDBB"/>
<stop offset="0.3" stop-color="#FEE4C5"/>
<stop offset="0.36" stop-color="#FFE6C9"/>
</linearGradient>
<radialGradient id="paint19_radial_252_2201" cx="0" cy="0" r="1" gradientUnits="userSpaceOnUse" gradientTransform="translate(142.354 5.95814) rotate(-20.5722) scale(32.1753 30.4614)">
<stop stop-color="#D5923A"/>
<stop offset="0.01" stop-color="#D6953F" stop-opacity="0.97"/>
<stop offset="0.11" stop-color="#E0A85F" stop-opacity="0.74"/>
<stop offset="0.21" stop-color="#E8B87B" stop-opacity="0.54"/>
<stop offset="0.31" stop-color="#EFC693" stop-opacity="0.38"/>
<stop offset="0.42" stop-color="#F5D2A7" stop-opacity="0.24"/>
<stop offset="0.54" stop-color="#F9DBB6" stop-opacity="0.13"/>
<stop offset="0.66" stop-color="#FDE1C1" stop-opacity="0.06"/>
<stop offset="0.81" stop-color="#FEE5C7" stop-opacity="0.01"/>
<stop offset="1" stop-color="#FFE6C9" stop-opacity="0"/>
</radialGradient>
<linearGradient id="paint20_linear_252_2201" x1="159.526" y1="15.0788" x2="165.072" y2="19.7355" gradientUnits="userSpaceOnUse">
<stop stop-color="#D5923A"/>
<stop offset="0.01" stop-color="#D89845"/>
<stop offset="0.07" stop-color="#E4B06D"/>
<stop offset="0.12" stop-color="#EEC48E"/>
<stop offset="0.18" stop-color="#F5D3A8"/>
<stop offset="0.24" stop-color="#FBDDBB"/>
<stop offset="0.3" stop-color="#FEE4C5"/>
<stop offset="0.36" stop-color="#FFE6C9"/>
</linearGradient>
<radialGradient id="paint21_radial_252_2201" cx="0" cy="0" r="1" gradientUnits="userSpaceOnUse" gradientTransform="translate(160.292 17.4302) rotate(25.5115) scale(31.9226 30.6102)">
<stop stop-color="#D5923A"/>
<stop offset="0.01" stop-color="#D6953F" stop-opacity="0.97"/>
<stop offset="0.11" stop-color="#E0A85F" stop-opacity="0.74"/>
<stop offset="0.21" stop-color="#E8B87B" stop-opacity="0.54"/>
<stop offset="0.31" stop-color="#EFC693" stop-opacity="0.38"/>
<stop offset="0.42" stop-color="#F5D2A7" stop-opacity="0.24"/>
<stop offset="0.54" stop-color="#F9DBB6" stop-opacity="0.13"/>
<stop offset="0.66" stop-color="#FDE1C1" stop-opacity="0.06"/>
<stop offset="0.81" stop-color="#FEE5C7" stop-opacity="0.01"/>
<stop offset="1" stop-color="#FFE6C9" stop-opacity="0"/>
</radialGradient>
<linearGradient id="paint22_linear_252_2201" x1="98.913" y1="3.62813" x2="105.792" y2="0.962085" gradientUnits="userSpaceOnUse">
<stop stop-color="#D5923A"/>
<stop offset="0.01" stop-color="#D89845"/>
<stop offset="0.07" stop-color="#E4B06D"/>
<stop offset="0.12" stop-color="#EEC48E"/>
<stop offset="0.18" stop-color="#F5D3A8"/>
<stop offset="0.24" stop-color="#FBDDBB"/>
<stop offset="0.3" stop-color="#FEE4C5"/>
<stop offset="0.36" stop-color="#FFE6C9"/>
</linearGradient>
<radialGradient id="paint23_radial_252_2201" cx="0" cy="0" r="1" gradientUnits="userSpaceOnUse" gradientTransform="translate(103.289 4.46574) rotate(-29.2462) scale(31.8934 30.657)">
<stop stop-color="#D5923A"/>
<stop offset="0.01" stop-color="#D6953F" stop-opacity="0.97"/>
<stop offset="0.11" stop-color="#E0A85F" stop-opacity="0.74"/>
<stop offset="0.21" stop-color="#E8B87B" stop-opacity="0.54"/>
<stop offset="0.31" stop-color="#EFC693" stop-opacity="0.38"/>
<stop offset="0.42" stop-color="#F5D2A7" stop-opacity="0.24"/>
<stop offset="0.54" stop-color="#F9DBB6" stop-opacity="0.13"/>
<stop offset="0.66" stop-color="#FDE1C1" stop-opacity="0.06"/>
<stop offset="0.81" stop-color="#FEE5C7" stop-opacity="0.01"/>
<stop offset="1" stop-color="#FFE6C9" stop-opacity="0"/>
</radialGradient>
<linearGradient id="paint24_linear_252_2201" x1="84.9018" y1="13.0913" x2="92.1447" y2="11.349" gradientUnits="userSpaceOnUse">
<stop stop-color="#EDD1AC"/>
<stop offset="0.01" stop-color="#F5D9B5"/>
<stop offset="0.07" stop-color="#F2CA95"/>
<stop offset="0.12" stop-color="#F3D8B5"/>
<stop offset="0.18" stop-color="#F5D3A8"/>
<stop offset="0.24" stop-color="#FBDDBB"/>
<stop offset="0.3" stop-color="#FEE4C5"/>
<stop offset="0.36" stop-color="#FFE6C9"/>
</linearGradient>
<radialGradient id="paint25_radial_252_2201" cx="0" cy="0" r="1" gradientUnits="userSpaceOnUse" gradientTransform="translate(87.7597 14.8075) rotate(-22.304) scale(32.2015 30.5687)">
<stop stop-color="#D5923A"/>
<stop offset="0.01" stop-color="#D6953F" stop-opacity="0.97"/>
<stop offset="0.11" stop-color="#E0A85F" stop-opacity="0.74"/>
<stop offset="0.21" stop-color="#E8B87B" stop-opacity="0.54"/>
<stop offset="0.31" stop-color="#EFC693" stop-opacity="0.38"/>
<stop offset="0.42" stop-color="#F5D2A7" stop-opacity="0.24"/>
<stop offset="0.54" stop-color="#F9DBB6" stop-opacity="0.13"/>
<stop offset="0.66" stop-color="#FDE1C1" stop-opacity="0.06"/>
<stop offset="0.81" stop-color="#FEE5C7" stop-opacity="0.01"/>
<stop offset="1" stop-color="#FFE6C9" stop-opacity="0"/>
</radialGradient>
<linearGradient id="paint26_linear_252_2201" x1="55.1487" y1="20.0338" x2="62.5721" y2="20.4883" gradientUnits="userSpaceOnUse">
<stop stop-color="#D5923A"/>
<stop offset="0.01" stop-color="#D89845"/>
<stop offset="0.07" stop-color="#E4B06D"/>
<stop offset="0.12" stop-color="#EEC48E"/>
<stop offset="0.18" stop-color="#F5D3A8"/>
<stop offset="0.24" stop-color="#FBDDBB"/>
<stop offset="0.3" stop-color="#FEE4C5"/>
<stop offset="0.36" stop-color="#FFE6C9"/>
</linearGradient>
<radialGradient id="paint27_radial_252_2201" cx="0" cy="0" r="1" gradientUnits="userSpaceOnUse" gradientTransform="translate(57.9492 21.7067) rotate(-7.05709) scale(32.3289 30.2379)">
<stop stop-color="#D5923A"/>
<stop offset="0.01" stop-color="#D6953F" stop-opacity="0.97"/>
<stop offset="0.11" stop-color="#E0A85F" stop-opacity="0.74"/>
<stop offset="0.21" stop-color="#E8B87B" stop-opacity="0.54"/>
<stop offset="0.31" stop-color="#EFC693" stop-opacity="0.38"/>
<stop offset="0.42" stop-color="#F5D2A7" stop-opacity="0.24"/>
<stop offset="0.54" stop-color="#F9DBB6" stop-opacity="0.13"/>
<stop offset="0.66" stop-color="#FDE1C1" stop-opacity="0.06"/>
<stop offset="0.81" stop-color="#FEE5C7" stop-opacity="0.01"/>
<stop offset="1" stop-color="#FFE6C9" stop-opacity="0"/>
</radialGradient>
<radialGradient id="paint28_radial_252_2201" cx="0" cy="0" r="1" gradientUnits="userSpaceOnUse" gradientTransform="translate(2.67756 -4.19674) rotate(14.1845) scale(32.4175 30.3064)">
<stop stop-color="#D5923A"/>
<stop offset="0.01" stop-color="#D6953F" stop-opacity="0.97"/>
<stop offset="0.11" stop-color="#E0A85F" stop-opacity="0.74"/>
<stop offset="0.21" stop-color="#E8B87B" stop-opacity="0.54"/>
<stop offset="0.31" stop-color="#EFC693" stop-opacity="0.38"/>
<stop offset="0.42" stop-color="#F5D2A7" stop-opacity="0.24"/>
<stop offset="0.54" stop-color="#F9DBB6" stop-opacity="0.13"/>
<stop offset="0.66" stop-color="#FDE1C1" stop-opacity="0.06"/>
<stop offset="0.81" stop-color="#FEE5C7" stop-opacity="0.01"/>
<stop offset="1" stop-color="#FFE6C9" stop-opacity="0"/>
</radialGradient>
<linearGradient id="paint29_linear_252_2201" x1="9.63661" y1="6.73743" x2="16.9118" y2="5.25738" gradientUnits="userSpaceOnUse">
<stop stop-color="#D5923A"/>
<stop offset="0.01" stop-color="#D89845"/>
<stop offset="0.07" stop-color="#E4B06D"/>
<stop offset="0.12" stop-color="#EEC48E"/>
<stop offset="0.18" stop-color="#F5D3A8"/>
<stop offset="0.24" stop-color="#FBDDBB"/>
<stop offset="0.3" stop-color="#FEE4C5"/>
<stop offset="0.36" stop-color="#FFE6C9"/>
</linearGradient>
<radialGradient id="paint30_radial_252_2201" cx="0" cy="0" r="1" gradientUnits="userSpaceOnUse" gradientTransform="translate(13.5403 6.33032) rotate(-20.5722) scale(32.1753 30.4614)">
<stop stop-color="#D5923A"/>
<stop offset="0.01" stop-color="#D6953F" stop-opacity="0.97"/>
<stop offset="0.11" stop-color="#E0A85F" stop-opacity="0.74"/>
<stop offset="0.21" stop-color="#E8B87B" stop-opacity="0.54"/>
<stop offset="0.31" stop-color="#EFC693" stop-opacity="0.38"/>
<stop offset="0.42" stop-color="#F5D2A7" stop-opacity="0.24"/>
<stop offset="0.54" stop-color="#F9DBB6" stop-opacity="0.13"/>
<stop offset="0.66" stop-color="#FDE1C1" stop-opacity="0.06"/>
<stop offset="0.81" stop-color="#FEE5C7" stop-opacity="0.01"/>
<stop offset="1" stop-color="#FFE6C9" stop-opacity="0"/>
</radialGradient>
<linearGradient id="paint31_linear_252_2201" x1="30.2883" y1="15.0851" x2="35.8346" y2="19.7417" gradientUnits="userSpaceOnUse">
<stop stop-color="#D5923A"/>
<stop offset="0.01" stop-color="#D89845"/>
<stop offset="0.07" stop-color="#E4B06D"/>
<stop offset="0.12" stop-color="#EEC48E"/>
<stop offset="0.18" stop-color="#F5D3A8"/>
<stop offset="0.24" stop-color="#FBDDBB"/>
<stop offset="0.3" stop-color="#FEE4C5"/>
<stop offset="0.36" stop-color="#FFE6C9"/>
</linearGradient>
<radialGradient id="paint32_radial_252_2201" cx="0" cy="0" r="1" gradientUnits="userSpaceOnUse" gradientTransform="translate(31.1887 17.6054) rotate(25.5115) scale(31.9226 30.6102)">
<stop stop-color="#D5923A"/>
<stop offset="0.01" stop-color="#D6953F" stop-opacity="0.97"/>
<stop offset="0.11" stop-color="#E0A85F" stop-opacity="0.74"/>
<stop offset="0.21" stop-color="#E8B87B" stop-opacity="0.54"/>
<stop offset="0.31" stop-color="#EFC693" stop-opacity="0.38"/>
<stop offset="0.42" stop-color="#F5D2A7" stop-opacity="0.24"/>
<stop offset="0.54" stop-color="#F9DBB6" stop-opacity="0.13"/>
<stop offset="0.66" stop-color="#FDE1C1" stop-opacity="0.06"/>
<stop offset="0.81" stop-color="#FEE5C7" stop-opacity="0.01"/>
<stop offset="1" stop-color="#FFE6C9" stop-opacity="0"/>
</radialGradient>
</defs>
</svg>
