<svg id="gingerbread" width="251" height="227" viewBox="0 0 251 227" fill="none" xmlns="http://www.w3.org/2000/svg">
<g id="unpainted-gingerbread-house" clip-path="url(#clip0_666_1700)">
<path id="Vector" opacity="0.23" d="M214.474 195.67C226.087 195.67 235.453 192.856 235.453 189.104C235.453 185.54 226.087 182.538 214.474 182.538C202.861 182.538 193.495 185.352 193.495 189.104C193.308 192.856 202.861 195.67 214.474 195.67Z" fill="#7C2600"/>
<path id="Vector_2" d="M5.00361e-05 197.171C-0.187263 212.742 15.7344 217.995 30.5321 223.06C45.3299 228.126 69.6807 226.437 83.1672 226.249C96.6538 225.874 109.766 225.124 132.805 226.812C155.658 228.501 184.129 224.561 208.105 220.246C232.081 215.744 249.314 209.365 249.314 194.169C249.314 194.169 214.661 214.993 164.461 216.682C114.261 218.37 72.4903 218.933 43.6441 214.618C14.6105 210.303 5.00361e-05 197.171 5.00361e-05 197.171Z" fill="#8C481B"/>
<path id="Vector_3" d="M175.513 219.871C147.228 223.436 114.636 219.496 83.7292 221.56C78.4844 221.935 72.4904 221.935 66.1218 221.747C34.6531 220.622 -5.24466 212.742 0.74937 193.794C7.11803 173.533 78.6718 175.972 112.763 172.97C130.932 171.282 165.773 172.783 195.368 176.347C221.03 179.349 242.946 184.227 247.441 189.855C259.617 205.426 203.61 216.307 175.513 219.871Z" fill="#CC712A"/>
<g id="Group" opacity="0.34">
<path id="Vector_4" d="M31.8433 184.602C31.8433 185.54 30.3448 186.478 28.4716 186.478C26.5985 186.478 25.1 185.728 25.1 184.602C25.1 183.664 26.5985 182.726 28.4716 182.726C30.1574 182.726 31.8433 183.476 31.8433 184.602Z" fill="#7C2600"/>
<path id="Vector_5" d="M41.2089 203.925C42.3328 203.925 43.2693 202.987 43.2693 201.862C43.2693 200.736 42.3328 199.798 41.2089 199.798C40.085 199.798 39.1484 200.736 39.1484 201.862C39.1484 202.987 40.085 203.925 41.2089 203.925Z" fill="#7C2600"/>
<path id="Vector_6" d="M27.7224 211.992C29.9702 211.992 31.656 211.054 31.656 209.928C31.656 208.803 29.7828 207.865 27.7224 207.865C25.662 207.865 23.7888 208.803 23.7888 209.928C23.7888 211.054 25.4746 211.992 27.7224 211.992Z" fill="#7C2600"/>
<path id="Vector_7" d="M115.76 208.427C115.76 209.365 115.01 210.303 113.887 210.303C112.763 210.303 112.013 209.553 112.013 208.427C112.013 207.489 112.763 206.551 113.887 206.551C115.01 206.551 115.76 207.489 115.76 208.427Z" fill="#7C2600"/>
<path id="Vector_8" d="M130.558 195.483C130.558 196.421 129.246 197.171 127.561 197.171C125.875 197.171 124.564 196.421 124.564 195.483C124.564 194.545 125.875 193.794 127.561 193.794C129.246 193.794 130.558 194.545 130.558 195.483Z" fill="#7C2600"/>
<path id="Vector_9" d="M191.434 207.677C191.434 208.803 189.374 209.741 186.939 209.741C184.504 209.741 182.443 208.803 182.443 207.677C182.443 206.551 184.504 205.613 186.939 205.613C189.374 205.613 191.434 206.551 191.434 207.677Z" fill="#7C2600"/>
<path id="Vector_10" d="M181.694 181.975C181.694 182.726 180.57 183.101 179.259 183.101C177.948 183.101 176.824 182.538 176.824 181.975C176.824 181.225 177.948 180.85 179.259 180.85C180.57 180.85 181.694 181.225 181.694 181.975Z" fill="#7C2600"/>
<path id="Vector_11" d="M238.45 196.421C238.45 197.359 236.764 198.297 234.891 198.297C233.018 198.297 231.332 197.547 231.332 196.421C231.332 195.483 233.018 194.545 234.891 194.545C236.764 194.545 238.45 195.295 238.45 196.421Z" fill="#7C2600"/>
</g>
<path id="Vector_12" opacity="0.29" d="M175.513 219.871C147.228 223.435 114.636 219.496 83.7292 221.559C78.4845 221.935 72.4904 221.935 66.1218 221.747C89.5359 218.182 124.564 215.931 144.231 216.494C164.087 217.244 194.619 214.243 212.226 205.988C228.897 197.921 223.84 182.163 195.555 176.347C221.217 179.349 243.133 184.226 247.628 189.854C259.617 205.425 203.61 216.306 175.513 219.871Z" fill="#7C2600"/>
<path id="Vector_13" opacity="0.56" d="M43.8314 210.866C43.0821 215.556 34.4657 215.556 31.656 213.118C31.2814 212.742 31.0941 212.555 30.9067 212.179C29.2209 208.427 35.4023 206.927 39.8978 207.489C42.1456 207.865 44.206 208.99 43.8314 210.866Z" fill="#7C2600"/>
<path id="Vector_14" d="M42.7075 209.365C41.9583 214.055 33.3419 214.055 30.5322 211.617C30.1575 211.241 29.9702 211.054 29.7829 210.679C28.0971 206.927 34.2784 205.426 38.774 205.989C41.0217 206.364 42.8948 207.489 42.7075 209.365Z" fill="#FFF3D2"/>
<path id="Vector_15" opacity="0.23" d="M42.7075 209.365C41.9583 214.055 33.3419 214.055 30.5322 211.617C33.9038 211.804 38.5866 211.429 38.9613 208.803C39.1486 207.677 38.9613 206.739 38.5866 206.176C41.0217 206.364 42.8949 207.489 42.7075 209.365Z" fill="#845100"/>
<path id="Vector_16" opacity="0.56" d="M183.754 200.173C183.754 199.798 183.754 199.61 183.754 199.422C184.316 192.856 200.987 192.293 211.477 195.295C216.347 196.608 219.719 198.672 220.093 201.111C221.217 208.99 184.878 208.99 183.754 200.173Z" fill="#7C2600"/>
<path id="Vector_17" d="M181.694 198.297C181.694 197.921 181.694 197.734 181.694 197.546C182.256 190.98 198.927 190.417 209.416 193.419C214.287 194.732 217.658 196.796 218.033 199.235C219.344 206.926 183.005 206.926 181.694 198.297Z" fill="#FFF3D2"/>
<path id="Vector_18" opacity="0.23" d="M181.694 198.297C187.688 203.55 203.61 202.987 209.042 200.173C212.226 198.484 211.102 195.858 209.416 193.419C214.287 194.732 217.658 196.796 218.033 199.235C219.344 206.927 183.005 206.927 181.694 198.297Z" fill="#845100"/>
<path id="Vector_19" opacity="0.56" d="M139.361 210.304C139.174 209.928 139.174 209.741 139.174 209.553C139.549 205.238 149.289 204.3 157.343 205.426C162.775 206.364 167.458 208.24 167.646 210.679C168.769 216.682 140.86 216.87 139.361 210.304Z" fill="#7C2600"/>
<path id="Vector_20" d="M137.301 208.24C137.114 207.864 137.114 207.677 137.114 207.489C137.488 203.174 147.229 202.236 155.283 203.362C160.715 204.3 165.398 206.176 165.585 208.615C166.709 214.806 138.799 214.806 137.301 208.24Z" fill="#FFF3D2"/>
<path id="Vector_21" opacity="0.23" d="M137.301 208.24C142.92 210.679 153.972 210.303 157.531 208.052C160.34 206.176 157.343 204.3 155.47 203.362C160.902 204.3 165.585 206.176 165.772 208.615C166.709 214.806 138.799 214.806 137.301 208.24Z" fill="#845100"/>
<path id="Vector_22" opacity="0.56" d="M106.019 208.24C106.207 219.496 55.0702 220.434 55.0702 211.054C55.0702 210.866 55.0702 210.866 55.0702 210.866C55.8194 205.238 79.9829 200.735 94.7806 202.236C101.337 202.987 106.019 204.863 106.019 208.24Z" fill="#7C2600"/>
<path id="Vector_23" d="M104.146 206.176C104.334 217.432 53.1971 218.37 53.1971 208.99C53.1971 208.803 53.1971 208.803 53.1971 208.803C53.9463 203.175 78.1098 198.672 92.9075 200.173C99.4635 201.111 104.146 202.799 104.146 206.176Z" fill="#FFF3D2"/>
<path id="Vector_24" opacity="0.23" d="M104.146 206.176C104.334 217.432 53.1971 218.37 53.1971 208.99C53.1971 208.802 53.1971 208.802 53.1971 208.802C61.6262 214.806 91.5963 211.429 95.1553 207.114C97.2157 204.487 95.3426 201.861 93.0948 200.36C99.4635 201.111 104.146 202.799 104.146 206.176Z" fill="#845100"/>
<path id="Vector_25" opacity="0.56" d="M34.4657 197.171C33.5291 204.113 20.2299 204.113 16.2963 200.548C15.9216 200.173 15.547 199.798 15.3597 199.235C12.7373 193.232 24.3508 190.793 30.7194 192.856C32.9672 193.607 34.653 194.92 34.4657 197.171Z" fill="#7C2600"/>
<path id="Vector_26" d="M32.4053 195.107C31.4687 202.049 18.1694 202.049 14.2358 198.484C13.8612 198.109 13.4866 197.734 13.2993 197.171C10.6769 191.168 22.2903 188.729 28.659 190.792C30.9067 191.543 32.7799 193.044 32.4053 195.107Z" fill="#FFF3D2"/>
<path id="Vector_27" opacity="0.23" d="M32.4052 195.108C31.4686 202.049 18.1694 202.049 14.2358 198.484C17.982 198.672 22.1029 198.484 25.2873 197.171C29.2209 195.483 29.4082 192.856 28.6589 190.793C30.9067 191.543 32.7798 193.044 32.4052 195.108Z" fill="#845100"/>
<path id="Vector_28" opacity="0.48" d="M42.1455 199.61C47.203 201.298 51.5112 199.61 51.5112 199.61L123.065 196.984C123.065 196.984 126.998 199.61 131.869 199.61C136.739 199.422 139.923 196.233 139.923 196.233L197.428 178.223L128.122 173.346L42.1455 199.61Z" fill="#7C2600"/>
<path id="Vector_29" d="M193.682 111.437C190.872 130.384 187.501 150.646 185.253 163.965C183.567 173.158 182.631 179.349 182.631 179.349C179.634 180.475 176.075 181.6 172.516 182.726C161.277 186.103 148.165 189.292 139.361 191.356C133.367 192.669 129.434 193.607 129.434 193.607L129.808 178.411L130.557 133.199L130.745 121.567L130.932 113.688L193.682 111.437Z" fill="#BF6426"/>
<g id="Group_2" opacity="0.44">
<path id="Vector_30" d="M144.418 136.2C144.418 136.763 144.044 137.138 143.482 137.138C142.92 137.138 142.545 136.763 142.545 136.2C142.545 135.637 142.92 135.262 143.482 135.262C143.857 135.262 144.418 135.637 144.418 136.2Z" fill="#7C2600"/>
<path id="Vector_31" d="M147.041 170.531C147.041 171.469 146.292 172.407 145.168 172.407C144.231 172.407 143.295 171.657 143.295 170.531C143.295 169.593 144.044 168.655 145.168 168.655C146.292 168.655 147.041 169.593 147.041 170.531Z" fill="#7C2600"/>
<path id="Vector_32" d="M143.107 161.901C143.107 162.464 142.733 162.839 142.171 162.839C141.609 162.839 141.234 162.464 141.234 161.901C141.234 161.339 141.609 160.963 142.171 160.963C142.545 160.963 143.107 161.339 143.107 161.901Z" fill="#7C2600"/>
<path id="Vector_33" d="M179.072 131.51C179.072 132.26 178.51 132.823 177.76 132.823C177.011 132.823 176.449 132.26 176.449 131.51C176.449 130.759 177.011 130.197 177.76 130.197C178.51 130.197 179.072 130.759 179.072 131.51Z" fill="#7C2600"/>
<path id="Vector_34" d="M156.032 146.143C156.032 146.518 155.657 146.894 155.283 146.894C154.908 146.894 154.533 146.518 154.533 146.143C154.533 145.768 154.908 145.393 155.283 145.393C155.657 145.393 156.032 145.768 156.032 146.143Z" fill="#7C2600"/>
<path id="Vector_35" d="M158.842 172.595C159.404 172.595 159.778 172.22 159.778 171.657C159.778 171.094 159.404 170.719 158.842 170.719C158.28 170.719 157.905 171.094 157.905 171.657C157.905 172.22 158.28 172.595 158.842 172.595Z" fill="#7C2600"/>
<path id="Vector_36" d="M184.691 138.264C184.691 139.014 183.942 139.764 183.192 139.764C182.443 139.764 181.694 139.014 181.694 138.264C181.694 137.513 182.443 136.763 183.192 136.763C183.942 136.763 184.691 137.325 184.691 138.264Z" fill="#7C2600"/>
<path id="Vector_37" d="M174.576 165.278C174.576 166.029 174.014 166.592 173.265 166.592C172.516 166.592 171.954 166.029 171.954 165.278C171.954 164.528 172.516 163.965 173.265 163.965C174.014 163.965 174.576 164.528 174.576 165.278Z" fill="#7C2600"/>
</g>
<path id="Vector_38" opacity="0.56" d="M193.682 111.437C190.873 130.384 187.501 150.646 185.253 163.965C183.567 173.158 182.631 179.349 182.631 179.349C179.634 180.475 176.075 181.6 172.516 182.726C176.449 163.59 174.951 133.011 172.141 132.636C168.582 131.885 147.978 135.45 136.739 133.949C134.304 133.574 132.431 133.386 130.558 133.199L130.932 113.688L193.682 111.437Z" fill="#7C2600"/>
<path id="Vector_39" d="M185.253 163.965C183.567 173.158 182.631 179.349 182.631 179.349C179.634 180.475 176.075 181.6 172.516 182.726C153.597 188.354 129.621 193.607 129.621 193.607L129.996 178.411C138.612 175.972 142.358 179.161 156.969 176.16C165.023 174.471 169.706 171.282 174.576 168.28C177.386 166.404 180.758 164.903 185.253 163.965Z" fill="#F7E6B5"/>
<path id="Vector_40" opacity="0.56" d="M140.298 121.192C140.298 121.192 139.736 166.029 139.361 191.168C133.367 192.481 129.434 193.419 129.434 193.419L129.808 178.223L130.745 133.198L130.932 121.567C136.739 121.192 140.298 121.192 140.298 121.192Z" fill="#7C2600"/>
<path id="Vector_41" opacity="0.23" d="M185.253 163.965C183.567 173.158 182.631 179.349 182.631 179.349C179.634 180.475 176.075 181.6 172.516 182.726C173.452 178.411 174.014 173.533 174.389 168.468C177.386 166.404 180.757 164.903 185.253 163.965Z" fill="#845100"/>
<path id="Vector_42" opacity="0.56" d="M151.724 142.203C145.73 148.769 145.355 164.716 157.531 167.342C169.706 170.156 173.452 159.088 172.89 152.521C172.328 146.143 161.652 143.892 159.216 150.083C157.531 154.022 159.029 156.274 161.652 156.461C164.274 156.649 166.522 160.401 161.839 161.714C157.156 162.84 150.787 156.836 153.972 148.582C157.343 140.327 169.144 139.014 173.827 146.893C178.51 154.773 172.516 161.902 173.827 162.652C176.824 164.34 181.319 155.898 178.51 146.893C175.7 138.264 160.715 132.635 151.724 142.203Z" fill="#7C2600"/>
<path id="Vector_43" d="M150.787 139.202C144.793 145.768 144.419 161.714 156.594 164.341C168.769 167.155 172.516 156.086 171.954 149.52C171.392 143.142 160.715 140.89 158.28 147.081C156.594 151.021 158.093 153.272 160.715 153.46C163.337 153.647 165.585 157.399 160.902 158.713C156.219 159.838 149.851 153.835 153.035 145.58C156.407 137.326 168.207 136.013 172.89 143.892C177.573 151.771 171.579 158.9 172.89 159.651C175.887 161.339 180.383 152.897 177.573 143.892C174.763 135.262 159.778 129.634 150.787 139.202Z" fill="#FFF3D2"/>
<path id="Vector_44" d="M208.293 114.438C207.356 116.314 202.299 123.443 196.679 124.756C194.806 125.131 188.437 125.882 180.383 126.82C165.398 128.321 144.044 129.821 133.367 129.259C133.367 129.259 132.805 127.945 131.681 125.507C126.999 115.188 113.512 84.9842 103.584 61.5338C91.4091 32.6429 82.98 5.44042 82.98 5.44042C84.2912 3.00157 102.086 1.87595 116.696 2.06356C126.249 2.25116 134.491 3.00157 135.99 4.5024C139.923 8.44207 168.395 53.2793 180.758 74.8536C193.12 96.6156 209.229 112.562 208.293 114.438Z" fill="#F7E6B5"/>
<path id="Vector_45" opacity="0.23" d="M208.293 114.438C207.356 116.314 202.299 123.443 196.679 124.756C194.806 125.131 188.437 125.882 180.383 126.82C180.383 126.632 180.57 126.632 180.57 126.445C186.19 107.122 171.767 82.9208 168.77 82.9208C165.96 82.7331 145.168 83.6712 143.857 80.6695C142.546 77.8555 133.929 64.5356 133.929 64.5356C133.929 64.5356 138.237 65.6612 134.866 51.2158C131.12 36.9579 116.696 2.62653 116.696 2.62653V2.06372C126.249 2.25132 134.491 3.00174 135.99 4.50256C139.923 8.44223 168.395 53.2794 180.758 74.8538C193.12 96.6158 209.229 112.562 208.293 114.438Z" fill="#845100"/>
<path id="Vector_46" d="M208.293 114.438C207.356 116.314 202.299 123.443 196.679 124.756C191.06 126.069 149.851 130.009 133.367 129.259C133.367 129.259 132.805 127.945 131.681 125.506L137.488 120.066C137.301 119.878 173.265 119.503 208.293 114.438Z" fill="#F2DB95"/>
<path id="Vector_47" d="M130.932 121.379C130.932 125.694 130.745 130.384 130.745 135.074C130.557 150.458 130.183 166.967 129.808 178.598C129.434 187.603 129.434 193.419 129.434 193.419C124.376 194.17 118.944 194.545 113.137 195.108C90.4724 196.796 63.8739 196.984 50.3873 196.796C45.1425 196.796 41.9582 196.608 41.9582 196.608L40.8343 184.414L35.9642 125.694V125.319L34.8403 111.061C34.8403 111.061 81.4813 18.948 83.5418 18.7604C85.7895 18.3852 131.119 109.748 131.119 109.748C130.932 113.5 130.932 117.44 130.932 121.379Z" fill="#DB7E33"/>
<g id="Group_3" opacity="0.44">
<path id="Vector_48" d="M82.6053 64.9111C83.3545 64.9111 83.9165 64.3483 83.9165 63.5979C83.9165 62.8475 83.3545 62.2847 82.6053 62.2847C81.856 62.2847 81.2941 62.8475 81.2941 63.5979C81.2941 64.3483 81.856 64.9111 82.6053 64.9111Z" fill="#7C2600"/>
<path id="Vector_49" d="M79.7955 71.4771C79.7955 72.0399 79.4209 72.4152 78.8589 72.4152C78.297 72.4152 77.9224 72.0399 77.9224 71.4771C77.9224 70.9143 78.297 70.5391 78.8589 70.5391C79.4209 70.3515 79.7955 70.9143 79.7955 71.4771Z" fill="#7C2600"/>
<path id="Vector_50" d="M89.3485 72.7904C89.3485 73.9161 88.4119 74.8541 87.288 74.8541C86.1642 74.8541 85.2276 73.9161 85.2276 72.7904C85.2276 71.6648 86.1642 70.7268 87.288 70.7268C88.4119 70.7268 89.3485 71.6648 89.3485 72.7904Z" fill="#7C2600"/>
<path id="Vector_51" d="M57.1306 111.062C57.1306 111.812 56.5686 112.375 55.8194 112.375C55.0701 112.375 54.5082 111.812 54.5082 111.062C54.5082 110.311 55.0701 109.748 55.8194 109.748C56.7559 109.748 57.1306 110.311 57.1306 111.062Z" fill="#7C2600"/>
<path id="Vector_52" d="M65.7469 93.8018C65.7469 94.177 65.3723 94.5522 64.9977 94.5522C64.4357 94.5522 64.2484 94.177 64.2484 93.8018C64.2484 93.4266 64.623 93.0514 64.9977 93.0514C65.3723 93.0514 65.7469 93.4266 65.7469 93.8018Z" fill="#7C2600"/>
<path id="Vector_53" d="M108.267 108.435C108.267 109.186 107.518 109.936 106.769 109.936C106.019 109.936 105.27 109.186 105.27 108.435C105.27 107.685 106.019 106.934 106.769 106.934C107.705 106.934 108.267 107.497 108.267 108.435Z" fill="#7C2600"/>
<path id="Vector_54" d="M80.9193 109.748C80.9193 110.499 80.3573 111.062 79.6081 111.062C78.8588 111.062 78.2969 110.499 78.2969 109.748C78.2969 108.998 78.8588 108.435 79.6081 108.435C80.17 108.435 80.9193 108.998 80.9193 109.748Z" fill="#7C2600"/>
</g>
<g id="Group_4" opacity="0.45">
<path id="Vector_55" d="M54.5082 146.518C54.5082 147.644 53.5717 148.394 52.6351 148.394C51.5112 148.394 50.762 147.456 50.762 146.518C50.762 145.393 51.6985 144.642 52.6351 144.642C53.5717 144.642 54.5082 145.393 54.5082 146.518Z" fill="#7C2600"/>
<path id="Vector_56" d="M52.8224 155.335C52.8224 155.898 52.4477 156.273 51.8858 156.273C51.3238 156.273 50.9492 155.898 50.9492 155.335C50.9492 154.773 51.3238 154.397 51.8858 154.397C52.2604 154.397 52.8224 154.96 52.8224 155.335Z" fill="#7C2600"/>
<path id="Vector_57" d="M56.0067 169.218C56.0067 170.156 55.2575 170.907 54.3209 170.907C53.3843 170.907 52.6351 170.156 52.6351 169.218C52.6351 168.28 53.3843 167.53 54.3209 167.53C55.2575 167.53 56.0067 168.28 56.0067 169.218Z" fill="#7C2600"/>
<path id="Vector_58" d="M54.5082 181.225C54.5082 181.788 54.1336 182.163 53.5716 182.163C53.0097 182.163 52.6351 181.788 52.6351 181.225C52.6351 180.662 53.0097 180.287 53.5716 180.287C54.1336 180.287 54.5082 180.662 54.5082 181.225Z" fill="#7C2600"/>
<path id="Vector_59" d="M107.705 176.722C107.705 177.66 106.956 178.411 106.019 178.411C105.083 178.411 104.334 177.66 104.334 176.722C104.334 175.784 105.083 175.034 106.019 175.034C106.956 175.034 107.705 175.784 107.705 176.722Z" fill="#7C2600"/>
<path id="Vector_60" d="M114.823 160.588C114.823 161.151 114.449 161.339 114.074 161.339C113.512 161.339 113.325 160.964 113.325 160.588C113.325 160.026 113.699 159.838 114.074 159.838C114.449 159.65 114.823 160.026 114.823 160.588Z" fill="#7C2600"/>
<path id="Vector_61" d="M117.071 175.596C118.382 175.596 119.506 174.471 119.506 173.158C119.506 171.844 118.382 170.719 117.071 170.719C115.76 170.719 114.636 171.844 114.636 173.158C114.636 174.471 115.76 175.596 117.071 175.596Z" fill="#7C2600"/>
<path id="Vector_62" d="M113.137 140.327C113.137 141.078 112.575 141.64 111.826 141.64C111.077 141.64 110.515 141.078 110.515 140.327C110.515 139.577 111.077 139.014 111.826 139.014C112.575 139.014 113.137 139.577 113.137 140.327Z" fill="#7C2600"/>
<path id="Vector_63" d="M87.6627 144.079C87.6627 144.829 87.1007 145.205 86.5388 145.205C85.7895 145.205 85.4149 144.642 85.4149 144.079C85.4149 143.329 85.9769 142.953 86.5388 142.953C87.1007 142.766 87.6627 143.516 87.6627 144.079Z" fill="#7C2600"/>
<path id="Vector_64" d="M63.312 145.392C63.312 146.143 62.7501 146.706 62.0008 146.706C61.2516 146.706 60.6896 146.143 60.6896 145.392C60.6896 144.642 61.2516 144.079 62.0008 144.079C62.7501 144.079 63.312 144.642 63.312 145.392Z" fill="#7C2600"/>
</g>
<path id="Vector_65" opacity="0.56" d="M130.932 121.38C130.932 125.694 130.745 130.384 130.745 135.075C130.557 150.458 130.183 166.967 129.808 178.599C129.434 187.603 129.434 193.419 129.434 193.419C124.376 194.17 118.944 194.545 113.137 195.108C114.448 178.223 115.572 156.649 114.448 150.646C112.388 140.515 107.705 137.889 104.146 142.203C100.4 146.331 94.7806 144.08 91.0343 140.515C87.288 136.951 84.853 139.202 82.6052 140.515C80.3574 141.828 79.6082 149.332 72.303 148.77C65.1851 148.207 63.4992 139.577 62.188 138.639C60.8769 137.701 59.3783 143.329 54.5082 142.766C49.638 142.203 47.9522 138.827 46.641 140.327C45.3298 142.016 48.8888 170.907 50.3873 187.603C50.7619 191.356 50.5746 194.357 50.2 196.608C44.9552 196.608 41.7709 196.421 41.7709 196.421L40.647 184.227L35.7769 125.694V125.319C66.1216 124.006 111.451 122.318 130.932 121.38Z" fill="#7C2600"/>
<path id="Vector_66" opacity="0.56" d="M130.745 135.074C124.189 134.136 120.63 132.073 111.826 116.127C100.587 96.2406 84.853 56.6563 83.3545 55.1555C82.0433 53.8422 76.2366 70.9141 60.1276 97.7414C52.6351 110.311 43.4567 119.316 35.7769 125.507L34.4657 111.061C34.4657 111.061 81.1067 18.948 83.1672 18.7604C85.415 18.3852 130.745 109.748 130.745 109.748C130.932 117.252 130.932 125.882 130.745 135.074Z" fill="#7C2600"/>
<path id="Vector_67" d="M129.808 178.599C129.434 187.603 129.434 193.419 129.434 193.419C97.2158 197.734 41.9583 196.796 41.9583 196.796L40.8344 184.602C43.6441 184.414 47.765 184.414 52.4478 185.727C62.9374 188.354 71.3665 181.975 82.6053 183.101C90.6598 183.851 88.2247 185.54 100.213 186.665C112.014 187.416 121.005 180.287 129.808 178.599Z" fill="#FFF3D2"/>
<g id="doorjamb" clip-path="url(#clip1_666_1700)">
<path id="Vector_68" d="M44.0187 199.61C43.4567 199.61 42.8948 199.61 42.3329 199.61C41.0217 199.61 39.7105 198.86 38.7739 197.922C38.3993 197.546 38.212 197.359 38.0246 196.984C37.65 196.421 37.65 195.858 37.4627 195.295C37.2754 193.607 37.0881 191.731 36.9008 190.042C36.7134 187.603 36.5261 184.977 36.3388 182.538C36.1515 180.099 35.9642 177.66 35.7769 175.409C35.5896 172.783 35.4023 169.969 35.2149 167.155C35.0276 164.716 34.8403 162.277 34.653 160.026C34.4657 157.399 34.2784 154.585 34.0911 151.959C33.9037 149.708 33.7164 147.456 33.5291 145.393C33.5291 145.205 33.5291 145.017 33.5291 144.83C33.3418 142.016 33.1545 139.389 32.9672 136.763C32.7799 134.324 32.5926 131.885 32.4052 129.634C32.2179 126.82 32.0306 124.006 31.8433 121.567C31.656 118.941 31.4687 116.314 31.2814 114.251C31.094 113.125 31.094 111.999 31.094 111.249C30.9067 108.435 33.1545 106.184 35.9642 106.184H36.1515C37.4627 106.184 38.7739 106.934 39.7105 107.872C40.2724 108.622 40.647 109.56 40.8343 110.498C41.0217 111.812 41.0217 113.125 41.209 114.626C41.3963 117.065 41.5836 119.503 41.7709 122.13C41.9582 124.569 42.1455 127.195 42.3329 129.822C42.5202 132.26 42.7075 134.699 43.0821 137.326C43.2694 139.765 43.644 142.391 43.8314 144.83C44.0187 147.269 44.206 149.895 44.5806 152.334C44.7679 154.96 45.1426 157.399 45.3299 159.838C45.5172 162.465 45.8918 165.091 46.0791 167.53C46.4537 170.156 46.6411 172.783 46.8284 175.034C47.0157 177.66 47.3903 180.099 47.5776 182.351C47.9523 185.165 48.1396 187.603 48.3269 189.855C48.5142 191.543 48.7015 193.044 48.7015 194.17C48.8888 197.171 46.8284 199.61 44.0187 199.61Z" fill="#FFF3D2"/>
<path id="Vector_69" opacity="0.28" d="M44.0187 199.61C43.4567 199.61 42.8948 199.61 42.3329 199.61C41.0217 199.61 39.7105 198.86 38.7739 197.922C40.8343 197.171 42.5202 195.858 42.7075 193.419C43.2694 187.416 38.7739 146.706 38.7739 146.706C36.7134 146.519 35.0276 145.956 33.5291 145.205C33.5291 145.018 33.5291 144.83 33.5291 144.642C33.3418 141.828 33.1545 139.202 32.9672 136.576C32.7799 134.137 32.5926 131.698 32.4052 129.447C32.2179 126.633 32.0306 123.819 31.8433 121.38C31.656 118.753 31.4687 116.127 31.2814 114.063C31.094 112.938 31.094 111.812 31.094 111.062C30.9067 108.247 33.1545 105.996 35.9642 105.996H36.1515C37.4627 105.996 38.7739 106.747 39.7105 107.685C40.2724 108.435 40.647 109.373 40.8343 110.311C41.0217 111.624 41.0217 112.938 41.209 114.438C41.3963 116.877 41.5836 119.316 41.7709 121.942C41.9582 124.381 42.1455 127.008 42.3329 129.634C42.5202 132.073 42.7075 134.512 43.0821 137.138C43.2694 139.577 43.644 142.204 43.8314 144.642C44.0187 147.081 44.206 149.708 44.5806 152.147C44.7679 154.773 45.1426 157.212 45.3299 159.651C45.5172 162.277 45.8918 164.904 46.0791 167.342C46.4537 169.969 46.6411 172.595 46.8284 174.847C47.0157 177.473 47.3903 179.912 47.5776 182.163C47.9523 184.977 48.1396 187.416 48.3269 189.667C48.5142 191.356 48.7015 192.857 48.7015 193.982C48.8888 197.171 46.8284 199.61 44.0187 199.61Z" fill="#904A17"/>
<path id="Vector_70" d="M136.739 133.011C136.739 135.637 136.739 138.452 136.739 141.266C136.739 143.704 136.739 146.331 136.739 148.77C136.739 151.396 136.739 154.21 136.552 157.024C136.552 159.463 136.552 162.09 136.552 164.528C136.552 167.342 136.364 170.156 136.364 172.971C136.364 175.409 136.177 177.848 136.177 180.287C136.177 182.914 135.99 185.54 135.99 188.166C135.99 189.48 135.802 190.793 135.802 192.106C135.802 193.232 135.428 194.17 134.679 194.92C133.929 195.858 132.805 196.609 131.307 196.609C130.745 196.796 130.183 196.796 129.621 196.796C127.935 196.984 126.249 196.046 125.5 194.733C124.938 193.982 124.564 192.857 124.564 191.918C124.564 190.98 124.751 189.667 124.751 188.542C124.938 186.29 124.938 183.664 124.938 180.662C125.126 178.223 125.126 175.597 125.126 172.971C125.313 170.344 125.313 167.718 125.313 164.904C125.5 162.277 125.5 159.651 125.5 156.837C125.687 154.21 125.687 151.396 125.687 148.582C125.687 147.644 125.687 146.706 125.875 145.768C125.875 144.08 126.062 142.391 126.062 140.89C126.249 138.076 126.249 135.262 126.249 132.261C126.437 129.634 126.437 127.195 126.437 124.757C126.624 121.942 126.624 119.316 126.624 116.69C126.624 113.876 126.811 111.061 126.811 108.435V107.872C126.811 105.809 128.123 103.933 130.183 103.37C130.558 103.182 130.932 103.182 131.12 103.182H131.307C134.117 102.995 136.364 105.058 136.552 107.872C136.552 108.435 136.552 108.81 136.552 109.185C136.552 111.249 136.552 113.876 136.552 117.065C136.552 119.504 136.552 122.318 136.552 125.319C136.739 127.571 136.739 130.197 136.739 133.011Z" fill="#FFF3D2"/>
<path id="Vector_71" opacity="0.28" d="M136.739 133.011C136.739 135.637 136.739 138.451 136.739 141.265C136.739 143.704 136.739 146.331 136.739 148.769C136.739 151.396 136.739 154.21 136.552 157.024C136.552 159.463 136.552 162.089 136.552 164.528C136.552 167.342 136.364 170.156 136.364 172.97C136.364 175.409 136.177 177.848 136.177 180.287C136.177 182.913 135.99 185.54 135.99 188.166C135.99 189.479 135.802 190.793 135.802 192.106C135.802 193.231 135.428 194.169 134.678 194.92C133.929 195.858 132.805 196.608 131.307 196.608C130.745 196.796 130.183 196.796 129.621 196.796C127.935 196.984 126.249 196.045 125.5 194.732C129.059 195.107 132.243 192.293 131.869 187.791C131.307 181.788 131.12 144.642 131.12 144.642C129.059 145.393 127.373 145.58 125.875 145.58C125.875 143.892 126.062 142.203 126.062 140.703C126.249 137.888 126.249 135.074 126.249 132.073C126.437 129.446 126.437 127.007 126.437 124.569C126.624 121.755 126.624 119.128 126.624 116.502C126.624 113.688 126.811 110.874 126.811 108.247V107.684C126.811 105.621 128.123 103.745 130.183 103.182C130.558 102.994 130.932 102.994 131.12 102.994H131.307C134.117 102.807 136.364 104.87 136.552 107.684C136.552 108.247 136.552 108.622 136.552 108.998C136.552 111.061 136.552 113.688 136.552 116.877C136.552 119.316 136.552 122.13 136.552 125.131C136.739 127.57 136.739 130.197 136.739 133.011Z" fill="#904A17"/>
<g id="doorjamb-facade" clip-path="url(#clip2_666_1700)">
<path id="Vector_72" d="M52.4478 93.0513C53.0098 91.7381 54.1336 90.8001 55.2575 90.0497C55.8195 89.6745 56.3814 89.2993 56.756 89.1117C56.9433 88.9241 57.1307 88.9241 57.1307 88.9241C59.3784 92.8637 63.4993 100.18 67.0583 106.559C68.9314 109.748 70.6172 112.75 71.7411 115.001L73.2396 117.627L73.6142 118.378H67.4329C66.1217 116.502 64.8105 114.438 63.6866 112.562C61.0642 108.81 59.0038 105.246 57.318 102.244C56.9433 101.681 56.5687 100.931 56.1941 100.368C54.8829 98.1166 53.9463 96.2406 53.1971 94.9274C52.8224 94.3646 52.6351 93.8018 52.4478 93.4265C52.4478 93.2389 52.4478 93.2389 52.4478 93.0513Z" fill="white" stroke="#BDA499" stroke-width="0.198507"/>
<path id="Vector_73" d="M102.086 94.7398C103.397 92.4885 104.521 90.4249 105.458 88.9241C105.645 88.9241 105.645 89.1117 105.832 89.1117C106.207 89.2993 106.769 89.6745 107.331 90.0497C108.455 90.8001 109.578 91.7381 110.14 93.0513C110.14 93.0513 109.953 93.2389 109.953 93.4265C109.766 93.8018 109.578 94.177 109.204 94.9274C108.455 96.2406 107.518 98.1166 106.207 100.368C103.584 104.87 99.8382 111.249 94.968 118.378H88.7867L88.974 118.003C89.1613 117.627 89.5359 117.065 89.9106 116.502C90.6598 115.189 91.7837 113.312 92.9076 111.061C94.0315 109.185 95.3426 106.934 96.4665 104.683C98.527 101.118 100.4 97.7414 102.086 94.7398Z" fill="white" stroke="#BDA499" stroke-width="0.198507"/>
<path id="Vector_74" d="M47.765 187.416C47.765 188.166 47.9523 189.104 47.9523 189.855C44.0187 193.419 40.4598 195.483 38.212 196.609C38.0247 196.233 37.8374 195.671 37.8374 195.108C37.6501 194.357 37.6501 193.419 37.6501 192.481C37.6501 191.731 37.4628 190.793 37.4628 190.043C41.771 187.979 45.1426 185.165 47.3904 182.914C47.5777 184.602 47.5777 186.103 47.765 187.416Z" fill="white" stroke="#BDA499" stroke-width="0.198507"/>
<path id="Vector_75" d="M45.8917 168.468C46.079 170.719 46.4537 172.971 46.641 175.034C42.7074 178.599 39.1484 180.85 36.7134 181.976L36.1514 175.222C40.4596 172.971 43.8313 170.157 45.8917 167.905C45.8917 168.093 45.8917 168.28 45.8917 168.468Z" fill="white" stroke="#BDA499" stroke-width="0.198507"/>
<path id="Vector_76" d="M44.9551 156.274C45.1425 157.399 45.1425 158.525 45.3298 159.838C41.5835 163.402 38.0245 165.466 35.5895 166.779C35.5895 165.654 35.4022 164.528 35.4022 163.402C35.4022 162.277 35.2148 161.151 35.2148 159.838C39.3357 157.587 42.7074 154.773 44.7678 152.521C44.7678 153.835 44.7678 154.96 44.9551 156.274Z" fill="white" stroke="#BDA499" stroke-width="0.198507"/>
<path id="Vector_77" d="M43.2694 137.701C43.4567 140.14 43.644 142.391 43.8314 144.83C40.0851 148.207 36.7134 150.458 34.2784 151.584C34.2784 150.458 34.0911 149.52 34.0911 148.394V148.207C34.0911 147.081 33.9037 145.955 33.9037 144.83C38.0246 142.579 41.209 139.765 43.2694 137.701Z" fill="white" stroke="#BDA499" stroke-width="0.198507"/>
<path id="Vector_78" d="M41.9582 122.505C42.1455 124.756 42.3328 127.195 42.5201 129.634C38.9612 132.823 35.7769 135.074 33.3418 136.388C33.3418 135.262 33.1545 134.324 33.1545 133.198V133.011C33.1545 131.885 32.9672 130.759 32.9672 129.634C36.9007 127.383 39.8978 124.756 41.9582 122.505Z" fill="white" stroke="#BDA499" stroke-width="0.198507"/>
<path id="Vector_79" d="M41.0216 110.498C41.0216 111.812 41.2089 113.312 41.3962 114.626C38.0246 117.815 34.8403 119.879 32.4052 121.192C32.4052 120.254 32.2179 119.128 32.2179 118.19C32.2179 116.689 32.0306 115.376 32.0306 114.25C35.4022 112.374 38.2119 109.936 40.2724 108.06C40.647 108.622 41.0216 109.56 41.0216 110.498Z" fill="white" stroke="#BDA499" stroke-width="0.198507"/>
<path id="Vector_80" d="M125.5 181.037C128.122 183.289 131.681 186.29 135.99 188.166C135.99 188.729 135.99 189.48 135.99 190.042C135.99 190.793 135.99 191.356 135.99 192.106C135.99 193.044 135.615 193.982 135.053 194.733C132.993 193.795 129.434 191.918 125.5 188.354C125.5 187.228 125.5 185.915 125.687 184.414C125.5 183.476 125.5 182.163 125.5 181.037Z" fill="white" stroke="#BDA499" stroke-width="0.198507"/>
<path id="Vector_81" d="M126.062 165.279C128.31 167.53 131.681 170.719 136.364 172.97C136.364 174.096 136.364 175.409 136.364 176.535C136.364 177.66 136.364 178.786 136.364 179.912C133.929 178.786 130.183 176.535 126.062 172.783C126.062 171.469 126.062 170.156 126.249 168.843C126.062 167.717 126.062 166.404 126.062 165.279Z" fill="white" stroke="#BDA499" stroke-width="0.198507"/>
<path id="Vector_82" d="M136.364 136.619C136.364 139.628 136.364 140.399 136.364 144.926C133.049 144.18 130.183 142.261 126.437 138.509C126.444 137.564 126.444 134.729 126.444 130.949C129.274 132.839 131.162 136.619 136.364 136.619Z" fill="white" stroke="#BDA499" stroke-width="0.198507"/>
<path id="Vector_83" d="M136.364 153.63C136.364 156.639 136.364 157.411 136.364 161.937C133.049 161.191 130.183 159.273 126.437 155.521C126.444 154.575 126.444 151.74 126.444 147.96C129.274 149.85 131.162 153.63 136.364 153.63Z" fill="white" stroke="#BDA499" stroke-width="0.198507"/>
<path id="Vector_84" d="M126.998 124.569C127.186 121.942 127.186 119.316 127.186 116.877C127.373 116.877 127.373 116.877 127.56 116.877H127.748C127.748 116.877 127.748 116.877 127.935 117.064C128.122 117.252 128.122 117.44 128.31 117.627C128.684 118.19 129.246 118.753 129.995 119.691C131.494 121.379 133.742 123.443 136.739 125.507C133.929 130.759 130.37 128.133 126.998 124.569Z" fill="white" stroke="#BDA499" stroke-width="0.198507"/>
</g>
</g>
<path id="Vector_85" opacity="0.38" d="M110.515 93.0512C110.515 93.0512 105.083 104.307 95.1553 118.565H88.5994C88.5994 118.565 90.4725 115.376 92.9076 110.874H97.4031L104.146 99.4297L101.899 94.552C103.21 92.3008 104.334 90.2372 105.27 88.7363C105.458 88.7363 109.391 90.4248 110.515 93.0512Z" fill="#540000"/>
<path id="Vector_86" opacity="0.38" d="M73.9889 118.378H67.4329C66.1217 116.314 64.8105 114.438 63.4993 112.562H67.8075L59.1911 96.6159L56.1941 100.368C53.5717 95.8655 52.2605 92.8638 52.2605 92.8638C53.3844 90.2374 57.318 88.549 57.318 88.549C61.6262 96.4283 73.9889 118.378 73.9889 118.378Z" fill="#540000"/>
<path id="Vector_87" d="M132.431 133.386C131.307 138.639 129.246 142.766 125.5 142.579C116.322 142.016 114.449 131.885 109.766 132.073C104.896 132.448 104.521 140.14 98.1523 140.89C91.7836 141.641 91.2217 134.512 85.2276 135.637C79.2336 136.575 80.3575 146.331 73.8015 146.893C67.0582 147.456 66.8709 135.637 62.5627 135.637C58.2545 135.637 58.2545 141.078 54.5082 140.89C50.762 140.515 50.9493 136.012 47.203 136.763C43.4567 137.513 44.9552 142.579 37.2754 143.329C35.2149 143.517 33.9038 142.203 32.7799 140.14C31.094 137.138 30.5321 132.26 30.1575 127.945C29.9702 123.818 30.1575 120.066 30.3448 119.316C30.7194 117.815 36.1515 116.689 44.5806 115.751C60.5023 114.063 86.3515 113.688 106.019 113.688C107.893 113.688 109.766 113.688 111.452 113.688C124.002 113.875 132.805 114.063 132.993 114.438C133.742 115.001 134.304 125.507 132.431 133.386Z" fill="#FFF3D2"/>
<path id="Vector_88" opacity="0.31" d="M132.431 133.386C131.307 138.639 129.246 142.766 125.5 142.578C116.322 142.016 114.448 131.885 109.766 132.073C104.896 132.448 104.521 140.14 98.1522 140.89C91.7836 141.64 91.2216 134.511 85.2276 135.637C79.2336 136.575 80.3575 146.33 73.8015 146.893C67.0582 147.456 66.8709 135.637 62.5627 135.637C58.2545 135.637 58.2545 141.078 54.5082 140.89C50.7619 140.515 50.9492 136.012 47.203 136.763C43.4567 137.513 44.9552 142.578 37.2754 143.329C35.2149 143.516 33.9037 142.203 32.7798 140.14C41.5836 141.453 43.2694 134.136 46.8284 132.635C50.7619 130.759 51.1366 138.826 55.8194 137.513C60.3149 136.2 58.6291 133.573 62.9373 133.761C67.2455 133.949 69.1187 144.642 73.9888 142.578C78.8589 140.515 80.5448 133.761 85.4149 132.823C90.2851 131.885 93.4694 139.389 97.2157 138.639C100.962 137.888 103.772 130.197 107.893 129.071C112.201 127.945 115.198 132.635 116.696 131.322C118.007 130.384 112.95 116.314 106.019 113.5C107.893 113.5 109.766 113.5 111.451 113.5C124.001 113.687 132.805 113.875 132.993 114.25C133.742 115.001 134.304 125.506 132.431 133.386Z" fill="#845100"/>
<path id="Vector_89" opacity="0.23" d="M44.5805 115.939C39.3357 121.192 34.4656 125.131 30.3447 127.945C29.9701 123.63 30.1574 119.878 30.532 119.316C30.7193 117.815 36.3387 116.689 44.5805 115.939Z" fill="#845100"/>
<path id="Vector_90" opacity="0.23" d="M132.431 133.386C124.563 132.448 121.379 131.322 111.639 114.25C111.452 114.063 111.452 113.875 111.264 113.688C123.814 113.875 132.618 114.063 132.805 114.438C133.742 115.001 134.304 125.507 132.431 133.386Z" fill="#845100"/>
<path id="Vector_91" d="M101.149 196.796C101.149 196.796 81.8561 198.485 72.1158 197.734L70.8046 161.902L74.3635 161.714L99.8381 160.776L101.149 194.357V196.796Z" fill="#301706"/>
<path id="Vector_92" d="M74.7382 195.295C74.3636 195.67 71.9285 197.921 71.9285 197.921L70.6173 162.089L74.1763 161.902C74.5509 171.094 75.1128 194.92 74.7382 195.295Z" fill="#301706"/>
<path id="Vector_93" d="M101.149 194.545C100.213 194.732 99.0888 194.732 97.7776 194.732C97.5903 194.732 97.403 194.732 97.2156 194.732C96.841 194.732 96.4664 194.732 95.9044 194.92C94.4059 195.108 92.9074 195.108 91.2216 195.108C90.847 195.108 90.285 195.108 89.9104 195.108C88.4119 195.108 87.1007 195.295 85.6022 195.295C85.2276 195.295 84.6656 195.295 84.291 195.295C82.7925 195.295 81.294 195.483 79.9828 195.483C79.6082 195.483 79.0462 195.483 78.6716 195.483C76.2365 195.67 74.738 195.67 74.738 195.67L74.3634 172.783L74.1761 162.277L77.9224 162.089H79.0462L83.3544 161.902H84.4783L88.7865 161.714L89.9104 161.527L93.6567 161.339H94.9679L99.2761 161.151L101.149 194.545Z" fill="#6B2B00"/>
<g id="Group_5" opacity="0.52">
<path id="Vector_94" d="M79.9828 195.107C79.6081 195.107 79.0462 195.107 78.6716 195.107L77.9223 161.714H79.0462L79.9828 195.107Z" fill="#CC712A"/>
<path id="Vector_95" d="M85.6022 195.107C85.2276 195.107 84.6656 195.107 84.291 195.107L83.3544 161.526H84.4783L85.6022 195.107Z" fill="#CC712A"/>
<path id="Vector_96" d="M91.2216 194.92C90.847 194.92 90.285 194.92 89.9104 194.92L89.1611 161.339H90.285L91.2216 194.92Z" fill="#CC712A"/>
<path id="Vector_97" d="M97.2156 194.732C96.841 194.732 96.4663 194.732 95.9044 194.92L94.0312 161.339H95.1551L97.2156 194.732Z" fill="#CC712A"/>
</g>
<path id="Vector_98" opacity="0.46" d="M97.7776 194.732V168.843C97.7776 168.843 96.2791 172.595 90.6597 172.595C85.0403 172.783 87.4754 169.969 84.1038 168.843C80.7321 167.718 81.4814 172.032 76.2366 172.595C75.4873 172.783 74.9254 172.595 74.1761 172.408L73.9888 161.902L77.7351 161.714H78.859L83.1672 161.527H84.2911L88.5993 161.339L89.7232 161.151L93.4694 160.964H94.7806L99.0888 160.776L100.4 194.357C100.025 194.545 98.9015 194.545 97.7776 194.732Z" fill="#301706"/>
<path id="Vector_99" d="M79.0462 180.287C79.6082 180.287 80.1701 179.724 80.1701 179.161C80.1701 178.598 79.6082 178.036 79.0462 178.036C78.4843 178.036 77.9224 178.598 77.9224 179.161C77.9224 179.724 78.4843 180.287 79.0462 180.287Z" fill="#301706"/>
<path id="Vector_100" d="M105.27 166.404C101.899 167.717 100.775 165.091 98.5269 164.528C96.4665 163.965 95.5299 169.031 91.971 169.593C88.5993 170.156 85.9769 165.278 83.9165 165.091C81.856 164.903 80.7321 169.781 76.9859 169.593C73.2396 169.406 71.7411 166.779 69.6807 166.779C67.6202 166.592 65.9344 169.406 63.6866 168.468C61.4389 167.53 59.1911 157.399 61.4389 156.273C64.8105 154.585 92.1583 154.397 102.835 154.96C105.27 155.148 106.956 155.335 107.143 155.523C108.08 156.273 108.642 165.091 105.27 166.404Z" fill="#FFF3D2"/>
<path id="Vector_101" opacity="0.31" d="M105.27 166.404C101.899 167.717 100.775 165.091 98.5269 164.528C96.4664 163.965 95.5299 169.03 91.9709 169.593C88.5993 170.156 85.9769 165.278 83.9164 165.091C81.856 164.903 80.7321 169.781 76.9858 169.593C73.2396 169.406 71.7411 166.779 69.6806 166.779C67.6202 166.592 65.9343 169.406 63.6866 168.468C65.3724 167.342 66.4963 165.841 67.8075 164.903C70.0552 163.59 74.7381 167.53 77.3605 167.342C79.9829 167.154 82.2306 161.339 85.6023 163.027C88.9739 164.903 91.2217 166.029 95.5299 161.151C99.8381 156.273 101.149 163.027 103.397 161.714C104.708 160.963 103.959 157.587 103.022 154.773C105.457 154.96 107.143 155.148 107.331 155.335C108.08 156.273 108.642 165.091 105.27 166.404Z" fill="#845100"/>
<path id="Vector_102" d="M66.1217 154.585C67.2456 154.585 67.9949 153.647 67.9949 152.709C67.9949 151.584 67.0583 150.833 66.1217 150.833C64.9978 150.833 64.2486 151.771 64.2486 152.709C64.2486 153.647 65.1852 154.585 66.1217 154.585Z" fill="#7C2600"/>
<path id="Vector_103" d="M76.0492 153.272C77.1731 153.272 77.9224 152.334 77.9224 151.396C77.9224 150.27 76.9858 149.52 76.0492 149.52C74.9253 149.52 74.1761 150.458 74.1761 151.396C73.9888 152.522 74.9253 153.272 76.0492 153.272Z" fill="#7C2600"/>
<path id="Vector_104" d="M85.7896 152.521C86.9135 152.521 87.6628 151.583 87.6628 150.645C87.6628 149.52 86.7262 148.769 85.7896 148.769C84.6658 148.769 83.9165 149.707 83.9165 150.645C83.9165 151.771 84.6658 152.521 85.7896 152.521Z" fill="#7C2600"/>
<path id="Vector_105" d="M95.7171 152.521C96.841 152.521 97.5903 151.583 97.5903 150.645C97.5903 149.52 96.6537 148.769 95.7171 148.769C94.5932 148.769 93.844 149.707 93.844 150.645C93.844 151.771 94.7806 152.521 95.7171 152.521Z" fill="#7C2600"/>
<path id="Vector_106" d="M105.27 153.272C106.394 153.272 107.143 152.334 107.143 151.396C107.143 150.27 106.207 149.52 105.27 149.52C104.146 149.52 103.397 150.458 103.397 151.396C103.397 152.522 104.146 153.272 105.27 153.272Z" fill="#7C2600"/>
<path id="Vector_107" d="M64.2486 153.459C65.3725 153.459 66.1218 152.521 66.1218 151.583C66.1218 150.645 65.1852 149.707 64.2486 149.707C63.1247 149.707 62.3755 150.645 62.3755 151.583C62.3755 152.521 63.1247 153.459 64.2486 153.459Z" fill="#FFF3D2"/>
<path id="Vector_108" d="M73.9889 152.334C75.1127 152.334 75.862 151.396 75.862 150.458C75.862 149.52 74.9254 148.582 73.9889 148.582C73.0523 148.582 72.1157 149.52 72.1157 150.458C72.1157 151.396 72.865 152.334 73.9889 152.334Z" fill="#FFF3D2"/>
<path id="Vector_109" d="M83.7293 151.583C84.8532 151.583 85.6024 150.645 85.6024 149.707C85.6024 148.582 84.6658 147.831 83.7293 147.831C82.6054 147.831 81.8561 148.769 81.8561 149.707C81.8561 150.833 82.6054 151.583 83.7293 151.583Z" fill="#FFF3D2"/>
<path id="Vector_110" d="M93.844 151.583C94.9679 151.583 95.7172 150.645 95.7172 149.707C95.7172 148.582 94.7806 147.831 93.844 147.831C92.7201 147.831 91.9709 148.769 91.9709 149.707C91.9709 150.833 92.7201 151.583 93.844 151.583Z" fill="#FFF3D2"/>
<path id="Vector_111" d="M103.21 152.334C104.334 152.334 105.083 151.396 105.083 150.458C105.083 149.52 104.146 148.582 103.21 148.582C102.086 148.582 101.337 149.52 101.337 150.458C101.337 151.396 102.273 152.334 103.21 152.334Z" fill="#FFF3D2"/>
<path id="Vector_112" d="M82.0434 77.8555C88.5994 77.2926 94.2188 82.5455 94.7807 96.6158C94.7807 96.6158 94.5934 97.5538 93.0949 98.6794H91.7837C91.7837 98.6794 92.7203 90.4249 89.9106 85.172C87.4755 80.1067 82.0434 77.8555 82.0434 77.8555Z" fill="#301706"/>
<path id="Vector_113" d="M93.0947 98.8673L72.8649 99.4301L70.9918 99.6177C70.9918 99.6177 68.182 79.3565 80.1701 78.2309C80.3574 78.2309 80.5447 78.2309 80.5447 78.2309C94.2186 77.1053 93.0947 98.8673 93.0947 98.8673Z" fill="#6B2B00"/>
<path id="Vector_114" d="M72.8649 99.43L70.9918 99.6176C70.9918 99.6176 68.182 79.3565 80.1701 78.2308C80.3574 78.2308 80.5447 78.2308 80.5447 78.2308C70.6171 80.1069 72.8649 99.43 72.8649 99.43Z" fill="#492207"/>
<path id="Vector_115" d="M75.6747 88.3612C75.6747 88.3612 75.862 82.1703 80.7321 80.8571V88.3612H75.6747Z" fill="#301706"/>
<path id="Vector_116" d="M88.412 88.3612C88.412 88.3612 88.2246 82.1703 83.3545 80.8571V88.3612H88.412Z" fill="#301706"/>
<path id="Vector_117" d="M75.862 90.2372L80.7321 90.6124V96.0529H75.6747L75.862 90.2372Z" fill="#301706"/>
<path id="Vector_118" d="M83.5418 90.2372L88.412 90.6124V96.0529H83.3545L83.5418 90.2372Z" fill="#301706"/>
<path id="Vector_119" d="M95.9046 101.306C95.9046 103.182 94.5934 104.495 92.9076 104.683C88.4121 105.245 78.4845 105.996 70.9919 105.245C69.6808 105.058 68.5569 104.307 68.1822 103.182C67.9949 102.807 67.8076 102.431 67.8076 101.869V101.681C67.8076 99.9926 69.1188 98.6793 70.8046 98.3041C75.3002 97.9289 84.2912 97.1785 91.4091 97.7413C91.971 97.7413 92.3457 97.9289 92.7203 97.9289C94.5934 98.1165 95.9046 99.6174 95.9046 101.306Z" fill="#FFF3D2"/>
<path id="Vector_120" opacity="0.23" d="M95.9045 101.306C95.9045 103.182 94.5933 104.495 92.9075 104.683C88.412 105.245 78.4844 105.996 70.9918 105.245C69.6806 105.058 68.5568 104.307 68.1821 103.182C75.4874 103.557 91.2217 103.932 92.1582 100.931C92.5329 99.6174 92.3456 98.4917 91.5963 97.7413C92.1582 97.7413 92.5329 97.9289 92.9075 97.9289C94.5933 98.1165 95.9045 99.6174 95.9045 101.306Z" fill="#845100"/>
<path id="Vector_121" d="M136.552 127.57C133.929 129.634 130.932 130.009 127.561 127.758C124.751 125.882 121.754 122.692 118.008 117.627C115.947 114.813 113.887 111.249 111.452 107.309C110.89 106.371 110.515 105.433 109.953 104.495C107.893 100.743 105.832 96.428 103.584 91.9255C101.711 87.9858 99.8382 83.8585 98.1523 79.7313C96.0919 74.8536 94.0315 70.1635 92.1583 65.8486C89.5359 59.6577 87.2882 54.4048 85.6023 51.2156C84.4785 48.9643 83.5419 47.6511 83.1673 47.8387C82.7926 48.0263 82.2307 48.5891 81.4814 49.9023C80.5449 51.5908 79.2337 54.4048 77.5479 57.7817C75.3001 62.4718 72.4904 68.4751 69.1188 74.8536C66.3091 80.1065 63.1247 85.9222 59.3785 91.1751C57.88 93.4263 56.3814 95.4899 54.8829 97.7412C52.6352 100.743 50.3874 103.557 48.1397 106.371C44.5807 110.686 41.0217 114.813 37.6501 118.002C33.3419 122.317 29.221 125.506 25.662 127.195C21.5411 129.071 18.1695 129.071 15.5471 126.444C14.0486 124.944 13.4867 123.068 13.674 121.192C14.2359 116.877 17.9822 111.999 22.2904 107.497C23.0397 106.746 23.7889 105.808 24.5382 105.245C26.224 103.557 29.0337 99.9924 32.4053 95.4899C35.215 91.7379 38.212 87.2354 41.3964 82.5453C44.5807 77.8552 47.765 72.9775 50.9494 68.0999C54.1337 63.0346 57.1307 58.1569 59.5658 53.842C61.4389 50.8404 62.9374 47.8387 64.0613 45.3999C65.3725 42.7734 66.6837 39.9594 67.8076 37.1453C70.6173 30.3916 73.2397 23.4503 75.6747 17.6346C77.3606 13.5073 78.8591 10.1304 80.1703 7.8792C81.2941 5.81556 82.6053 4.68994 83.7292 4.68994C85.6023 4.68994 87.8501 10.318 90.4725 17.6346C91.4091 20.4486 92.5329 23.6379 93.4695 26.8271C94.2188 29.4536 96.2792 34.1437 98.9016 39.9594C101.337 45.7751 104.521 52.7164 107.893 59.8453C109.953 64.3478 112.201 68.8503 114.449 73.3527C117.071 78.7932 119.693 84.0461 121.941 88.5486C124.564 93.8015 126.999 98.1164 128.497 100.368C128.497 100.555 128.684 100.555 128.684 100.555C132.243 106.183 134.866 110.498 136.739 113.875C141.047 121.004 140.672 124.193 136.552 127.57Z" fill="#FFF3D2"/>
<path id="Vector_122" opacity="0.2" d="M28.659 108.997C28.2844 108.997 27.7225 108.81 27.3479 108.622C26.4113 107.872 26.4113 106.559 26.9732 105.808C27.3478 105.433 55.0702 71.2892 65.5598 48.214C66.1217 47.2759 67.2456 46.7131 68.1822 47.2759C69.1187 47.8388 69.6807 48.9644 69.1187 49.9024C58.6292 73.1652 31.4687 106.746 30.3449 108.247C29.9702 108.622 29.221 108.997 28.659 108.997Z" fill="white"/>
<path id="Vector_123" opacity="0.28" d="M136.552 127.57C133.929 129.634 130.932 130.009 127.561 127.758C124.751 125.882 121.754 122.693 118.008 117.627C115.947 114.813 113.887 111.249 111.452 107.309C110.89 106.371 110.515 105.433 109.953 104.495C107.893 100.743 105.832 96.4283 103.584 91.9258C101.711 87.9861 99.8382 83.8589 98.1523 79.7316C96.0919 74.8539 94.0315 70.1638 92.1583 65.8489C89.5359 59.658 87.2882 54.4051 85.6023 51.2159C84.4785 48.9646 83.5419 47.6514 83.1673 47.839C82.7926 48.0266 82.2307 48.5894 81.4814 49.9027C80.5449 51.5911 79.2337 54.4051 77.5479 57.782C75.3001 62.4721 72.4904 68.4754 69.1188 74.8539C66.3091 80.1068 63.1247 85.9225 59.3785 91.1754C57.88 93.4266 56.3814 95.4903 54.8829 97.7415C52.6352 100.743 50.3874 103.557 48.1397 106.371C44.5807 110.686 41.0217 114.813 37.6501 118.003C33.3419 122.318 29.221 125.507 25.662 127.195C21.5411 129.071 18.1695 129.071 15.5471 126.445C14.0486 124.944 13.4867 123.068 13.674 121.192C16.2964 124.006 21.9158 123.443 31.2814 114.251C45.7046 100.556 53.7591 90.0498 65.5598 67.1622C77.3606 44.2745 78.6717 42.5861 82.7926 42.9613C86.7262 43.1489 88.0374 56.2812 95.53 68.2878C103.022 80.2944 117.258 111.437 121.754 118.19C126.249 124.944 134.866 120.817 126.249 105.433C117.633 90.2374 94.0314 40.3349 87.6628 19.8861C85.2277 12.0068 82.7926 8.62992 80.9195 7.3167C82.0434 5.25306 83.3546 4.12744 84.4785 4.12744C86.3516 4.12744 88.5994 9.75554 91.2217 17.0721C92.1583 19.8861 93.2822 23.0754 94.2188 26.2646C94.968 28.8911 97.0285 33.5812 99.6509 39.3969C102.086 45.2126 105.27 52.1539 108.642 59.2828C110.702 63.7853 112.95 68.2878 115.198 72.7903C117.82 78.2307 120.443 83.4836 122.69 87.9861C125.313 93.239 127.748 97.5539 129.246 99.8051C129.246 99.9927 129.434 99.9927 129.434 99.9927C132.993 105.621 135.615 109.936 137.488 113.313C141.047 121.004 140.672 124.194 136.552 127.57Z" fill="#914A17"/>
<path id="Vector_124" d="M172.703 75.9793C171.766 76.5421 168.957 76.9173 165.398 77.2925C158.093 78.0429 147.978 78.4181 146.105 77.8553C145.917 77.6677 145.543 77.6677 145.355 77.4801C144.981 77.2925 144.606 77.1049 144.231 76.7297C144.044 76.5421 143.669 76.3545 143.482 76.1669C139.736 73.3529 133.929 67.3495 133.555 64.3479C133.18 60.2206 132.431 45.5876 131.869 32.2677C131.307 19.5107 131.307 8.06691 132.056 7.12889C132.805 6.19087 136.926 5.25286 141.234 4.87765C141.984 4.69005 142.546 4.69005 143.295 4.50244C143.857 4.31484 144.419 4.31484 145.168 4.31484C148.914 3.93963 152.286 3.93963 153.222 4.50244C155.283 5.62806 171.017 11.6314 171.017 12.9446C171.205 14.4454 175.887 74.2909 172.703 75.9793Z" fill="#DB7E33"/>
<path id="Vector_125" opacity="0.26" d="M145.355 76.9174V77.4802C144.981 77.2926 144.606 77.105 144.231 76.7298C144.044 76.5422 143.669 76.3546 143.482 76.167V75.4166V54.5926V53.6546V43.3364V42.9612V34.3315V29.2662V23.8257V13.1323V5.81579V4.69017C144.044 4.50256 144.606 4.50256 145.355 4.50256V4.69017C145.355 7.31661 145.355 11.2563 145.355 16.134V18.01C145.355 18.948 145.355 19.886 145.355 20.8241C145.355 21.1993 145.355 21.3869 145.355 21.5745V23.4505C145.355 24.3885 145.355 25.5141 145.355 26.6398C145.355 28.7034 145.355 30.5794 145.355 32.6431C145.355 48.2141 145.355 65.6612 145.355 76.9174Z" fill="#FFBE71"/>
<path id="Vector_126" d="M172.703 75.9794C169.519 77.6678 148.914 78.6058 146.105 77.8554C146.105 77.8554 143.482 15.1959 144.419 13.6951C145.355 12.1943 166.335 12.0067 171.017 12.9447C171.205 14.4455 175.887 74.291 172.703 75.9794Z" fill="#BF6426"/>
<g id="Group_6" opacity="0.48">
<path id="Vector_127" d="M156.032 49.3396C156.781 49.3396 157.156 48.7768 157.156 48.214C157.156 47.4636 156.594 47.0884 156.032 47.0884C155.283 47.0884 154.908 47.6512 154.908 48.214C154.908 48.7768 155.47 49.3396 156.032 49.3396Z" fill="#7C2600"/>
<path id="Vector_128" d="M155.096 66.7869C156.407 66.7869 157.343 65.8489 157.343 64.5357C157.343 63.2224 156.407 62.2844 155.096 62.2844C153.785 62.2844 152.848 63.2224 152.848 64.5357C152.661 65.8489 153.785 66.7869 155.096 66.7869Z" fill="#7C2600"/>
<path id="Vector_129" d="M165.585 52.3416C165.585 52.9044 165.023 53.4672 164.461 53.4672C163.899 53.4672 163.337 52.9044 163.337 52.3416C163.337 51.7788 163.899 51.2159 164.461 51.2159C165.023 51.2159 165.585 51.7788 165.585 52.3416Z" fill="#7C2600"/>
<path id="Vector_130" d="M169.893 38.4587C169.893 39.2091 169.144 39.9595 168.395 39.9595C167.646 39.9595 166.896 39.2091 166.896 38.4587C166.896 37.7083 167.646 36.9579 168.395 36.9579C169.144 36.9579 169.893 37.7083 169.893 38.4587Z" fill="#7C2600"/>
<path id="Vector_131" d="M137.488 42.5862C137.488 43.3366 136.926 43.8994 136.177 43.8994C135.428 43.8994 134.866 43.3366 134.866 42.5862C134.866 41.8358 135.428 41.2729 136.177 41.2729C136.926 41.2729 137.488 41.8358 137.488 42.5862Z" fill="#7C2600"/>
<path id="Vector_132" d="M139.361 61.3463C140.298 61.3463 141.234 60.5959 141.234 59.4703C141.234 58.5323 140.485 57.5942 139.361 57.5942C138.425 57.5942 137.488 58.3447 137.488 59.4703C137.488 60.4083 138.425 61.3463 139.361 61.3463Z" fill="#7C2600"/>
<path id="Vector_133" d="M142.733 54.2172C142.733 54.5924 142.358 54.9677 141.984 54.9677C141.609 54.9677 141.234 54.5924 141.234 54.2172C141.234 53.842 141.609 53.4668 141.984 53.4668C142.358 53.2792 142.733 53.842 142.733 54.2172Z" fill="#7C2600"/>
<path id="Vector_134" d="M142.546 43.3365C142.546 43.7117 142.171 44.0869 141.796 44.0869C141.422 44.0869 141.047 43.7117 141.047 43.3365C141.047 42.9613 141.422 42.5861 141.796 42.5861C142.171 42.5861 142.546 42.9613 142.546 43.3365Z" fill="#7C2600"/>
<path id="Vector_135" d="M168.395 70.7268C168.395 71.6648 167.646 72.4152 166.709 72.4152C165.772 72.4152 165.023 71.6648 165.023 70.7268C165.023 69.7887 165.772 69.0383 166.709 69.0383C167.646 69.2259 168.395 69.7887 168.395 70.7268Z" fill="#7C2600"/>
</g>
<path id="Vector_136" opacity="0.56" d="M172.703 75.9794C171.766 76.5422 168.957 76.9174 165.398 77.2926C167.271 61.5339 165.023 37.1455 163.15 37.5207C160.902 38.0835 162.775 41.4603 156.219 41.0851C149.663 40.5223 149.663 31.3298 146.105 31.5174C142.546 31.8926 137.301 43.3364 133.367 35.2694C132.805 33.9562 132.243 33.0182 131.681 32.2678C131.119 19.5108 131.119 8.06696 131.869 7.12894C133.555 5.25291 150.787 3.18927 152.848 4.5025C154.908 5.62812 170.643 11.6314 170.643 12.9446C171.205 14.4455 175.887 74.2909 172.703 75.9794Z" fill="#7C2600"/>
<path id="Vector_137" d="M172.703 34.7067C172.516 34.7067 172.141 34.7067 171.954 34.7067C167.458 33.7687 169.331 28.5158 166.709 28.3282C165.023 28.1406 164.087 31.7051 162.588 34.3315C162.026 35.2695 161.652 36.0199 160.902 36.5828C160.34 37.1456 159.778 37.3332 159.029 37.3332C158.654 37.3332 158.467 37.3332 158.093 37.3332C149.663 36.5828 149.289 26.6398 145.355 26.2646C144.981 26.2646 144.606 26.2646 144.231 26.4522C144.231 26.4522 144.231 26.4522 144.044 26.4522C143.107 26.8274 142.733 27.953 142.171 29.0786C141.609 30.7671 141.047 32.6431 138.799 33.2059C137.488 33.5811 136.364 33.5811 135.802 33.2059C134.116 32.4555 133.742 30.2042 133.18 27.5778C132.805 26.2646 132.431 25.7018 131.869 25.7018C130.745 25.3266 129.434 26.2646 128.872 25.139C127.748 23.4505 127.373 9.56788 130.557 6.19102C131.494 5.253 133.18 4.31498 135.053 3.56457C137.301 2.62655 139.923 1.87614 142.358 1.50094C142.92 1.31333 143.482 1.31333 144.231 1.12573C147.416 0.750522 150.225 0.750522 152.099 1.50094C152.66 1.68854 153.222 2.06375 153.972 2.25135C155.845 3.00176 158.093 3.93978 160.528 4.87779C161.839 6.00341 163.337 6.75383 164.836 7.50424C169.893 9.94308 174.576 12.9447 174.763 16.134C174.763 21.7621 176.075 33.9563 172.703 34.7067Z" fill="#F7E6B5"/>
<path id="Vector_138" opacity="0.23" d="M171.954 34.7064C167.458 33.7684 169.331 28.5155 166.709 28.3279C164.087 28.1403 162.963 37.5205 159.217 37.5205C150.038 37.5205 149.664 26.8271 145.73 26.4519C141.796 26.0767 143.67 32.2676 139.174 33.3932C137.863 33.7684 136.739 33.7684 136.177 33.3932C142.733 31.7048 136.926 24.7634 144.606 23.4502C152.473 22.137 154.721 32.6428 158.842 30.0163C162.776 27.3899 159.966 15.3833 161.464 12.3816C162.588 10.1304 159.404 5.8155 154.346 2.81384C160.715 5.44029 174.951 10.5056 175.138 15.9461C174.764 22.137 176.262 35.6444 171.954 34.7064Z" fill="#845100"/>
<g id="roof" clip-path="url(#clip3_666_1700)">
<g id="roof-attic-snowflakes" clip-path="url(#clip4_666_1700)">
<path id="Vector_139" d="M25.2874 105.433C26.9732 103.744 29.7829 100.368 32.9672 95.8651C36.1516 101.681 37.8374 109.185 37.8374 117.815C33.5292 121.942 29.5956 125.131 26.2239 126.82C26.2239 121.192 25.662 114.25 23.2269 107.497C23.4142 107.309 23.7889 106.934 23.9762 106.746C24.1635 106.371 24.7254 105.808 25.2874 105.433Z" fill="white" stroke="#BDA499" stroke-width="0.198507"/>
<path id="Vector_140" d="M51.5111 68.4749C56.0066 76.1666 58.4417 84.0459 59.5656 91.1749C58.0671 93.4261 56.5686 95.4897 55.0701 97.741C53.0096 100.555 50.7619 103.369 48.7014 105.996C48.1395 94.7393 44.7678 86.86 42.3328 82.7327C45.3298 78.0426 48.3268 73.3525 51.5111 68.4749Z" fill="white" stroke="#BDA499" stroke-width="0.198507"/>
<path id="Vector_141" d="M64.9978 45.3996C66.309 42.9608 67.4329 40.1467 68.7441 37.5203C73.0523 44.4616 75.862 51.7781 77.7352 57.7814C75.6747 62.2839 72.865 68.0996 69.4934 74.2905C66.871 65.0979 63.312 58.3442 60.5023 53.6541C62.1881 50.6525 63.6867 47.8384 64.9978 45.3996Z" fill="white" stroke="#BDA499" stroke-width="0.198507"/>
<path id="Vector_142" d="M96.0918 55.9054C97.2157 51.9658 98.7142 46.7129 99.8381 40.3344C102.273 45.9624 105.27 52.7162 108.455 59.4699C105.832 66.2236 102.648 73.1649 98.1523 79.1682C96.0919 74.4782 94.0314 69.7881 92.3456 65.6608C92.7202 64.5352 93.0948 63.7848 93.4695 63.0343C93.6568 62.6591 93.6568 62.4715 93.8441 62.2839V62.0963H93.6568H93.8441C93.8441 62.0963 93.8441 61.9087 94.0314 61.7211C94.2187 61.5335 94.2187 60.9707 94.406 60.4079C94.968 59.4699 95.5299 57.9691 96.0918 55.9054Z" fill="white" stroke="#BDA499" stroke-width="0.198507"/>
<path id="Vector_143" d="M122.503 88.3608C119.319 93.9889 115.385 99.617 110.14 104.307C108.08 100.555 106.019 96.4278 103.959 92.1129C107.518 88.1732 111.826 82.3575 115.198 73.7278C117.82 78.9807 120.255 83.8584 122.503 88.3608Z" fill="white" stroke="#BDA499" stroke-width="0.198507"/>
<path id="Vector_144" d="M137.113 113.687C134.491 118.377 131.307 123.068 127.56 127.382C124.938 125.506 121.941 122.317 118.195 117.439C121.566 113.312 125.687 107.872 129.246 100.555C132.805 106.183 135.24 110.311 137.113 113.687Z" fill="white" stroke="#BDA499" stroke-width="0.198507"/>
<path id="Vector_145" d="M87.4754 8.25424C88.5993 10.5055 89.7231 13.6947 91.0343 17.2592C91.0343 17.4468 90.847 18.9476 90.6597 21.0113C90.4724 23.2625 90.0978 26.2642 89.7232 29.641C88.7866 36.2071 87.4754 44.4617 85.7896 50.6526C85.4149 49.7146 84.853 48.9642 84.4784 48.4013C84.2911 48.0261 84.1037 47.8385 83.9164 47.6509L83.7291 47.4633C83.7291 47.4633 83.5418 47.4633 83.3545 47.4633C83.1672 47.4633 83.1672 47.6509 82.9799 47.6509C82.7926 47.8385 82.7925 47.8385 82.6052 48.0261C82.4179 48.2137 82.2306 48.589 82.0433 48.9642C81.294 41.2724 79.4209 27.3898 76.7985 17.0716C78.297 13.3195 79.6082 10.1303 81.1067 7.87904C81.856 6.75342 82.4179 5.8154 82.9799 5.25259C83.5418 4.68978 84.1037 4.31458 84.6657 4.31458C85.0403 4.31458 85.4149 4.68978 85.9769 5.25259C86.3515 6.19061 86.9134 7.12862 87.4754 8.25424Z" fill="white" stroke="#BDA499" stroke-width="0.198507"/>
<path id="Vector_146" d="M132.805 19.8859C132.805 20.6363 132.243 21.1991 131.494 21.1991C130.745 21.1991 130.183 20.6363 130.183 19.8859C130.183 19.1354 130.745 18.5726 131.494 18.5726C132.243 18.5726 132.805 19.1354 132.805 19.8859Z" fill="white" stroke="#BDA499" stroke-width="0.198507"/>
<path id="Vector_147" d="M139.549 10.8806C139.549 12.7567 138.05 14.4451 135.99 14.4451C134.117 14.4451 132.431 12.9443 132.431 10.8806C132.431 8.81701 134.117 7.50378 135.99 7.50378C137.863 7.50378 139.549 9.00461 139.549 10.8806Z" fill="white" stroke="#BDA499" stroke-width="0.198507"/>
<path id="Vector_148" d="M153.222 26.4516C153.222 26.8268 152.848 27.202 152.473 27.202C152.099 27.202 151.724 26.8268 151.724 26.4516C151.724 26.0764 152.099 25.7012 152.473 25.7012C152.848 25.7012 153.222 26.0764 153.222 26.4516Z" fill="white" stroke="#BDA499" stroke-width="0.198507"/>
<path id="Vector_149" d="M172.516 26.6392C172.516 27.202 172.141 27.5772 171.579 27.5772C171.017 27.5772 170.642 27.202 170.642 26.6392C170.642 26.0764 171.017 25.7012 171.579 25.7012C172.141 25.7012 172.516 26.264 172.516 26.6392Z" fill="white" stroke="#BDA499" stroke-width="0.198507"/>
<path id="Vector_150" d="M150.6 3.56412C150.6 4.68974 149.664 5.62776 148.54 5.62776C147.416 5.62776 146.479 4.68974 146.479 3.56412C146.479 2.4385 147.416 1.50049 148.54 1.50049C149.664 1.50049 150.6 2.62611 150.6 3.56412Z" fill="white" stroke="#BDA499" stroke-width="0.198507"/>
<path id="Vector_151" d="M164.648 6.94094C164.648 8.25416 163.712 9.19218 162.401 9.19218C161.09 9.19218 160.153 8.25416 160.153 6.94094C160.153 5.62771 161.09 4.6897 162.401 4.6897C163.712 4.6897 164.648 5.81532 164.648 6.94094Z" fill="white" stroke="#BDA499" stroke-width="0.198507"/>
<path id="Vector_152" d="M71.7411 136.2L72.303 137.138L69.6807 138.451L69.1187 137.138L71.7411 136.2Z" fill="white" stroke="#BDA499" stroke-width="0.198507"/>
<path id="Vector_153" d="M60.8769 120.628L62.75 118.565L63.8739 119.503L61.6261 121.379L60.8769 120.628Z" fill="white" stroke="#BDA499" stroke-width="0.198507"/>
<path id="Vector_154" d="M36.7134 124.944L35.7768 124.568L36.7134 121.754L38.2119 122.317L36.7134 124.944Z" fill="white" stroke="#BDA499" stroke-width="0.198507"/>
<path id="Vector_155" d="M106.581 118.94L106.019 119.691L103.772 118.002L104.708 116.877L106.581 118.94Z" fill="white" stroke="#BDA499" stroke-width="0.198507"/>
<path id="Vector_156" d="M77.9224 127.195L77.5478 126.257L80.1702 124.944L80.7321 126.257L77.9224 127.195Z" fill="white" stroke="#BDA499" stroke-width="0.198507"/>
<path id="Vector_157" d="M119.506 130.384L120.63 130.572L120.255 133.386L118.757 133.198L119.506 130.384Z" fill="white" stroke="#BDA499" stroke-width="0.198507"/>
<path id="Vector_158" d="M46.8284 132.26L44.7679 130.384L45.7045 129.259L47.5776 131.51L46.8284 132.26Z" fill="white" stroke="#BDA499" stroke-width="0.198507"/>
<path id="Vector_159" d="M90.4725 131.134L89.7232 131.885L87.6628 130.009L88.5993 129.071L90.4725 131.134Z" fill="white" stroke="#BDA499" stroke-width="0.198507"/>
<path id="Vector_160" d="M101.337 10.5053C101.337 11.4433 100.587 12.1938 99.6509 12.1938C98.7143 12.1938 97.965 11.4433 97.965 10.5053C97.965 9.56731 98.7143 8.81689 99.6509 8.81689C100.587 8.81689 101.337 9.3797 101.337 10.5053Z" fill="white" stroke="#BDA499" stroke-width="0.198507"/>
<path id="Vector_161" d="M107.893 31.7046C107.893 33.7682 106.207 35.2691 104.334 35.2691C102.273 35.2691 100.775 33.5806 100.775 31.7046C100.775 29.641 102.461 28.1401 104.334 28.1401C106.207 28.1401 107.893 29.641 107.893 31.7046Z" fill="white" stroke="#BDA499" stroke-width="0.198507"/>
<path id="Vector_162" d="M122.266 34.3502C122.266 35.2882 121.517 36.0386 120.581 36.0386C119.644 36.0386 118.895 35.2882 118.895 34.3502C118.895 33.4122 119.644 32.6617 120.581 32.6617C121.517 32.6617 122.266 33.4122 122.266 34.3502Z" fill="white" stroke="#BDA499" stroke-width="0.198507"/>
<path id="Vector_163" d="M114.449 44.837C114.636 44.837 114.823 44.837 114.823 45.0246C115.011 45.2122 115.011 45.3998 115.011 45.5874C115.011 45.9627 114.636 46.1503 114.449 46.1503C114.074 46.1503 113.887 45.7751 113.887 45.5874C113.887 45.0246 114.261 44.837 114.449 44.837Z" fill="white" stroke="#BDA499" stroke-width="0.198507"/>
<path id="Vector_164" d="M126.999 62.2841C126.999 64.723 124.938 66.599 122.69 66.599C120.255 66.599 118.382 64.5354 118.382 62.2841C118.382 59.8453 120.443 57.9693 122.69 57.9693C125.125 57.7817 126.999 59.8453 126.999 62.2841Z" fill="white" stroke="#BDA499" stroke-width="0.198507"/>
<path id="Vector_165" d="M132.056 89.4866C132.056 90.6122 131.12 91.5502 129.996 91.5502C128.872 91.5502 127.935 90.6122 127.935 89.4866C127.935 88.361 128.872 87.423 129.996 87.423C131.12 87.423 132.056 88.361 132.056 89.4866Z" fill="white" stroke="#BDA499" stroke-width="0.198507"/>
<path id="Vector_166" d="M145.355 100.367C145.355 101.681 144.231 102.806 142.92 102.806C141.609 102.806 140.485 101.681 140.485 100.367C140.485 99.0541 141.609 97.9285 142.92 97.9285C144.231 97.9285 145.355 99.0541 145.355 100.367Z" fill="white" stroke="#BDA499" stroke-width="0.198507"/>
<path id="Vector_167" d="M153.784 83.2958C153.972 83.2958 154.159 83.2958 154.346 83.4834C154.534 83.671 154.534 83.8586 154.534 84.0462C154.534 84.4214 154.159 84.7966 153.784 84.7966C153.41 84.7966 153.035 84.4214 153.035 84.0462C153.035 83.4834 153.41 83.2958 153.784 83.2958Z" fill="white" stroke="#BDA499" stroke-width="0.198507"/>
<path id="Vector_168" d="M174.389 86.2972C174.389 87.9856 173.078 89.4864 171.205 89.4864C169.519 89.4864 168.02 88.1732 168.02 86.2972C168.02 84.6087 169.331 83.1079 171.205 83.1079C173.078 83.1079 174.389 84.4211 174.389 86.2972Z" fill="white" stroke="#BDA499" stroke-width="0.198507"/>
<path id="Vector_169" d="M185.066 94.364C185.066 94.9268 184.504 95.4896 183.942 95.4896C183.38 95.4896 182.818 94.9268 182.818 94.364C182.818 93.8012 183.38 93.2384 183.942 93.2384C184.504 93.2384 185.066 93.8012 185.066 94.364Z" fill="white" stroke="#BDA499" stroke-width="0.198507"/>
<path id="Vector_170" d="M172.329 110.873C172.329 112.374 171.205 113.5 169.706 113.5C168.208 113.5 167.084 112.374 167.084 110.873C167.084 109.372 168.208 108.247 169.706 108.247C171.017 108.059 172.329 109.372 172.329 110.873Z" fill="white" stroke="#BDA499" stroke-width="0.198507"/>
<path id="Vector_171" d="M187.501 105.62C187.501 106.183 186.939 106.558 186.564 106.558C186.002 106.558 185.628 105.996 185.628 105.62C185.628 105.058 186.19 104.682 186.564 104.682C186.939 104.682 187.501 105.058 187.501 105.62Z" fill="white" stroke="#BDA499" stroke-width="0.198507"/>
<path id="Vector_172" d="M122.878 18.3848C122.878 18.9476 122.503 19.3228 121.941 19.3228C121.379 19.3228 121.004 18.9476 121.004 18.3848C121.004 17.822 121.379 17.4468 121.941 17.4468C122.503 17.4468 122.878 18.0096 122.878 18.3848Z" fill="white" stroke="#BDA499" stroke-width="0.198507"/>
<path id="Vector_173" d="M148.352 123.63C148.352 124.381 147.79 125.131 146.854 125.131C146.104 125.131 145.355 124.568 145.355 123.63C145.355 122.88 145.917 122.317 146.666 122.13C147.79 122.317 148.352 122.88 148.352 123.63Z" fill="white" stroke="#BDA499" stroke-width="0.198507"/>
</g>
<g id="roof-snowflakes" clip-path="url(#clip5_666_1700)">
<path id="Vector_174" d="M139.923 23.45C139.923 24.388 139.174 25.326 138.05 25.326C137.113 25.326 136.177 24.5756 136.177 23.45C136.177 22.512 136.926 21.574 138.05 21.574C138.986 21.7616 139.923 22.512 139.923 23.45Z" fill="white" stroke="#BDA499" stroke-width="0.198507"/>
<path id="Vector_175" d="M147.977 18.0095C147.977 18.9475 147.228 19.6979 146.292 19.6979C145.355 19.6979 144.606 18.9475 144.606 18.0095C144.606 17.0715 145.355 16.321 146.292 16.321C147.228 16.321 147.977 17.0715 147.977 18.0095Z" fill="white" stroke="#BDA499" stroke-width="0.198507"/>
<path id="Vector_176" d="M162.588 34.3311C162.588 35.6443 161.464 36.7699 160.153 36.7699C158.842 36.7699 157.718 35.6443 157.718 34.3311C157.718 33.0178 158.842 31.8922 160.153 31.8922C161.464 31.8922 162.588 33.0178 162.588 34.3311Z" fill="white" stroke="#BDA499" stroke-width="0.198507"/>
<path id="Vector_177" d="M157.531 19.8855C157.531 20.6359 156.969 21.0111 156.407 21.0111C155.845 21.0111 155.283 20.4483 155.283 19.8855C155.283 19.1351 155.845 18.7599 156.407 18.7599C156.969 18.7599 157.531 19.1351 157.531 19.8855Z" fill="white" stroke="#BDA499" stroke-width="0.198507"/>
<path id="Vector_178" d="M170.268 16.5085C170.268 17.4465 169.519 18.1969 168.582 18.1969C167.645 18.1969 166.896 17.4465 166.896 16.5085C166.896 15.5705 167.645 14.8201 168.582 14.8201C169.519 14.8201 170.268 15.5705 170.268 16.5085Z" fill="white" stroke="#BDA499" stroke-width="0.198507"/>
<path id="Vector_179" d="M156.219 10.8807C156.219 11.4435 155.657 12.0064 155.095 12.0064C154.346 12.0064 153.971 11.4435 153.971 10.8807C153.971 10.1303 154.533 9.75511 155.095 9.75511C155.657 9.56751 156.219 10.1303 156.219 10.8807Z" fill="white" stroke="#BDA499" stroke-width="0.198507"/>
<path id="Vector_180" d="M165.023 25.3262C165.023 26.2643 164.274 27.0147 163.337 27.0147C162.401 27.0147 161.652 26.2643 161.652 25.3262C161.652 24.3882 162.401 23.6378 163.337 23.6378C164.274 23.6378 165.023 24.5758 165.023 25.3262Z" fill="white" stroke="#BDA499" stroke-width="0.198507"/>
<path id="Vector_181" d="M142.733 4.68975C142.733 5.62777 141.983 6.56579 140.86 6.56579C139.923 6.56579 138.986 5.81537 138.986 4.68975C138.986 3.75174 139.736 2.81372 140.86 2.81372C141.983 2.81372 142.733 3.56413 142.733 4.68975Z" fill="white" stroke="#BDA499" stroke-width="0.198507"/>
<path id="Vector_182" d="M58.0672 130.196L57.1306 130.571L56.0067 127.945L57.3179 127.382L58.0672 130.196Z" fill="white" stroke="#BDA499" stroke-width="0.198507"/>
<path id="Vector_183" d="M77.3605 135.824V133.01H78.859L78.2971 135.824H77.3605Z" fill="white" stroke="#BDA499" stroke-width="0.198507"/>
<path id="Vector_184" d="M68.7439 128.695L65.9342 127.945L66.3088 126.632L68.9312 127.757L68.7439 128.695Z" fill="white" stroke="#BDA499" stroke-width="0.198507"/>
<path id="Vector_185" d="M39.5231 135.449L39.3358 136.575L36.5261 136.012L36.9008 134.699L39.5231 135.449Z" fill="white" stroke="#BDA499" stroke-width="0.198507"/>
<path id="Vector_186" d="M87.1007 120.629L84.4783 120.066L84.6656 118.753L87.4753 119.691L87.1007 120.629Z" fill="white" stroke="#BDA499" stroke-width="0.198507"/>
<path id="Vector_187" d="M75.6747 119.503L73.6142 121.379L72.6777 120.441L74.9254 118.753L75.6747 119.503Z" fill="white" stroke="#BDA499" stroke-width="0.198507"/>
<path id="Vector_188" d="M97.2157 124.381L94.406 123.63L94.7806 122.317L97.403 123.63L97.2157 124.381Z" fill="white" stroke="#BDA499" stroke-width="0.198507"/>
<path id="Vector_189" d="M109.953 125.506L110.328 126.444L107.518 127.195L107.143 125.881L109.953 125.506Z" fill="white" stroke="#BDA499" stroke-width="0.198507"/>
<path id="Vector_190" d="M127.373 136.387L125.875 138.826L124.563 137.888L126.437 135.824L127.373 136.387Z" fill="white" stroke="#BDA499" stroke-width="0.198507"/>
<path id="Vector_191" d="M124.189 125.131L123.814 126.069L121.192 124.756L121.941 123.443L124.189 125.131Z" fill="white" stroke="#BDA499" stroke-width="0.198507"/>
<path id="Vector_192" d="M98.5268 134.136L98.9014 131.322L100.213 131.509L99.2761 134.324L98.5268 134.136Z" fill="white" stroke="#BDA499" stroke-width="0.198507"/>
<path id="Vector_193" d="M51.8858 120.441L50.9493 123.067L49.6381 122.505L51.1366 120.066L51.8858 120.441Z" fill="white" stroke="#BDA499" stroke-width="0.198507"/>
<path id="Vector_194" d="M119.693 7.50375C119.693 9.19218 118.382 10.3178 116.884 10.3178C115.385 10.3178 113.887 9.19218 113.887 7.50375C113.887 5.81532 115.198 4.6897 116.696 4.6897C118.195 4.6897 119.693 6.00292 119.693 7.50375Z" fill="white" stroke="#BDA499" stroke-width="0.198507"/>
<path id="Vector_195" d="M111.639 20.2606C111.639 20.8234 111.264 21.1986 110.702 21.1986C110.14 21.1986 109.766 20.8234 109.766 20.2606C109.766 19.6978 110.14 19.3226 110.702 19.3226C111.077 19.135 111.639 19.6978 111.639 20.2606Z" fill="white" stroke="#BDA499" stroke-width="0.198507"/>
<path id="Vector_196" d="M126.624 45.2122C126.999 45.2122 127.186 45.2122 127.373 45.3998C127.56 45.5874 127.748 45.775 127.748 46.1502C127.748 46.713 127.186 47.0882 126.811 47.0882C126.249 47.0882 125.875 46.5254 125.875 46.1502C125.687 45.5874 126.249 45.2122 126.624 45.2122Z" fill="white" stroke="#BDA499" stroke-width="0.198507"/>
<path id="Vector_197" d="M108.642 42.9609C108.642 43.7113 107.893 44.4617 107.143 44.4617C106.394 44.4617 105.645 43.7113 105.645 42.9609C105.645 42.2105 106.394 41.4601 107.143 41.4601C108.08 41.4601 108.642 42.0229 108.642 42.9609Z" fill="white" stroke="#BDA499" stroke-width="0.198507"/>
<path id="Vector_198" d="M136.926 77.2921C136.926 78.4178 135.989 79.5434 134.678 79.5434C133.554 79.5434 132.43 78.6054 132.43 77.2921C132.43 76.1665 133.367 75.0409 134.678 75.0409C135.802 75.0409 136.926 75.9789 136.926 77.2921Z" fill="white" stroke="#BDA499" stroke-width="0.198507"/>
<path id="Vector_199" d="M122.69 73.3527C123.439 73.3527 124.189 73.9155 124.189 74.8535C124.189 75.7915 123.439 76.3543 122.69 76.3543C121.754 76.3543 121.192 75.6039 121.192 74.8535C121.192 73.9155 121.941 73.3527 122.69 73.3527Z" fill="white" stroke="#BDA499" stroke-width="0.198507"/>
<path id="Vector_200" d="M144.044 88.7359C144.044 89.4863 143.482 90.2368 142.546 90.2368C141.796 90.2368 141.047 89.6739 141.047 88.7359C141.047 87.9855 141.609 87.2351 142.546 87.2351C143.482 87.4227 144.044 87.9855 144.044 88.7359Z" fill="white" stroke="#BDA499" stroke-width="0.198507"/>
<path id="Vector_201" d="M158.28 95.3022C158.28 97.1782 156.781 98.679 154.908 98.679C153.035 98.679 151.537 97.1782 151.537 95.3022C151.537 93.4261 153.035 91.9253 154.908 91.9253C156.781 91.9253 158.28 93.4261 158.28 95.3022Z" fill="white" stroke="#BDA499" stroke-width="0.198507"/>
<path id="Vector_202" d="M154.908 109.747C154.908 110.685 154.159 111.248 153.41 111.248C152.66 111.248 151.911 110.498 151.911 109.747C151.911 108.809 152.66 108.247 153.41 108.247C154.159 108.247 154.908 108.809 154.908 109.747Z" fill="white" stroke="#BDA499" stroke-width="0.198507"/>
<path id="Vector_203" d="M144.606 111.624C145.543 111.624 146.292 112.186 146.292 113.312C146.292 114.25 145.543 115 144.606 115C143.669 115 142.92 114.25 142.92 113.312C142.92 112.374 143.669 111.624 144.606 111.624Z" fill="white" stroke="#BDA499" stroke-width="0.198507"/>
<path id="Vector_204" d="M173.827 100.743C173.827 101.493 173.265 101.868 172.703 101.868C172.141 101.868 171.579 101.306 171.579 100.743C171.579 100.18 172.141 99.6172 172.703 99.6172C173.265 99.6172 173.827 100.18 173.827 100.743Z" fill="white" stroke="#BDA499" stroke-width="0.198507"/>
<path id="Vector_205" d="M201.924 110.686C201.924 112.187 200.8 113.312 199.301 113.312C197.803 113.312 196.679 112.187 196.679 110.686C196.679 109.185 197.803 108.059 199.301 108.059C200.8 108.059 201.924 109.373 201.924 110.686Z" fill="white" stroke="#BDA499" stroke-width="0.198507"/>
<path id="Vector_206" d="M182.256 79.1681C182.256 79.9185 181.507 80.6689 180.757 80.6689C180.008 80.6689 179.259 79.9185 179.259 79.1681C179.259 78.4176 180.008 77.6672 180.757 77.6672C181.694 77.6672 182.256 78.4176 182.256 79.1681Z" fill="white" stroke="#BDA499" stroke-width="0.198507"/>
<path id="Vector_207" d="M99.4634 19.1351C99.4634 20.0731 98.7141 21.0111 97.5902 21.0111C96.4664 21.0111 95.7171 20.2607 95.7171 19.1351C95.7171 18.197 96.4664 17.259 97.5902 17.259C98.5268 17.4466 99.4634 18.197 99.4634 19.1351Z" fill="white" stroke="#BDA499" stroke-width="0.198507"/>
<path id="Vector_208" d="M161.09 124.756C161.09 125.506 160.528 125.881 159.966 125.881C159.404 125.881 158.842 125.318 158.842 124.756C158.842 124.193 159.404 123.63 159.966 123.63C160.528 123.63 161.09 124.005 161.09 124.756Z" fill="white" stroke="#BDA499" stroke-width="0.198507"/>
<path id="Vector_209" d="M177.573 121.004C177.573 121.754 177.011 122.129 176.449 122.129C175.887 122.129 175.325 121.566 175.325 121.004C175.325 120.253 175.887 119.878 176.449 119.878C177.011 119.878 177.573 120.253 177.573 121.004Z" fill="white" stroke="#BDA499" stroke-width="0.198507"/>
<path id="Vector_210" d="M194.619 124.568C194.619 126.069 193.307 127.382 191.809 127.382C190.31 127.382 188.999 126.257 188.999 124.568C188.999 123.067 190.123 121.754 191.809 121.754C193.495 121.754 194.619 122.88 194.619 124.568Z" fill="white" stroke="#BDA499" stroke-width="0.198507"/>
<path id="Vector_211" d="M171.954 125.881C171.954 127.195 170.83 128.32 169.519 128.32C168.207 128.32 167.083 127.195 167.083 125.881C167.083 124.568 168.207 123.443 169.519 123.443C170.83 123.255 171.954 124.381 171.954 125.881Z" fill="white" stroke="#BDA499" stroke-width="0.198507"/>
</g>
</g>
<g id="wood" clip-path="url(#clip6_666_1700)">
<path id="Vector_212" d="M214.808 189.888C214.443 189.888 214.079 189.888 213.715 189.701C206.793 189.141 202.786 188.581 206.793 182.977C208.979 179.988 210.436 176.252 211.529 173.077C212.258 170.462 212.622 167.846 212.804 166.165H218.451C218.451 166.165 217.722 175.692 220.636 182.977C223.369 190.075 221.001 190.262 214.808 189.888Z" fill="#6B2B00"/>
<path id="Vector_213" opacity="0.46" d="M214.808 189.888C216.811 188.58 218.086 187.086 217.722 185.592C217.358 182.79 216.629 173.824 213.897 173.824C212.986 173.824 212.076 173.637 211.347 173.263C212.076 170.648 212.44 168.033 212.622 166.352H218.269C218.269 166.352 217.54 175.878 220.454 183.163C223.369 190.075 221.001 190.262 214.808 189.888Z" fill="#301706"/>
<g id="wood-trunk-second-color" clip-path="url(#clip7_666_1700)">
<path id="Vector_214" d="M239.209 146.488C236.852 160.053 230.323 170 216.902 170C213.456 170 210.555 169.457 208.016 168.191C206.202 167.468 204.751 166.383 203.482 165.117C200.036 161.861 198.041 157.159 196.953 151.552C196.228 147.393 195.865 142.69 196.046 137.626C196.228 132.381 196.953 126.775 198.041 121.168C198.223 120.083 198.404 119.178 198.585 118.093C199.492 113.933 200.58 109.774 201.668 105.795C203.482 99.2839 205.658 93.1346 207.834 87.528C212.731 75.0487 217.628 66.1865 219.985 66.0057C222.162 65.8248 225.245 69.9846 228.146 76.8572C229.779 80.6553 231.592 85.1768 233.043 90.2409C234.131 93.8581 235.219 97.6561 236.126 101.454C237.214 106.337 238.121 111.221 238.846 116.285C239.391 120.444 239.753 124.604 239.935 128.583C240.116 134.913 239.935 141.062 239.209 146.488Z" fill="#E5E5E5" stroke="#BDA499" stroke-width="0.248134" stroke-miterlimit="10"/>
</g>
<g id="wood-trunk-first-color" clip-path="url(#clip8_666_1700)">
<g id="Group_7">
<path id="Vector_215" d="M239.762 127.872C239.762 134.223 239.58 140.201 238.851 145.618C227.194 154.771 213.533 160.935 203.332 164.858C200.054 161.682 198.05 156.825 196.957 151.222C219.361 143.376 232.84 134.036 239.762 127.872Z" fill="white" stroke="#BDA499" stroke-width="0.198507"/>
<path id="Vector_216" d="M236.119 99.853C237.03 104.523 237.941 109.566 238.669 114.61C224.279 126.004 206.429 132.916 196.047 136.465C196.229 131.235 196.957 125.631 198.05 120.027C216.447 113.302 228.651 105.644 236.119 99.853Z" fill="white" stroke="#BDA499" stroke-width="0.198507"/>
<path id="Vector_217" d="M227.922 74.4487C229.562 78.1846 231.201 82.8545 232.658 87.8979C222.094 95.1829 210.618 100.413 201.511 103.775C203.332 97.2377 205.336 90.8867 207.522 85.2828C215.901 81.5469 222.64 77.811 227.922 74.4487Z" fill="white" stroke="#BDA499" stroke-width="0.198507"/>
</g>
</g>
<path id="Vector_218" opacity="0.25" d="M200.6 154.584C201.146 156.825 201.875 159.441 204.061 160.001C206.611 160.748 209.161 158.32 209.525 155.705C210.072 153.089 209.161 150.474 208.797 147.672C208.25 144.123 208.25 140.387 208.979 136.652C209.525 133.85 211.347 128.993 208.25 126.751C206.247 125.257 203.332 126.191 201.693 127.872C199.325 130.674 199.325 136.278 199.143 140.014C199.325 145.057 199.689 149.914 200.6 154.584Z" fill="white"/>
<path id="Vector_219" opacity="0.28" d="M239.085 145.87C236.69 159.899 230.057 170 216.424 170C212.923 170 209.975 169.439 207.58 168.129C240.375 163.453 232.084 112.575 231.163 111.827C230.242 111.078 227.662 117.438 225.083 116.877C222.504 116.316 220.109 109.769 219.003 109.021C217.713 108.273 219.187 117.438 215.871 120.244C212.555 122.863 207.396 123.611 206.291 118.373C205.185 113.136 205.001 111.64 202.79 114.071C201.685 115.194 199.658 116.129 198 116.877C198.921 112.575 200.027 108.273 201.132 104.157C202.974 97.4236 205.185 91.0638 207.396 85.2651C212.371 72.3585 217.345 63.1929 219.74 63.0059C221.951 62.8188 225.083 67.121 228.031 74.229C229.689 78.1571 231.531 82.8334 233.005 88.0709C234.111 91.812 235.216 95.553 235.953 99.6682C237.058 104.719 237.98 109.769 238.717 115.007C239.269 119.309 239.638 123.611 239.822 127.726C240.191 134.086 240.006 140.259 239.085 145.87Z" fill="#904A17"/>
<path id="Vector_220" d="M239.58 122.082C233.205 124.323 232.84 105.831 231.383 105.831C229.926 105.831 228.651 115.731 224.644 114.05C220.636 112.368 222.094 105.083 218.997 104.71C215.901 104.336 217.176 122.082 210.254 120.027C203.332 117.972 211.165 99.8532 208.433 99.2928C205.7 98.7324 202.786 114.05 198.779 114.236C198.232 114.236 197.686 113.863 197.504 113.116C195.136 106.391 208.25 69.032 216.629 62.1206C217.54 61.3735 218.451 60.9999 219.179 60.9999C229.38 61.1867 245.955 119.653 239.58 122.082Z" fill="#F7E6B5"/>
<path id="Vector_221" opacity="0.23" d="M239.58 122.082C233.204 124.323 232.84 105.831 231.383 105.831C229.926 105.831 228.651 115.731 224.644 114.05C220.636 112.368 222.093 105.083 218.997 104.71C215.9 104.336 217.175 122.082 210.254 120.027C203.332 117.972 211.165 99.8532 208.432 99.2928C205.7 98.7324 202.786 114.05 198.779 114.236C198.232 114.236 197.686 113.863 197.503 113.116C202.786 110.314 205.7 97.9852 208.797 97.6116C211.893 97.238 207.886 117.785 212.075 117.412C216.083 117.038 215.718 103.402 219.179 102.655C222.64 101.721 223.551 109.94 225.554 110.127C227.558 110.127 226.465 100.6 229.562 100.6C232.658 100.6 231.201 89.9531 223.368 72.5811C220.818 66.9773 218.633 63.8018 216.811 62.1206C217.722 61.3735 218.633 60.9999 219.361 60.9999C229.379 61.1867 245.955 119.653 239.58 122.082Z" fill="#845100"/>
<g id="wood-snow-cap" clip-path="url(#clip9_666_1700)">
<g id="Group_8">
<path id="Vector_222" d="M210.072 75.3825C210.072 75.9429 209.525 76.5033 208.979 76.5033C208.432 76.5033 207.886 75.9429 207.886 75.3825C207.886 74.8221 208.432 74.2617 208.979 74.2617C209.525 74.2617 210.072 74.6353 210.072 75.3825Z" fill="white" stroke="#BDA499" stroke-width="0.198507"/>
<path id="Vector_223" d="M206.793 92.7544C206.793 94.6224 205.154 96.3035 203.332 96.3035C201.511 96.3035 199.871 94.6224 199.871 92.7544C199.871 90.8865 201.511 89.2053 203.332 89.2053C205.154 89.2053 206.793 90.8865 206.793 92.7544Z" fill="white" stroke="#BDA499" stroke-width="0.198507"/>
<path id="Vector_224" d="M214.808 87.5245C214.808 88.2717 214.261 88.832 213.533 88.832C212.804 88.832 212.258 88.2717 212.258 87.5245C212.258 86.7773 212.804 86.2169 213.533 86.2169C214.079 86.2169 214.808 86.7773 214.808 87.5245Z" fill="white" stroke="#BDA499" stroke-width="0.198507"/>
<path id="Vector_225" d="M214.807 99.2925C215.536 99.2925 215.9 99.8529 215.9 100.413C215.9 101.16 215.354 101.534 214.807 101.534C214.079 101.534 213.715 100.974 213.715 100.413C213.715 99.8529 214.079 99.2925 214.807 99.2925Z" fill="white" stroke="#BDA499" stroke-width="0.198507"/>
<path id="Vector_226" d="M208.979 110.5C208.979 111.247 208.432 111.621 207.886 111.621C207.157 111.621 206.793 111.06 206.793 110.5C206.793 109.753 207.34 109.379 207.886 109.379C208.432 109.379 208.979 109.94 208.979 110.5Z" fill="white" stroke="#BDA499" stroke-width="0.198507"/>
<path id="Vector_227" d="M215.901 117.785C215.901 118.906 214.99 119.653 214.079 119.653C212.986 119.653 212.258 118.719 212.258 117.785C212.258 116.851 213.168 115.917 214.079 115.917C214.99 115.917 215.901 116.664 215.901 117.785Z" fill="white" stroke="#BDA499" stroke-width="0.198507"/>
<path id="Vector_228" d="M222.276 68.6579C222.276 70.8995 220.454 72.7674 218.268 72.7674C216.083 72.7674 214.261 70.8995 214.261 68.6579C214.261 66.4164 216.083 64.5485 218.268 64.5485C220.454 64.5485 222.276 66.4164 222.276 68.6579Z" fill="white" stroke="#BDA499" stroke-width="0.198507"/>
<path id="Vector_229" d="M222.276 83.0412C222.276 84.3487 221.183 85.6563 219.726 85.6563C218.451 85.6563 217.175 84.5355 217.175 83.0412C217.175 81.7336 218.268 80.426 219.726 80.426C221.183 80.426 222.276 81.7336 222.276 83.0412Z" fill="white" stroke="#BDA499" stroke-width="0.198507"/>
<path id="Vector_230" d="M219.726 92.3811C219.726 92.5679 219.726 92.7547 219.543 92.7547C219.361 92.9414 219.361 92.9414 219.179 92.9414C218.997 92.9414 218.815 92.9414 218.815 92.7547C218.633 92.5679 218.633 92.5679 218.633 92.3811C218.633 92.1943 218.633 92.0075 218.815 92.0075C218.997 91.8207 218.997 91.8207 219.179 91.8207C219.361 91.8207 219.726 92.0075 219.726 92.3811Z" fill="white" stroke="#BDA499" stroke-width="0.198507"/>
<path id="Vector_231" d="M229.197 100.787C229.197 102.281 227.922 103.588 226.465 103.588C225.008 103.588 223.733 102.281 223.733 100.787C223.733 99.2922 225.008 97.9846 226.465 97.9846C227.922 97.9846 229.197 99.2922 229.197 100.787Z" fill="white" stroke="#BDA499" stroke-width="0.198507"/>
<path id="Vector_232" d="M240.855 111.434C240.855 112.181 240.308 112.928 239.398 112.928C238.669 112.928 237.94 112.368 237.94 111.434C237.94 110.687 238.487 109.94 239.398 109.94C240.308 109.94 240.855 110.687 240.855 111.434Z" fill="white" stroke="#BDA499" stroke-width="0.198507"/>
<path id="Vector_233" d="M229.744 86.2166C229.744 87.1505 229.015 87.8977 228.104 87.8977C227.194 87.8977 226.465 87.1505 226.465 86.2166C226.465 85.2826 227.194 84.5354 228.104 84.5354C229.015 84.5354 229.744 85.2826 229.744 86.2166Z" fill="white" stroke="#BDA499" stroke-width="0.198507"/>
<path id="Vector_234" d="M225.736 74.8221C225.736 75.1957 225.554 75.3825 225.19 75.3825C224.826 75.3825 224.643 75.1957 224.643 74.8221C224.643 74.4485 224.826 74.2617 225.19 74.2617C225.554 74.2617 225.736 74.4485 225.736 74.8221Z" fill="white" stroke="#BDA499" stroke-width="0.198507"/>
<path id="Vector_235" d="M226.283 110.313C226.283 110.874 225.919 111.247 225.372 111.247C224.826 111.247 224.461 110.874 224.461 110.313C224.461 109.753 224.826 109.379 225.372 109.379C225.919 109.379 226.283 109.753 226.283 110.313Z" fill="white" stroke="#BDA499" stroke-width="0.198507"/>
<path id="Vector_236" d="M237.394 98.7321C237.394 99.6661 236.665 100.413 235.755 100.413C234.844 100.413 234.115 99.6661 234.115 98.7321C234.115 97.7981 234.844 97.0509 235.755 97.0509C236.665 96.8642 237.394 97.6113 237.394 98.7321Z" fill="white" stroke="#BDA499" stroke-width="0.198507"/>
<path id="Vector_237" d="M235.573 113.302C235.573 114.049 235.026 114.423 234.48 114.423C233.751 114.423 233.387 113.862 233.387 113.302C233.387 112.555 233.933 112.181 234.48 112.181C235.026 112.181 235.573 112.742 235.573 113.302Z" fill="white" stroke="#BDA499" stroke-width="0.198507"/>
</g>
</g>
</g>
</g>
<defs>
<clipPath id="clip0_666_1700">
<rect width="251" height="227" fill="white"/>
</clipPath>
<clipPath id="clip1_666_1700">
<rect width="105.656" height="110.686" fill="white" transform="translate(31.0833 88.9241)"/>
</clipPath>
<clipPath id="clip2_666_1700">
<rect width="104.708" height="107.684" fill="white" transform="translate(32.0307 88.9241)"/>
</clipPath>
<clipPath id="clip3_666_1700">
<rect width="178.697" height="137.326" fill="white" transform="translate(23.2269 1.50073)"/>
</clipPath>
<clipPath id="clip4_666_1700">
<rect width="164.274" height="136.95" fill="white" transform="translate(23.2269 1.50073)"/>
</clipPath>
<clipPath id="clip5_666_1700">
<rect width="165.398" height="136.012" fill="white" transform="translate(36.5261 2.8136)"/>
</clipPath>
<clipPath id="clip6_666_1700">
<rect width="45" height="129" fill="white" transform="translate(196 61)"/>
</clipPath>
<clipPath id="clip7_666_1700">
<rect width="45" height="106" fill="white" transform="translate(196 61.8901)"/>
</clipPath>
<clipPath id="clip8_666_1700">
<rect width="43.7155" height="90.4086" fill="white" transform="translate(196.046 74.449)"/>
</clipPath>
<clipPath id="clip9_666_1700">
<rect width="40.9833" height="55.1044" fill="white" transform="translate(199.871 64.5487)"/>
</clipPath>
</defs>
</svg>
